<?xml version="1.0" encoding="UTF-8" standalone="no"?>
<svg
   xmlns:dc="http://purl.org/dc/elements/1.1/"
   xmlns:cc="http://creativecommons.org/ns#"
   xmlns:rdf="http://www.w3.org/1999/02/22-rdf-syntax-ns#"
   xmlns:svg="http://www.w3.org/2000/svg"
   xmlns="http://www.w3.org/2000/svg"
   data-kw="airplane47"
   data-id="31069"
   class="detail convertSvgInline replaced-svg"
   xml:space="preserve"
   style="display:block;fill:#000000"
  
   height="16"
   width="16"
   y="0px"
   x="0px"
 viewBox="0 0 16 16"  id="imgView"
   version="1.1"><metadata
     id="metadata11"><rdf:RDF><cc:Work
         rdf:about=""><dc:format>image/svg+xml</dc:format><dc:type
           rdf:resource="http://purl.org/dc/dcmitype/StillImage" /><dc:title></dc:title></cc:Work></rdf:RDF></metadata><defs
     id="defs9" /><rect
     style="opacity:0"
     y="1.0867933e-06"
     x="0.13528283"
     height="28.571751"
     width="28.571751"
     id="rect3341" /><g
     transform="translate(0,-25.000279)"
     id="g3"><path
   alert="false"    style="fill:#029fe4"
       id="path5"
       d="m 28.297875,25.274906 c -0.925061,-0.927563 -4.065309,0.716374 -4.990433,1.643936 l -3.704998,3.714011 -16.8534257,0 c -0.4005622,0 -0.7448744,0.28536 -0.8199369,0.679979 -0.074875,0.394555 0.1405624,0.786603 0.5131247,0.934139 l 11.1449299,4.414848 -6.8341204,6.850033 -6.46380804,0 c -0.13862491,4.37e-4 -0.25824982,0.09911 -0.2840623,0.23593 -0.02599999,0.1372 0.04856246,0.272896 0.17787487,0.323952 l 5.43924607,2.154833 c 0.031376,0.136885 0.075188,0.270826 0.1313126,0.401824 l -0.2379376,0.238997 c -0.3389996,0.339616 -0.3389996,0.889851 0,1.22984 0.3385626,0.339803 0.8885621,0.339803 1.2271242,0 l 0.2322502,-0.232672 c 0.1316245,0.05826 0.267312,0.104181 0.4056245,0.137072 l 2.0965611,5.385889 c 0.050501,0.12993 0.1861872,0.204981 0.322937,0.17961 0.058813,-0.01061 0.1108752,-0.03979 0.1509376,-0.08013 0.052939,-0.05237 0.084687,-0.125168 0.084687,-0.205045 l 0,-6.342646 6.942495,-6.958662 4.362935,11.208124 c 0.146,0.374384 0.537312,0.592021 0.931562,0.517968 0.170375,-0.03221 0.320125,-0.114832 0.435749,-0.229915 0.15225,-0.153301 0.2445,-0.363483 0.245,-0.592523 l 0,-16.892838 3.70506,-3.713947 c 0.92475,-0.927499 2.564373,-4.075174 1.639311,-5.002609 z" /></g></svg>