<?xml version="1.0" encoding="UTF-8" standalone="no"?>
<!-- Created with Inkscape (http://www.inkscape.org/) -->

<svg
   xmlns:dc="http://purl.org/dc/elements/1.1/"
   xmlns:cc="http://creativecommons.org/ns#"
   xmlns:rdf="http://www.w3.org/1999/02/22-rdf-syntax-ns#"
   xmlns:svg="http://www.w3.org/2000/svg"
   xmlns="http://www.w3.org/2000/svg"
   version="1.1"
   width="16"
   height="16"
   viewBox="0 0 16 16"
   id="svg2"
   style="fill:#ffffff">
  <defs
     id="defs4" />
  <metadata
     id="metadata7">
    <rdf:RDF>
      <cc:Work
         rdf:about="">
        <dc:format>image/svg+xml</dc:format>
        <dc:type
           rdf:resource="http://purl.org/dc/dcmitype/StillImage" />
        <dc:title></dc:title>
      </cc:Work>
    </rdf:RDF>
  </metadata>
  <g
     transform="translate(0,-1017.3622)"
     id="layer1">
    <rect
       width="16"
       height="16"
       x="0"
       y="0"
       id="rect3352"
       style="fill:#ffffff;fill-opacity:0" />
    <g
       transform="matrix(1,0,0,1.5999992,1.2311966e-6,1012.5622)"
       id="g2999"
       style="fill:#029fe4">
      <g
         transform="matrix(0.00360809,0,0,-0.00434128,-2.9244399,15.17064)"
         id="g6">
        <path
    alert="false"       d="m 812,2791 c 15,-39 315,-232 455,-292 126,-55 142,-77 53,-75 -33,1 -67,-5 -75,-14 -8,-9 5,-11 30,-5 54,13 58,-1 10,-37 -44,-33 -1,-38 59,-6 30,16 37,16 27,0 -19,-31 12,-26 58,9 50,38 105,40 74,3 -48,-58 -49,-182 -2,-224 33,-30 47,-33 54,-14 11,33 65,-7 65,-48 0,-16 9,-28 20,-28 11,0 20,14 20,30 0,48 31,35 60,-25 22,-44 28,-48 35,-20 12,52 40,43 75,-25 17,-33 36,-60 41,-60 6,0 1,18 -12,41 -12,23 -18,56 -13,75 5,22 22,2 50,-61 39,-86 79,-137 51,-65 -18,48 44,36 79,-15 l 31,-45 -11,47 c -15,59 47,34 108,-44 38,-48 146,-89 146,-55 0,11 -9,25 -20,32 -11,7 -20,25 -20,41 0,51 56,31 110,-39 32,-43 73,-71 111,-76 65,-10 75,6 29,44 -35,29 -40,80 -7,80 13,0 57,-37 99,-82 42,-46 85,-76 98,-68 12,7 35,3 51,-11 35,-29 39,3 4,38 -14,14 16,7 65,-14 50,-22 144,-46 210,-53 l 120,-13 -63,40 c -59,37 -102,83 -79,83 5,0 50,-27 99,-60 55,-37 127,-65 186,-72 l 97,-12 -65,42 c -36,23 -65,46 -65,52 0,28 112,-14 159,-59 58,-56 169,-87 189,-54 7,12 -6,31 -29,44 -23,12 -38,26 -33,31 13,14 114,-35 114,-55 0,-9 20,-16 45,-16 43,1 43,2 4,18 -41,17 -105,81 -81,81 8,0 56,-22 108,-50 51,-27 125,-50 164,-50 l 70,0 -65,40 c -77,47 -81,60 -20,60 25,0 70,-22 99,-50 67,-62 184,-74 129,-13 -53,58 -39,63 74,24 123,-42 239,-35 179,11 -31,23 -27,24 31,8 37,-10 77,-26 90,-35 33,-25 188,-33 163,-9 -11,10 -68,51 -127,90 l -108,71 93,0 c 50,0 97,-8 102,-18 6,-9 40,-36 76,-60 l 64,-42 -60,53 -60,54 150,-12 c 83,-6 186,-17 230,-24 64,-11 75,-8 56,12 -13,14 -44,27 -70,30 -25,3 -116,11 -202,19 -130,12 -155,20 -145,46 10,25 7,26 -18,6 -21,-18 -60,-21 -126,-11 l -95,14 95,48 c 112,57 126,79 23,36 -103,-43 -161,-17 -70,31 50,26 61,39 41,52 -16,10 -30,7 -34,-7 -5,-13 -22,-24 -38,-24 -16,0 -24,9 -17,20 17,28 -59,25 -136,-6 -82,-33 -146,-23 -113,18 13,15 43,28 66,29 42,0 42,1 -4,40 -60,49 -105,49 -204,-1 -84,-44 -109,-25 -34,25 67,46 -74,72 -158,30 -83,-43 -125,-20 -54,29 33,24 40,34 17,25 -90,-33 -164,-36 -122,-4 49,37 -80,65 -161,34 -73,-28 -96,-24 -67,11 29,35 21,37 -52,9 -49,-18 -51,-17 -26,13 25,30 20,32 -60,18 -62,-10 -83,-8 -73,8 20,33 -26,27 -145,-18 -59,-23 -102,-32 -95,-22 6,11 45,30 86,44 l 75,26 -90,16 c -57,10 -110,8 -144,-6 -30,-12 -66,-17 -80,-11 -17,6 -10,15 19,24 25,8 45,21 45,30 0,28 -116,43 -158,20 -59,-32 -99,-25 -54,9 61,47 -41,72 -178,44 -55,-11 -57,-10 -22,16 30,22 32,31 10,37 -15,5 -73,22 -129,39 -56,16 -127,25 -158,19 -45,-8 -54,-5 -41,17 9,15 10,22 1,15 -8,-8 -51,-1 -95,15 -45,15 -106,28 -137,28 -31,0 -62,8 -68,18 -6,10 -66,16 -134,13 -145,-5 -177,-35 -177,-165 0,-63 -8,-86 -30,-86 -20,0 -30,20 -30,62 0,47 -7,59 -30,51 -20,-8 -30,1 -30,28 0,21 -7,39 -16,39 -19,0 -17,-83 4,-116 8,-13 10,-24 4,-24 -17,0 -436,181 -536,232 -68,35 -92,40 -84,19 z"
           id="path8" />
        <path
           d="m 3960,1090 0,-390 90,0 90,0 0,199 c 0,214 13,241 118,241 63,0 82,-61 82,-259 l 0,-181 90,0 90,0 0,232 c 0,229 -1,232 -58,290 -67,66 -186,80 -253,29 -62,-47 -69,-38 -69,99 l 0,130 -90,0 -90,0 0,-390 z"
           id="path10" />
        <path
           d="m 1354,1395 c -6,-25 -61,-180 -123,-345 -62,-165 -115,-309 -117,-320 -2,-11 37,-23 87,-26 91,-6 92,-5 119,75 l 26,81 136,0 136,0 24,-80 c 24,-79 26,-80 121,-80 123,0 137,-72 -116,605 l -50,135 -116,0 c -104,0 -117,-5 -127,-45 z m 175,-279 c 17,-57 31,-106 31,-110 0,-3 -37,-6 -82,-6 -70,0 -80,5 -69,35 8,19 24,69 37,110 32,100 47,95 83,-29 z"
           id="path12" />
        <path
           d="m 2211,1246 c -41,-22 -61,-25 -67,-9 -4,13 -47,23 -96,23 l -88,0 0,-380 0,-380 90,0 90,0 0,109 0,109 99,-12 c 220,-26 319,96 305,371 -9,155 -190,247 -333,169 z m 118,-137 c 92,-93 9,-297 -115,-285 -64,6 -64,6 -70,133 -8,172 86,250 185,152 z"
           id="path14" />
        <path
           d="m 2725,1259 c -33,-13 -45,-34 -45,-81 0,-56 5,-61 45,-49 96,29 211,35 252,13 65,-35 52,-57 -42,-72 -224,-35 -295,-83 -295,-196 0,-162 217,-245 351,-134 23,20 29,19 29,-8 0,-25 20,-32 90,-32 l 90,0 0,211 c 0,243 -25,313 -122,347 -76,26 -289,27 -353,1 z m 295,-347 c 0,-64 -44,-96 -124,-88 -133,12 -81,136 58,136 56,0 66,-7 66,-48 z"
           id="path16" />
        <path
           d="m 3490,1253 c -298,-139 -196,-550 137,-556 172,-4 213,16 213,105 0,86 -7,90 -80,48 -158,-91 -313,51 -237,218 46,101 129,105 302,16 24,-12 17,152 -7,167 -46,29 -268,30 -328,2 z"
           id="path18" />
        <path
           d="m 4801,1245 c -141,-72 -200,-248 -131,-393 91,-191 550,-226 550,-42 0,81 2,79 -73,40 -92,-48 -220,-39 -279,20 -75,75 -46,90 176,90 l 201,0 -13,85 c -32,205 -236,299 -431,200 z m 238,-124 c 32,-59 29,-61 -99,-61 -66,0 -120,8 -120,19 0,77 182,113 219,42 z"
           id="path20" />
      </g>
    </g>
  </g>
</svg>
