<?xml version="1.0" encoding="UTF-8" standalone="no"?>
<svg
   xmlns:dc="http://purl.org/dc/elements/1.1/"
   xmlns:cc="http://creativecommons.org/ns#"
   xmlns:rdf="http://www.w3.org/1999/02/22-rdf-syntax-ns#"
   xmlns:svg="http://www.w3.org/2000/svg"
   xmlns="http://www.w3.org/2000/svg"
   style="fill:#2ea7e0"
   xml:space="preserve"
   enable-background="new 0 0 30 30"
   height="16"
   width="16"
   viewBox="0 0 16 16"
   y="0px"
   x="0px"
   id="application"
   version="1.1"><defs
     id="defs19" /><rect
     y="0"
     x="0"
     id="rect3"
     style="fill-opacity:0"
     height="16"
     width="16"
     viewBox="0 0 30 30" /><g
     transform="matrix(0.53685843,0,0,0.57803468,0.04631416,-0.06358377)"
     id="g5"><path
       id="path7"
       d="m 24.6,19.7 c -2.9,0 -5.3,-1 -5.3,-2.1 l 0,2.6 c 0,1.2 2.4,2.1 5.3,2.1 2.9,0 5.3,-1 5.3,-2.1 l 0,-2.6 c 0.1,1.1 -2.3,2.1 -5.3,2.1 z" /><path
       id="path9"
       d="m 24.6,16.4 c -2.9,0 -5.3,-1 -5.3,-2.1 l 0,2.6 c 0,1.2 2.4,2.1 5.3,2.1 2.9,0 5.3,-1 5.3,-2.1 l 0,-2.6 c 0.1,1.2 -2.3,2.1 -5.3,2.1 z" /><path
       id="path11"
       d="m 24.6,9 c -2.9,0 -5.3,1 -5.3,2.2 l 0,0 0,2.6 c 0,1.2 2.4,2.1 5.3,2.1 2.9,0 5.3,-1 5.3,-2.1 l 0,-2.6 C 30,9.9 27.6,9 24.6,9 Z m 0,4.2 c -2.9,0 -5.3,-0.9 -5.3,-2.1 0,-1.2 2.4,-2.1 5.3,-2.1 2.9,0 5.3,0.9 5.3,2.1 0,1.2 -2.3,2.1 -5.3,2.1 z" /><path
       id="path13"
       d="m 24.6,9.1 c -2.7,0 -4.9,0.9 -4.9,1.9 0,1.1 2.2,1.9 4.9,1.9 2.7,0 4.9,-0.9 4.9,-1.9 0,-1 -2.1,-1.9 -4.9,-1.9 z m 0,3.6 c -2.3,0 -4.2,-0.8 -4.2,-1.7 0,-0.9 1.9,-1.7 4.2,-1.7 2.3,0 4.2,0.8 4.2,1.7 0.1,1 -1.8,1.7 -4.2,1.7 z" /><path
       id="path15"
       d="m 18.8,20.6 0,0 0,-9.9 c 0,-0.9 1.3,-1.7 3.3,-2.1 -1,-2 -3,-3.3 -5.3,-3.3 C 14.2,5.3 12,7 11.2,9.4 10.8,9.3 10.3,9.2 9.9,9.2 7.6,9.2 5.7,11 5.6,13.3 c -0.3,0 -0.5,-0.1 -0.8,-0.1 -2.6,0 -4.7,2.1 -4.7,4.7 0,2.3 1.7,4.3 4,4.7 l 7.9,0 0,0 c 0,0 0.1,0 0.1,0 0,0 0.1,0 0.1,0 l 8.9,0 c -1.4,-0.6 -2.3,-1.3 -2.3,-2 z" /></g></svg>