<?xml version="1.0" encoding="UTF-8" standalone="no"?>
<!-- Created with Inkscape (http://www.inkscape.org/) -->

<svg
   xmlns:dc="http://purl.org/dc/elements/1.1/"
   xmlns:cc="http://creativecommons.org/ns#"
   xmlns:rdf="http://www.w3.org/1999/02/22-rdf-syntax-ns#"
   xmlns:svg="http://www.w3.org/2000/svg"
   xmlns="http://www.w3.org/2000/svg"
   version="1.1"
   width="16"
   height="16"
   viewBox="0 0 16 16"
   id="svg2"
   style="fill:#ffffff">
  <defs
     id="defs4" />
  <metadata
     id="metadata7">
    <rdf:RDF>
      <cc:Work
         rdf:about="">
        <dc:format>image/svg+xml</dc:format>
        <dc:type
           rdf:resource="http://purl.org/dc/dcmitype/StillImage" />
        <dc:title></dc:title>
      </cc:Work>
    </rdf:RDF>
  </metadata>
  <g
     id="layer1">
    <g
       transform="matrix(0.5,0,0,0.5,2.3515452e-7,-2.4655555e-4)"
       id="g3007">
      <g
         transform="matrix(0.07675604,0,0,0.06249994,-3.6495753,4.9301753e-4)"
         id="g3">
        <path
    alert="false"       d="m 395.748,272.046 c -0.646,-64.841 52.88,-95.938 55.271,-97.483 -30.075,-44.01 -76.925,-50.039 -93.62,-50.736 -39.871,-4.037 -77.798,23.474 -98.033,23.474 -20.184,0 -51.409,-22.877 -84.476,-22.276 -43.458,0.646 -83.529,25.269 -105.906,64.19 -45.152,78.35 -11.563,194.42 32.445,257.963 21.504,31.104 47.146,66.038 80.813,64.79 32.421,-1.294 44.681,-20.979 83.878,-20.979 39.196,0 50.215,20.979 84.524,20.335 34.888,-0.648 56.991,-31.699 78.347,-62.898 24.694,-36.084 34.862,-71.019 35.462,-72.812 -0.775,-0.354 -68.031,-26.119 -68.705,-103.568 z M 331.28,81.761 C 349.149,60.082 361.21,30.005 357.92,0 c -25.739,1.048 -56.938,17.145 -75.405,38.775 -16.57,19.188 -31.075,49.813 -27.188,79.218 28.734,2.242 58.065,-14.602 75.953,-36.232 z"
           id="path5"
           style="fill:#029fe4" />
      </g>
      <g
         transform="translate(0,-480)"
         id="g7" />
      <g
         transform="translate(0,-480)"
         id="g9" />
      <g
         transform="translate(0,-480)"
         id="g11" />
      <g
         transform="translate(0,-480)"
         id="g13" />
      <g
         transform="translate(0,-480)"
         id="g15" />
      <g
         transform="translate(0,-480)"
         id="g17" />
      <g
         transform="translate(0,-480)"
         id="g19" />
      <g
         transform="translate(0,-480)"
         id="g21" />
      <g
         transform="translate(0,-480)"
         id="g23" />
      <g
         transform="translate(0,-480)"
         id="g25" />
      <g
         transform="translate(0,-480)"
         id="g27" />
      <g
         transform="translate(0,-480)"
         id="g29" />
      <g
         transform="translate(0,-480)"
         id="g31" />
      <g
         transform="translate(0,-480)"
         id="g33" />
      <g
         transform="translate(0,-480)"
         id="g35" />
    </g>
  </g>
  <rect
     width="16"
     height="16"
     x="0"
     y="0"
     id="rect3026"
     style="fill-opacity:0" />
</svg>
