<?xml version="1.0" encoding="UTF-8" standalone="no"?>
<!-- Created with Inkscape (http://www.inkscape.org/) -->

<svg
   xmlns:dc="http://purl.org/dc/elements/1.1/"
   xmlns:cc="http://creativecommons.org/ns#"
   xmlns:rdf="http://www.w3.org/1999/02/22-rdf-syntax-ns#"
   xmlns:svg="http://www.w3.org/2000/svg"
   xmlns="http://www.w3.org/2000/svg"
   version="1.1"
   width="16"
   height="16"
   viewBox="0 0 16 16"
   id="svg2"
   style="fill:#ffffff">
  <defs
     id="defs4" />
  <metadata
     id="metadata7">
    <rdf:RDF>
      <cc:Work
         rdf:about="">
        <dc:format>image/svg+xml</dc:format>
        <dc:type
           rdf:resource="http://purl.org/dc/dcmitype/StillImage" />
        <dc:title></dc:title>
      </cc:Work>
    </rdf:RDF>
  </metadata>
  <g
     id="layer1">
    <rect
       width="16"
       height="16"
       x="0"
       y="0"
       id="rect3058"
       style="fill-opacity:0" />
    <g
       transform="scale(10.390876,11.083601)"
       id="g3023"
       style="fill:#029fe4">
      <g
         transform="matrix(0.0625,0,0,0.06148887,0,-0.03566357)"
         id="g3">
        <path
    alert="false"       d="m 18.537,6.945 -17.105,0 C 0.641,6.945 0,7.582 0,8.369 l 0,14.262 c 0,0.785 0.641,1.426 1.432,1.426 l 17.105,0 c 0.785,0 1.426,-0.641 1.426,-1.426 l 0,-14.262 c 0,-0.787 -0.641,-1.424 -1.426,-1.424 z M 6.817,8.016 c 0.395,0 0.712,0.318 0.712,0.713 0,0.393 -0.317,0.713 -0.712,0.713 -0.392,0 -0.71,-0.32 -0.71,-0.713 0,-0.395 0.319,-0.713 0.71,-0.713 z m -2.178,0 c 0.391,0 0.71,0.318 0.71,0.713 0,0.393 -0.319,0.713 -0.71,0.713 -0.397,0 -0.717,-0.32 -0.717,-0.713 0,-0.395 0.319,-0.713 0.717,-0.713 z m -2.145,0 c 0.396,0 0.715,0.318 0.715,0.713 0,0.393 -0.318,0.713 -0.715,0.713 -0.39,0 -0.709,-0.32 -0.709,-0.713 0,-0.395 0.319,-0.713 0.709,-0.713 z m 16.043,14.615 -17.105,0 0,-12.104 17.105,0 c 0,0 0,12.104 0,12.104 z m 0,-13.53 -9.978,0 0,-0.714 9.979,0 -0.001,0.714 0,0 z"
           id="path5"
           style="fill:#029fe4" />
        <path
           d="m 23.209,0.58 -17.107,0 c -0.79,0 -1.426,0.637 -1.426,1.426 l 0,4.133 1.426,0 0,-1.977 17.107,0 0,12.104 -2.483,0 0,1.426 2.483,0 c 0.786,0 1.428,-0.641 1.428,-1.426 l 0,-14.26 C 24.637,1.217 23.995,0.58 23.209,0.58 z M 7.17,3.076 c -0.394,0 -0.711,-0.316 -0.711,-0.711 0,-0.398 0.317,-0.713 0.711,-0.713 0.393,0 0.713,0.314 0.713,0.713 0,0.395 -0.321,0.711 -0.713,0.711 z m 2.139,0 c -0.396,0 -0.713,-0.316 -0.713,-0.711 0,-0.398 0.316,-0.713 0.713,-0.713 0.394,0 0.714,0.314 0.714,0.713 C 10.022,2.76 9.702,3.076 9.309,3.076 z m 2.185,0 c -0.396,0 -0.717,-0.316 -0.717,-0.711 0,-0.398 0.32,-0.713 0.717,-0.713 0.389,0 0.707,0.314 0.707,0.713 0,0.395 -0.318,0.711 -0.707,0.711 z m 11.715,-0.342 -9.98,0 0,-0.715 9.98,0 0,0.715 z"
           id="path7" />
        <g
           id="g9" />
        <g
           id="g11" />
        <g
           id="g13" />
        <g
           id="g15" />
        <g
           id="g17" />
        <g
           id="g19" />
        <g
           id="g21" />
        <g
           id="g23" />
        <g
           id="g25" />
        <g
           id="g27" />
        <g
           id="g29" />
        <g
           id="g31" />
        <g
           id="g33" />
        <g
           id="g35" />
        <g
           id="g37" />
      </g>
      <g
         transform="translate(0,-23.097187)"
         id="g39" />
      <g
         transform="translate(0,-23.097187)"
         id="g41" />
      <g
         transform="translate(0,-23.097187)"
         id="g43" />
      <g
         transform="translate(0,-23.097187)"
         id="g45" />
      <g
         transform="translate(0,-23.097187)"
         id="g47" />
      <g
         transform="translate(0,-23.097187)"
         id="g49" />
      <g
         transform="translate(0,-23.097187)"
         id="g51" />
      <g
         transform="translate(0,-23.097187)"
         id="g53" />
      <g
         transform="translate(0,-23.097187)"
         id="g55" />
      <g
         transform="translate(0,-23.097187)"
         id="g57" />
      <g
         transform="translate(0,-23.097187)"
         id="g59" />
      <g
         transform="translate(0,-23.097187)"
         id="g61" />
      <g
         transform="translate(0,-23.097187)"
         id="g63" />
      <g
         transform="translate(0,-23.097187)"
         id="g65" />
      <g
         transform="translate(0,-23.097187)"
         id="g67" />
    </g>
  </g>
</svg>
