<?xml version="1.0" encoding="UTF-8" standalone="no"?>
<svg
   xmlns:dc="http://purl.org/dc/elements/1.1/"
   xmlns:cc="http://creativecommons.org/ns#"
   xmlns:rdf="http://www.w3.org/1999/02/22-rdf-syntax-ns#"
   xmlns:svg="http://www.w3.org/2000/svg"
   xmlns="http://www.w3.org/2000/svg"
   style="fill:#1ab394"
   id="svg2"
   preserveAspectRatio="xMidYMid meet"
   viewBox="0 0 16 16"
   height="16"
   width="16"
   version="1.0">
  <defs
     id="defs38" />
  <metadata
     id="metadata4">
Created by potrace 1.10, written by Peter Selinger 2001-2011
<rdf:RDF>
  <cc:Work
     rdf:about="">
    <dc:format>image/svg+xml</dc:format>
    <dc:type
       rdf:resource="http://purl.org/dc/dcmitype/StillImage" />
    <dc:title></dc:title>
  </cc:Work>
</rdf:RDF>
</metadata>
  <rect
     y="0"
     x="0"
     height="16"
     width="16"
     id="rect3366"
     style="fill:#ffffff;fill-opacity:0" />
  <g
     id="g6"
     transform="matrix(0.00186047,0,0,-0.00266755,-0.37209302,15.041491)">
    <path
       id="path8"
       d="m 2350,4879 c -42,-17 -70,-50 -85,-103 -23,-75 -22,-2017 0,-2091 20,-65 56,-101 122,-120 50,-15 58,-15 101,1 55,20 97,56 118,100 14,30 19,552 15,1805 l -1,306 -31,39 c -16,22 -47,47 -67,56 -41,19 -132,23 -172,7 z" />
    <path
       id="path10"
       d="m 6475,4877 c -17,-8 -44,-30 -62,-50 -25,-28 -32,-47 -36,-94 -3,-32 -5,-506 -4,-1053 2,-928 3,-998 19,-1022 30,-46 71,-77 122,-94 46,-15 52,-15 103,2 63,21 98,56 113,114 7,26 10,375 8,1074 -3,1027 -3,1035 -24,1062 -38,51 -68,66 -141,71 -44,2 -78,-1 -98,-10 z" />
    <path
       id="path12"
       d="m 1355,4197 c -49,-19 -82,-46 -107,-85 l -23,-37 0,-510 c 0,-490 1,-511 20,-540 38,-59 69,-82 121,-89 85,-11 148,17 189,82 l 30,47 3,488 c 3,483 3,489 -19,533 -26,54 -72,93 -131,111 -50,15 -45,15 -83,0 z" />
    <path
       id="path14"
       d="m 3395,4186 c -41,-18 -71,-49 -95,-96 -19,-38 -20,-59 -20,-526 0,-544 -2,-525 72,-588 44,-38 101,-51 162,-37 57,14 89,41 108,94 16,42 18,100 19,534 2,527 2,524 -52,582 -45,48 -132,65 -194,37 z" />
    <path
       id="path16"
       d="m 5463,4189 c -38,-11 -89,-70 -104,-119 -7,-23 -9,-207 -7,-520 3,-478 3,-486 25,-530 13,-25 35,-53 50,-62 45,-26 112,-31 163,-13 57,20 78,40 101,93 17,40 19,79 19,533 l 1,491 -31,48 c -49,77 -127,105 -217,79 z" />
    <path
       id="path18"
       d="m 7523,4190 c -40,-17 -102,-87 -113,-129 -7,-27 -10,-199 -8,-518 l 3,-478 23,-37 c 89,-143 291,-121 336,37 13,44 16,126 16,500 0,288 -4,461 -11,489 -6,26 -28,63 -52,91 -41,46 -44,47 -107,51 -36,2 -75,0 -87,-6 z" />
    <path
       id="path20"
       d="m 308,3670 c -37,-11 -68,-34 -89,-67 -17,-25 -19,-52 -19,-291 0,-291 2,-299 63,-346 56,-43 189,-34 238,14 46,46 49,66 49,333 0,247 -1,255 -23,288 -41,63 -138,94 -219,69 z" />
    <path
       id="path22"
       d="m 4410,3658 c -35,-18 -51,-35 -72,-77 -28,-55 -28,-55 -28,-270 0,-206 1,-218 24,-267 41,-88 124,-129 214,-105 43,12 96,63 113,109 12,31 15,477 4,513 -22,69 -92,118 -170,119 -23,0 -61,-10 -85,-22 z" />
    <path
       id="path24"
       d="m 8547,3665 c -99,-35 -110,-76 -105,-390 3,-256 4,-258 73,-311 31,-23 46,-27 104,-28 60,0 73,3 106,28 74,57 75,60 75,344 l 0,252 -26,41 c -44,70 -138,96 -227,64 z" />
    <path
       id="path26"
       d="m 1665,1923 c -100,-21 -204,-48 -225,-59 -14,-7 -45,-22 -70,-33 -43,-20 -113,-66 -169,-113 -45,-38 -125,-149 -157,-218 -52,-112 -84,-243 -84,-344 0,-69 25,-205 50,-273 24,-64 102,-202 133,-234 48,-50 165,-140 220,-169 55,-29 72,-34 212,-68 125,-29 349,-20 472,21 l 38,12 3,178 c 3,204 12,189 -102,163 -175,-41 -223,-41 -361,-4 -98,27 -177,104 -231,227 -34,75 -36,194 -4,278 61,165 189,257 371,270 80,6 219,-16 270,-43 59,-30 59,-31 59,165 0,144 -3,181 -15,191 -39,32 -330,70 -410,53 z" />
    <path
       id="path28"
       d="m 3957,1920 c -218,-37 -356,-139 -417,-309 -28,-78 -30,-92 -25,-170 5,-70 13,-99 41,-156 18,-38 42,-79 51,-90 68,-77 203,-147 388,-200 96,-28 155,-83 157,-145 1,-44 -61,-106 -126,-125 -74,-22 -247,-19 -383,6 -63,12 -117,19 -120,15 -3,-3 -8,-68 -10,-143 -3,-105 -1,-143 10,-157 27,-37 412,-71 527,-46 245,53 329,101 421,239 44,66 54,113 54,246 0,118 -1,121 -34,180 -42,75 -91,127 -159,171 -62,40 -172,86 -252,104 -102,24 -153,59 -170,121 -14,47 13,98 65,124 33,16 62,19 165,20 69,0 160,-4 203,-9 l 77,-8 0,141 c 0,166 15,149 -156,181 -113,20 -221,24 -307,10 z" />
    <path
       id="path30"
       d="m 5555,1911 c -44,-10 -96,-23 -115,-27 -19,-5 -78,-31 -130,-59 -77,-40 -113,-67 -185,-140 -107,-107 -135,-156 -181,-317 -34,-117 -35,-129 -31,-238 3,-63 10,-128 16,-145 6,-16 20,-64 32,-105 29,-98 89,-190 180,-274 162,-148 331,-211 569,-211 126,0 282,24 314,48 13,10 16,42 17,181 0,97 -3,172 -9,178 -6,6 -25,4 -54,-5 -24,-9 -61,-18 -83,-22 -22,-3 -67,-11 -101,-16 -46,-8 -78,-7 -140,5 -157,29 -234,83 -292,205 -36,73 -37,80 -37,186 0,108 1,111 39,189 67,133 180,203 347,213 91,6 206,-13 263,-42 42,-22 66,-19 66,8 2,85 -2,342 -5,345 -2,2 -45,15 -97,28 -127,34 -275,40 -383,15 z" />
    <path
       id="path32"
       d="m 7145,1924 c -11,-3 -58,-14 -105,-26 -233,-57 -434,-223 -516,-423 -96,-240 -93,-444 11,-660 53,-112 81,-148 174,-230 118,-104 178,-132 394,-184 136,-32 413,12 539,87 94,56 214,169 259,245 102,171 123,242 123,417 0,118 -18,229 -45,280 -4,8 -16,33 -25,55 -30,68 -85,147 -148,213 -33,34 -64,62 -69,62 -5,0 -26,14 -47,30 -89,70 -272,129 -425,135 -55,2 -109,2 -120,-1 z m 220,-391 c 74,-24 119,-56 174,-125 71,-89 95,-153 95,-258 0,-70 -5,-95 -26,-142 -31,-67 -99,-160 -135,-183 -56,-37 -135,-56 -233,-56 -179,1 -273,56 -349,206 -40,80 -43,90 -43,172 -1,74 4,98 27,153 34,82 63,120 132,174 50,39 117,67 193,80 37,6 109,-3 165,-21 z" />
    <path
       id="path34"
       d="m 2657,1891 c -6,-2 -15,-9 -19,-15 -4,-6 -8,-331 -8,-721 0,-540 3,-714 12,-723 8,-8 61,-12 175,-12 145,0 163,2 172,18 14,27 12,1417 -3,1437 -9,13 -37,16 -164,18 -84,1 -158,0 -165,-2 z" />
  </g>
</svg>
