<?xml version="1.0" encoding="UTF-8" standalone="no"?>
<!-- Created with Inkscape (http://www.inkscape.org/) -->

<svg
   xmlns:dc="http://purl.org/dc/elements/1.1/"
   xmlns:cc="http://creativecommons.org/ns#"
   xmlns:rdf="http://www.w3.org/1999/02/22-rdf-syntax-ns#"
   xmlns:svg="http://www.w3.org/2000/svg"
   xmlns="http://www.w3.org/2000/svg"
   version="1.1"
   width="16"
   height="16"
   viewBox="0 0 16 16"
   id="svg2"
   style="fill:#ffffff">
  <defs
     id="defs4" />
  <metadata
     id="metadata7">
    <rdf:RDF>
      <cc:Work
         rdf:about="">
        <dc:format>image/svg+xml</dc:format>
        <dc:type
           rdf:resource="http://purl.org/dc/dcmitype/StillImage" />
        <dc:title></dc:title>
      </cc:Work>
    </rdf:RDF>
  </metadata>
  <g
     id="layer1">
    <rect
       width="16"
       height="16"
       x="0"
       y="0"
       id="rect3094"
       style="fill-opacity:0" />
    <g
       id="g3089"
       style="fill:#029fe4">
      <rect
         width="16"
         height="16"
         x="0"
         y="0"
         id="rect3338"
         style="fill:#ffffff;fill-opacity:0" />
      <g
         transform="translate(0,-14)"
         id="Layer_8_2_">
        <path
     alert="false"      d="m 7.7444528,17.510306 0,1.246991 C 7.7440138,19.402846 6.0104235,19.926303 3.8722462,19.926303 1.7336336,19.926347 4.751405e-4,19.402846 0,18.757341 l 0,-1.247035 c 0,0.645721 1.7336336,1.169137 3.8722067,1.169137 2.1386525,4.4e-5 3.8722461,-0.523373 3.8722461,-1.169137 z m 0,-0.236106 c 0,0.645853 -1.7335936,1.169269 -3.8722066,1.169269 C 1.7336336,18.443469 0,17.920053 0,17.2742 0,16.628435 1.7336336,16.105062 3.8722067,16.105062 6.0108592,16.105018 7.7444528,16.628435 7.7444528,17.2742 z M 5.7414139,17.2077 2.339756,16.950683 l -0.1156178,0.230146 0.1261105,0.01943 c 0.1728328,0.02696 0.3922691,0.08597 0.2904303,0.287135 l -0.031716,0.0626 0.6287708,0.04748 0.031716,-0.06273 c 0.043713,-0.08693 0.057215,-0.16132 0.040744,-0.224885 l 2.2923208,0.173068 0.1388998,-0.275208 z M 3.8722067,20.244911 C 1.7336336,20.244911 0,19.721498 0,19.075645 l 0,1.247124 c 4.751405e-4,0.645545 1.7336336,1.16905 3.8722067,1.16905 2.1381773,0 3.8717714,-0.523505 3.8722066,-1.16905 l 0,-1.247124 c 3.95e-5,0.645853 -1.7338314,1.169266 -3.8722066,1.169266 z m 0,1.574328 C 1.7336336,21.819239 0,21.295691 0,20.650013 l 0,1.247212 c 4.751405e-4,0.645237 1.7336336,1.16861 3.8722067,1.16861 2.1381773,0 3.8717714,-0.523373 3.8722066,-1.16861 l 0,-1.247212 c 3.95e-5,0.645678 -1.7338314,1.169226 -3.8722066,1.169226 z m 0,1.547233 C 1.7336336,23.366472 0,22.843011 0,22.19707 l 0,1.247343 c 4.751405e-4,0.645239 1.7336336,1.168919 3.8722067,1.168919 2.1381773,0 3.8717714,-0.52368 3.8722066,-1.168919 l 0,-1.247343 c 3.95e-5,0.646685 -1.7338314,1.169402 -3.8722066,1.169402 z m 0,1.528734 C 1.7336336,24.895206 0,24.371526 0,23.725805 l 0,1.246815 c 4.751405e-4,0.645722 1.7336336,1.169138 3.8722067,1.169138 2.1381773,0 3.8717714,-0.523372 3.8722066,-1.169138 l 0,-1.246815 c 3.95e-5,0.645721 -1.7338314,1.169401 -3.8722066,1.169401 z m 0,1.525575 C 1.7336336,26.420781 0,25.897368 0,25.251383 l 0,1.247343 c 4.751405e-4,0.645326 1.7336336,1.168918 3.8722067,1.168918 2.1381773,0 3.8717714,-0.523592 3.8722066,-1.168918 l 0,-1.247343 c 3.95e-5,0.645985 -1.7338314,1.169398 -3.8722066,1.169398 z m 4.4073746,-8.826966 0.028272,0 0,0.03166 c 0.6136053,0.123532 1.3510651,0.195996 2.1445517,0.195996 2.137939,0 3.871257,-0.523416 3.872207,-1.168917 l 0,-1.247127 c 0,0.645809 -1.733752,1.169269 -3.872207,1.169269 -2.1384936,0 -3.8722856,-0.523676 -3.8722856,-1.16953 l 0,0.469232 c 0.9291792,0.247329 1.7277339,0.689997 1.7277339,1.483144 0,0.08298 -0.011243,0.16062 -0.028272,0.236281 z M 6.5801184,15.169138 C 6.5801184,14.523372 8.3139498,14 10.452404,14 c 2.138455,0 3.872207,0.523372 3.872207,1.169138 0,0.645985 -1.733752,1.169489 -3.872207,1.169489 -2.1384936,0 -3.8722856,-0.523504 -3.8722856,-1.169489 z m 2.0024053,0.06654 3.4015783,0.256929 0.115935,-0.229926 -0.126308,-0.01933 c -0.173348,-0.0271 -0.391913,-0.08596 -0.290985,-0.287088 l 0.03231,-0.06299 -0.628731,-0.04739 -0.03124,0.06286 c -0.04423,0.08697 -0.05765,0.161452 -0.04122,0.225016 L 8.7215866,14.960565 8.582529,15.235689 z m 1.8698803,4.150942 c 2.13794,0 3.871257,-0.523373 3.872207,-1.168919 l 0,-1.247123 c 0,0.645722 -1.733752,1.16927 -3.872207,1.16927 -0.7934867,0 -1.5309459,-0.07242 -2.1445518,-0.196348 l 0,0.897173 c -5.066e-4,0.11323 -0.017739,0.218526 -0.048624,0.318082 l 0.048624,0 0,0.03166 c 0.6132891,0.124058 1.3510651,0.196216 2.1445518,0.196216 z m -2.1445518,1.34681 0,0.03183 c 0.6136059,0.123534 1.3510651,0.195952 2.1445518,0.195952 2.13794,0 3.871257,-0.523417 3.872207,-1.169006 l 0,-1.246992 c 0,0.645985 -1.733752,1.169401 -3.872207,1.169401 -0.7934867,0 -1.5309459,-0.0722 -2.1445518,-0.195952 l 0,0.887395 c -5.066e-4,0.116912 -0.019563,0.2255 -0.052069,0.327421 l 0.052069,0 z m 6.0167588,0.487646 0,-1.128502 c 0,0.390195 -0.634869,0.734492 -1.607286,0.946926 0.426836,0.02112 1.018981,0.07005 1.607286,0.181576 z m -6.0167588,0.61232 C 8.6838874,21.549991 9.245544,21.365523 9.8257317,21.245583 9.2719541,21.218351 8.7567424,21.156245 8.3078522,21.065809 l 0,0.767587 z m 3.8199018,2.232803 c -2.1386922,0 -3.8722068,-0.52368 -3.8722068,-1.169924 l 0,1.247343 c 0.00107,0.645721 1.7339504,1.169181 3.8722068,1.169181 2.13881,0 3.87181,-0.523417 3.872246,-1.169181 l 0,-1.247343 c 3.17e-4,0.646201 -1.733436,1.169924 -3.872246,1.169924 z m 0,-2.57438 c 2.13881,0 3.872246,0.523416 3.872246,1.168918 0,0.645765 -1.733436,1.169401 -3.872246,1.169401 -2.1386922,0 -3.8722068,-0.523592 -3.8722068,-1.169401 3.94e-5,-0.645502 1.7339898,-1.168918 3.8722068,-1.168918 z m 0.562369,1.133146 -2.2924,-0.173159 -0.138662,0.275388 3.401618,0.257104 0.115777,-0.230496 -0.126111,-0.01899 c -0.172674,-0.0273 -0.391754,-0.08605 -0.29043,-0.287617 l 0.03164,-0.06242 -0.628771,-0.04726 -0.03108,0.06243 c -0.0447,0.08711 -0.05836,0.161671 -0.04157,0.225017 z M 12.127754,25.6311 c -2.1386922,0 -3.8722068,-0.523636 -3.8722068,-1.169401 l 0,1.247606 c 0.00107,0.645722 1.7339504,1.16927 3.8722068,1.16927 2.13881,0 3.87181,-0.523505 3.872246,-1.16927 l 0,-1.246815 c 3.17e-4,0.644974 -1.733436,1.16861 -3.872246,1.16861 z m 0,1.574324 c -2.1386922,0 -3.8722068,-0.523372 -3.8722068,-1.169138 l 0,1.247124 c 0.00107,0.645241 1.7339504,1.168918 3.8722068,1.168918 2.13881,0 3.87181,-0.523677 3.872246,-1.168918 l 0,-1.247124 c 3.17e-4,0.646205 -1.733436,1.169138 -3.872246,1.169138 z m 0,1.548023 c -2.1386922,0 -3.8722068,-0.523723 -3.8722068,-1.169489 l 0,1.247343 C 8.2566138,29.476628 9.9894976,30 12.127754,30 14.266564,30 15.999564,29.476628 16,28.831301 l 0,-1.247343 c 3.17e-4,0.645722 -1.733436,1.169489 -3.872246,1.169489 z"
           id="path4" />
      </g>
    </g>
  </g>
</svg>
