<?xml version="1.0" encoding="UTF-8" standalone="no"?>
<svg
   xmlns:dc="http://purl.org/dc/elements/1.1/"
   xmlns:cc="http://creativecommons.org/ns#"
   xmlns:rdf="http://www.w3.org/1999/02/22-rdf-syntax-ns#"
   xmlns:svg="http://www.w3.org/2000/svg"
   xmlns="http://www.w3.org/2000/svg"
   xml:space="preserve"
   enable-background="new 0 0 30 30"
   style="fill:#2ea7e0"
   height="16"
   width="16"
   viewBox="0 0 16 16"
   y="0px"
   x="0px"
   id="container"
   version="1.1"><metadata
     id="metadata16"><rdf:RDF><cc:Work
         rdf:about=""><dc:format>image/svg+xml</dc:format><dc:type
           rdf:resource="http://purl.org/dc/dcmitype/StillImage" /><dc:title></dc:title></cc:Work></rdf:RDF></metadata><defs
     id="defs14" /><rect
     y="0"
     x="0"
     id="rect3"
     style="fill-opacity:0"
     height="16"
     width="16"
     viewBox="0 0 30 30" /><g
     transform="matrix(0.53638945,0,0,0.58492969,0.0122863,-0.50591109)"
     id="XMLID_5_"><path
       id="path6"
       d="M 0.4,8.3 C 0,8.3 -0.1,8.5 0.2,8.8 l 5.3,5.3 c 0.3,0.3 0.9,0.5 1.3,0.5 L 13.1,14 5.1,8.2 0.4,8.3 Z" /><path
       id="path8"
       d="M 29.3,4.9 19,2.7 C 18.6,2.6 18,2.8 17.7,3.1 L 16.1,5 C 16.1,5.1 16,5.1 16,5.2 L 14,3.1 C 13.8,2.7 13.3,2.5 12.9,2.6 L 4.1,4.4 C 3.7,4.5 3.5,4.8 3.7,5.2 L 5.1,8.1 16.3,5.9 c 0,0 0.1,0 0.1,0.1 l 9.1,3 -12.4,5 3.5,4.4 c 0.3,0.3 0.8,0.5 1.2,0.3 l 11.7,-5 c 0.4,-0.2 0.5,-0.5 0.1,-0.8 L 26.6,9 C 26.8,9 27,8.9 27,8.8 L 29.5,5.7 C 29.9,5.3 29.7,5 29.3,4.9 Z" /><path
       id="path10"
       d="m 17.5,19.9 c -0.4,0.2 -0.9,0 -1.2,-0.3 L 13,14.9 6.3,15.5 6.5,17.7 c 0,0.3 0.2,0.7 0.4,1 l 7.5,7.6 c 0.2,0.2 0.6,0.3 0.9,0.1 L 25.5,21.3 C 25.8,21.2 26,20.8 26,20.5 l 0.1,-4.2 -8.6,3.6 z" /></g></svg>