<?xml version="1.0" encoding="UTF-8" standalone="no"?>
<!-- Created with Inkscape (http://www.inkscape.org/) -->

<svg
   xmlns:dc="http://purl.org/dc/elements/1.1/"
   xmlns:cc="http://creativecommons.org/ns#"
   xmlns:rdf="http://www.w3.org/1999/02/22-rdf-syntax-ns#"
   xmlns:svg="http://www.w3.org/2000/svg"
   xmlns="http://www.w3.org/2000/svg"
   version="1.1"
   width="16"
   height="16"
   viewBox="0 0 16 16"
   id="svg2"
   style="fill:#ffffff">
  <defs
     id="defs4" />
  <metadata
     id="metadata7">
    <rdf:RDF>
      <cc:Work
         rdf:about="">
        <dc:format>image/svg+xml</dc:format>
        <dc:type
           rdf:resource="http://purl.org/dc/dcmitype/StillImage" />
        <dc:title></dc:title>
      </cc:Work>
    </rdf:RDF>
  </metadata>
  <g
     id="layer1">
    <rect
  alert="false"       width="16"
       height="16"
       x="0"
       y="0"
       id="rect3038"
       style="fill-opacity:0" />
    <g
       transform="scale(9.9174834,9.9174834)"
       id="g3013">
      <g
         transform="matrix(0.0625,0,0,0.0625,0,-7.6549428e-7)"
         id="g3">
        <g
           id="g5">
          <ellipse
             cx="10.813"
             cy="4.8130002"
             rx="10.813"
             ry="4.8130002"
             id="ellipse7"
             style="fill:#029fe4" />
          <path
             d="M 13.317,22.489 C 12.559,22.296 11.993,21.678 11.85,20.923 11.508,20.938 11.162,20.946 10.813,20.946 4.84,20.946 0,18.793 0,16.133 c 0,1.11 0,1.852 0,3.68 0,2.659 4.84,4.813 10.813,4.813 0.859,0 1.691,-0.049 2.493,-0.134 -0.348,-0.617 -0.364,-1.379 0.011,-2.003 z"
             id="path9"
             style="fill:#029fe4" />
          <path
    alert="false"         d="m 10.813,19.626 c 0.338,0 0.67,-0.009 1,-0.022 l 0,-0.552 c 0,-0.924 0.631,-1.719 1.514,-1.939 -0.232,-0.393 -0.317,-0.84 -0.262,-1.271 -0.727,0.068 -1.479,0.105 -2.252,0.105 C 4.84,15.947 0,13.794 0,11.134 c 0,1.11 0,1.852 0,3.68 0.001,2.658 4.84,4.812 10.813,4.812 z"
             id="path11"
             style="fill:#029fe4" />
          <path
     alert="false"          d="m 10.813,14.626 c 1.068,0 2.098,-0.071 3.073,-0.2 l 0.808,-0.808 c 0.387,-0.388 0.899,-0.586 1.415,-0.586 0.347,0 0.695,0.09 1.008,0.273 0.228,-0.871 1.018,-1.492 1.934,-1.492 l 1.5,0 c 0.027,0 0.054,0.006 0.08,0.007 0.633,-0.611 0.994,-1.29 0.994,-2.007 0,-0.977 0,-1.995 0,-3.68 0,2.659 -4.84,4.813 -10.813,4.813 -5.973,0 -10.811,-2.154 -10.811,-4.813 0,1.11 0,1.852 0,3.68 0,2.659 4.839,4.813 10.812,4.813 z"
             id="path13"
             style="fill:#029fe4" />
        </g>
        <g
           id="g15">
          <path
             d="m 25.813,20.551 0,-1.5 -1.785,-0.292 c -0.105,-0.422 -0.271,-0.819 -0.49,-1.185 l 1.04,-1.482 -1.061,-1.061 -1.464,1.053 c -0.365,-0.221 -0.765,-0.39 -1.19,-0.495 l -0.312,-1.776 -1.5,0 -0.289,1.771 c -0.426,0.104 -0.828,0.27 -1.194,0.489 l -1.46,-1.042 -1.061,1.061 1.027,1.468 c -0.223,0.368 -0.392,0.769 -0.498,1.198 l -1.763,0.293 0,1.5 1.762,0.312 c 0.105,0.429 0.274,0.831 0.498,1.199 l -1.041,1.455 1.061,1.062 1.47,-1.029 c 0.368,0.221 0.769,0.387 1.194,0.492 l 0.294,1.771 1.5,0 0.315,-1.776 c 0.423,-0.106 0.823,-0.276 1.188,-0.497 l 1.481,1.039 1.06,-1.062 -1.057,-1.467 c 0.219,-0.365 0.385,-0.763 0.489,-1.187 l 1.786,-0.312 z m -6,1.354 c -1.154,0 -2.092,-0.936 -2.092,-2.092 0,-1.154 0.938,-2.092 2.092,-2.092 1.156,0 2.092,0.938 2.092,2.092 0,1.156 -0.936,2.092 -2.092,2.092 z"
             id="path17"
             style="fill:#029fe4" />
        </g>
      </g>
      <g
         transform="translate(0,-24.199688)"
         id="g19" />
      <g
         transform="translate(0,-24.199688)"
         id="g21" />
      <g
         transform="translate(0,-24.199688)"
         id="g23" />
      <g
         transform="translate(0,-24.199688)"
         id="g25" />
      <g
         transform="translate(0,-24.199688)"
         id="g27" />
      <g
         transform="translate(0,-24.199688)"
         id="g29" />
      <g
         transform="translate(0,-24.199688)"
         id="g31" />
      <g
         transform="translate(0,-24.199688)"
         id="g33" />
      <g
         transform="translate(0,-24.199688)"
         id="g35" />
      <g
         transform="translate(0,-24.199688)"
         id="g37" />
      <g
         transform="translate(0,-24.199688)"
         id="g39" />
      <g
         transform="translate(0,-24.199688)"
         id="g41" />
      <g
         transform="translate(0,-24.199688)"
         id="g43" />
      <g
         transform="translate(0,-24.199688)"
         id="g45" />
      <g
         transform="translate(0,-24.199688)"
         id="g47" />
    </g>
  </g>
</svg>
