<?xml version="1.0" encoding="UTF-8" standalone="no"?>
<svg
   xmlns:dc="http://purl.org/dc/elements/1.1/"
   xmlns:cc="http://creativecommons.org/ns#"
   xmlns:rdf="http://www.w3.org/1999/02/22-rdf-syntax-ns#"
   xmlns:svg="http://www.w3.org/2000/svg"
   xmlns="http://www.w3.org/2000/svg"
   style="fill:#1ab394"
   id="svg2"
   preserveAspectRatio="xMidYMid meet"
   viewBox="0 0 16 16"
   height="16"
   width="16"
   version="1.0">
  <defs
     id="defs12" />
  <metadata
     id="metadata4">
Created by potrace 1.10, written by Peter Selinger 2001-2011
<rdf:RDF>
  <cc:Work
     rdf:about="">
    <dc:format>image/svg+xml</dc:format>
    <dc:type
       rdf:resource="http://purl.org/dc/dcmitype/StillImage" />
    <dc:title></dc:title>
  </cc:Work>
</rdf:RDF>
</metadata>
  <rect
     y="-14"
     x="0"
     height="30"
     width="16"
     id="rect3340"
     style="fill:#ffffff;fill-opacity:0" />
  <g
     id="g6"
     transform="matrix(0.00214809,0,0,-0.00222211,-1.6116058,18.013012)">
    <path
       id="path8"
       d="m 4050,8100 c -14,-5 -65,-14 -115,-19 -143,-17 -239,-32 -258,-42 -10,-6 -42,-13 -70,-16 -29,-3 -56,-9 -62,-13 -5,-4 -30,-11 -55,-15 -25,-4 -49,-11 -55,-15 -5,-4 -26,-11 -45,-15 -43,-8 -124,-34 -167,-52 -17,-7 -35,-13 -41,-13 -5,0 -23,-7 -38,-15 -16,-8 -37,-15 -46,-15 -9,0 -19,-4 -22,-9 -3,-5 -18,-12 -33,-15 -16,-4 -41,-13 -58,-21 -16,-7 -61,-28 -100,-46 -102,-46 -222,-107 -286,-145 -31,-19 -59,-34 -63,-34 -3,0 -25,-13 -48,-29 -24,-16 -77,-50 -118,-77 -69,-44 -268,-189 -280,-204 -3,-3 -36,-31 -75,-62 -70,-55 -275,-254 -370,-358 -57,-62 -159,-188 -195,-240 -13,-19 -29,-40 -35,-46 -12,-14 -22,-28 -85,-124 -27,-41 -54,-80 -60,-87 -5,-7 -10,-15 -10,-19 0,-3 -15,-32 -34,-63 -40,-66 -90,-158 -121,-221 -12,-25 -36,-74 -53,-110 -18,-36 -32,-69 -32,-73 0,-4 -9,-29 -21,-55 -33,-77 -52,-128 -71,-192 -5,-19 -14,-39 -18,-45 -4,-5 -11,-27 -14,-49 -4,-21 -11,-46 -16,-55 -10,-20 -29,-92 -40,-154 -5,-26 -13,-62 -19,-80 -15,-48 -31,-141 -42,-242 -5,-49 -14,-103 -19,-119 -13,-39 -13,-725 0,-779 6,-23 14,-80 20,-127 10,-97 27,-190 41,-237 6,-18 14,-54 19,-80 11,-62 30,-134 40,-154 5,-9 12,-34 16,-54 4,-21 13,-50 20,-64 8,-14 14,-35 14,-46 0,-11 7,-29 15,-39 8,-11 15,-27 15,-37 0,-9 7,-30 15,-45 8,-16 15,-37 15,-46 0,-10 4,-18 9,-18 5,0 12,-12 15,-26 7,-25 31,-80 100,-224 17,-36 50,-97 74,-136 23,-39 42,-76 42,-82 0,-6 4,-12 8,-14 4,-1 26,-32 47,-68 21,-36 50,-81 65,-101 14,-20 32,-47 40,-59 8,-12 20,-28 26,-34 6,-6 16,-21 23,-34 10,-19 20,-22 74,-22 64,1 146,23 185,51 23,16 23,20 19,165 -4,145 -17,312 -38,484 -5,47 -14,173 -20,280 -5,107 -14,265 -19,350 -5,85 -9,404 -9,709 0,304 -2,555 -4,557 -2,3 -112,1 -243,-4 -163,-5 -243,-5 -253,2 -12,9 -13,43 -7,195 4,112 11,194 19,210 11,24 19,27 87,33 41,3 118,11 170,17 52,6 130,11 173,11 53,0 79,4 82,13 5,11 16,125 35,344 4,55 13,110 19,121 6,12 11,31 11,44 0,13 7,36 15,52 8,15 15,33 15,40 0,19 88,192 132,257 194,293 545,553 993,735 17,6 47,19 68,28 21,9 44,16 51,16 8,0 27,7 42,15 16,8 36,15 45,15 9,0 30,7 45,15 16,8 40,15 55,15 14,0 29,4 35,10 5,5 32,12 59,16 28,3 59,10 70,15 19,9 57,16 210,39 39,6 95,16 125,23 73,16 571,17 591,1 8,-6 28,-14 46,-17 28,-5 130,-61 143,-77 3,-4 30,-24 60,-45 30,-21 60,-43 66,-49 6,-6 22,-18 34,-26 19,-13 92,-67 125,-92 6,-4 34,-26 63,-48 46,-36 52,-44 52,-78 0,-43 -12,-61 -115,-178 -136,-153 -149,-164 -204,-164 -55,0 -81,9 -241,86 -214,103 -281,133 -365,164 -33,12 -67,26 -75,30 -9,4 -31,11 -50,15 -19,4 -39,10 -45,14 -24,15 -149,34 -254,38 -93,3 -120,1 -150,-13 -79,-37 -148,-104 -176,-174 -4,-8 -13,-31 -21,-50 -17,-42 -31,-208 -44,-550 -5,-140 -14,-311 -20,-379 -6,-68 -8,-127 -4,-130 7,-7 804,-3 1064,5 233,8 220,17 220,-144 0,-64 -3,-127 -7,-140 -4,-16 -23,-31 -62,-48 -31,-14 -71,-32 -88,-40 -18,-8 -47,-21 -65,-29 -18,-7 -62,-27 -98,-43 -36,-16 -81,-37 -102,-46 -31,-14 -89,-16 -458,-16 l -423,0 7,-907 c 3,-500 10,-944 15,-988 5,-44 12,-188 16,-320 7,-253 25,-418 53,-473 17,-34 71,-82 92,-82 7,0 26,-6 43,-14 89,-39 327,-77 610,-96 4,0 16,-9 27,-20 18,-18 20,-33 20,-129 0,-75 -4,-112 -12,-119 -16,-12 -544,2 -658,17 -41,6 -136,13 -212,15 -75,3 -167,10 -205,16 -64,9 -169,19 -423,40 -58,5 -123,14 -145,19 -22,5 -74,12 -117,15 -42,3 -96,10 -120,15 -23,6 -79,15 -123,21 -44,6 -107,14 -140,19 -33,5 -63,6 -67,2 -9,-8 205,-214 292,-282 30,-24 57,-46 60,-49 3,-4 55,-43 115,-88 61,-45 115,-85 120,-90 14,-11 182,-114 213,-131 15,-8 29,-17 32,-20 9,-11 182,-99 305,-155 44,-21 94,-43 110,-51 17,-8 42,-17 58,-21 15,-3 30,-10 33,-15 3,-5 13,-9 22,-9 9,0 30,-7 46,-15 15,-8 33,-15 38,-15 6,0 24,-6 41,-13 43,-18 124,-44 167,-52 19,-4 40,-11 45,-15 6,-4 31,-11 57,-14 26,-4 50,-11 53,-15 2,-5 32,-11 64,-15 33,-4 63,-11 66,-16 4,-6 22,-10 42,-10 19,0 65,-7 102,-15 155,-34 255,-40 661,-39 403,0 498,6 651,39 37,8 82,15 101,15 19,0 38,4 43,9 6,5 37,14 70,19 66,12 139,30 170,43 11,5 38,13 60,18 56,14 125,35 158,49 16,7 32,12 37,12 4,0 21,7 36,15 16,8 37,15 46,15 9,0 19,4 22,9 3,5 18,12 33,15 16,4 42,13 58,21 17,8 66,30 110,51 118,54 213,102 276,140 31,19 59,34 63,34 3,0 25,13 48,29 24,16 77,50 118,77 69,44 268,189 280,204 3,3 37,31 75,62 69,55 274,253 370,358 64,70 247,301 270,341 16,28 93,143 104,156 6,7 11,15 11,19 0,3 20,40 45,81 25,40 45,78 45,83 0,5 6,15 13,22 6,7 26,42 43,78 17,36 45,94 62,130 18,36 32,69 32,73 0,9 18,52 45,112 8,17 17,42 21,58 3,15 10,30 15,33 5,3 9,15 9,27 0,12 6,34 14,48 7,14 16,43 20,64 4,20 11,45 16,54 10,20 29,92 40,154 5,26 13,62 19,80 14,46 31,139 41,232 5,44 14,103 20,130 8,33 10,170 8,410 -4,337 -14,500 -39,580 -5,17 -13,57 -18,90 -16,98 -57,267 -71,296 -5,9 -12,34 -16,54 -4,21 -13,50 -20,64 -8,14 -14,33 -14,42 0,9 -7,30 -15,45 -8,16 -15,37 -15,46 0,9 -4,19 -9,22 -5,3 -12,18 -15,33 -4,16 -14,44 -23,63 -9,19 -23,51 -31,70 -8,19 -19,42 -24,50 -4,8 -11,22 -14,30 -15,36 -78,159 -105,205 -16,28 -35,61 -42,75 -6,14 -17,31 -24,38 -7,7 -13,18 -13,23 0,5 -5,15 -11,22 -5,7 -28,40 -51,75 -22,35 -45,61 -51,59 -11,-3 -28,-79 -47,-206 -5,-36 -14,-78 -19,-95 -5,-17 -12,-52 -15,-79 -3,-26 -13,-70 -22,-98 l -17,-52 -98,6 c -54,3 -125,11 -156,16 -63,11 -225,27 -423,41 -69,5 -165,14 -215,19 -109,13 -394,29 -685,41 -118,4 -253,9 -299,11 l -85,3 -9,-34 c -5,-19 -13,-39 -18,-44 -5,-6 -9,-19 -9,-29 0,-10 -6,-33 -13,-50 -18,-42 -43,-123 -52,-164 -4,-18 -11,-35 -16,-38 -5,-4 -9,-16 -9,-28 0,-12 -7,-35 -15,-51 -8,-15 -15,-44 -15,-62 l 0,-34 103,-1 c 56,0 129,-5 162,-10 33,-4 105,-13 160,-18 55,-6 120,-15 145,-20 41,-9 97,-18 237,-41 28,-4 66,-13 85,-18 32,-10 84,-23 178,-42 25,-6 54,-14 65,-19 11,-4 67,-23 125,-41 122,-39 171,-58 281,-109 25,-11 51,-21 58,-21 6,0 11,-4 11,-10 0,-5 9,-10 19,-10 11,0 26,-6 33,-12 7,-7 33,-23 58,-36 132,-68 290,-185 418,-311 87,-86 214,-249 251,-322 12,-24 26,-51 31,-59 22,-38 70,-148 70,-161 0,-8 4,-19 9,-24 9,-9 14,-24 40,-130 33,-139 36,-167 36,-420 0,-163 -4,-281 -12,-315 -6,-30 -17,-77 -23,-105 -6,-27 -15,-70 -21,-95 -5,-24 -14,-49 -19,-54 -6,-6 -10,-19 -10,-29 0,-10 -7,-35 -16,-55 -55,-123 -76,-169 -84,-182 -5,-8 -19,-34 -30,-57 -19,-37 -69,-111 -142,-208 -12,-16 -74,-82 -138,-145 -136,-137 -254,-229 -420,-328 -39,-23 -226,-117 -280,-140 -19,-8 -47,-21 -62,-29 -14,-7 -35,-13 -45,-13 -10,0 -23,-4 -29,-9 -5,-4 -43,-18 -84,-31 -41,-12 -83,-26 -93,-31 -9,-5 -39,-12 -65,-16 -26,-3 -52,-10 -58,-15 -7,-5 -40,-13 -75,-18 -35,-5 -93,-14 -129,-19 -167,-26 -276,-33 -435,-28 -241,7 -487,24 -519,37 -15,5 -48,10 -74,10 -26,1 -67,5 -92,11 -25,5 -76,14 -114,19 -38,5 -83,14 -100,19 -17,5 -53,15 -81,21 -112,25 -140,33 -149,41 -6,5 -17,9 -27,9 -40,0 -79,54 -139,195 -5,11 -22,49 -38,85 -31,67 -63,140 -88,200 -9,19 -22,49 -29,65 -8,17 -28,62 -45,100 -17,39 -36,78 -41,87 -5,10 -9,32 -9,50 0,27 16,47 113,142 226,223 345,326 376,326 21,0 87,-73 131,-145 13,-22 27,-42 30,-45 3,-3 42,-59 86,-125 125,-187 233,-345 278,-405 66,-90 202,-219 256,-243 8,-4 35,-18 59,-32 24,-14 48,-25 54,-25 5,0 23,-6 40,-14 90,-40 213,-57 397,-57 163,0 281,17 365,51 37,15 180,84 185,90 3,3 24,17 47,32 41,27 149,129 188,178 26,32 77,116 93,153 48,109 56,151 56,284 0,131 -10,184 -51,280 -7,17 -13,33 -13,37 0,3 -15,30 -33,61 -87,144 -216,265 -392,368 -44,26 -87,52 -95,57 -8,6 -22,13 -30,16 -8,3 -44,19 -80,36 -98,45 -123,56 -145,61 -22,6 -98,33 -130,46 -38,15 -120,40 -158,46 -20,4 -40,11 -43,16 -3,5 -16,9 -28,9 -13,0 -46,6 -72,14 -157,46 -501,108 -749,136 -49,5 -110,14 -135,19 -25,6 -97,13 -160,16 -63,4 -131,12 -150,19 -32,10 -35,15 -32,46 1,19 9,47 17,64 8,16 15,36 15,44 0,7 6,28 14,45 8,18 25,64 37,102 12,39 26,74 31,80 4,5 8,18 8,30 0,11 7,33 15,49 8,15 15,36 15,45 0,9 6,28 14,43 8,15 17,40 21,57 4,17 11,33 16,36 5,4 9,16 9,28 0,12 7,35 15,51 8,15 15,36 15,45 0,9 7,29 15,45 8,15 15,35 15,43 0,8 6,29 13,46 17,39 30,78 64,182 14,44 29,85 33,90 4,6 11,26 15,45 4,19 11,40 15,45 4,6 10,21 13,35 7,34 35,111 47,132 6,10 10,26 10,35 0,10 7,31 15,46 8,15 17,43 21,63 3,19 10,37 15,40 5,3 9,13 9,22 0,9 7,30 15,46 8,15 15,36 15,45 0,9 7,29 15,45 8,15 15,35 15,43 0,8 6,29 14,46 8,18 25,64 37,102 12,39 26,74 31,79 4,6 8,19 8,29 0,10 6,33 14,50 8,18 25,64 37,102 12,39 26,74 31,79 4,6 8,19 8,29 0,10 6,33 14,50 8,18 25,64 37,102 12,39 26,74 31,79 4,6 8,19 8,29 0,10 6,33 13,50 16,37 32,83 53,147 27,84 29,85 146,72 57,-6 171,-14 253,-17 83,-3 186,-10 230,-15 76,-9 200,-20 435,-40 58,-5 123,-14 145,-19 22,-5 78,-13 124,-16 46,-3 92,-10 102,-15 10,-6 35,-10 56,-10 21,0 56,-5 78,-11 38,-10 142,-28 285,-49 36,-5 83,-14 106,-20 22,-7 55,-10 73,-8 33,3 33,3 -126,163 -194,196 -271,265 -438,389 -71,53 -134,100 -140,104 -5,4 -39,26 -74,47 -35,22 -75,48 -90,57 -14,10 -37,23 -51,28 -13,6 -27,14 -30,18 -9,12 -193,107 -315,162 -38,17 -83,38 -98,46 -16,8 -34,14 -40,14 -7,0 -24,7 -39,14 -16,8 -58,25 -95,37 -38,12 -72,26 -77,31 -6,4 -19,8 -30,8 -12,0 -34,7 -50,15 -15,8 -36,15 -46,15 -11,0 -31,5 -47,12 -33,14 -119,36 -183,47 -25,4 -61,12 -80,18 -19,6 -66,17 -105,23 -251,41 -280,43 -690,46 -225,1 -421,-1 -435,-6 z" />
  </g>
</svg>
