<?xml version="1.0" encoding="UTF-8" standalone="no"?>
<svg
   xmlns:dc="http://purl.org/dc/elements/1.1/"
   xmlns:cc="http://creativecommons.org/ns#"
   xmlns:rdf="http://www.w3.org/1999/02/22-rdf-syntax-ns#"
   xmlns:svg="http://www.w3.org/2000/svg"
   xmlns="http://www.w3.org/2000/svg"
   style="fill:#029fe4"
   data-kw="security56"
   data-id="13724"
   height="16"
   width="16"
   class="detail convertSvgInline replaced-svg"
   xml:space="preserve"
   viewBox="0 0 16 16"
   y="0px"
   x="0px"
   id="imgView"
   version="1.1"><metadata
     id="metadata11"><rdf:RDF><cc:Work
         rdf:about=""><dc:format>image/svg+xml</dc:format><dc:type
           rdf:resource="http://purl.org/dc/dcmitype/StillImage" /><dc:title></dc:title></cc:Work></rdf:RDF></metadata><defs
     id="defs9" /><rect
     y="0"
     x="0"
     height="16"
     width="16"
     id="rect3340"
     style="fill:#ffffff;fill-opacity:0" /><path
     id="path5"
     d="M 8.4501514,6.6228427 9.2802634,4.673584 C 9.320786,4.544736 9.3372404,4.421472 9.3578666,4.2940427 l -2.6619989,0 0,2.896368 1.4851552,0 c 0.087153,-0.1908054 0.1778064,-0.378832 0.2691285,-0.567568 z m -3.1110661,-2.3288 -5.33154143,0 0,2.896368 5.33154143,0 0,-2.896368 z m -2.1264159,4.3832106 0,2.8977597 4.0070676,0 c -0.044624,-0.234682 -0.071396,-0.47217 -0.071396,-0.713818 0,-0.753531 0.1654875,-1.4777763 0.410584,-2.1839417 0,0 -4.3462553,0 -4.3462553,0 z m -1.2173639,0 -1.9953055,0 0,2.8977597 1.9953055,0 0,-2.8977597 z M 1.9953055,0 0,0 l 0,2.898464 1.9953055,0 0,-2.898464 z m 5.8842491,13.100853 -1.1837189,0 0,2.89847 5.3301733,0 0,-0.942944 C 10.790788,15.144129 9.5130095,14.714453 8.5613679,13.869008 8.2963455,13.632912 8.0718122,13.375211 7.8795546,13.100853 Z M 0.00754387,16 l 5.33154143,0 0,-2.898464 -5.33154143,0 0,2.898464 z M 13.94648,4.7822507 c 0,0 0.333013,1.2361226 0.139387,2.1644426 -0.159281,0.7688267 -0.804711,1.5467307 -0.804711,1.5467307 0,0 0.831481,-1.4067467 -0.443561,-3.7696693 C 11.968332,3.1136427 9.6764282,1.911648 9.6764282,1.911648 c 0,0 1.1081848,1.6881067 0.5547768,3.4319093 -0.5547768,1.744512 -1.9410664,3.6011467 -1.9410664,5.5134717 0,1.913035 1.9994114,3.420059 3.9686164,3.156134 1.969904,-0.263254 3.796284,-1.552288 3.739976,-4.4800057 -0.05354,-2.8184 -2.052251,-4.7509066 -2.052251,-4.7509066 z M 8.7859013,0 3.2126694,0 l 0,2.898464 5.5732319,0 0,-2.898464 z m 3.2387387,0 -1.995974,0 0,0.910208 c 0.464824,0.266736 1.327212,0.782064 1.995974,1.313408 L 12.02464,0 Z" /></svg>