<?xml version="1.0" encoding="UTF-8" standalone="no"?>
<!-- Created with Inkscape (http://www.inkscape.org/) -->

<svg
   xmlns:dc="http://purl.org/dc/elements/1.1/"
   xmlns:cc="http://creativecommons.org/ns#"
   xmlns:rdf="http://www.w3.org/1999/02/22-rdf-syntax-ns#"
   xmlns:svg="http://www.w3.org/2000/svg"
   xmlns="http://www.w3.org/2000/svg"
   version="1.1"
   width="16"
   height="16"
   viewBox="0 0 16 16"
   id="svg2"
   style="fill:#ffffff">
  <defs
     id="defs4" />
  <metadata
     id="metadata7">
    <rdf:RDF>
      <cc:Work
         rdf:about="">
        <dc:format>image/svg+xml</dc:format>
        <dc:type
           rdf:resource="http://purl.org/dc/dcmitype/StillImage" />
        <dc:title></dc:title>
      </cc:Work>
    </rdf:RDF>
  </metadata>
  <g
     id="layer1">
    <rect
       width="16"
       height="16"
       x="0"
       y="0"
       id="rect3032"
       style="fill-opacity:0" />
    <g
       transform="matrix(2.0992898,0,0,2.0992898,6.1200939e-4,0.36200922)"
       id="g3010"
       style="fill:#029fe4">
      <g
         transform="matrix(0.06249944,0,0,0.06267656,-2.7331107e-4,-0.1831808)"
         id="g3">
        <g
           id="g5">
          <path
             d="m 50.077,98.919 -2.78,-1.024 c 0.219,-2.027 0.147,-4.093 -0.234,-6.146 l 2.684,-1.237 c 1.677,-0.771 2.412,-2.765 1.639,-4.441 l -1.567,-3.4 C 49.047,80.995 47.056,80.258 45.382,81.03 l -2.688,1.239 c -1.313,-1.627 -2.837,-3.023 -4.519,-4.176 l 1.026,-2.775 c 0.638,-1.731 -0.25,-3.661 -1.98,-4.301 l -3.515,-1.298 c -1.677,-0.617 -3.68,0.305 -4.298,1.979 l -1.025,2.778 C 26.358,74.26 24.292,74.33 22.237,74.709 L 21,72.024 c -0.772,-1.676 -2.765,-2.412 -4.439,-1.641 l -3.403,1.565 c -1.676,0.773 -2.41,2.768 -1.64,4.441 l 1.237,2.684 c -1.624,1.315 -3.023,2.839 -4.174,4.523 L 5.807,82.57 c -1.675,-0.624 -3.681,0.3 -4.302,1.979 l -1.297,3.515 c -0.309,0.84 -0.273,1.749 0.1,2.561 0.376,0.812 1.044,1.43 1.88,1.735 l 2.78,1.028 c -0.22,2.024 -0.148,4.094 0.234,6.146 l -2.687,1.237 c -1.676,0.771 -2.41,2.763 -1.639,4.438 l 1.568,3.404 c 0.772,1.675 2.763,2.411 4.438,1.638 l 2.687,-1.235 c 1.313,1.626 2.836,3.021 4.52,4.174 l -1.026,2.777 c -0.312,0.838 -0.276,1.745 0.1,2.559 0.371,0.812 1.041,1.432 1.879,1.743 l 3.515,1.296 c 0.836,0.31 1.747,0.273 2.559,-0.099 0.813,-0.375 1.43,-1.043 1.738,-1.882 l 1.027,-2.779 c 2.025,0.22 4.093,0.147 6.147,-0.231 l 1.235,2.685 c 0.772,1.674 2.766,2.41 4.44,1.638 l 3.402,-1.566 c 1.678,-0.771 2.413,-2.763 1.639,-4.439 l -1.237,-2.685 c 1.626,-1.314 3.024,-2.838 4.173,-4.52 l 2.778,1.027 c 0.841,0.311 1.75,0.272 2.563,-0.103 0.81,-0.374 1.426,-1.042 1.736,-1.879 l 1.297,-3.515 c 0.641,-1.729 -0.247,-3.657 -1.977,-4.298 z m -18.408,8.743 c -1.754,0.809 -3.615,1.216 -5.533,1.216 -5.152,0 -9.872,-3.022 -12.025,-7.697 -3.052,-6.631 -0.144,-14.507 6.483,-17.559 1.753,-0.809 3.614,-1.217 5.529,-1.217 5.151,0 9.875,3.021 12.029,7.697 3.052,6.631 0.143,14.507 -6.483,17.56 z"
             id="path7" />
          <path
    alert="false"         d="m 83.179,108.5 -1.547,-0.569 c 0.123,-1.129 0.082,-2.28 -0.131,-3.423 l 1.494,-0.689 c 0.935,-0.428 1.344,-1.538 0.913,-2.473 l -0.872,-1.894 c -0.432,-0.935 -1.539,-1.346 -2.471,-0.914 l -1.497,0.689 c -0.73,-0.905 -1.58,-1.685 -2.515,-2.325 l 0.57,-1.546 c 0.355,-0.964 -0.14,-2.037 -1.103,-2.396 l -1.958,-0.722 c -0.934,-0.346 -2.048,0.168 -2.394,1.102 l -0.571,1.548 c -1.126,-0.121 -2.278,-0.081 -3.421,0.13 L 66.988,93.525 C 66.556,92.591 65.447,92.18 64.514,92.611 l -1.895,0.873 c -0.934,0.432 -1.342,1.54 -0.913,2.473 l 0.689,1.495 c -0.905,0.732 -1.684,1.581 -2.326,2.519 l -1.544,-0.57 c -0.931,-0.347 -2.049,0.165 -2.394,1.101 l -0.724,1.958 c -0.171,0.468 -0.15,0.975 0.055,1.427 0.21,0.45 0.583,0.795 1.049,0.966 l 1.547,0.572 c -0.123,1.129 -0.083,2.278 0.13,3.423 l -1.495,0.688 c -0.934,0.431 -1.343,1.538 -0.913,2.472 l 0.874,1.896 c 0.429,0.932 1.538,1.343 2.471,0.913 l 1.495,-0.688 c 0.731,0.905 1.581,1.683 2.519,2.323 l -0.571,1.545 c -0.174,0.468 -0.154,0.975 0.055,1.427 0.208,0.451 0.579,0.797 1.048,0.971 l 1.956,0.722 c 0.467,0.172 0.972,0.152 1.425,-0.056 0.453,-0.208 0.797,-0.58 0.968,-1.046 l 0.571,-1.55 c 1.129,0.123 2.278,0.084 3.423,-0.129 l 0.688,1.495 c 0.43,0.932 1.539,1.343 2.471,0.911 l 1.896,-0.872 c 0.934,-0.432 1.342,-1.538 0.912,-2.472 l -0.688,-1.496 c 0.904,-0.731 1.684,-1.578 2.323,-2.516 l 1.547,0.57 c 0.468,0.175 0.975,0.152 1.428,-0.056 0.449,-0.207 0.795,-0.581 0.967,-1.047 l 0.722,-1.957 c 0.356,-0.964 -0.139,-2.04 -1.101,-2.396 z m -10.25,4.87 c -0.977,0.448 -2.012,0.677 -3.08,0.677 -2.868,0 -5.497,-1.684 -6.696,-4.287 -1.7,-3.69 -0.082,-8.077 3.61,-9.775 0.976,-0.45 2.012,-0.677 3.079,-0.677 2.867,0 5.496,1.682 6.696,4.285 1.698,3.691 0.08,8.075 -3.609,9.777 z"
             id="path9" />
          <path
   alert="false"            d="m 118.269,49.597 -4.673,-1.725 c 0.369,-3.407 0.248,-6.882 -0.393,-10.337 l 4.514,-2.077 c 2.816,-1.294 4.052,-4.647 2.754,-7.468 l -2.634,-5.718 c -1.298,-2.819 -4.646,-4.059 -7.461,-2.759 l -4.519,2.084 c -2.208,-2.735 -4.771,-5.082 -7.596,-7.02 L 99.984,9.909 C 101.056,6.998 99.566,3.754 96.656,2.68 L 90.747,0.494 c -2.818,-1.036 -6.186,0.515 -7.228,3.33 L 81.795,8.497 C 78.39,8.131 74.914,8.252 71.462,8.888 l -2.08,-4.51 C 68.084,1.559 64.736,0.322 61.917,1.62 l -5.72,2.634 c -2.818,1.299 -4.055,4.65 -2.759,7.466 l 2.083,4.513 c -2.731,2.211 -5.083,4.773 -7.02,7.603 l -4.665,-1.724 c -2.815,-1.049 -6.188,0.504 -7.23,3.324 l -2.181,5.912 c -0.521,1.41 -0.46,2.938 0.166,4.304 0.634,1.364 1.758,2.403 3.163,2.917 l 4.673,1.73 c -0.371,3.403 -0.25,6.882 0.392,10.335 l -4.514,2.078 c -2.819,1.299 -4.053,4.645 -2.756,7.461 l 2.635,5.724 c 1.298,2.813 4.646,4.054 7.463,2.755 l 4.515,-2.08 c 2.208,2.735 4.771,5.083 7.602,7.019 l -1.726,4.669 c -0.524,1.407 -0.463,2.936 0.167,4.303 0.626,1.364 1.751,2.406 3.159,2.929 l 5.909,2.179 c 1.409,0.521 2.938,0.461 4.303,-0.164 1.367,-0.63 2.404,-1.754 2.922,-3.163 l 1.729,-4.675 c 3.404,0.371 6.879,0.25 10.336,-0.389 l 2.076,4.512 c 1.298,2.814 4.648,4.056 7.466,2.755 l 5.72,-2.634 c 2.821,-1.3 4.054,-4.646 2.755,-7.464 l -2.079,-4.513 c 2.732,-2.213 5.084,-4.771 7.017,-7.601 l 4.672,1.729 c 1.411,0.521 2.94,0.459 4.307,-0.171 1.362,-0.628 2.398,-1.753 2.919,-3.159 l 2.184,-5.911 c 1.071,-2.909 -0.422,-6.153 -3.331,-7.226 z M 87.322,64.294 c -2.95,1.357 -6.078,2.046 -9.301,2.046 -8.663,0 -16.597,-5.082 -20.22,-12.945 C 52.669,42.249 57.559,29.007 68.7,23.876 c 2.947,-1.359 6.077,-2.045 9.297,-2.045 8.662,0 16.601,5.079 20.224,12.94 5.13,11.149 0.242,24.392 -10.899,29.523 z"
             id="path11" />
        </g>
      </g>
      <g
         transform="translate(0,-114.32437)"
         id="g13" />
      <g
         transform="translate(0,-114.32437)"
         id="g15" />
      <g
         transform="translate(0,-114.32437)"
         id="g17" />
      <g
         transform="translate(0,-114.32437)"
         id="g19" />
      <g
         transform="translate(0,-114.32437)"
         id="g21" />
      <g
         transform="translate(0,-114.32437)"
         id="g23" />
      <g
         transform="translate(0,-114.32437)"
         id="g25" />
      <g
         transform="translate(0,-114.32437)"
         id="g27" />
      <g
         transform="translate(0,-114.32437)"
         id="g29" />
      <g
         transform="translate(0,-114.32437)"
         id="g31" />
      <g
         transform="translate(0,-114.32437)"
         id="g33" />
      <g
         transform="translate(0,-114.32437)"
         id="g35" />
      <g
         transform="translate(0,-114.32437)"
         id="g37" />
      <g
         transform="translate(0,-114.32437)"
         id="g39" />
      <g
         transform="translate(0,-114.32437)"
         id="g41" />
    </g>
  </g>
</svg>
