<?xml version="1.0" encoding="UTF-8" standalone="no"?>
<svg
   xmlns:dc="http://purl.org/dc/elements/1.1/"
   xmlns:cc="http://creativecommons.org/ns#"
   xmlns:rdf="http://www.w3.org/1999/02/22-rdf-syntax-ns#"
   xmlns:svg="http://www.w3.org/2000/svg"
   xmlns="http://www.w3.org/2000/svg"
   style="fill:#1ab394"
   id="svg2"
   preserveAspectRatio="xMidYMid meet"
   viewBox="0 0 16 16"
   height="16"
   width="16"
   version="1.0">
  <defs
     id="defs16" />
  <metadata
     id="metadata4">
Created by potrace 1.10, written by Peter Selinger 2001-2011
<rdf:RDF>
  <cc:Work
     rdf:about="">
    <dc:format>image/svg+xml</dc:format>
    <dc:type
       rdf:resource="http://purl.org/dc/dcmitype/StillImage" />
    <dc:title></dc:title>
  </cc:Work>
</rdf:RDF>
</metadata>
  <rect
     y="-4"
     x="0"
     height="20"
     width="16"
     id="rect3344"
     style="fill:#ffffff;fill-opacity:0" />
  <g
     id="g6"
     transform="matrix(0.00180806,0,0,-0.00547945,-0.1434941,18.219176)">
    <path
       id="path8"
       d="m 85,2951 c -4,-7 -7,-1462 -5,-2173 0,-5 167,-8 370,-8 l 370,0 0,503 c 0,378 3,506 12,515 16,16 1269,17 1299,2 18,-10 19,-27 19,-515 l 0,-505 370,2 369,3 2,1080 c 0,594 1,1086 0,1093 -1,10 -78,12 -369,10 l -367,-3 -3,-444 c -2,-341 -5,-447 -15,-453 -6,-4 -303,-8 -658,-8 -581,0 -647,2 -653,16 -3,9 -6,213 -6,455 l 0,439 -364,0 c -215,0 -367,-4 -371,-9 z" />
    <path
       id="path10"
       d="m 3720,2949 c -113,-5 -272,-12 -355,-16 l -150,-8 -3,-144 -3,-143 23,6 c 13,4 79,13 148,21 69,7 136,16 150,19 14,3 171,13 350,22 307,16 337,16 540,0 337,-28 446,-67 500,-179 28,-57 27,-168 -1,-232 -48,-109 -168,-185 -339,-216 -127,-23 -230,-27 -615,-29 -214,-1 -412,-5 -440,-8 l -50,-7 0,-115 0,-115 510,-5 c 334,-4 517,-9 530,-17 11,-5 46,-13 79,-17 183,-20 360,-118 419,-231 30,-57 32,-235 3,-280 -45,-69 -121,-129 -216,-168 -95,-40 -350,-77 -527,-77 -107,0 -498,24 -658,40 -55,6 -155,15 -222,20 -67,5 -139,14 -160,18 -63,14 -63,14 -63,-133 0,-96 4,-136 13,-142 6,-4 82,-11 167,-15 85,-4 238,-11 340,-17 226,-13 956,-13 1100,-1 217,18 326,30 370,39 25,5 81,17 125,27 120,25 210,56 303,102 49,25 134,109 175,174 74,115 96,213 78,354 -12,97 -44,163 -109,227 -46,45 -170,117 -202,117 -9,0 -20,4 -25,9 -6,5 -44,18 -85,30 -41,12 -88,26 -105,31 -16,5 -51,12 -77,15 -67,10 -123,31 -123,46 0,8 9,15 20,17 21,3 127,33 205,58 42,14 141,60 185,87 41,25 135,98 135,105 0,4 11,19 24,33 50,54 69,116 69,219 0,119 -22,171 -103,251 -118,115 -280,166 -635,199 -60,6 -146,15 -190,21 -106,13 -846,19 -1105,8 z" />
    <path
       id="path12"
       d="m 7620,2950 c -213,-14 -375,-29 -435,-40 -33,-5 -89,-15 -125,-21 -163,-27 -163,-27 -276,-63 -29,-9 -57,-16 -64,-16 -7,0 -26,-6 -43,-14 -18,-7 -57,-24 -87,-37 -180,-76 -352,-241 -438,-420 -35,-72 -72,-181 -72,-210 0,-10 -7,-44 -15,-76 -23,-86 -20,-275 6,-403 12,-58 25,-109 30,-115 5,-5 9,-17 9,-27 0,-26 95,-207 131,-248 61,-72 156,-163 205,-201 74,-55 209,-116 339,-154 33,-10 72,-22 86,-27 15,-5 51,-13 80,-18 78,-12 177,-30 229,-41 25,-5 97,-14 160,-19 63,-6 160,-15 215,-20 137,-13 827,-12 1005,1 80,6 195,14 255,17 l 110,7 3,154 c 2,104 -1,157 -8,161 -6,4 -39,1 -73,-6 -97,-20 -341,-43 -593,-55 -424,-19 -674,17 -912,135 -203,100 -326,233 -376,406 -41,145 -41,409 1,550 59,202 187,330 433,433 100,42 228,72 401,93 268,32 807,3 1068,-57 25,-5 48,-6 53,-1 5,5 7,76 6,158 l -3,149 -95,12 c -115,14 -1043,25 -1210,13 z" />
  </g>
</svg>
