<?xml version="1.0" encoding="UTF-8" standalone="no"?>
<!-- Created with Inkscape (http://www.inkscape.org/) -->

<svg
   xmlns:dc="http://purl.org/dc/elements/1.1/"
   xmlns:cc="http://creativecommons.org/ns#"
   xmlns:rdf="http://www.w3.org/1999/02/22-rdf-syntax-ns#"
   xmlns:svg="http://www.w3.org/2000/svg"
   xmlns="http://www.w3.org/2000/svg"
   version="1.1"
   width="16"
   height="16"
   viewBox="0 0 16 16"
   id="svg2"
   style="fill:#ffffff">
  <defs
     id="defs4" />
  <metadata
     id="metadata7">
    <rdf:RDF>
      <cc:Work
         rdf:about="">
        <dc:format>image/svg+xml</dc:format>
        <dc:type
           rdf:resource="http://purl.org/dc/dcmitype/StillImage" />
        <dc:title></dc:title>
      </cc:Work>
    </rdf:RDF>
  </metadata>
  <g
     id="layer1" />
  <g
     transform="matrix(0.59283455,0,0,0.50931895,0,-2.3927681e-4)"
     id="g3198">
    <rect
     alert="false"     width="26.988981"
       height="31.414499"
       x="0"
       y="0.00046974816"
       id="rect3240"
       style="fill-opacity:0" />
    <g
       transform="matrix(0.0569336,0,0,0.06249994,2.1312997,4.7027023e-4)"
       id="g3">
      <g
         id="g5">
        <path
           d="m 240.864,269.894 c 0,0 -28.02,-53.992 -26.985,-93.445 0.755,-28.193 64.324,-56.062 89.281,-96.529 C 328.074,39.431 300.054,0 300.054,0 c 0,0 6.234,29.077 -10.376,59.147 -16.609,30.113 -77.914,47.779 -101.749,99.679 -23.835,51.9 52.935,111.068 52.935,111.068 z"
           id="path7"
           style="fill:#029fe4" />
        <path
       alert="false"       d="m 345.741,105.869 c 0,0 -95.494,36.347 -95.494,77.849 0,41.545 25.928,55.027 30.113,68.509 4.142,13.525 -7.269,36.347 -7.269,36.347 0,0 37.361,-25.95 31.105,-56.062 -6.234,-30.113 -35.29,-39.475 -18.659,-69.544 11.109,-20.169 60.204,-57.099 60.204,-57.099 z"
           id="path9"
           style="fill:#029fe4" />
        <path
       alert="false"       d="m 230.51,324.748 c 88.246,-3.149 120.43,-30.997 120.43,-30.997 -57.076,15.553 -208.654,14.539 -209.711,3.128 -1.014,-11.411 46.701,-20.773 46.701,-20.773 0,0 -74.721,0 -80.955,18.68 -6.235,18.681 35.353,33.047 123.535,29.962 z"
           id="path11"
           style="fill:#029fe4" />
        <path
           d="m 358.187,368.494 c 0,0 86.369,-18.421 77.827,-65.338 -10.354,-57.119 -70.58,-24.936 -70.58,-24.936 0,0 42.602,0 46.722,25.928 4.164,25.95 -53.969,64.346 -53.969,64.346 z"
           id="path13"
           style="fill:#029fe4" />
        <path
           d="m 315.628,343.601 c 0,0 -21.765,5.716 -54.013,9.34 -43.228,4.853 -95.494,1.014 -99.657,-6.256 -4.098,-7.269 7.269,-11.411 7.269,-11.411 -51.921,12.468 -23.512,34.233 37.339,38.418 52.158,3.559 129.791,-15.574 129.791,-15.574 l -20.729,-14.517 z"
           id="path15"
           style="fill:#029fe4" />
        <path
      alert="false"        d="m 181.738,388.943 c 0,0 -23.555,0.669 -24.936,13.137 -1.359,12.382 14.496,23.512 72.65,26.964 58.133,3.451 98.988,-15.898 98.988,-15.898 l -26.295,-15.962 c 0,0 -16.631,3.494 -42.236,6.946 -25.626,3.473 -78.173,-2.783 -80.243,-7.593 -2.113,-4.855 2.072,-7.594 2.072,-7.594 z"
           id="path17"
           style="fill:#029fe4" />
        <path
      alert="false"        d="m 407.994,445.005 c 8.995,-9.707 -2.783,-17.321 -2.783,-17.321 0,0 4.142,4.853 -1.337,10.376 -5.544,5.522 -56.084,19.349 -137.061,23.512 -80.955,4.163 -168.856,-7.615 -171.639,-17.99 -2.696,-10.376 45.018,-18.659 45.018,-18.659 -5.522,0.69 -71.96,2.071 -74.074,20.082 -2.071,17.968 29.056,32.507 153.67,32.507 124.551,-0.021 179.254,-22.865 188.206,-32.507 z"
           id="path19"
           style="fill:#029fe4" />
        <path
      alert="false"        d="m 359.568,485.817 c -54.682,11.044 -220.734,4.077 -220.734,4.077 0,0 107.919,25.626 231.109,4.185 58.888,-10.268 62.318,-38.763 62.318,-38.763 0,0 -18.011,19.392 -72.693,30.501 z"
           id="path21"
           style="fill:#029fe4" />
      </g>
      <g
         id="g23" />
      <g
         id="g25" />
      <g
         id="g27" />
      <g
         id="g29" />
      <g
         id="g31" />
      <g
         id="g33" />
      <g
         id="g35" />
      <g
         id="g37" />
      <g
         id="g39" />
      <g
         id="g41" />
      <g
         id="g43" />
      <g
         id="g45" />
      <g
         id="g47" />
      <g
         id="g49" />
      <g
         id="g51" />
    </g>
    <g
       transform="translate(0,-471.2175)"
       id="g53" />
    <g
       transform="translate(0,-471.2175)"
       id="g55" />
    <g
       transform="translate(0,-471.2175)"
       id="g57" />
    <g
       transform="translate(0,-471.2175)"
       id="g59" />
    <g
       transform="translate(0,-471.2175)"
       id="g61" />
    <g
       transform="translate(0,-471.2175)"
       id="g63" />
    <g
       transform="translate(0,-471.2175)"
       id="g65" />
    <g
       transform="translate(0,-471.2175)"
       id="g67" />
    <g
       transform="translate(0,-471.2175)"
       id="g69" />
    <g
       transform="translate(0,-471.2175)"
       id="g71" />
    <g
       transform="translate(0,-471.2175)"
       id="g73" />
    <g
       transform="translate(0,-471.2175)"
       id="g75" />
    <g
       transform="translate(0,-471.2175)"
       id="g77" />
    <g
       transform="translate(0,-471.2175)"
       id="g79" />
    <g
       transform="translate(0,-471.2175)"
       id="g81" />
  </g>
</svg>
