<?xml version="1.0" encoding="UTF-8" standalone="no"?>
<!-- Created with Inkscape (http://www.inkscape.org/) -->

<svg
   xmlns:dc="http://purl.org/dc/elements/1.1/"
   xmlns:cc="http://creativecommons.org/ns#"
   xmlns:rdf="http://www.w3.org/1999/02/22-rdf-syntax-ns#"
   xmlns:svg="http://www.w3.org/2000/svg"
   xmlns="http://www.w3.org/2000/svg"
   version="1.1"
   width="16"
   height="16"
   viewBox="0 0 16 16"
   id="svg2"
   style="fill:#ffffff">
  <defs
     id="defs4" />
  <metadata
     id="metadata7">
    <rdf:RDF>
      <cc:Work
         rdf:about="">
        <dc:format>image/svg+xml</dc:format>
        <dc:type
           rdf:resource="http://purl.org/dc/dcmitype/StillImage" />
        <dc:title></dc:title>
      </cc:Work>
    </rdf:RDF>
  </metadata>
  <g
     id="layer1">
    <rect
       width="16"
       height="16"
       x="0"
       y="0"
       id="rect3014"
       style="fill-opacity:0" />
    <g
       id="g3001"
       style="fill:#029fe4">
      <rect
         width="16"
         height="16"
         x="0"
         y="-8.8817842e-016"
         id="rect3356"
         style="fill:#ffffff;fill-opacity:0" />
      <g
         transform="matrix(0.00186332,0,0,-0.00237124,-0.20720044,14.474248)"
         id="g6">
        <path
    alert="false"         d="m 3220,5250 c -8,-5 -24,-10 -35,-10 -24,0 -55,-21 -101,-69 -50,-52 -64,-89 -64,-176 0,-64 4,-83 26,-121 86,-147 277,-176 399,-61 103,98 111,238 20,352 -56,70 -194,118 -245,85 z"
           id="path8" />
        <path
           d="m 2088,5124 c -87,-31 -152,-92 -191,-177 -28,-61 -23,-177 9,-244 47,-95 140,-162 246,-178 87,-13 208,38 264,112 60,77 66,99 63,208 -4,94 -6,103 -37,150 -81,120 -229,175 -354,129 z"
           id="path10" />
        <path
           d="m 1065,4648 c -98,-34 -171,-97 -209,-181 -35,-75 -37,-214 -5,-284 33,-72 122,-154 196,-182 158,-59 340,17 421,174 22,43 25,63 26,145 0,89 -2,99 -34,158 -44,84 -114,140 -211,171 -43,13 -143,13 -184,-1 z"
           id="path12" />
        <path
           d="m 2724,3983 c -2,-10 -5,-306 -7,-658 -2,-714 -3,-719 -67,-786 -80,-84 -238,-55 -297,54 -13,23 -19,65 -23,147 l -5,115 -217,3 -218,2 -6,-26 c -4,-15 -4,-70 -1,-123 16,-286 115,-469 302,-560 115,-56 163,-65 355,-65 178,0 247,11 323,50 16,8 33,14 38,14 14,0 110,69 138,99 57,60 113,169 129,249 4,18 12,33 17,32 6,0 12,-78 15,-202 l 5,-203 535,0 c 551,0 572,1 710,42 182,55 300,175 354,362 24,81 21,251 -4,325 -41,115 -102,189 -206,248 -41,23 -74,47 -74,53 0,6 16,19 35,29 46,25 117,102 146,157 25,51 48,138 49,189 0,43 -23,154 -41,195 -15,34 -74,111 -104,137 -28,24 -131,75 -190,94 -95,32 -194,36 -938,41 -713,4 -749,3 -753,-14 z m 1446,-377 c 75,-39 112,-126 90,-214 -13,-54 -29,-74 -85,-110 -39,-25 -45,-26 -242,-30 -111,-2 -214,-1 -228,2 l -25,6 0,179 c 0,134 3,181 13,185 6,3 109,4 227,3 183,-3 220,-6 250,-21 z m 80,-701 c 66,-45 90,-93 90,-183 0,-105 -27,-154 -109,-194 -44,-22 -56,-23 -296,-23 l -250,0 -3,218 -2,218 262,-3 263,-3 45,-30 z"
           id="path14" />
        <path
    alert="false"         d="m 435,3560 c -136,-22 -259,-135 -306,-282 -45,-140 -3,-298 107,-403 81,-78 175,-118 278,-117 174,0 319,103 387,274 31,80 24,220 -15,301 -40,83 -115,161 -190,196 -69,32 -175,45 -261,31 z"
           id="path16" />
        <path
    alert="false"         d="m 5365,3504 c -184,-30 -280,-78 -400,-199 -64,-65 -80,-87 -114,-160 -51,-109 -50,-102 -18,-169 17,-34 33,-68 38,-77 4,-9 14,-56 23,-105 13,-77 13,-103 2,-190 -8,-56 -19,-117 -26,-136 -11,-31 -10,-38 12,-74 82,-129 222,-232 383,-281 87,-26 345,-26 430,1 157,49 285,141 364,261 14,22 29,42 32,45 3,3 9,15 13,28 12,37 31,25 56,-35 34,-83 61,-123 117,-174 127,-113 287,-155 563,-146 177,6 231,19 370,85 48,23 168,143 181,181 6,17 17,31 24,31 7,0 31,-28 52,-63 103,-164 279,-236 583,-236 198,0 292,19 429,87 31,15 131,107 156,143 43,61 71,190 61,276 -21,178 -150,292 -376,333 -333,60 -410,84 -462,145 -18,20 -24,90 -10,111 4,6 25,21 47,33 32,17 57,21 134,21 119,0 170,-22 201,-85 11,-23 20,-47 20,-53 0,-9 50,-12 188,-12 104,0 191,2 194,5 9,9 -12,118 -29,155 -25,54 -74,115 -113,141 -19,13 -37,26 -40,29 -11,11 -76,40 -105,46 -16,4 -34,10 -40,14 -5,4 -71,15 -147,25 -130,17 -142,17 -260,1 -188,-27 -300,-69 -382,-146 -42,-39 -86,-112 -86,-143 0,-40 -53,-25 -64,19 -11,41 -50,97 -101,142 -82,72 -170,104 -351,127 -123,16 -139,16 -255,0 -143,-19 -199,-34 -288,-78 -120,-60 -179,-129 -202,-239 -20,-95 -38,-100 -76,-20 -42,85 -177,217 -273,265 -42,20 -81,37 -88,37 -7,0 -20,4 -30,10 -20,11 -198,41 -233,39 -13,-1 -60,-7 -104,-15 z m 1576,-294 c 34,-22 58,-57 73,-102 5,-16 23,-18 195,-18 l 191,0 5,-27 c 19,-95 61,-180 109,-221 38,-32 126,-78 166,-87 19,-4 40,-10 45,-14 6,-3 37,-12 70,-19 33,-7 89,-19 125,-27 36,-8 92,-19 125,-26 33,-6 64,-15 70,-20 5,-5 17,-9 28,-9 26,0 89,-38 112,-69 26,-33 25,-99 -1,-134 -10,-14 -41,-38 -69,-54 -89,-49 -237,-36 -315,29 -25,20 -60,83 -60,106 0,36 -31,43 -195,41 -101,0 -161,3 -169,10 -7,6 -16,31 -19,55 -7,50 -46,128 -85,170 -39,42 -119,89 -182,108 -50,15 -88,24 -260,58 -129,26 -155,33 -204,54 -133,59 -153,155 -44,210 26,13 56,16 143,14 98,-3 114,-6 146,-28 z m -1338,-49 c 57,-35 100,-92 133,-176 26,-68 28,-297 2,-365 -27,-73 -45,-103 -85,-142 -51,-50 -99,-68 -180,-68 -77,0 -128,21 -178,74 -28,30 -37,46 -76,130 -10,20 -14,74 -14,180 0,125 3,160 19,201 36,94 106,166 181,186 51,14 162,2 198,-20 z m 629,-289 c 25,-33 93,-79 153,-102 33,-12 69,-26 80,-31 20,-8 59,-17 185,-44 36,-7 88,-18 115,-24 119,-26 170,-46 207,-83 32,-32 38,-45 38,-82 0,-35 -6,-50 -32,-78 -51,-55 -100,-73 -195,-73 -52,0 -87,5 -94,13 -7,6 -21,12 -30,12 -28,0 -97,75 -109,118 -5,22 -16,45 -24,51 -10,8 -66,11 -181,10 -101,-1 -170,2 -176,8 -7,7 -7,28 1,64 7,30 14,100 17,157 5,106 15,125 45,84 z"
           id="path18" />
        <path
     alert="false"        d="m 555,2314 c -93,-36 -133,-61 -191,-118 -148,-149 -177,-349 -78,-546 31,-61 133,-153 209,-190 67,-32 76,-33 185,-34 112,0 117,1 192,36 94,45 176,125 221,218 31,63 32,69 32,195 0,126 -1,132 -32,196 -55,112 -149,196 -269,239 -72,25 -209,27 -269,4 z"
           id="path20" />
        <path
      alert="false"       d="m 1725,1454 c -159,-33 -260,-94 -344,-209 -70,-97 -95,-171 -95,-290 -2,-179 72,-318 224,-426 40,-28 90,-50 174,-74 145,-43 340,17 462,143 154,158 188,383 88,586 -34,70 -135,173 -205,210 -91,48 -229,75 -304,60 z"
           id="path22" />
        <path
           d="m 3115,1323 c -205,-62 -337,-187 -406,-383 -30,-84 -27,-265 5,-354 37,-100 71,-154 145,-226 115,-112 233,-160 395,-160 156,0 277,46 378,144 134,128 188,249 188,421 0,102 -21,193 -62,265 -4,8 -13,25 -18,38 -17,40 -153,169 -210,200 -131,69 -297,92 -415,55 z"
           id="path24" />
      </g>
    </g>
  </g>
</svg>
