<?xml version="1.0" encoding="UTF-8" standalone="no"?>
<svg
   xmlns:dc="http://purl.org/dc/elements/1.1/"
   xmlns:cc="http://creativecommons.org/ns#"
   xmlns:rdf="http://www.w3.org/1999/02/22-rdf-syntax-ns#"
   xmlns:svg="http://www.w3.org/2000/svg"
   xmlns="http://www.w3.org/2000/svg"
   style="fill:#1ab394"
   id="svg2"
   preserveAspectRatio="xMidYMid meet"
   viewBox="0 0 16 16"
   height="16"
   width="16"
   version="1.0">
  <defs
     id="defs42" />
  <metadata
     id="metadata4">
Created by potrace 1.10, written by Peter Selinger 2001-2011
<rdf:RDF>
  <cc:Work
     rdf:about="">
    <dc:format>image/svg+xml</dc:format>
    <dc:type
       rdf:resource="http://purl.org/dc/dcmitype/StillImage" />
    <dc:title></dc:title>
  </cc:Work>
</rdf:RDF>
</metadata>
  <rect
     y="-8.8817842e-16"
     x="0"
     height="16"
     width="16"
     id="rect3370"
     style="fill:#ffffff;fill-opacity:0" />
  <g
     id="g6"
     transform="matrix(0.00213986,0,0,-0.00488091,-1.6078741,15.245219)">
    <path
       id="path8"
       d="m 6560,2495 c -19,-7 -45,-14 -57,-14 -21,-1 -80,-23 -113,-42 -8,-5 -26,-14 -38,-19 -31,-13 -139,-121 -152,-152 -5,-12 -14,-30 -19,-38 -61,-103 -86,-239 -86,-475 0,-203 17,-319 60,-420 7,-16 16,-37 19,-45 23,-54 132,-170 179,-190 12,-6 29,-14 37,-19 75,-45 210,-71 370,-71 185,0 269,19 428,99 111,55 122,61 122,72 0,17 -64,98 -79,99 -7,0 -30,-13 -51,-30 -56,-44 -130,-79 -220,-101 -67,-17 -103,-20 -218,-16 -165,5 -237,23 -327,82 -114,75 -180,223 -187,419 l -3,99 547,-2 c 300,-1 548,2 551,6 12,19 -14,379 -30,433 -20,68 -67,155 -102,194 -46,50 -135,101 -221,126 -66,19 -365,23 -410,5 z m 349,-121 c 89,-26 133,-50 177,-96 69,-74 101,-169 106,-322 l 3,-98 -485,0 -485,-1 3,59 c 2,64 25,163 48,207 8,16 14,33 14,38 0,19 69,100 112,132 55,41 98,60 173,80 83,21 262,22 334,1 z" />
    <path
       id="path10"
       d="m 7980,2499 c -151,-16 -245,-40 -272,-67 -7,-7 -16,-12 -21,-12 -17,0 -95,-89 -115,-132 -51,-110 -52,-116 -53,-697 0,-299 3,-547 8,-551 4,-4 34,-4 66,-1 l 59,6 -2,507 c -1,568 3,611 57,694 60,92 199,137 408,132 l 110,-3 3,53 c 2,31 -2,60 -9,68 -13,16 -110,17 -239,3 z" />
    <path
       id="path12"
       d="m 3395,2490 c -16,-4 -47,-8 -67,-9 -20,0 -49,-7 -65,-15 -15,-8 -45,-22 -66,-32 -63,-31 -119,-88 -142,-144 -49,-116 -55,-203 -58,-763 l -2,-487 72,0 71,0 1,547 c 2,618 1,610 78,689 51,53 94,72 198,90 142,24 360,13 427,-22 14,-8 33,-14 41,-14 9,0 38,-21 64,-47 37,-37 54,-64 71,-114 22,-64 22,-75 22,-597 0,-292 3,-533 8,-535 4,-2 35,-1 70,2 l 64,6 -2,470 c -1,471 -13,692 -38,717 -7,7 -12,20 -12,30 0,30 -75,121 -126,153 -56,35 -102,54 -169,67 -65,12 -401,19 -440,8 z" />
    <path
       id="path14"
       d="m 1250,1812 c 0,-570 -2,-676 -15,-723 -25,-87 -66,-150 -110,-170 -11,-5 -27,-13 -35,-18 -43,-24 -97,-35 -210,-40 l -125,-6 -3,-54 c -2,-33 1,-57 8,-61 20,-12 282,1 319,16 18,8 41,14 51,14 10,0 23,7 30,15 7,8 20,15 30,15 22,0 110,88 131,132 54,114 57,155 59,918 l 2,625 -66,3 -66,3 0,-669 z" />
    <path
       id="path16"
       d="m 1610,2473 c -1,-4 -1,-255 0,-557 1,-456 3,-555 15,-584 8,-19 15,-43 15,-53 0,-37 93,-162 134,-180 12,-5 28,-13 36,-18 51,-29 81,-41 102,-41 12,0 45,-7 72,-15 71,-22 355,-21 444,1 119,30 174,56 228,109 54,54 82,99 95,155 4,19 12,53 18,75 7,25 11,238 11,578 l 0,538 -66,-3 -67,-3 2,-486 c 2,-536 -4,-635 -47,-703 -49,-79 -106,-113 -235,-140 -200,-42 -475,7 -550,98 -72,88 -77,136 -76,726 l 0,505 -65,3 c -36,2 -66,-1 -66,-5 z" />
    <path
       id="path18"
       d="m 4420,2478 c 0,-2 -1,-326 -3,-720 l -2,-716 60,-4 c 33,-2 63,-2 68,0 4,2 7,327 7,723 l 0,719 -65,0 c -36,0 -65,-1 -65,-2 z" />
    <path
       id="path20"
       d="m 4790,2473 c -2,-399 1,-1426 4,-1431 3,-6 60,-7 117,-2 3,0 6,112 5,250 l -1,250 360,2 c 307,3 364,5 390,19 17,9 48,25 69,35 57,27 130,104 162,171 52,108 58,345 12,464 -22,58 -87,140 -133,166 -41,23 -108,53 -121,53 -7,0 -39,7 -71,15 -46,12 -130,15 -425,15 -202,0 -368,-3 -368,-7 z m 650,-137 c 131,-3 162,-7 200,-24 45,-21 110,-74 110,-89 0,-5 5,-14 11,-20 25,-25 48,-119 49,-193 0,-75 -25,-179 -48,-202 -7,-7 -12,-17 -12,-22 -1,-24 -69,-73 -140,-99 -38,-14 -93,-16 -360,-17 -173,-1 -321,-1 -327,-1 -10,1 -13,75 -13,334 0,184 2,336 5,339 5,4 164,3 525,-6 z" />
    <path
       id="path24"
       d="m 4426,877 c -15,-11 -18,-39 -21,-209 l -4,-196 26,-7 c 15,-3 29,-2 33,5 4,6 5,76 2,154 -3,92 -1,145 6,150 9,5 25,-14 57,-66 27,-44 109,-160 123,-175 9,-9 22,-26 27,-37 8,-15 20,-21 43,-21 l 33,0 3,190 c 3,159 1,193 -12,208 -8,9 -21,17 -29,17 -16,0 -16,0 -13,-177 1,-79 -2,-143 -7,-143 -5,0 -28,28 -51,63 -164,240 -186,266 -216,244 z" />
    <path
       id="path26"
       d="m 5169,872 c -11,-7 -19,-20 -19,-27 0,-17 25,-24 100,-27 l 54,-3 -3,-172 c -3,-169 -2,-171 19,-178 41,-13 45,6 45,188 l 0,172 73,-4 73,-3 -3,32 -3,33 -159,1 c -116,1 -164,-3 -177,-12 z" />
    <path
       id="path28"
       d="m 5566,874 c -8,-22 4,-95 20,-119 8,-11 14,-31 14,-45 0,-14 7,-34 15,-44 8,-11 15,-32 15,-46 0,-14 7,-35 15,-46 8,-10 15,-32 15,-49 0,-42 13,-58 45,-57 32,0 45,15 45,57 0,17 7,39 15,49 8,11 15,31 15,44 0,13 5,33 12,45 7,12 14,39 17,60 4,21 10,38 15,38 11,0 46,-88 46,-117 0,-11 7,-29 15,-40 8,-10 15,-31 15,-46 0,-28 36,-98 50,-98 24,0 40,15 40,39 0,14 7,35 15,45 8,11 15,31 15,46 0,14 6,34 14,45 7,11 16,34 18,50 7,36 25,89 44,128 8,16 14,37 14,47 0,44 -55,35 -65,-10 -4,-17 -11,-32 -16,-35 -5,-4 -9,-21 -9,-39 0,-18 -7,-41 -15,-52 -8,-10 -15,-32 -15,-49 0,-41 -38,-104 -51,-84 -5,8 -9,26 -9,40 0,15 -7,40 -15,55 -8,16 -15,38 -15,49 -1,11 -7,31 -15,45 -8,14 -14,37 -15,51 0,23 -26,59 -42,59 -13,0 -48,-73 -48,-99 0,-15 -7,-36 -15,-47 -8,-10 -15,-28 -15,-39 -1,-29 -37,-130 -47,-130 -4,0 -10,16 -13,35 -4,19 -12,45 -18,57 -7,12 -12,34 -12,50 0,15 -7,37 -15,47 -8,11 -15,34 -15,50 -1,31 -29,76 -48,76 -5,0 -13,-7 -16,-16 z" />
    <path
       id="path30"
       d="m 6255,873 c -16,-9 -37,-19 -45,-23 -8,-4 -28,-25 -43,-47 -27,-37 -29,-47 -29,-135 0,-102 13,-137 63,-176 29,-24 120,-36 194,-27 46,6 61,14 94,46 34,34 40,47 46,99 12,100 -1,171 -38,211 -18,19 -48,40 -67,48 -52,21 -139,23 -175,4 z m 154,-62 c 47,-24 55,-35 71,-93 10,-38 10,-56 -1,-98 -15,-57 -34,-78 -87,-97 -46,-16 -68,-16 -112,0 -57,19 -77,45 -83,107 -10,91 2,129 51,167 52,39 102,43 161,14 z" />
    <path
       id="path32"
       d="m 7023,883 c -16,-6 -19,-408 -3,-418 6,-3 19,-3 30,0 17,6 20,15 20,74 0,61 3,70 29,95 36,34 50,30 76,-20 11,-22 32,-55 48,-75 15,-20 27,-42 27,-48 0,-15 39,-34 56,-27 17,7 18,40 2,58 -29,31 -128,177 -128,188 0,5 29,37 65,72 71,68 86,108 41,108 -26,0 -100,-75 -159,-162 -31,-46 -56,-61 -58,-35 -1,6 0,49 1,94 1,70 -1,83 -17,91 -10,5 -24,7 -30,5 z" />
    <path
       id="path34"
       d="m 7443,871 c -93,-48 -99,-174 -9,-197 14,-3 29,-10 32,-15 3,-5 25,-9 49,-9 115,0 169,-87 78,-125 -20,-8 -47,-15 -62,-15 -38,1 -116,23 -134,38 -13,11 -17,10 -27,-9 -10,-18 -8,-25 14,-48 25,-25 31,-26 136,-26 l 109,0 35,40 c 26,29 36,49 36,73 0,38 -43,102 -69,102 -9,0 -29,7 -45,15 -15,8 -47,15 -70,15 -75,0 -114,69 -60,105 31,20 130,17 144,-4 4,-7 20,-11 36,-9 22,2 30,9 32,28 2,22 -3,27 -55,43 -70,21 -127,21 -170,-2 z" />
    <path
       id="path36"
       d="m 4845,870 c -4,-6 -7,-97 -7,-203 l 0,-192 133,-7 c 140,-7 161,-3 152,32 -7,25 -6,24 -128,25 l -100,0 -3,63 -3,62 111,0 c 90,0 112,3 116,15 14,35 -14,45 -122,45 l -104,0 0,55 0,55 110,0 c 90,0 112,3 116,15 14,36 -13,45 -142,45 -75,0 -125,-4 -129,-10 z" />
    <path
       id="path38"
       d="m 6626,872 c -10,-17 -8,-394 2,-404 5,-5 20,-7 32,-3 20,6 21,12 18,78 l -3,72 58,3 c 48,3 58,0 63,-15 18,-54 70,-138 89,-141 9,-2 23,2 31,8 12,11 11,17 -8,49 -12,20 -25,38 -28,41 -12,8 -30,48 -30,63 0,8 13,20 29,27 40,16 64,83 49,137 -14,52 -31,69 -83,82 -51,13 -211,15 -219,3 z m 232,-79 c 26,-29 27,-44 7,-84 l -16,-30 -87,3 -87,3 4,65 c 1,36 5,68 8,73 2,4 37,4 76,1 59,-5 76,-10 95,-31 z" />
  </g>
</svg>
