<?xml version="1.0" encoding="UTF-8" standalone="no"?>
<svg
   xmlns:dc="http://purl.org/dc/elements/1.1/"
   xmlns:cc="http://creativecommons.org/ns#"
   xmlns:rdf="http://www.w3.org/1999/02/22-rdf-syntax-ns#"
   xmlns:svg="http://www.w3.org/2000/svg"
   xmlns="http://www.w3.org/2000/svg"
   style="fill:#029fe4"
   height="16"
   width="16"
   xml:space="preserve"
   viewBox="0 0 16.000001 16.000001"
   y="0px"
   x="0px"
   id="Layer_1"
   version="1.1"><metadata
     id="metadata33"><rdf:RDF><cc:Work
         rdf:about=""><dc:format>image/svg+xml</dc:format><dc:type
           rdf:resource="http://purl.org/dc/dcmitype/StillImage" /><dc:title></dc:title></cc:Work></rdf:RDF></metadata><defs
     id="defs31" /><g
     transform="matrix(0.42780756,0,0,0.4115227,-2.0106954,3.0000002)"
     id="g5"><rect
       id="rect7"
       height="19.5"
       width="33.299999"
       y="4.8000002"
       x="4.6999998" /><polygon
       id="polygon9"
       points="42.1,18.5 38.1,24.3 38.1,4.8 42.1,0 " /><polygon
       id="polygon11"
       points="10.7,0 42.1,0 38.1,4.8 4.7,4.8 " /><g
       id="g13"><polygon
         style="fill:#ffffff"
         id="polygon15"
         points="16.2,16.8 16.2,15 9.1,15 9.1,13.9 16.2,13.9 16.2,12.1 20.4,14.4 " /></g><g
       id="g17"><polygon
         style="fill:#ffffff"
         id="polygon19"
         points="31.1,16.8 31.1,15 24,15 24,13.9 31.1,13.9 31.1,12.1 35.3,14.4 " /></g><g
       id="g21"><polygon
         style="fill:#ffffff"
         id="polygon23"
         points="30.9,10.8 29.9,9.3 23.9,13.2 23.3,12.2 29.3,8.3 28.3,6.8 33,6.5 " /></g><g
       id="g25"><polygon
         style="fill:#ffffff"
         id="polygon27"
         points="33,22.2 30.9,18 29.9,19.5 23.9,15.6 23.3,16.6 29.3,20.5 28.3,22 "
         class="st1" /></g></g></svg>