<?xml version="1.0" encoding="UTF-8" standalone="no"?>
<svg
   xmlns:dc="http://purl.org/dc/elements/1.1/"
   xmlns:cc="http://creativecommons.org/ns#"
   xmlns:rdf="http://www.w3.org/1999/02/22-rdf-syntax-ns#"
   xmlns:svg="http://www.w3.org/2000/svg"
   xmlns="http://www.w3.org/2000/svg"
   style="fill:#2ea7e0"
   height="16"
   width="16"
   xml:space="preserve"
   enable-background="new 0 0 30 30"
   viewBox="0 0 16 16"
   y="0px"
   x="0px"
   id="middleware"
   version="1.1"><rect
     style="fill:#ffffff;fill-opacity:0"
     y="-14"
     x="0"
     height="30"
     width="30" /><g
     transform="matrix(0.54474708,0,0,0.54054054,0.23735409,1.6000001e-8)"><path
       d="M 26.8,9.8 25.4,9.5 c 0,-0.4 0,-0.9 -0.1,-1.3 L 26.7,7.7 C 26.9,7.6 27,7.5 26.9,7.3 L 26.8,6.9 C 26.8,6.7 26.6,6.6 26.4,6.6 L 25,6.8 C 24.8,6.4 24.7,6 24.4,5.6 l 1.1,-0.9 c 0.1,-0.1 0.2,-0.3 0,-0.4 L 25.3,4 C 25.2,3.9 25,3.8 24.9,3.9 L 23.6,4.6 C 23.5,4.4 23.3,4.3 23.1,4.1 22.9,3.9 22.8,3.8 22.6,3.6 L 23.3,2.3 C 23.4,2.2 23.3,2 23.2,1.9 L 22.9,1.7 C 22.8,1.6 22.6,1.6 22.5,1.7 L 21.6,2.8 C 21.2,2.6 20.8,2.4 20.4,2.2 L 20.6,0.8 C 20.6,0.6 20.5,0.5 20.3,0.4 L 19.9,0.3 c -0.2,-0.1 -0.3,0 -0.4,0.2 L 19,1.8 C 18.6,1.7 18.1,1.7 17.7,1.7 L 17.4,0.3 C 17.4,0.1 17.2,0 17,0 l -0.4,0 c -0.2,0 -0.3,0.2 -0.3,0.3 l 0,1.5 C 15.9,1.9 15.4,2 15,2.2 L 14.3,0.9 C 14.2,0.8 14,0.7 13.9,0.8 L 13.5,1 c -0.2,0.1 -0.2,0.2 -0.2,0.4 l 0.5,1.4 C 13.4,3 13,3.3 12.7,3.6 L 11.6,2.7 C 11.5,2.6 11.3,2.6 11.2,2.7 L 10.9,3 c -0.1,0.1 -0.1,0.3 0,0.4 l 0.9,1.1 C 11.5,4.8 11.2,5.2 11,5.6 L 9.5,5.1 C 9.4,5 9.2,5.1 9.1,5.2 L 8.9,5.6 c 0,0.2 0,0.4 0.2,0.4 l 1.2,0.7 C 10.2,7.2 10,7.6 10,8.1 l -1.5,0 C 8.3,8.1 8.2,8.2 8.2,8.4 l 0,0.4 c 0,0.2 0.1,0.3 0.3,0.4 l 1.4,0.3 c 0,0.4 0,0.9 0.1,1.3 l -1.4,0.5 c -0.2,0.1 -0.3,0.2 -0.2,0.4 l 0.1,0.4 c 0,0.2 0.2,0.3 0.4,0.3 l 1.4,-0.2 c 0.2,0.4 0.3,0.8 0.6,1.2 l -1.1,0.9 c -0.1,0.1 -0.2,0.3 0,0.4 L 10,15 c 0.1,0.1 0.3,0.2 0.4,0.1 l 1.3,-0.7 c 0.1,0.2 0.3,0.3 0.5,0.5 0.2,0.2 0.3,0.3 0.5,0.5 L 12,16.7 c 0,0.1 0,0.2 0,0.3 -0.1,0 -0.1,0 -0.2,0 L 11,17.4 C 10.9,17.3 10.8,17.2 10.7,17.1 10.6,17 10.5,16.9 10.4,16.8 L 10.8,16 c 0.1,-0.1 0,-0.2 -0.1,-0.3 l -0.2,-0.1 c -0.1,-0.1 -0.2,-0.1 -0.3,0 L 9.6,16.3 C 9.4,16.2 9.1,16 8.8,15.9 L 9,15 C 9,14.9 8.9,14.8 8.8,14.8 L 8.6,14.7 c -0.1,0 -0.2,0 -0.3,0.1 L 8,15.7 C 7.7,15.7 7.4,15.6 7.2,15.6 L 7,14.7 C 7,14.6 6.9,14.5 6.8,14.5 l -0.3,0 c -0.1,0 -0.2,0.1 -0.2,0.2 l 0,0.9 C 6,15.6 5.8,15.7 5.5,15.8 L 5,15.1 C 5,15 4.9,15 4.8,15.1 l -0.2,0.1 c -0.1,0 -0.2,0.2 -0.1,0.3 l 0.3,0.9 C 4.6,16.5 4.3,16.7 4.1,16.9 L 3.4,16.3 c -0.1,-0.1 -0.2,-0.1 -0.3,0 l -0.2,0.2 c -0.1,0.1 -0.1,0.2 0,0.3 l 0.6,0.7 C 3.3,17.6 3.1,17.8 3,18 L 2.2,17.7 c -0.1,0 -0.2,0 -0.3,0.1 L 1.8,18 c 0,0.1 0,0.2 0.1,0.3 l 0.8,0.5 c -0.1,0.3 -0.2,0.5 -0.2,0.8 l -0.9,0 c -0.1,0 -0.2,0.1 -0.2,0.2 l 0,0.3 c 0,0.1 0.1,0.2 0.2,0.2 l 0.9,0.2 c 0,0.3 0,0.6 0.1,0.8 l -0.8,0.3 c -0.1,0 -0.2,0.1 -0.1,0.3 l 0.1,0.2 c 0,0.1 0.1,0.2 0.2,0.2 L 2.9,22.2 C 3,22.5 3.1,22.7 3.2,23 l -0.7,0.6 c -0.1,0.1 -0.1,0.2 0,0.3 l 0.1,0.2 C 2.4,24 2.5,24.1 2.6,24 l 0.8,-0.4 c 0.1,0.1 0.2,0.2 0.3,0.3 0.1,0.1 0.2,0.2 0.3,0.3 L 3.6,25 c -0.1,0.1 0,0.2 0.1,0.3 l 0.2,0.1 c 0.1,0.1 0.2,0.1 0.3,0 L 4.8,24.7 C 5,24.8 5.3,25 5.6,25.1 L 5.4,26 c 0,0.1 0.1,0.2 0.2,0.2 l 0.2,0.1 c 0.1,0 0.2,0 0.3,-0.1 l 0.3,-0.8 c 0.3,0 0.6,0.1 0.8,0.1 l 0.2,0.9 c 0,0.1 0.1,0.2 0.2,0.2 l 0.3,0 c 0.1,0 0.2,-0.1 0.2,-0.2 l 0,-0.9 c 0.3,0 0.5,-0.1 0.8,-0.2 l 0.5,0.8 c 0.1,0.1 0.2,0.1 0.3,0.1 l 0.2,-0.1 c 0.1,0 0.2,-0.2 0.1,-0.3 L 9.7,24.9 c 0.2,-0.1 0.5,-0.3 0.7,-0.5 l 0.7,0.6 c 0.1,0.1 0.2,0.1 0.3,0 l 0.2,-0.2 c 0.1,-0.1 0.1,-0.2 0,-0.3 L 11,23.8 c 0.2,-0.2 0.3,-0.4 0.5,-0.7 l 0.8,0.3 c 0.1,0 0.2,0 0.3,-0.1 l 0.1,-0.2 c 0,-0.1 0,-0.2 -0.1,-0.3 L 11.8,22.3 C 11.9,22 12,21.8 12,21.5 l 0.9,0 c 0.1,0 0.2,-0.1 0.2,-0.2 l 0,-0.3 c 0,-0.1 -0.1,-0.2 -0.2,-0.2 L 12,20.5 c 0,-0.3 0,-0.6 -0.1,-0.8 l 0.8,-0.3 c 0.1,0 0.2,-0.1 0.1,-0.3 l -0.1,-0.2 c 0,-0.1 -0.1,-0.2 -0.2,-0.2 l -0.9,0.1 C 11.5,18.5 11.4,18.3 11.3,18 L 12,17.4 c 0.1,-0.1 0.1,-0.2 0,-0.3 l 0,0 0.3,0.2 c 0.1,0.1 0.3,0.1 0.4,0 l 0.9,-1.1 c 0.4,0.2 0.8,0.4 1.2,0.6 l -0.2,1.4 c 0,0.2 0.1,0.3 0.3,0.4 l 0.4,0.1 c 0.2,0.1 0.3,0 0.4,-0.2 l 0.5,-1.4 c 0.4,0.1 0.9,0.1 1.3,0.1 l 0.3,1.4 c 0,0.2 0.2,0.3 0.4,0.3 l 0.4,0 c 0.2,0 0.3,-0.2 0.3,-0.3 l 0,-1.5 c 0.4,-0.1 0.9,-0.2 1.3,-0.3 l 0.7,1.3 c 0.1,0.1 0.3,0.2 0.4,0.1 L 21.7,18 c 0.2,-0.1 0.2,-0.2 0.2,-0.4 l -0.5,-1.4 c 0.4,-0.2 0.8,-0.5 1.1,-0.8 l 1.1,0.9 c 0.1,0.1 0.3,0.1 0.4,0 L 24.3,16 c 0.1,-0.1 0.1,-0.3 0,-0.4 l -0.9,-1.1 c 0.3,-0.3 0.6,-0.7 0.8,-1.1 l 1.4,0.5 c 0.2,0.1 0.3,0 0.4,-0.2 l 0.2,-0.4 c 0.1,-0.2 0,-0.3 -0.1,-0.4 l -1.2,-0.7 c 0.2,-0.4 0.3,-0.9 0.4,-1.3 l 1.5,0 c 0.2,0 0.3,-0.1 0.3,-0.3 l 0,-0.4 C 27.1,10 27,9.8 26.8,9.8 Z M 4.3,17.6 c 0.4,-0.4 0.9,-0.7 1.3,-0.9 l 0.5,2.1 C 6,18.9 5.9,19 5.8,19.1 5.7,19.2 5.6,19.4 5.5,19.5 L 3.4,19 C 3.6,18.5 3.9,18 4.3,17.6 Z M 3.9,22.9 C 3.2,22 2.9,20.9 3.1,19.8 l 2.1,0.6 c 0,0.3 0.1,0.7 0.3,1 l -1.6,1.5 z m 0.7,0.7 1.5,-1.5 c 0.3,0.2 0.7,0.3 1,0.3 l 0.5,2.1 c -1,0.1 -2.1,-0.2 -3,-0.9 z M 7.7,21 c -0.3,0.3 -0.8,0.3 -1.1,0 -0.3,-0.3 -0.3,-0.8 0,-1.1 0.3,-0.3 0.8,-0.3 1.1,0 0.3,0.3 0.3,0.8 0,1.1 z M 7.1,18.5 6.6,16.4 c 1.1,-0.1 2.2,0.1 3.1,0.8 L 8.2,18.7 C 7.8,18.6 7.5,18.5 7.1,18.5 Z M 10,23.3 C 9.6,23.7 9.1,24 8.7,24.2 L 8.2,22.1 C 8.3,22 8.5,21.9 8.6,21.8 8.7,21.7 8.8,21.5 8.9,21.4 L 11,22 c -0.3,0.5 -0.6,0.9 -1,1.3 z M 11.1,21 9,20.4 c 0,-0.3 -0.1,-0.7 -0.3,-1 l 1.5,-1.5 c 0.8,1 1.1,2.1 0.9,3.1 z m 2,-16.1 c 0.6,-0.6 1.4,-1.1 2.2,-1.4 l 0.9,3.3 C 16,6.9 15.7,7.1 15.5,7.3 15.2,7.5 15,7.7 14.9,8 L 11.6,7 c 0.3,-0.7 0.8,-1.5 1.5,-2.1 z m -0.6,8.6 C 11.4,12.1 11,10.3 11.2,8.6 l 3.3,0.9 c 0,0.6 0.1,1.1 0.4,1.6 l -2.4,2.4 z m 1.1,1.1 2.4,-2.4 c 0.5,0.3 1.1,0.4 1.6,0.4 l 0.9,3.3 C 16.8,16.1 15,15.7 13.6,14.6 Z m 4.9,-4.2 c -0.5,0.5 -1.3,0.5 -1.8,0 -0.5,-0.5 -0.5,-1.3 0,-1.8 0.5,-0.5 1.3,-0.5 1.8,0 0.5,0.5 0.5,1.3 0,1.8 z m -0.9,-4 -0.9,-3.3 c 1.7,-0.2 3.5,0.2 4.9,1.3 L 19.2,6.8 C 18.7,6.5 18.2,6.4 17.6,6.4 Z m 4.6,7.7 c -0.6,0.6 -1.4,1.1 -2.2,1.4 l -0.9,-3.3 c 0.2,-0.1 0.5,-0.3 0.7,-0.5 0.2,-0.2 0.4,-0.4 0.5,-0.7 l 3.3,0.9 c -0.3,0.8 -0.8,1.6 -1.4,2.2 z M 24,10.4 20.7,9.5 c 0,-0.6 -0.1,-1.1 -0.4,-1.6 l 2.4,-2.4 c 1.2,1.4 1.6,3.2 1.3,4.9 z" /><path
       d="m 25.6,24.3 -0.8,-0.2 c 0,-0.3 0,-0.5 -0.1,-0.8 L 25.5,23 c 0.1,0 0.1,-0.1 0.1,-0.2 l -0.1,-0.2 c 0,-0.1 -0.1,-0.2 -0.2,-0.1 l -0.8,0.1 c -0.1,-0.2 -0.2,-0.5 -0.3,-0.7 l 0.6,-0.5 c 0.1,-0.1 0.1,-0.2 0,-0.3 L 24.7,21 c -0.1,-0.1 -0.2,-0.1 -0.2,-0.1 l -0.7,0.4 C 23.7,21.2 23.6,21.1 23.5,21 23.4,20.9 23.3,20.8 23.2,20.7 L 23.6,20 c 0,-0.1 0,-0.2 -0.1,-0.2 l -0.2,-0.1 c -0.1,-0.1 -0.2,0 -0.3,0 l -0.5,0.6 C 22.3,20.2 22,20.1 21.8,20 l 0.1,-0.8 c 0,-0.1 0,-0.2 -0.1,-0.2 l -0.2,-0.1 c -0.1,0 -0.2,0 -0.2,0.1 l -0.3,0.8 c -0.3,0 -0.5,-0.1 -0.8,-0.1 l -0.1,-0.8 c 0,-0.1 -0.1,-0.2 -0.2,-0.2 l -0.2,0 c -0.1,0 -0.2,0.1 -0.2,0.2 l 0,0.8 c -0.3,0 -0.5,0.1 -0.7,0.2 l -0.4,-0.7 c 0,-0.1 -0.2,-0.1 -0.2,-0.1 L 18,19.3 c -0.1,0 -0.1,0.1 -0.1,0.2 l 0.3,0.8 c -0.2,0.1 -0.4,0.3 -0.6,0.4 L 17,20.2 c -0.1,-0.1 -0.2,-0.1 -0.3,0 l -0.2,0.2 c -0.1,0.1 -0.1,0.2 0,0.3 l 0.5,0.6 c -0.2,0.2 -0.3,0.4 -0.4,0.6 l -0.8,-0.3 c -0.1,0 -0.2,0 -0.2,0.1 l -0.1,0.2 c 0,0.1 0,0.2 0.1,0.2 l 0.7,0.4 c -0.1,0.2 -0.2,0.5 -0.2,0.7 l -0.8,0 c -0.1,0 -0.2,0.1 -0.2,0.2 l 0,0.2 c 0,0.1 0.1,0.2 0.1,0.2 L 16,24 c 0,0.3 0,0.5 0.1,0.8 l -0.8,0.3 c -0.1,0 -0.1,0.1 -0.1,0.2 l 0.1,0.2 c 0,0.1 0.1,0.2 0.2,0.1 l 0.8,-0.1 c 0.1,0.2 0.2,0.5 0.3,0.7 L 16,26.7 c -0.1,0.1 -0.1,0.2 0,0.3 l 0.1,0.2 c 0.1,0.1 0.2,0.1 0.2,0.1 L 17,27 c 0.1,0.1 0.2,0.2 0.3,0.3 0.1,0.1 0.2,0.2 0.3,0.3 l -0.4,0.7 c 0,0.1 0,0.2 0.1,0.2 l 0.2,0.1 c 0.1,0.1 0.2,0 0.3,0 L 18.3,28 c 0.2,0.1 0.5,0.2 0.7,0.3 l -0.1,0.8 c 0,0.1 0,0.2 0.1,0.2 l 0.2,0.1 c 0.1,0 0.2,0 0.2,-0.1 l 0.3,-0.8 c 0.3,0 0.5,0.1 0.8,0.1 l 0.1,0.8 c 0,0.1 0.1,0.2 0.2,0.2 l 0.2,0 c 0.1,0 0.2,-0.1 0.2,-0.2 l 0,-0.8 c 0.3,0 0.5,-0.1 0.7,-0.2 l 0.4,0.7 c 0,0.1 0.2,0.1 0.2,0.1 l 0.2,-0.1 c 0.1,0 0.1,-0.1 0.1,-0.2 L 22.6,28 c 0.2,-0.1 0.4,-0.3 0.6,-0.4 l 0.6,0.5 c 0.1,0.1 0.2,0.1 0.3,0 l 0.2,-0.2 c 0.1,-0.1 0.1,-0.2 0,-0.3 L 23.8,27 c 0.2,-0.2 0.3,-0.4 0.4,-0.6 l 0.8,0.3 c 0.1,0 0.2,0 0.2,-0.1 l 0.1,-0.2 c 0,-0.1 0,-0.2 -0.1,-0.2 l -0.7,-0.4 c 0.1,-0.2 0.2,-0.5 0.2,-0.7 l 0.8,0 c 0.1,0 0.2,-0.1 0.2,-0.2 l 0,-0.2 c 0.1,-0.3 0,-0.4 -0.1,-0.4 z m -7.8,-2.8 c 0.4,-0.4 0.8,-0.6 1.2,-0.8 l 0.5,1.9 c -0.1,0.1 -0.3,0.2 -0.4,0.3 -0.1,0.1 -0.2,0.2 -0.3,0.4 l -1.9,-0.5 c 0.2,-0.5 0.5,-0.9 0.9,-1.3 z m -0.3,4.9 c -0.6,-0.8 -0.9,-1.8 -0.7,-2.8 l 1.9,0.5 c 0,0.3 0.1,0.6 0.2,0.9 l -1.4,1.4 z m 0.6,0.6 1.4,-1.4 c 0.3,0.2 0.6,0.2 0.9,0.2 l 0.5,1.9 c -1,0.2 -2,0 -2.8,-0.7 z m 2.8,-2.3 c -0.3,0.3 -0.8,0.3 -1,0 -0.3,-0.3 -0.3,-0.8 0,-1 0.3,-0.3 0.8,-0.3 1,0 0.3,0.2 0.3,0.7 0,1 z m -0.5,-2.3 -0.5,-1.9 c 1,-0.1 2,0.1 2.8,0.8 l -1.4,1.4 C 21,22.5 20.7,22.4 20.4,22.4 Z m 2.6,4.4 c -0.4,0.4 -0.8,0.6 -1.2,0.8 l -0.5,-1.9 c 0.1,-0.1 0.3,-0.2 0.4,-0.3 0.1,-0.1 0.2,-0.2 0.3,-0.4 l 1.9,0.5 C 23.6,26 23.3,26.4 23,26.8 Z m 1,-2.1 -1.9,-0.5 c 0,-0.3 -0.1,-0.6 -0.2,-0.9 l 1.4,-1.4 c 0.6,0.8 0.9,1.8 0.7,2.8 z" /></g></svg>