<?xml version="1.0" encoding="UTF-8" standalone="no"?>
<!-- Created with Inkscape (http://www.inkscape.org/) -->

<svg
   xmlns:dc="http://purl.org/dc/elements/1.1/"
   xmlns:cc="http://creativecommons.org/ns#"
   xmlns:rdf="http://www.w3.org/1999/02/22-rdf-syntax-ns#"
   xmlns:svg="http://www.w3.org/2000/svg"
   xmlns="http://www.w3.org/2000/svg"
   version="1.1"
   width="16"
   height="16"
   viewBox="0 0 16 16"
   id="svg2"
   style="fill:#029fe4">
  <defs
     id="defs4" />
  <metadata
     id="metadata7">
    <rdf:RDF>
      <cc:Work
         rdf:about="">
        <dc:format>image/svg+xml</dc:format>
        <dc:type
           rdf:resource="http://purl.org/dc/dcmitype/StillImage" />
        <dc:title></dc:title>
      </cc:Work>
    </rdf:RDF>
  </metadata>
  <g
     id="layer1">
    <rect
       width="16"
       height="16"
       x="0"
       y="0"
       id="rect3006"
       style="fill-opacity:0" />
    <g
       transform="matrix(0.18761038,0,0,0.17163883,-0.74443799,-9.3770041e-8)"
       id="g5">
      <polygon
    alert="false"       points="32.56,83.963 30.374,86.225 30.374,89.005 34.705,89.005 34.705,86.222 "
         id="polygon7" />
      <path
    alert="false"       d="m 88.325,23.407 c -0.873,-1.269 -2.252,-2.09 -3.782,-2.25 L 69.678,19.593 c -2.899,-0.256 -5.419,1.852 -5.716,4.684 -0.305,2.884 1.794,5.477 4.678,5.781 l 0.229,0.023 -7.758,5.123 0,-30.53 C 61.11,2.097 59.014,0 56.437,0 L 8.642,0 C 6.064,0 3.968,2.097 3.968,4.674 l 0,83.871 c 0,2.578 2.096,4.674 4.674,4.674 l 47.794,0 c 2.577,0 4.674,-2.096 4.674,-4.674 l 0,-40.738 14.217,-9.388 -0.115,0.435 c -0.363,1.356 -0.176,2.772 0.527,3.989 0.703,1.218 1.836,2.087 3.207,2.453 0.441,0.115 0.895,0.175 1.348,0.175 2.375,0 4.463,-1.603 5.078,-3.899 l 3.701,-13.828 c 0.397,-1.488 0.123,-3.069 -0.748,-4.337 z m -52.707,66.51 -6.157,0 0,-4.062 3.104,-3.211 3.054,3.215 -10e-4,4.058 0,0 z m -26.976,-8.968 0,-76.276 47.794,0 0,33.615 -2.906,1.919 c -0.504,0.335 -0.944,0.752 -1.315,1.248 l -6.614,8.91 -8.977,-11.084 c -1,-1.234 -2.485,-1.944 -4.085,-1.948 -1.587,0 -3.072,0.705 -4.074,1.934 L 10.939,60.74 c -0.888,1.088 -1.299,2.457 -1.158,3.854 0.141,1.397 0.818,2.656 1.906,3.544 0.937,0.764 2.117,1.186 3.324,1.186 1.587,0 3.072,-0.705 4.075,-1.934 l 13.438,-16.464 9.174,11.327 c 0.999,1.23 2.496,1.939 4.195,1.945 1.613,-0.032 3.15,-0.827 4.112,-2.123 l 6.434,-8.666 0,27.539 -47.797,0 0,0.001 z m 77.101,-54.401 -3.7,13.826 c -0.21,0.783 -0.918,1.3 -1.692,1.3 -0.15,0 -0.302,-0.019 -0.453,-0.059 -0.936,-0.25 -1.49,-1.212 -1.24,-2.146 L 81.16,30.116 57.72,45.592 47.247,59.697 c -0.323,0.436 -0.829,0.695 -1.37,0.707 -0.569,-0.002 -1.059,-0.229 -1.399,-0.648 L 32.591,45.08 16.427,64.882 c -0.346,0.425 -0.851,0.646 -1.359,0.646 -0.39,0 -0.782,-0.129 -1.107,-0.396 -0.75,-0.61 -0.862,-1.716 -0.25,-2.466 L 31.238,41.192 c 0.333,-0.408 0.832,-0.645 1.358,-0.645 0.001,0 0.002,0 0.003,0 0.527,0.001 1.026,0.24 1.358,0.649 l 11.821,14.595 9.308,-12.538 c 0.122,-0.163 0.271,-0.305 0.44,-0.418 l 23.49,-15.509 -9.953,-1.048 c -0.963,-0.102 -1.662,-0.964 -1.56,-1.927 0.101,-0.964 0.969,-1.644 1.927,-1.561 l 14.801,1.559 c 0.51,0.054 0.971,0.329 1.262,0.751 0.291,0.425 0.382,0.953 0.25,1.448 z"
         id="path9" />
      <rect
         width="12.658"
         height="0.97299999"
         x="14.818"
         y="13.599"
         id="rect11" />
      <rect
   alert="false"        width="6.0370002"
         height="0.97399998"
         x="14.818"
         y="10.873"
         id="rect13" />
      <rect
    alert="false"       width="23.954"
         height="0.97399998"
         x="14.818"
         y="16.326"
         id="rect15" />
      <path
         d="m 38.472,30.59 c -0.335,-0.336 -0.551,-0.761 -0.625,-1.226 l -0.583,0.092 c 0.094,0.59 0.367,1.127 0.791,1.551 0.548,0.548 1.269,0.822 1.989,0.822 0.72,0 1.441,-0.274 1.99,-0.822 0.532,-0.531 0.824,-1.239 0.824,-1.99 0,-0.753 -0.292,-1.459 -0.824,-1.99 l -0.417,0.417 c 0.42,0.421 0.651,0.979 0.651,1.573 0,0.594 -0.231,1.153 -0.651,1.573 -0.867,0.868 -2.278,0.868 -3.145,0 z"
         id="path17" />
      <path
    alert="false"       d="m 34.742,21.517 -5.693,0 c -0.131,-0.48 -0.566,-0.837 -1.087,-0.837 -0.623,0 -1.131,0.508 -1.131,1.132 0,0.623 0.508,1.13 1.131,1.13 0.521,0 0.957,-0.355 1.087,-0.835 l 5.411,0 1.906,2.366 c -1.492,1.124 -2.461,2.905 -2.461,4.913 0,3.395 2.761,6.156 6.156,6.156 1.353,0 2.637,-0.432 3.712,-1.245 l -0.356,-0.472 c -0.973,0.737 -2.133,1.126 -3.356,1.126 -3.069,0 -5.566,-2.497 -5.566,-5.565 0,-1.822 0.883,-3.438 2.241,-4.454 l 0.715,0.888 c -0.185,0.135 -0.364,0.282 -0.528,0.447 -0.686,0.685 -1.119,1.554 -1.25,2.511 l 0.584,0.08 c 0.115,-0.829 0.489,-1.581 1.083,-2.175 0.15,-0.148 0.312,-0.282 0.481,-0.403 l 1.224,1.521 0.459,-0.37 -1.175,-1.46 c 0.525,-0.263 1.107,-0.407 1.713,-0.407 1.02,0 1.98,0.398 2.702,1.12 0.719,0.72 1.116,1.675 1.119,2.691 l -1.76,2.187 0.459,0.371 1.125,-1.397 c -0.182,0.58 -0.5,1.112 -0.943,1.555 -1.49,1.489 -3.915,1.489 -5.405,0 -0.576,-0.576 -0.947,-1.305 -1.073,-2.106 l -0.583,0.093 c 0.146,0.925 0.574,1.765 1.239,2.43 0.859,0.859 1.989,1.291 3.12,1.291 1.129,0 2.259,-0.432 3.119,-1.291 0.784,-0.782 1.231,-1.811 1.283,-2.91 l 1.07,-1.331 c 0.074,0.363 0.113,0.737 0.113,1.122 0,1.184 -0.367,2.315 -1.062,3.271 l 0.478,0.347 c 0.768,-1.059 1.175,-2.311 1.175,-3.619 0,-0.588 -0.088,-1.155 -0.243,-1.694 l 1.17,-1.454 5.226,0 c 0.131,0.48 0.565,0.835 1.087,0.835 0.624,0 1.131,-0.505 1.131,-1.13 0,-0.624 -0.507,-1.131 -1.131,-1.131 -0.521,0 -0.956,0.355 -1.087,0.836 l -5.507,0 -1.116,1.385 c -0.925,-2.229 -3.125,-3.803 -5.687,-3.803 -1.175,0 -2.271,0.336 -3.206,0.91 l -2.113,-2.625 z m -6.781,0.836 c -0.298,0 -0.541,-0.242 -0.541,-0.541 0,-0.299 0.243,-0.541 0.541,-0.541 0.299,0 0.541,0.242 0.541,0.541 0,0.299 -0.242,0.541 -0.541,0.541 z m 25.496,3.05 c 0.298,0 0.541,0.241 0.541,0.54 0,0.298 -0.243,0.541 -0.541,0.541 -0.298,0 -0.541,-0.243 -0.541,-0.541 0,-0.299 0.241,-0.54 0.541,-0.54 z M 40.06,23.82 c 2.433,0 4.501,1.571 5.256,3.75 l -0.92,1.142 c -0.14,-0.922 -0.563,-1.774 -1.236,-2.444 -0.833,-0.834 -1.941,-1.294 -3.119,-1.294 -0.742,0 -1.457,0.183 -2.092,0.527 l -0.722,-0.896 c 0.831,-0.496 1.798,-0.785 2.833,-0.785 z"
         id="path19" />
    </g>
  </g>
</svg>
