<?xml version="1.0" encoding="UTF-8" standalone="no"?>
<svg
   xmlns:dc="http://purl.org/dc/elements/1.1/"
   xmlns:cc="http://creativecommons.org/ns#"
   xmlns:rdf="http://www.w3.org/1999/02/22-rdf-syntax-ns#"
   xmlns:svg="http://www.w3.org/2000/svg"
   xmlns="http://www.w3.org/2000/svg"
   style="fill:#1ab394"
   id="svg2"
   preserveAspectRatio="xMidYMid meet"
   viewBox="0 0 16 16"
   height="16"
   width="16"
   version="1.0">
  <defs
     id="defs28" />
  <metadata
     id="metadata4">
Created by potrace 1.10, written by Peter Selinger 2001-2011
<rdf:RDF>
  <cc:Work
     rdf:about="">
    <dc:format>image/svg+xml</dc:format>
    <dc:type
       rdf:resource="http://purl.org/dc/dcmitype/StillImage" />
    <dc:title></dc:title>
  </cc:Work>
</rdf:RDF>
</metadata>
  <rect
     y="-14"
     x="0"
     height="24"
     width="24"
     id="rect3356"
     style="fill:#ffffff;fill-opacity:0" />
  <g
     id="g6"
     transform="matrix(0.00269093,0,0,-0.00324821,-0.00529071,17.742377)">
    <path
       id="path8"
       d="m 3775,4505 c -55,-61 -42,-128 54,-264 50,-70 105,-173 123,-229 39,-119 119,-284 146,-301 11,-6 7,-54 -10,-116 -58,-221 -27,-469 74,-577 90,-96 148,-73 186,74 l 25,98 42,-80 c 23,-44 89,-125 147,-180 58,-55 91,-77 73,-50 -100,152 -198,326 -231,410 l -37,95 -43,-55 c -37,-47 -54,-100 -71,-230 -8,-66 -64,-26 -97,70 -43,125 -45,255 -6,382 40,133 38,160 -20,237 -28,36 -73,132 -100,213 -28,81 -86,199 -130,262 -148,211 -62,265 170,107 33,-23 121,-51 196,-64 340,-58 621,-336 844,-833 140,-310 163,-341 282,-374 51,-15 162,-72 245,-127 l 153,-101 -102,-14 c -313,-40 -314,-155 -4,-318 69,-36 155,-87 190,-113 93,-69 98,-58 16,42 -40,48 -126,123 -191,165 -153,98 -150,117 21,146 77,13 146,34 153,46 23,36 -212,230 -376,310 l -153,74 -109,230 c -61,127 -115,246 -122,265 -95,280 -615,695 -870,695 -27,0 -94,28 -148,63 -125,81 -268,100 -320,42 z" />
    <path
       id="path10"
       d="m 4210,4161 c -13,-23 45,-121 72,-121 10,0 18,22 18,49 0,53 -68,107 -90,72 z" />
    <path
       id="path12"
       d="M 86,2630 C 0,2593 -2,2576 4,2120 l 6,-390 95,-6 94,-6 6,386 5,386 156,-350 c 173,-386 199,-420 322,-420 128,0 153,31 323,413 l 159,357 5,-386 6,-386 94,6 95,6 6,390 c 6,460 4,474 -86,511 -198,83 -258,28 -450,-409 -173,-396 -134,-401 -323,45 -162,384 -238,447 -431,363 z" />
    <path
       id="path14"
       d="m 2792,2619 c -116,-34 -152,-92 -152,-239 0,-200 102,-260 439,-260 200,0 221,-13 221,-133 0,-114 -5,-116 -360,-127 l -310,-10 0,-60 0,-60 280,-6 c 473,-11 590,39 590,253 0,216 -65,263 -368,263 -270,0 -296,13 -288,145 l 6,105 335,5 335,6 0,69 0,70 -335,-2 c -184,-1 -361,-9 -393,-19 z" />
    <path
       id="path16"
       d="m 3790,2610 c -142,-51 -150,-72 -150,-433 0,-431 33,-463 472,-456 l 211,4 65,-63 c 57,-55 77,-62 181,-62 l 117,0 -93,81 -92,82 54,47 55,47 0,320 c 0,367 -13,399 -181,441 -126,32 -541,27 -639,-8 z m 591,-131 c 36,-19 39,-44 39,-299 0,-312 -11,-336 -108,-242 -57,56 -76,62 -183,61 l -119,-1 78,-69 79,-69 -124,0 c -189,0 -203,22 -203,320 0,319 1,320 291,320 117,0 229,-9 250,-21 z" />
    <path
       id="path18"
       d="m 4740,2258 0,-381 56,-56 c 78,-78 220,-103 545,-97 l 269,6 6,65 7,65 -303,0 c -413,0 -380,-36 -380,411 l 0,369 -100,0 -100,0 0,-382 z" />
    <path
       id="path20"
       d="m 1540,2124 c 0,-357 33,-384 469,-384 l 271,0 0,-49 c 0,-95 -58,-111 -414,-111 l -326,0 0,-60 0,-60 372,0 c 575,0 568,-6 568,524 l 0,376 -100,0 -100,0 0,-250 0,-250 -246,0 c -306,0 -294,-11 -294,274 l 0,226 -100,0 -100,0 0,-236 z" />
  </g>
</svg>
