<?xml version="1.0" encoding="UTF-8" standalone="no"?>
<svg
   xmlns:dc="http://purl.org/dc/elements/1.1/"
   xmlns:cc="http://creativecommons.org/ns#"
   xmlns:rdf="http://www.w3.org/1999/02/22-rdf-syntax-ns#"
   xmlns:svg="http://www.w3.org/2000/svg"
   xmlns="http://www.w3.org/2000/svg"
   style="fill:#1ab394"
   xml:space="preserve"
   width="16"
   viewBox="0 0 16 16"
   version="1.1"
   id="_1_1_"
   height="16"><metadata
     id="metadata12"><rdf:RDF><cc:Work
         rdf:about=""><dc:format>image/svg+xml</dc:format><dc:type
           rdf:resource="http://purl.org/dc/dcmitype/StillImage" /><dc:title></dc:title></cc:Work></rdf:RDF></metadata><defs
     id="defs10" /><rect
     y="2.220446e-16"
     x="0"
     height="16"
     width="16"
     id="rect3341"
     style="fill:#ffffff;fill-opacity:0" /><g
     transform="translate(0,-14)"
     id="_1"><path
       id="path6"
       d="m 11.92757,18.00134 -0.338836,0 0,7.998507 1.591843,0 0.215629,-1.306729 -1.468636,0 0,-6.691778 z m -4.6463396,0.395923 -1.2426416,7.602584 0.4108053,0 0.3748379,-2.296802 0.8010171,0 0.2105509,-1.306326 -0.8010523,0 0.4364411,-2.633311 1.0218293,6.236439 0.4107008,0 -1.2528682,-7.6223 c -0.076944,-0.495035 -0.2823808,-0.495035 -0.3696203,0.01972 z m 2.4081312,0.908258 1.4249124,0 L 11.324372,18 9.6791349,18.0036 c -0.5725877,0 -0.9494085,1.789428 -0.9494085,3.996776 0,2.207212 0.3768208,3.99704 0.9494085,3.99704 l 1.3917971,-0.0063 0.21789,-1.295733 -1.5994257,0 c -0.3860384,0 -0.6116507,-1.206542 -0.6116507,-2.695003 -3.47e-5,-1.488197 0.2256123,-2.694875 0.611616,-2.694875 z m -7.2714912,-1.301901 -1.4685664,0 C 0.37682027,18.00362 0,19.793048 0,22.000528 c 0,2.207079 0.37682027,3.996908 0.949304,3.996908 l 1.4685664,0 c 0.5725184,0 0.949304,-1.789829 0.949304,-3.996908 0,-2.20748 -0.3767856,-3.996908 -0.949304,-3.996908 z m 0,6.691778 -1.4685664,0 c -0.38600373,0 -0.611616,-1.206541 -0.611616,-2.69487 0,-1.488329 0.22564693,-2.695007 0.611616,-2.695007 l 1.4685664,0 c 0.3860037,0 0.6116507,1.206678 0.6116507,2.695007 0,1.488329 -0.225647,2.69487 -0.6116507,2.69487 z m 11.3513646,-2.061287 1.794498,0 0.215803,-1.30673 -2.010301,0 c 0.05872,-1.157857 0.270728,-2.021724 0.595546,-2.021724 l 1.424946,0 L 16,18.000136 l -1.645411,0.0036 c -0.572588,0 -0.949234,1.789428 -0.949234,3.996772 0,2.207212 0.376646,3.99704 0.949234,3.99704 l 1.391762,-0.0063 0.217891,-1.295734 -1.599427,0 c -0.329478,-1.36e-4 -0.540481,-0.878622 -0.59558,-2.061423 z M 5.2984096,22.74999 c 0.3398795,0 0.6154075,-1.062362 0.6154075,-2.372983 0,-1.310485 -0.275528,-2.372715 -0.6154075,-2.372715 l -1.7278853,-0.0028 0,7.998508 0.3799861,0 0,-6.693654 1.3478992,0 c 0.1534,0 0.2777541,0.479479 0.2777541,1.07081 0,0.591471 -0.1243541,1.07095 -0.2777541,1.07095 l -1.0808587,0 1.2192662,4.542774 0.4905658,0 -0.8728821,-3.238057 0.2439088,-0.0028 z" /></g></svg>