<?xml version="1.0" encoding="UTF-8" standalone="no"?>
<svg
   xmlns:dc="http://purl.org/dc/elements/1.1/"
   xmlns:cc="http://creativecommons.org/ns#"
   xmlns:rdf="http://www.w3.org/1999/02/22-rdf-syntax-ns#"
   xmlns:svg="http://www.w3.org/2000/svg"
   xmlns="http://www.w3.org/2000/svg"
   xml:space="preserve"
   enable-background="new 0 0 30 30"
   style="fill:#2ea7e0"
   height="16"
   width="16"
   viewBox="0 0 16 16"
   y="0px"
   x="0px"
   id="apps"
   version="1.1"><defs
     id="defs32" /><rect
     style="fill:#0000ff;fill-opacity:0"
     y="-2.2888184e-05"
     x="0"
     height="16"
     width="16"
     id="rect3364" /><g
     transform="matrix(0.54589835,0,0,0.68043742,-0.37906158,-2.3681651)"
     id="g4"><path
       id="path6"
       d="M 29.3,10.8 27.7,10.4 15,15.8 c -0.8,0.4 -2.1,0.4 -2.9,0 L 2.8,11.7 1.5,12.1 C 0.6,12.4 0.5,12.8 1,13 l 11.2,4.9 c 0.8,0.3 2,0.3 2.8,0 L 29.7,11.5 C 30.2,11.3 30,11 29.3,10.8 Z" /><path
       id="path8"
       d="M 29.3,13.2 27.7,12.8 15,18.3 c -0.8,0.4 -2.1,0.4 -2.9,0 L 2.8,14.2 1.5,14.6 c -0.8,0.2 -0.9,0.6 -0.4,0.9 l 11.2,4.9 c 0.8,0.3 2,0.3 2.8,0 L 29.7,14 c 0.5,-0.2 0.3,-0.6 -0.4,-0.8 z" /><path
       id="path10"
       d="M 29.3,15.7 27.7,15.3 15,20.7 c -0.8,0.4 -2.1,0.4 -2.9,0 L 2.8,16.6 1.5,17 c -0.8,0.2 -0.9,0.6 -0.4,0.9 l 11.2,4.9 c 0.8,0.3 2,0.3 2.8,0 l 14.7,-6.4 c 0.4,-0.2 0.2,-0.5 -0.5,-0.7 z" /><path
       id="path12"
       d="M 29.3,18.1 27.7,17.7 15,23.2 c -0.8,0.4 -2.1,0.4 -2.9,0 L 2.8,19.1 1.5,19.5 c -0.8,0.2 -0.9,0.6 -0.4,0.9 l 11.2,4.9 c 0.8,0.3 2,0.3 2.8,0 l 14.7,-6.4 c 0.4,-0.2 0.2,-0.6 -0.5,-0.8 z" /><path
       id="path14"
       d="M 15.4,9.8 C 14.9,9.6 14.2,9.6 13.8,9.7 c -0.3,0.1 -0.3,0.3 -0.1,0.4 0,0 0.1,0 0.2,0.1 l 0.5,0.2 c 0.1,0 0.2,0.1 0.2,0.1 0.4,0.1 0.8,0.1 1.1,0 C 16.1,10.2 16,10 15.4,9.8 Z" /><path
       id="path16"
       d="m 8,10.8 c 0.2,0.1 0.4,0.3 0.6,0.4 L 9.2,11.7 10.3,11.3 9.1,11 C 8.8,10.9 8.4,10.8 8,10.8 l 0,0 z" /><path
       id="path18"
       d="M 19.3,8.5 C 18.8,8.3 18.2,8.3 17.7,8.4 c -0.3,0.1 -0.3,0.2 0,0.3 0,0 0.1,0 0.2,0.1 L 18.3,9 c 0.1,0 0.2,0 0.2,0.1 0.3,0.1 0.8,0.1 1.1,0 C 20,8.9 19.8,8.7 19.3,8.5 Z" /><path
       id="path20"
       d="M 29.3,8.3 18.2,5.1 c -0.6,-0.2 -1.5,-0.2 -2,0 L 1.4,9.7 C 0.6,9.9 0.5,10.3 1,10.6 l 11.2,4.9 c 0.8,0.3 2,0.3 2.8,0 L 29.7,9 C 30.2,8.8 30,8.5 29.3,8.3 Z" /><polygon
       id="polygon22"
       points="13,11.8 11.4,11.5 9.9,12 10.7,12.6 9.5,13 6.6,10.7 8.1,10.2 14.2,11.3 " /><path
       id="path24"
       d="m 17.2,11.3 -1.1,0.4 -3.7,-1.3 C 12,10.3 11.6,10.1 11.3,10 l 0.9,-0.3 0.5,0.1 0,0 c -0.1,-0.2 0.1,-0.4 0.6,-0.5 0.7,-0.2 2,-0.2 3,0.1 1.2,0.4 1.1,0.8 0.4,1.1 -0.4,0.1 -0.9,0.2 -1.3,0.2 l 0,0 c 0,0 1.8,0.6 1.8,0.6 z" /><path
       id="path26"
       d="M 20.2,10.2 16.5,9 C 16.1,8.9 15.7,8.8 15.4,8.7 l 0.8,-0.3 0.5,0.1 0,0 C 16.6,8.3 16.8,8.2 17.2,8 17.9,7.8 19,7.8 20.1,8.1 c 1.2,0.4 1.1,0.8 0.5,1 -0.4,0.1 -0.8,0.2 -1.2,0.2 l 0,0 1.7,0.5 -0.9,0.4 z" /><path
       id="path28"
       d="M 23.3,8.2 C 22.9,8.3 22.5,8.4 22.1,8.5 L 21.5,8.2 c 0.3,0 0.8,-0.1 1,-0.2 0.3,-0.1 0.3,-0.2 0.1,-0.2 -0.2,0 -0.3,0 -0.8,0 C 21,8 20.4,7.9 20,7.8 19.4,7.6 19.4,7.3 20.1,7.1 20.4,7 20.8,6.9 21.1,6.9 l 0.5,0.2 c -0.2,0 -0.5,0.1 -0.8,0.1 -0.2,0.1 -0.2,0.1 -0.1,0.2 0.2,0 0.3,0 0.8,0 0.7,-0.1 1.3,-0.1 1.8,0 0.7,0.3 0.7,0.6 0,0.8 z" /></g><metadata
     id="metadata3362"><rdf:RDF><cc:Work
         rdf:about=""><dc:title></dc:title></cc:Work></rdf:RDF></metadata></svg>