<?xml version="1.0" encoding="UTF-8" standalone="no"?>
<!-- Created with Inkscape (http://www.inkscape.org/) -->

<svg
   xmlns:dc="http://purl.org/dc/elements/1.1/"
   xmlns:cc="http://creativecommons.org/ns#"
   xmlns:rdf="http://www.w3.org/1999/02/22-rdf-syntax-ns#"
   xmlns:svg="http://www.w3.org/2000/svg"
   xmlns="http://www.w3.org/2000/svg"
   version="1.1"
   width="16"
   height="16"
   viewBox="0 0 16 16"
   id="svg2"
   style="fill:#ffffff">
  <defs
     id="defs4" />
  <metadata
     id="metadata7">
    <rdf:RDF>
      <cc:Work
         rdf:about="">
        <dc:format>image/svg+xml</dc:format>
        <dc:type
           rdf:resource="http://purl.org/dc/dcmitype/StillImage" />
        <dc:title></dc:title>
      </cc:Work>
    </rdf:RDF>
  </metadata>
  <g
     id="layer1">
    <rect
       width="16"
       height="16"
       x="0"
       y="0"
       id="rect3010"
       style="fill-opacity:0" />
    <g
       id="g2999"
       style="fill:#029fe4">
      <rect
         width="16"
         height="16"
         x="0"
         y="0"
         id="rect3352"
         style="fill:#ffffff;fill-opacity:0" />
      <g
         transform="matrix(0.00243353,0,0,-0.00229673,-2.9301776,18.298887)"
         id="g6">
        <path
   alert="false"          d="m 5875,7959 c -113,-7 -244,-26 -292,-40 -18,-6 -54,-14 -80,-19 -27,-5 -73,-15 -103,-23 l -55,-13 39,-17 c 21,-9 41,-17 43,-17 3,0 19,-6 36,-14 18,-8 55,-24 82,-37 28,-12 52,-24 55,-28 3,-3 28,-17 55,-30 157,-77 339,-214 510,-385 72,-72 153,-160 180,-196 27,-36 52,-67 55,-70 12,-11 133,-189 143,-210 4,-8 16,-28 27,-45 31,-49 180,-351 180,-367 0,-8 4,-18 8,-23 5,-6 19,-40 30,-76 19,-57 22,-87 21,-230 0,-90 -5,-189 -10,-219 -5,-30 -13,-92 -19,-137 -5,-45 -14,-103 -20,-129 -14,-63 -14,-413 0,-484 30,-155 49,-543 31,-655 -13,-79 -51,-242 -61,-265 -4,-8 -18,-37 -31,-65 -12,-27 -33,-67 -46,-87 -13,-21 -23,-45 -23,-54 0,-17 89,-143 102,-144 7,0 88,118 88,130 0,5 6,15 13,22 6,7 23,33 36,58 14,25 27,47 30,50 4,3 12,16 18,30 7,14 26,48 42,75 47,81 209,396 254,495 59,129 77,170 116,265 23,55 46,108 51,117 6,10 10,23 10,29 0,6 7,27 16,47 9,21 22,52 30,70 8,18 14,37 14,43 0,6 6,25 14,42 8,18 25,64 37,102 12,39 25,75 29,80 4,6 11,28 15,50 4,22 10,45 15,50 4,6 11,28 15,50 4,22 10,44 13,50 4,5 12,33 18,60 7,28 20,79 29,115 41,156 71,304 85,420 5,41 15,95 21,120 13,57 15,510 1,536 -5,11 -13,42 -17,69 -4,28 -11,55 -15,60 -4,6 -11,21 -15,35 -28,95 -229,317 -405,449 -141,105 -130,98 -270,167 -63,31 -122,59 -130,64 -9,4 -30,11 -48,14 -17,4 -34,12 -37,17 -4,5 -15,9 -25,9 -10,0 -31,5 -47,12 -72,30 -266,66 -418,78 -125,10 -294,10 -440,-1 z"
           id="path8" />
        <path
    alert="false"         d="m 4390,7870 c -95,-13 -206,-43 -310,-82 -42,-16 -151,-70 -165,-81 -5,-4 -38,-26 -72,-48 -189,-122 -394,-384 -503,-644 -11,-27 -25,-58 -30,-67 -6,-10 -10,-23 -10,-29 0,-6 -6,-25 -14,-42 -23,-53 -45,-120 -52,-160 -3,-20 -10,-40 -15,-43 -5,-3 -9,-18 -9,-33 0,-16 -6,-51 -14,-77 -37,-128 -94,-574 -73,-574 3,0 25,13 49,29 73,48 244,131 271,131 7,0 17,4 22,9 6,6 30,15 55,21 263,67 347,72 506,31 71,-18 156,-72 202,-127 47,-56 46,-54 71,-109 38,-81 41,-88 51,-135 5,-25 13,-65 18,-90 29,-139 37,-191 63,-440 12,-114 6,-371 -10,-460 -25,-129 -30,-158 -41,-205 -7,-27 -16,-54 -21,-60 -5,-5 -9,-18 -9,-28 0,-10 -6,-33 -14,-50 -7,-18 -21,-52 -31,-77 -23,-55 -53,-128 -65,-155 -5,-11 -18,-42 -30,-70 -12,-27 -25,-59 -30,-70 -5,-11 -18,-47 -29,-80 -11,-34 -24,-72 -29,-85 -29,-77 -77,-269 -68,-277 3,-3 11,-1 18,5 19,15 99,42 128,42 36,0 126,-35 172,-66 50,-35 92,-88 126,-161 l 27,-58 6,-680 c 7,-685 18,-922 53,-1140 21,-135 30,-160 96,-295 114,-231 291,-342 541,-339 101,1 299,37 372,67 16,7 34,12 41,12 24,0 187,88 243,131 95,74 197,230 228,349 3,14 10,34 14,45 9,21 30,118 37,170 3,17 11,71 19,120 8,50 19,128 25,175 6,47 18,135 26,195 8,61 19,151 24,200 5,50 13,113 19,140 11,53 25,186 41,375 6,63 13,122 17,130 3,8 9,89 13,180 8,214 35,296 118,370 42,38 154,90 192,90 15,0 20,7 20,25 0,22 -22,69 -40,85 -18,17 -114,146 -152,205 -24,39 -80,142 -123,230 -43,88 -90,178 -103,200 -31,48 -208,398 -241,475 -13,30 -32,74 -42,97 -11,23 -19,46 -19,51 0,5 -7,23 -15,38 -8,16 -15,36 -15,45 0,8 -4,19 -9,25 -15,17 -68,205 -90,321 -41,219 -6,422 92,533 64,72 180,141 275,161 26,5 70,15 97,21 31,6 121,8 238,5 l 189,-5 -7,36 c -12,68 -35,128 -112,287 -41,85 -149,277 -175,310 -4,6 -41,55 -81,110 -109,149 -200,247 -354,382 -45,39 -94,80 -110,90 -15,10 -33,22 -40,28 -7,5 -19,16 -27,23 -8,6 -17,12 -20,12 -3,0 -24,13 -48,29 -51,34 -118,73 -173,99 -80,40 -177,82 -187,82 -5,0 -24,6 -41,13 -59,25 -211,67 -337,93 -94,19 -509,29 -610,14 z"
           id="path10" />
        <path
    alert="false"         d="m 2380,7867 c -3,-3 -43,-10 -90,-16 -90,-11 -221,-38 -255,-52 -11,-4 -31,-11 -45,-14 -56,-15 -186,-79 -270,-133 -70,-46 -224,-200 -272,-272 -19,-30 -50,-84 -68,-120 -17,-36 -38,-78 -46,-93 -8,-16 -14,-33 -14,-39 0,-5 -6,-24 -13,-41 -33,-77 -70,-239 -89,-392 -26,-201 -14,-585 23,-755 5,-25 14,-74 19,-110 5,-36 16,-101 25,-145 33,-166 45,-222 59,-285 7,-36 19,-90 26,-120 6,-30 16,-70 21,-87 6,-18 14,-54 19,-80 15,-79 35,-157 42,-168 3,-6 9,-28 13,-50 4,-22 13,-60 20,-85 7,-25 21,-72 30,-105 18,-69 42,-152 60,-210 7,-22 21,-67 30,-100 10,-33 24,-74 32,-92 7,-17 13,-40 13,-50 0,-10 4,-23 8,-28 5,-6 19,-41 31,-80 12,-38 29,-84 37,-102 8,-17 14,-36 14,-42 0,-6 6,-25 14,-43 8,-18 21,-49 30,-70 9,-20 16,-41 16,-46 0,-6 7,-23 15,-39 8,-15 28,-59 46,-98 45,-100 127,-265 150,-300 10,-16 22,-37 26,-45 27,-53 112,-165 168,-223 121,-125 223,-169 334,-146 103,21 186,93 356,304 22,28 48,59 58,70 10,11 51,58 90,105 40,47 77,90 82,96 6,6 42,46 80,89 39,44 98,110 132,147 l 62,69 -51,42 c -29,24 -72,67 -96,97 -24,30 -52,64 -61,75 -30,36 -79,122 -101,176 -13,30 -29,68 -36,86 -8,17 -14,42 -14,55 0,13 -5,29 -10,34 -15,15 -35,176 -34,274 0,47 9,159 19,250 20,166 24,432 14,905 -4,157 13,434 27,457 4,6 10,44 15,85 4,41 12,89 18,106 5,18 17,68 27,112 16,76 74,267 93,310 5,11 19,45 31,75 51,126 160,329 182,338 4,2 8,8 8,14 0,15 82,118 165,206 41,44 75,83 75,86 0,3 -8,6 -17,6 -10,0 -31,7 -47,15 -15,8 -35,15 -43,15 -8,0 -29,6 -46,14 -32,13 -68,23 -182,52 -122,30 -192,45 -250,55 -33,5 -67,12 -75,15 -55,21 -614,57 -630,41 z"
           id="path12" />
        <path
           d="m 6280,6165 c -80,-12 -105,-19 -192,-58 -45,-21 -122,-99 -143,-146 -9,-20 -21,-44 -26,-55 -34,-61 -12,-398 33,-516 3,-8 16,-46 28,-85 11,-38 25,-79 30,-90 5,-11 19,-45 30,-75 23,-58 26,-65 60,-145 25,-57 166,-340 200,-400 66,-116 125,-231 158,-305 10,-25 22,-52 26,-60 20,-45 66,-115 78,-117 12,-2 56,82 87,167 63,172 73,426 31,775 -24,206 -32,316 -27,390 9,142 26,298 36,344 17,78 43,353 34,361 -11,11 -209,30 -292,29 -36,-1 -104,-7 -151,-14 z m 127,-157 c 41,-17 63,-38 63,-60 0,-29 -46,-95 -87,-123 -32,-21 -49,-25 -109,-25 -59,0 -76,4 -100,22 -71,55 -80,91 -36,135 52,50 203,79 269,51 z"
           id="path14" />
        <path
    alert="false"         d="m 3700,6130 c -67,-9 -134,-27 -177,-46 -17,-8 -36,-14 -42,-14 -6,0 -19,-4 -29,-9 -9,-5 -62,-32 -117,-59 -114,-55 -174,-91 -195,-117 -13,-15 -15,-83 -16,-439 -1,-274 -6,-444 -14,-486 -21,-115 -24,-370 -6,-447 39,-161 99,-296 180,-401 50,-66 158,-169 193,-185 12,-5 23,-13 23,-17 0,-15 145,-80 240,-107 75,-22 229,-29 234,-11 2,7 9,33 16,58 32,115 108,331 121,344 5,6 9,16 9,24 0,8 6,28 14,45 8,18 28,63 45,100 17,38 34,79 37,93 3,13 10,27 15,30 5,3 9,13 9,22 0,9 6,29 14,43 7,14 16,43 21,65 4,21 10,43 13,49 11,16 32,131 43,235 12,112 4,551 -11,595 -5,17 -14,64 -20,105 -38,299 -99,424 -245,501 -56,29 -67,32 -180,34 -66,2 -145,0 -175,-5 z m 325,-212 c 52,-26 75,-51 75,-82 0,-55 -120,-133 -190,-123 -73,10 -180,106 -180,162 0,28 37,62 75,68 60,10 179,-3 220,-25 z"
           id="path16" />
        <path
     alert="false"        d="m 6650,3656 c -111,-38 -150,-65 -183,-132 -17,-32 -41,-191 -33,-215 2,-8 7,-26 10,-40 23,-108 515,-111 848,-5 146,46 372,191 452,289 55,67 52,71 -60,63 -53,-4 -104,-11 -114,-16 -17,-9 -93,-20 -304,-41 -80,-8 -133,-8 -195,0 -127,16 -193,29 -205,41 -5,5 -17,10 -26,10 -9,0 -39,16 -66,35 -27,19 -51,35 -54,34 -3,0 -34,-10 -70,-23 z"
           id="path18" />
        <path
   alert="false"          d="m 4107,3608 c -21,-17 -80,-83 -131,-147 -104,-130 -156,-180 -214,-210 -67,-34 -205,-76 -347,-106 -44,-9 -95,-23 -113,-31 -18,-8 -38,-14 -46,-14 -7,0 -23,-11 -35,-24 -37,-40 -18,-68 79,-118 19,-10 37,-18 41,-18 4,0 20,-5 36,-12 103,-43 378,-61 503,-33 201,45 326,120 470,281 69,76 84,111 84,189 -1,155 -106,276 -239,275 -41,-1 -57,-6 -88,-32 z"
           id="path20" />
      </g>
    </g>
  </g>
</svg>
