<?xml version="1.0" encoding="UTF-8" standalone="no"?>
<svg
   xmlns:dc="http://purl.org/dc/elements/1.1/"
   xmlns:cc="http://creativecommons.org/ns#"
   xmlns:rdf="http://www.w3.org/1999/02/22-rdf-syntax-ns#"
   xmlns:svg="http://www.w3.org/2000/svg"
   xmlns="http://www.w3.org/2000/svg"
   style="fill:#1ab394"
   id="svg2"
   preserveAspectRatio="xMidYMid meet"
   viewBox="0 0 16 16"
   height="16"
   width="16"
   version="1.0">
  <defs
     id="defs34" />
  <metadata
     id="metadata4">
Created by potrace 1.10, written by Peter Selinger 2001-2011
<rdf:RDF>
  <cc:Work
     rdf:about="">
    <dc:format>image/svg+xml</dc:format>
    <dc:type
       rdf:resource="http://purl.org/dc/dcmitype/StillImage" />
    <dc:title></dc:title>
  </cc:Work>
</rdf:RDF>
</metadata>
  <rect
     y="0"
     x="0"
     height="16"
     width="16"
     id="rect3362"
     style="fill:#ffffff;fill-opacity:0" />
  <g
     id="g6"
     transform="matrix(0.00218577,0,0,-0.0025508,-0.45794908,22.311521)">
    <path
       id="path8"
       d="m 3448,8745 c -6,-6 -59,-14 -186,-26 -51,-5 -101,-13 -112,-19 -10,-5 -38,-10 -61,-10 -22,0 -62,-6 -88,-14 -54,-17 -120,-34 -176,-46 -22,-4 -56,-13 -75,-20 -70,-24 -96,-32 -129,-40 -18,-5 -38,-13 -44,-19 -6,-6 -21,-11 -33,-11 -12,0 -36,-7 -53,-15 -17,-8 -45,-22 -62,-30 -17,-8 -37,-15 -44,-15 -12,0 -51,-17 -95,-42 -8,-4 -22,-11 -30,-14 -8,-3 -22,-10 -30,-15 -8,-5 -22,-12 -30,-15 -8,-3 -22,-10 -30,-15 -8,-5 -22,-12 -30,-15 -8,-3 -22,-9 -30,-14 -8,-5 -37,-21 -65,-35 -27,-14 -63,-34 -80,-45 -16,-11 -39,-24 -50,-30 -36,-20 -116,-70 -125,-80 -8,-9 -44,-30 -67,-40 -13,-5 -23,-13 -23,-18 0,-4 -27,-25 -59,-46 -33,-21 -61,-41 -63,-45 -2,-4 -32,-29 -68,-56 -74,-56 -407,-381 -460,-449 -110,-140 -220,-286 -220,-292 0,-3 -13,-23 -28,-43 -16,-20 -32,-43 -36,-51 -10,-23 -29,-52 -53,-86 -12,-17 -27,-42 -33,-55 -6,-13 -19,-37 -29,-54 -11,-16 -29,-50 -41,-75 -12,-25 -25,-52 -30,-60 -5,-8 -19,-35 -30,-60 -12,-25 -28,-57 -36,-72 -8,-14 -14,-33 -14,-41 0,-8 -7,-20 -15,-27 -8,-7 -15,-22 -15,-34 0,-11 -7,-30 -15,-40 -8,-11 -15,-28 -15,-37 0,-10 -6,-30 -14,-46 -15,-30 -33,-80 -46,-128 -5,-16 -13,-43 -18,-60 -6,-16 -18,-55 -26,-85 -8,-30 -22,-79 -30,-109 -9,-29 -16,-66 -16,-81 0,-15 -7,-44 -15,-63 -8,-20 -15,-58 -15,-84 -1,-26 -6,-64 -13,-83 -7,-19 -14,-69 -16,-110 -1,-41 -7,-106 -12,-145 -11,-80 -13,-462 -3,-545 3,-30 10,-103 14,-161 4,-58 12,-115 19,-127 6,-11 11,-38 11,-60 0,-21 7,-61 15,-88 8,-27 15,-65 15,-84 1,-19 7,-46 15,-60 8,-14 15,-38 15,-55 0,-16 7,-41 15,-55 8,-14 15,-38 15,-55 0,-16 7,-41 15,-55 8,-14 14,-35 15,-48 l 0,-23 187,2 c 219,2 375,26 491,75 18,8 39,14 47,14 12,0 43,14 95,41 75,40 107,49 180,49 56,0 90,-6 124,-21 44,-19 124,-88 139,-119 21,-43 40,-68 97,-126 35,-35 70,-64 79,-64 10,0 22,-5 28,-11 19,-19 148,-40 178,-29 14,5 39,10 54,10 59,0 94,87 53,128 -10,10 -39,28 -63,40 -61,30 -124,95 -155,162 -9,20 -58,83 -107,140 -70,81 -82,112 -82,225 0,85 3,107 24,148 23,48 85,117 104,117 6,0 19,8 30,17 28,26 211,26 247,0 13,-9 32,-17 40,-17 23,0 122,-91 175,-160 25,-32 45,-61 45,-64 0,-3 14,-25 30,-49 17,-25 30,-49 30,-55 0,-6 14,-22 31,-36 45,-38 105,-36 144,4 37,39 83,54 121,40 33,-13 48,-28 86,-86 28,-43 94,-120 163,-189 58,-59 168,-155 177,-155 4,0 27,-13 51,-30 25,-16 49,-30 55,-30 5,0 15,-7 22,-15 7,-8 21,-15 32,-15 10,0 29,-7 43,-16 27,-18 279,-36 307,-22 9,4 45,8 80,8 35,1 83,5 108,11 25,6 72,14 105,18 34,4 70,13 82,19 26,14 206,16 231,3 106,-57 204,-72 256,-38 14,10 31,17 37,17 7,0 21,7 31,17 26,23 182,24 229,1 105,-50 214,-60 299,-28 76,28 117,44 157,62 27,12 53,16 69,12 28,-7 28,-5 0,-99 -14,-48 -23,-75 -51,-155 -40,-114 -45,-140 -45,-233 0,-64 -5,-110 -15,-134 -8,-19 -15,-46 -15,-58 0,-12 -7,-28 -15,-35 -8,-7 -15,-21 -15,-31 0,-10 -5,-21 -11,-24 -5,-4 -14,-17 -20,-28 -12,-28 -27,-53 -61,-98 -16,-20 -28,-41 -28,-46 0,-5 -13,-22 -28,-39 -15,-16 -50,-58 -77,-94 -27,-36 -53,-68 -58,-71 -9,-7 -20,-25 -61,-104 -49,-94 -114,-183 -195,-268 -31,-32 -57,-62 -59,-66 -5,-15 46,-22 85,-12 63,15 156,50 193,72 8,5 24,13 36,18 11,5 45,37 75,72 78,89 207,220 254,255 35,27 82,51 160,84 11,5 34,11 50,13 52,9 104,33 136,63 29,28 30,32 24,85 -6,52 -5,57 19,72 14,9 33,17 42,17 9,0 28,6 42,14 32,16 98,34 167,46 28,4 70,14 95,21 70,20 550,18 610,-3 25,-9 66,-19 91,-22 56,-8 54,-10 120,111 15,26 36,64 48,83 11,19 23,42 27,50 3,8 10,22 15,30 5,8 12,22 15,30 3,8 10,22 15,30 5,8 12,22 15,30 3,8 10,22 15,30 5,8 12,22 15,30 3,8 12,29 19,45 7,17 21,48 30,70 10,22 24,53 31,68 8,16 14,36 14,46 0,9 7,26 15,37 8,10 15,30 15,44 0,14 7,34 15,44 8,11 15,31 15,45 0,14 7,35 15,45 8,11 15,34 15,50 1,17 7,42 15,56 8,14 14,38 15,53 0,16 5,38 11,49 7,12 15,47 20,77 4,31 12,74 18,96 44,172 76,677 56,875 -4,30 -10,111 -14,181 -5,69 -13,135 -20,146 -6,12 -11,39 -11,61 0,21 -7,61 -15,88 -8,27 -15,65 -15,84 -1,19 -7,46 -15,60 -8,14 -15,41 -15,60 0,19 -7,44 -15,54 -8,11 -15,33 -15,49 0,16 -6,43 -13,60 -26,61 -40,102 -44,134 -3,18 -11,38 -19,44 -8,6 -14,24 -14,39 0,15 -7,33 -15,40 -8,7 -15,23 -15,35 0,12 -7,28 -15,35 -8,7 -15,19 -15,27 0,17 -125,274 -170,348 -16,28 -34,59 -40,70 -19,35 -34,59 -85,133 -27,41 -56,84 -63,98 -7,13 -17,24 -23,24 -5,0 -9,5 -9,11 0,10 -24,42 -134,180 -65,81 -371,389 -451,455 -79,64 -253,194 -261,194 -3,0 -23,14 -44,30 -21,17 -43,30 -49,30 -7,0 -14,7 -17,15 -4,8 -10,15 -15,15 -5,0 -28,12 -52,27 -57,37 -73,47 -132,77 -49,26 -67,35 -102,56 -10,6 -25,13 -33,16 -8,3 -22,10 -30,15 -8,5 -22,12 -30,15 -8,3 -30,12 -47,20 -18,8 -50,21 -70,31 -21,9 -50,22 -65,30 -14,7 -35,13 -46,13 -11,0 -25,7 -32,15 -7,8 -24,15 -39,15 -14,0 -35,7 -45,15 -11,8 -31,15 -45,15 -14,0 -35,7 -45,15 -11,8 -29,15 -40,15 -20,0 -38,5 -161,44 -27,9 -63,16 -78,16 -16,0 -38,5 -50,12 -12,6 -48,15 -82,19 -33,4 -80,12 -105,18 -25,6 -70,10 -101,11 -31,0 -59,3 -63,8 -4,4 -20,8 -34,10 -52,6 -669,12 -674,7 z m 569,-126 c 70,-5 155,-15 188,-20 33,-6 92,-14 130,-19 161,-22 508,-119 708,-199 165,-66 509,-246 617,-324 251,-179 390,-295 546,-457 162,-167 211,-226 376,-455 153,-212 335,-584 434,-885 34,-102 79,-277 98,-380 9,-47 23,-125 32,-175 13,-70 18,-171 21,-453 4,-332 3,-376 -17,-515 -12,-84 -28,-181 -36,-217 -7,-36 -19,-90 -25,-120 -20,-97 -86,-306 -142,-450 -69,-175 -210,-451 -251,-489 l -36,-34 -147,11 c -339,27 -579,3 -828,-84 -49,-17 -134,-96 -175,-163 -31,-50 -57,-72 -100,-86 -46,-14 -154,-68 -207,-101 -29,-18 -55,-29 -58,-24 -3,5 32,72 78,148 122,201 149,275 162,447 5,58 21,135 45,216 65,218 63,248 -23,342 -43,46 -47,48 -98,48 -37,0 -72,-8 -110,-25 -103,-48 -203,-55 -272,-19 -18,9 -27,20 -23,28 3,8 -2,18 -11,23 -25,14 81,24 221,21 76,-2 129,1 142,8 18,10 81,24 249,54 27,5 61,13 75,18 14,4 61,19 105,31 44,12 104,33 133,46 29,13 63,24 77,24 13,0 44,14 68,30 25,17 55,30 67,30 12,0 42,14 67,30 24,17 60,37 79,45 19,8 34,19 34,24 0,6 17,18 38,26 20,9 51,30 69,48 68,68 91,87 102,87 6,0 11,7 11,15 0,8 14,24 30,37 17,12 30,25 30,30 0,4 7,16 16,26 34,38 74,95 74,106 0,6 11,28 25,48 14,20 25,44 25,52 0,9 14,44 30,78 17,34 30,78 30,97 1,20 7,54 15,76 19,53 19,174 0,211 -8,16 -15,44 -15,63 0,30 -33,116 -61,161 -5,8 -17,28 -27,44 -34,58 -129,150 -202,197 -41,26 -83,55 -93,63 -9,9 -36,24 -60,33 -23,9 -49,22 -58,30 -8,7 -25,13 -36,13 -11,0 -32,11 -47,25 -15,14 -35,25 -44,25 -9,0 -48,11 -87,25 -96,34 -201,43 -244,20 -18,-9 -39,-14 -47,-11 -7,3 -17,0 -21,-7 -9,-15 -21,24 -22,78 -2,45 -40,234 -64,310 -8,28 -25,86 -37,130 -12,44 -28,87 -36,96 -8,8 -14,22 -14,30 0,20 -34,114 -47,131 -5,7 -13,27 -16,45 -3,17 -20,60 -36,95 -16,34 -33,77 -37,93 -7,29 -55,145 -74,175 -5,8 -34,64 -65,124 -31,61 -63,119 -71,130 -8,11 -14,28 -14,38 0,10 -4,18 -10,18 -5,0 -10,7 -10,15 0,8 -4,15 -8,15 -9,0 -82,96 -82,108 0,19 -177,172 -200,172 -7,0 -24,9 -39,19 -15,11 -40,21 -56,23 -17,1 -30,8 -30,15 0,18 -8,22 -61,33 -170,35 -314,43 -459,25 -166,-21 -221,-36 -217,-58 3,-17 -1,-18 -41,-12 -36,6 -55,2 -89,-14 -52,-24 -230,-44 -300,-32 -25,4 -53,4 -61,0 -13,-8 -33,-4 -142,26 -27,8 -79,17 -115,20 -36,4 -76,13 -89,22 -19,12 -55,15 -177,15 -138,0 -158,-3 -188,-21 -18,-12 -45,-21 -59,-21 -14,0 -45,-11 -68,-25 -24,-14 -50,-25 -56,-25 -23,0 -143,-100 -143,-118 0,-5 -9,-17 -20,-27 -11,-10 -20,-22 -20,-27 0,-6 -9,-21 -20,-35 -23,-30 -64,-155 -75,-228 -4,-27 -13,-57 -20,-65 -7,-8 -20,-62 -29,-120 -10,-57 -20,-109 -24,-114 -7,-12 -29,-115 -43,-201 -5,-33 -14,-76 -19,-95 -14,-51 -12,-113 5,-182 12,-44 13,-63 5,-73 -8,-10 -7,-16 6,-23 11,-6 15,-17 11,-32 -5,-18 -2,-21 14,-17 14,4 23,-2 34,-22 21,-42 148,-151 174,-151 16,0 29,-8 78,-50 7,-5 22,-10 34,-10 12,0 30,-6 38,-14 9,-7 57,-28 106,-45 50,-18 105,-39 123,-47 18,-7 44,-14 57,-14 13,0 39,-6 57,-14 52,-22 135,-44 238,-61 52,-9 113,-22 135,-30 22,-8 64,-16 94,-20 30,-3 59,-12 65,-19 6,-7 45,-21 86,-30 41,-10 97,-28 123,-42 27,-13 58,-24 68,-24 16,0 19,-5 14,-19 -4,-14 0,-21 15,-26 18,-6 40,-42 64,-105 4,-8 15,-28 25,-45 11,-16 20,-40 20,-51 1,-24 27,-84 53,-124 8,-14 19,-41 22,-61 10,-55 -6,-63 -101,-49 -161,24 -232,38 -303,63 -25,9 -64,19 -87,23 -23,3 -44,13 -47,20 -3,8 -15,14 -26,14 -11,0 -53,11 -93,25 -39,14 -103,33 -142,41 -38,8 -76,22 -85,32 -9,10 -47,24 -85,31 -38,8 -84,24 -103,37 -19,13 -52,29 -73,34 -22,6 -39,14 -39,18 0,4 -28,16 -61,27 -34,10 -67,24 -73,30 -23,22 -66,45 -84,45 -10,0 -33,16 -52,35 -19,19 -43,35 -52,35 -9,0 -30,14 -46,30 -17,17 -38,30 -46,30 -9,0 -16,5 -16,10 0,13 -84,95 -105,104 -9,3 -13,10 -10,16 3,5 -10,35 -30,65 -36,54 -36,55 -32,137 2,46 9,103 15,128 10,44 10,46 -23,79 -26,27 -45,36 -87,42 -75,11 -351,10 -494,-1 -152,-12 -350,-60 -371,-90 -8,-11 -21,-20 -29,-20 -50,0 -214,-155 -253,-240 -20,-43 -26,-75 -29,-150 -4,-92 -3,-98 36,-195 22,-55 55,-117 72,-138 18,-21 39,-53 48,-70 9,-18 42,-58 74,-90 32,-32 61,-65 66,-72 4,-8 43,-43 87,-79 84,-69 93,-77 111,-98 27,-31 82,-73 123,-94 7,-4 32,-24 55,-45 22,-22 50,-42 61,-45 23,-8 93,-55 149,-101 22,-18 44,-33 49,-33 5,0 32,-16 58,-35 27,-19 56,-35 63,-35 31,0 25,-20 -13,-45 -23,-14 -43,-25 -46,-25 -13,0 -113,-80 -149,-120 -96,-106 -127,-267 -80,-408 20,-60 37,-92 97,-178 79,-113 110,-164 103,-171 -3,-4 -6,-1 -6,5 0,7 -4,12 -9,12 -4,0 -48,39 -97,88 -105,104 -169,139 -280,155 -95,13 -144,4 -283,-52 -197,-80 -294,-102 -501,-115 -114,-8 -148,0 -176,42 -34,49 -79,230 -116,467 -20,126 -22,178 -22,505 0,295 3,381 16,450 9,47 21,121 28,165 20,136 47,239 128,485 86,265 208,517 370,769 228,353 600,732 937,955 50,33 110,73 133,89 112,76 513,263 702,327 149,51 474,125 650,149 223,31 500,38 717,20 z m 555,-615 c 235,-61 385,-186 521,-434 131,-241 127,-233 127,-248 0,-7 11,-30 25,-52 14,-22 25,-48 25,-59 0,-10 7,-24 15,-31 8,-7 25,-44 37,-84 13,-39 29,-77 35,-84 7,-7 13,-22 13,-32 0,-10 4,-21 9,-24 5,-4 12,-24 16,-46 4,-22 10,-42 15,-45 4,-3 18,-37 30,-77 13,-40 29,-87 36,-105 8,-17 14,-38 14,-47 0,-8 4,-25 9,-38 5,-13 19,-57 31,-98 12,-41 26,-88 32,-105 5,-16 12,-90 15,-164 5,-110 3,-140 -10,-165 -9,-17 -26,-53 -38,-81 -12,-27 -41,-80 -65,-117 -42,-65 -54,-101 -35,-112 5,-3 14,1 21,9 7,8 19,15 27,15 24,0 201,186 208,220 4,16 11,32 16,35 5,4 9,14 9,23 0,9 10,39 22,65 19,39 27,47 43,42 11,-4 31,-9 45,-12 14,-3 32,-12 41,-19 8,-8 35,-18 60,-23 105,-21 292,-105 414,-186 97,-64 215,-191 257,-276 61,-125 71,-167 65,-287 -3,-84 -11,-126 -35,-197 -36,-106 -91,-218 -127,-259 -14,-16 -25,-32 -25,-36 0,-14 -190,-199 -210,-205 -11,-3 -20,-10 -20,-14 0,-11 -110,-81 -195,-124 -199,-101 -336,-149 -600,-207 -42,-10 -219,-35 -320,-46 -198,-21 -570,-18 -770,6 -49,6 -124,15 -165,20 -65,8 -177,28 -340,60 -25,5 -83,18 -130,30 -47,12 -110,27 -140,34 -30,7 -82,22 -115,33 -33,11 -94,30 -135,43 -41,12 -79,27 -84,31 -6,5 -19,9 -30,9 -12,0 -34,7 -50,15 -15,8 -33,15 -40,15 -6,0 -44,14 -85,30 -40,17 -80,30 -88,30 -8,0 -26,9 -40,20 -14,11 -34,20 -45,20 -10,0 -41,11 -68,25 -27,14 -55,25 -61,25 -7,0 -40,13 -73,29 -34,15 -95,43 -136,62 -82,37 -227,111 -390,197 -58,31 -131,69 -162,85 -32,16 -58,33 -58,37 0,5 -10,12 -22,16 -21,6 -118,62 -128,74 -3,3 -39,27 -80,54 -116,75 -130,85 -190,136 -19,16 -38,30 -42,30 -4,0 -13,6 -20,13 -7,6 -40,34 -73,62 -100,82 -194,176 -253,250 -31,39 -59,72 -62,75 -19,15 -100,164 -100,183 0,12 -9,39 -20,60 -13,24 -20,56 -20,92 0,36 7,68 20,92 11,21 20,45 20,55 0,24 115,138 178,176 67,41 180,82 257,93 33,5 69,15 80,21 55,31 665,34 665,2 0,-7 -14,-36 -30,-64 -27,-46 -30,-59 -30,-135 0,-58 5,-96 17,-122 30,-66 110,-166 174,-218 33,-27 70,-58 82,-67 11,-10 26,-18 33,-18 7,0 14,-4 16,-8 7,-17 133,-85 303,-162 135,-62 150,-68 199,-85 27,-9 54,-19 60,-23 18,-11 110,-41 127,-42 9,0 22,-7 29,-15 7,-8 28,-17 49,-20 20,-4 45,-10 56,-15 20,-8 83,-28 160,-50 22,-6 63,-18 90,-26 52,-15 118,-31 270,-65 50,-11 138,-22 196,-26 92,-5 110,-3 138,13 17,10 31,26 31,35 0,10 -22,33 -49,53 -58,43 -88,82 -120,156 -13,30 -30,69 -37,87 -8,17 -14,44 -14,60 0,43 -55,144 -93,171 -77,54 -114,76 -142,83 -16,4 -50,15 -75,25 -25,9 -73,23 -108,30 -34,8 -92,21 -130,29 -37,9 -92,20 -122,25 -57,9 -94,18 -220,51 -101,27 -182,51 -200,59 -8,4 -40,15 -70,25 -30,9 -73,25 -95,35 -22,9 -59,26 -82,36 -24,10 -43,21 -43,26 0,4 -6,8 -14,8 -7,0 -37,17 -66,38 -164,117 -230,237 -210,382 14,93 29,172 39,195 5,11 17,61 26,110 9,50 23,110 30,135 19,60 45,181 45,203 0,10 9,35 20,57 11,22 20,49 20,60 0,34 58,135 108,188 54,58 139,106 232,134 53,15 94,18 226,17 154,-1 185,-5 344,-45 190,-47 502,-33 622,27 18,9 62,21 167,45 36,8 67,17 70,19 2,3 73,5 157,5 133,0 167,-4 256,-26 z M 2590,4719 c 14,-5 32,-24 39,-41 13,-28 12,-32 -4,-45 -37,-26 -71,-16 -114,35 -23,26 -41,50 -41,54 0,18 70,16 120,-3 z m 397,-168 c 3,-13 17,-20 46,-25 91,-13 113,-19 132,-36 11,-9 49,-23 85,-29 36,-7 79,-18 95,-26 17,-7 57,-21 90,-30 70,-19 148,-43 190,-57 17,-5 47,-11 69,-14 21,-2 53,-8 70,-13 65,-20 163,-42 231,-51 39,-5 97,-14 130,-20 33,-6 92,-17 130,-24 39,-8 113,-14 165,-15 52,-1 114,-4 137,-7 l 43,-6 -21,-29 c -44,-63 -130,-73 -244,-29 -69,26 -219,40 -238,21 -6,-6 -26,-11 -45,-11 -18,0 -42,-4 -52,-10 -25,-13 -218,-38 -357,-46 -172,-10 -277,20 -434,127 -53,36 -230,216 -238,242 -2,6 -14,21 -27,32 -13,11 -26,32 -30,48 -6,26 -4,27 31,27 28,0 38,-5 42,-19 z" />
    <path
       id="path10"
       d="m 4230,7829 c -71,-9 -136,-20 -225,-38 -67,-14 -115,-39 -115,-61 0,-28 11,-31 65,-15 111,34 376,13 428,-33 21,-18 22,-65 2,-82 -25,-21 -88,-50 -110,-50 -11,-1 -31,-7 -45,-15 -14,-8 -35,-14 -48,-15 -12,0 -25,-7 -28,-15 -13,-32 14,-42 129,-48 177,-8 315,13 413,65 43,23 94,86 94,117 0,44 -95,128 -174,153 -109,35 -273,51 -386,37 z m 352,-85 c 4,-3 8,-12 8,-20 0,-8 8,-14 18,-14 11,0 27,-9 37,-20 10,-11 22,-17 26,-14 16,9 9,-16 -18,-72 -19,-39 -32,-54 -47,-54 -11,0 -46,-5 -77,-12 -55,-11 -78,-8 -118,19 -2,1 1,9 8,17 18,22 25,109 11,136 -20,37 10,53 85,45 32,-4 63,-9 67,-11 z" />
    <path
       id="path12"
       d="m 2645,7408 c -35,-19 -75,-61 -75,-79 0,-10 -4,-21 -10,-24 -14,-9 -12,-98 3,-131 27,-60 52,-92 86,-110 41,-22 63,-45 110,-112 42,-60 87,-92 130,-92 26,0 42,9 75,43 22,24 53,51 68,60 67,41 183,64 413,82 55,4 126,13 159,19 51,11 61,16 76,46 16,31 16,36 2,58 -23,36 -81,68 -154,87 -73,18 -203,17 -454,-5 -141,-13 -142,-13 -189,11 -26,13 -71,48 -99,77 -47,49 -93,82 -113,82 -4,0 -17,-6 -28,-12 z m 124,-143 c 31,-25 65,-45 75,-45 9,0 31,-8 49,-17 26,-13 52,-16 137,-13 58,2 185,4 283,5 160,0 179,-2 188,-17 6,-10 21,-18 35,-18 19,0 25,-5 22,-17 -3,-14 -14,-18 -48,-20 -25,-1 -76,-7 -115,-13 -38,-6 -106,-14 -150,-18 -51,-4 -89,-13 -105,-25 -13,-9 -33,-17 -43,-17 -17,0 -105,-40 -167,-76 -48,-28 -81,-12 -175,82 -116,117 -119,123 -111,186 4,29 9,55 12,60 13,20 60,5 113,-37 z" />
    <path
       id="path14"
       d="m 7340,3631 c -75,-40 -115,-120 -91,-182 20,-52 69,-98 114,-104 51,-8 86,5 129,45 28,27 33,39 36,94 4,56 2,65 -24,95 -23,28 -100,72 -122,71 -4,-1 -23,-9 -42,-19 z m 123,-75 c 16,-21 27,-47 27,-65 0,-31 -22,-61 -46,-61 -17,0 -19,52 -2,79 19,30 -5,51 -58,51 l -44,0 0,-75 c 0,-41 -4,-75 -9,-75 -17,0 -41,49 -41,84 0,53 46,96 102,96 37,0 47,-5 71,-34 z m -58,-35 c 7,-12 -12,-24 -25,-16 -11,7 -4,25 10,25 5,0 11,-4 15,-9 z m -5,-65 c 0,-7 6,-19 14,-26 23,-19 8,-40 -30,-40 -31,0 -33,2 -25,23 5,12 12,30 15,40 6,20 26,23 26,3 z" />
    <path
       id="path16"
       d="m 4502,3592 c -10,-10 -25,-27 -33,-38 -23,-32 -95,-84 -117,-84 -21,0 -89,29 -137,60 -128,80 -202,82 -277,8 -28,-28 -25,-114 5,-139 24,-20 68,-25 97,-9 24,13 74,-4 121,-42 20,-15 43,-28 51,-28 8,0 23,-7 34,-15 30,-22 125,-19 174,6 22,12 40,25 40,30 0,5 6,9 13,9 14,0 66,70 85,113 15,36 15,74 1,116 -12,35 -31,39 -57,13 z" />
  </g>
</svg>
