<?xml version="1.0" encoding="UTF-8" standalone="no"?>
<svg
   xmlns:dc="http://purl.org/dc/elements/1.1/"
   xmlns:cc="http://creativecommons.org/ns#"
   xmlns:rdf="http://www.w3.org/1999/02/22-rdf-syntax-ns#"
   xmlns:svg="http://www.w3.org/2000/svg"
   xmlns="http://www.w3.org/2000/svg"
   style="fill:#029fe4"
   height="16"
   width="16"
   xml:space="preserve"
   viewBox="0 0 15.999999 16.000001"
   y="0px"
   x="0px"
   id="Layer_1"
   version="1.1"><metadata
     id="metadata23"><rdf:RDF><cc:Work
         rdf:about=""><dc:format>image/svg+xml</dc:format><dc:type
           rdf:resource="http://purl.org/dc/dcmitype/StillImage" /><dc:title></dc:title></cc:Work></rdf:RDF></metadata><defs
     id="defs21" /><rect
     y="-1.4305119e-06"
     x="-1.9073486e-06"
     height="16.000004"
     width="16.000002"
     id="rect3351"
     style="fill-opacity:0" /><g
     transform="matrix(0.43478266,0,0,0.4016065,1.043477,3)"
     id="g5"><path
       id="path7"
       d="m 34.4,7.2 c 0,4 -8.2,7.2 -18.4,7.2 -10.2,0 -18.4,-3.2 -18.4,-7.2 l 0,10.5 c 0,4 8.2,7.2 18.4,7.2 10.2,0 18.4,-3.2 18.4,-7.2 l 0,-10.5 z" /><ellipse
       id="ellipse9"
       ry="7.1999998"
       rx="18.4"
       cy="7.1999998"
       cx="16" /><polygon
       style="fill:#ffffff"
       id="polygon11"
       points="11.8,4.4 13.4,6.6 7.6,8 8.9,6.9 0,5.4 2.2,3.7 10.8,5.2 " /><polygon
       style="fill:#ffffff"
       id="polygon13"
       points="19.9,9.9 18.9,7.5 24.1,6.5 23.2,7.3 31.8,8.8 29.7,10.4 21.1,8.8 " /><polygon
       style="fill:#ffffff"
       id="polygon15"
       points="17.1,3.1 22.9,1.5 23,4 21.5,3.7 18.7,6.1 16,5.7 18.9,3.4 " /><polygon
       style="fill:#ffffff"
       id="polygon17"
       points="14.6,12 9.1,13.1 8.9,10.5 10.5,10.8 13.5,8.2 16.2,8.7 12.9,11.5 " /></g></svg>