<?xml version="1.0" encoding="UTF-8" standalone="no"?>
<svg
   xmlns:dc="http://purl.org/dc/elements/1.1/"
   xmlns:cc="http://creativecommons.org/ns#"
   xmlns:rdf="http://www.w3.org/1999/02/22-rdf-syntax-ns#"
   xmlns:svg="http://www.w3.org/2000/svg"
   xmlns="http://www.w3.org/2000/svg"
   data-kw="servers1"
   data-id="70921"
   height="16"
   width="16"
   class="detail convertSvgInline replaced-svg"
   xml:space="preserve"
   viewBox="0 0 26.880688 26.880688"
   y="0px"
   x="0px"
   id="imgView"
   style="fill:#029fe4"
   version="1.1"><metadata
     id="metadata45"><rdf:RDF><cc:Work
         rdf:about=""><dc:format>image/svg+xml</dc:format><dc:type
           rdf:resource="http://purl.org/dc/dcmitype/StillImage" /><dc:title></dc:title></cc:Work></rdf:RDF></metadata><defs
     id="defs43" /><g
     transform="matrix(0.0625,0,0,0.08024069,0,-3.8150427)"
     id="g3"><path
  alert="false"     id="path5"
       d="m 269.723,47.545 -109.355,0 c -3.844,0 -6.962,3.119 -6.962,6.965 l 0,321.07 c 0,3.846 3.118,6.965 6.962,6.965 l 109.355,0 c 3.844,0 6.962,-3.119 6.962,-6.965 l 0,-321.07 c 0,-3.846 -3.118,-6.965 -6.962,-6.965 z m -54.678,273.833 c -13.439,0 -24.333,-10.895 -24.333,-24.333 0,-13.438 10.894,-24.333 24.333,-24.333 13.439,0 24.333,10.895 24.333,24.333 0,13.438 -10.894,24.333 -24.333,24.333 z m 44.753,-124.206 c 0,3.842 -3.119,6.962 -6.968,6.962 l -75.569,0 c -3.849,0 -6.968,-3.12 -6.968,-6.962 l 0,-6.962 c 0,-3.855 3.119,-6.972 6.968,-6.972 l 75.569,0 c 3.849,0 6.968,3.117 6.968,6.972 l 0,6.962 z m 0,-34.823 c 0,3.844 -3.119,6.963 -6.968,6.963 l -75.569,0 c -3.849,0 -6.968,-3.119 -6.968,-6.963 l 0,-6.972 c 0,-3.844 3.119,-6.963 6.968,-6.963 l 75.569,0 c 3.849,0 6.968,3.119 6.968,6.963 l 0,6.972 z m 0,-34.832 c 0,3.851 -3.119,6.969 -6.968,6.969 l -75.569,0 c -3.849,0 -6.968,-3.117 -6.968,-6.969 l 0,-6.962 c 0,-3.843 3.119,-6.962 6.968,-6.962 l 75.569,0 c 3.849,0 6.968,3.119 6.968,6.962 l 0,6.962 z m 0,-34.821 c 0,3.843 -3.119,6.962 -6.968,6.962 l -75.569,0 c -3.849,0 -6.968,-3.119 -6.968,-6.962 l 0,-6.964 c 0,-3.852 3.119,-6.969 6.968,-6.969 l 75.569,0 c 3.849,0 6.968,3.117 6.968,6.969 l 0,6.964 z" /><path
   alert="false"    id="path7"
       d="m 430.09,84.614 c 0,-3.284 -2.773,-6.202 -6.196,-6.511 -32.422,-2.948 -64.846,-5.896 -97.269,-8.834 -0.357,-0.034 -1.369,-0.005 -2.45,0.303 l -37.908,9.574 0,297.806 39.226,5.548 c 0.477,0.103 1.093,0 1.131,-0.002 32.423,-2.946 64.847,-6.228 97.27,-9.17 3.422,-0.314 6.197,-3.226 6.197,-6.512 -0.003,-75.732 -0.001,-206.463 -0.001,-282.202 z m -94.636,20.404 c 0,-3.519 2.773,-6.179 6.196,-5.939 22.407,1.583 44.813,3.167 67.221,4.75 3.423,0.24 6.195,3.126 6.195,6.455 l 0,6.012 c 0,3.317 -2.772,5.858 -6.195,5.665 -22.407,-1.282 -44.814,-2.563 -67.221,-3.836 -3.422,-0.197 -6.196,-3.214 -6.196,-6.731 l 0,-6.376 z m 79.612,101.515 c 0,3.316 -2.773,6.046 -6.196,6.076 -22.407,0.243 -44.814,0.489 -67.221,0.729 -3.422,0.034 -6.196,-2.785 -6.196,-6.31 l 0,-6.372 c 0,-3.526 2.773,-6.37 6.196,-6.365 22.406,0.061 44.813,0.132 67.221,0.186 3.423,0.013 6.196,2.71 6.196,6.038 l 0,6.018 z m -6.196,-24.142 c -22.407,-0.264 -44.814,-0.526 -67.221,-0.793 -3.422,-0.04 -6.196,-2.925 -6.196,-6.452 l 0,-6.371 c 0,-3.525 2.773,-6.307 6.196,-6.217 22.407,0.562 44.813,1.131 67.221,1.705 3.423,0.084 6.195,2.848 6.195,6.177 0,2.406 10e-4,3.608 10e-4,6.014 0,3.317 -2.773,5.982 -6.196,5.937 z m 6.196,-36.015 c 0,3.316 -2.773,5.912 -6.196,5.801 -22.407,-0.773 -44.814,-1.547 -67.221,-2.318 -3.422,-0.115 -6.196,-3.068 -6.196,-6.589 l 0,-6.377 c 0,-3.52 2.773,-6.235 6.196,-6.071 22.407,1.067 44.813,2.147 67.221,3.226 3.423,0.165 6.196,2.983 6.196,6.312 l 0,6.016 z" /><path
       id="path9"
       d="m 103.467,69.269 c -32.424,2.938 -64.848,5.886 -97.271,8.834 -3.422,0.309 -6.195,3.227 -6.195,6.511 0,75.739 0.002,206.471 -0.001,282.202 0,3.286 2.774,6.198 6.196,6.512 32.424,2.941 64.848,6.224 97.271,9.17 0.037,0.002 0.653,0.105 1.131,0.002 l 39.226,-5.548 0,-297.806 -37.908,-9.574 c -1.082,-0.308 -2.094,-0.337 -2.449,-0.303 z m -8.83,137.759 c 0,3.524 -2.773,6.344 -6.195,6.31 -22.407,-0.239 -44.814,-0.485 -67.222,-0.729 -3.422,-0.03 -6.196,-2.76 -6.196,-6.076 l 0,-6.018 c 0,-3.328 2.773,-6.025 6.196,-6.038 22.408,-0.055 44.815,-0.125 67.222,-0.186 3.422,-0.005 6.195,2.839 6.195,6.365 l 0,6.372 z m 0,-31.882 c 0,3.527 -2.773,6.412 -6.195,6.452 -22.407,0.267 -44.814,0.529 -67.222,0.793 -3.422,0.045 -6.196,-2.62 -6.196,-5.938 0,-2.405 0.001,-3.607 0.001,-6.014 0,-3.329 2.772,-6.093 6.195,-6.177 22.408,-0.574 44.814,-1.144 67.222,-1.705 3.422,-0.09 6.195,2.691 6.195,6.217 l 0,6.372 z m 0,-31.876 c 0,3.521 -2.773,6.474 -6.195,6.589 -22.407,0.771 -44.814,1.545 -67.222,2.318 -3.422,0.111 -6.196,-2.484 -6.196,-5.801 l 0,-6.017 c 0,-3.328 2.773,-6.146 6.196,-6.312 22.408,-1.078 44.814,-2.158 67.222,-3.226 3.422,-0.164 6.195,2.552 6.195,6.071 l 0,6.378 z m 0,-31.877 c 0,3.518 -2.773,6.534 -6.195,6.731 -22.407,1.273 -44.814,2.554 -67.222,3.836 -3.422,0.193 -6.195,-2.348 -6.195,-5.665 l 0,-6.012 c 0,-3.329 2.772,-6.215 6.195,-6.455 22.408,-1.583 44.814,-3.167 67.222,-4.75 3.422,-0.239 6.195,2.421 6.195,5.939 l 0,6.376 z" /></g><g
     transform="translate(0,-403.2103)"
     id="g11" /><g
     transform="translate(0,-403.2103)"
     id="g13" /><g
     transform="translate(0,-403.2103)"
     id="g15" /><g
     transform="translate(0,-403.2103)"
     id="g17" /><g
     transform="translate(0,-403.2103)"
     id="g19" /><g
     transform="translate(0,-403.2103)"
     id="g21" /><g
     transform="translate(0,-403.2103)"
     id="g23" /><g
     transform="translate(0,-403.2103)"
     id="g25" /><g
     transform="translate(0,-403.2103)"
     id="g27" /><g
     transform="translate(0,-403.2103)"
     id="g29" /><g
     transform="translate(0,-403.2103)"
     id="g31" /><g
     transform="translate(0,-403.2103)"
     id="g33" /><g
     transform="translate(0,-403.2103)"
     id="g35" /><g
     transform="translate(0,-403.2103)"
     id="g37" /><g
     transform="translate(0,-403.2103)"
     id="g39" /></svg>