<?xml version="1.0" encoding="UTF-8" standalone="no"?>
<svg
   xmlns:dc="http://purl.org/dc/elements/1.1/"
   xmlns:cc="http://creativecommons.org/ns#"
   xmlns:rdf="http://www.w3.org/1999/02/22-rdf-syntax-ns#"
   xmlns:svg="http://www.w3.org/2000/svg"
   xmlns="http://www.w3.org/2000/svg"
   xmlns:sodipodi="http://sodipodi.sourceforge.net/DTD/sodipodi-0.dtd"
   xmlns:inkscape="http://www.inkscape.org/namespaces/inkscape"
   data-kw="servers1"
   data-id="70921"
   height="16"
   width="16"
   class="detail convertSvgInline replaced-svg"
   xml:space="preserve"
   viewBox="0 0 26.880687 26.880687"
   y="0px"
   x="0px"
   id="imgView"
   style="fill:#2ea7e0"
   version="1.1"
   inkscape:version="0.91 r13725"
   sodipodi:docname="server1.svg"><sodipodi:namedview
     pagecolor="#ffffff"
     bordercolor="#666666"
     borderopacity="1"
     objecttolerance="10"
     gridtolerance="10"
     guidetolerance="10"
     inkscape:pageopacity="0"
     inkscape:pageshadow="2"
     inkscape:window-width="1280"
     inkscape:window-height="687"
     id="namedview10"
     showgrid="false"
     inkscape:zoom="16.166665"
     inkscape:cx="15"
     inkscape:cy="15.000001"
     inkscape:window-x="0"
     inkscape:window-y="1"
     inkscape:window-maximized="1"
     inkscape:current-layer="imgView" /><metadata
     id="metadata45"><rdf:RDF><cc:Work
         rdf:about=""><dc:format>image/svg+xml</dc:format><dc:type
           rdf:resource="http://purl.org/dc/dcmitype/StillImage" /><dc:title></dc:title></cc:Work></rdf:RDF></metadata><defs
     id="defs43" /><rect
     style="fill:#ffffff;fill-opacity:0"
     y="-23.520605"
     x="-1.602214e-06"
     height="50.401291"
     width="50.401291"
     id="rect3373" /><g
     transform="matrix(0.05098662,0,0,0.06640302,2.0577645,-0.8392939)"
     id="g3"><path
       id="path5"
       d="m 340.16232,12.639397 -233.83186,0 c -8.219557,0 -14.886722,3.768974 -14.886722,8.416448 l 0,387.978305 c 0,4.64748 6.667165,8.41645 14.886722,8.41645 l 233.83186,0 c 8.21956,0 14.88672,-3.76897 14.88672,-8.41645 l 0,-387.978305 c 0,-4.647474 -6.66716,-8.416448 -14.88672,-8.416448 z M 223.24531,343.53691 c -28.73637,0 -52.03082,-13.16543 -52.03082,-29.40379 0,-16.23837 23.29445,-29.4038 52.03082,-29.4038 28.73638,0 52.03083,13.16543 52.03083,29.4038 0,16.23836 -23.29445,29.40379 -52.03083,29.40379 z m 95.69456,-150.08949 c 0,4.64264 -6.66931,8.41282 -14.89956,8.41282 l -161.58785,0 c -8.23024,0 -14.89955,-3.77018 -14.89955,-8.41282 l 0,-8.41283 c 0,-4.65835 6.66931,-8.4249 14.89955,-8.4249 l 161.58785,0 c 8.23025,0 14.89956,3.76655 14.89956,8.4249 l 0,8.41283 z m 0,-42.07983 c 0,4.64506 -6.66931,8.41403 -14.89956,8.41403 l -161.58785,0 c -8.23024,0 -14.89955,-3.76897 -14.89955,-8.41403 l 0,-8.4249 c 0,-4.64506 6.66931,-8.41403 14.89955,-8.41403 l 161.58785,0 c 8.23025,0 14.89956,3.76897 14.89956,8.41403 l 0,8.4249 z m 0,-42.0907 c 0,4.65352 -6.66931,8.42129 -14.89956,8.42129 l -161.58785,0 c -8.23024,0 -14.89955,-3.76656 -14.89955,-8.42129 l 0,-8.41282 c 0,-4.643847 6.66931,-8.41282 14.89955,-8.41282 l 161.58785,0 c 8.23025,0 14.89956,3.768973 14.89956,8.41282 l 0,8.41282 z m 0,-42.077401 c 0,4.643849 -6.66931,8.412823 -14.89956,8.412823 l -161.58785,0 c -8.23024,0 -14.89955,-3.768974 -14.89955,-8.412823 l 0,-8.415239 c 0,-4.654725 6.66931,-8.421282 14.89955,-8.421282 l 161.58785,0 c 8.23025,0 14.89956,3.766557 14.89956,8.421282 l 0,8.415239 z"
       inkscape:connector-curvature="0" /></g></svg>