<?xml version="1.0" encoding="UTF-8" standalone="no"?>
<!-- Created with Inkscape (http://www.inkscape.org/) -->

<svg
   xmlns:dc="http://purl.org/dc/elements/1.1/"
   xmlns:cc="http://creativecommons.org/ns#"
   xmlns:rdf="http://www.w3.org/1999/02/22-rdf-syntax-ns#"
   xmlns:svg="http://www.w3.org/2000/svg"
   xmlns="http://www.w3.org/2000/svg"
   version="1.1"
   width="16"
   height="16"
   viewBox="0 0 16 16"
   id="svg2"
   style="fill:#029fe4">
  <defs
     id="defs4" />
  <metadata
     id="metadata7">
    <rdf:RDF>
      <cc:Work
         rdf:about="">
        <dc:format>image/svg+xml</dc:format>
        <dc:type
           rdf:resource="http://purl.org/dc/dcmitype/StillImage" />
        <dc:title></dc:title>
      </cc:Work>
    </rdf:RDF>
  </metadata>
  <g
     id="layer1">
    <rect
       width="16"
       height="16"
       x="0"
       y="0"
       id="rect3006"
       style="fill-opacity:0" />
    <g
       transform="scale(0.53333332,0.53333333)"
       id="g2997"
       style="fill:#029fe4">
      <rect
         width="30"
         height="30"
         x="0"
         y="4.0737999e-010"
         id="rect3375"
         style="fill-opacity:0" />
      <g
         transform="matrix(0.07894799,0,0,0.10451869,0,-4.8587599)"
         id="g3">
        <g
           id="g5">
          <path
             d="m 215.77,216.23 -23.969,0 0,-56.906 c 0,-3.314 -2.686,-6 -6,-6 -3.313,0 -6,2.686 -6,6 l 0,62.906 c 0,3.313 2.687,6 6,6 l 29.969,0 c 3.313,0 6,-2.687 6,-6 0,-3.313 -2.687,-6 -6,-6 z"
             id="path5" />
          <path
             d="m 72.102,185.83 c -10.658,-3.229 -14.999,-5.188 -14.999,-11.676 0,-5.867 7.579,-7.949 14.07,-7.949 4.704,0 10.122,1.458 13.482,3.629 2.783,1.797 6.497,0.999 8.296,-1.784 1.798,-2.783 0.999,-6.497 -1.784,-8.295 -5.299,-3.423 -12.96,-5.55 -19.994,-5.55 -15.594,0 -26.07,8.017 -26.07,19.949 0,16.037 13.595,20.154 23.521,23.16 10.963,3.32 14.144,5.094 14.099,10.498 0,5.536 -7.288,7.5 -13.529,7.5 -5.879,0 -12.265,-2.573 -15.891,-6.404 -2.277,-2.407 -6.077,-2.511 -8.481,-0.233 -2.407,2.278 -2.512,6.075 -0.233,8.482 5.929,6.264 15.357,10.155 24.605,10.155 15.27,0 25.529,-7.836 25.529,-19.45 0.125,-15.143 -13.022,-19.125 -22.621,-22.032 z"
             id="path7" />
          <path
             d="m 133.04,154.15 c -19.883,0 -36.059,15.8 -36.059,35.221 0,19.467 16.176,35.305 36.059,35.305 3.588,0 7.052,-0.522 10.325,-1.482 l 3.266,3.851 c 1.187,1.399 2.877,2.119 4.579,2.119 1.371,0 2.75,-0.468 3.878,-1.424 2.527,-2.144 2.839,-5.93 0.695,-8.457 l -1.308,-1.542 c 8.865,-6.438 14.623,-16.757 14.623,-28.369 10e-4,-19.422 -16.175,-35.222 -36.058,-35.222 z m 13.644,54.402 -4.873,-5.746 c -2.142,-2.526 -5.928,-2.837 -8.457,-0.695 -2.527,2.144 -2.839,5.93 -0.695,8.457 l 1.754,2.068 c -0.455,0.025 -0.911,0.04 -1.372,0.04 -13.266,0 -24.059,-10.455 -24.059,-23.305 0,-12.804 10.793,-23.221 24.059,-23.221 13.266,0 24.059,10.417 24.059,23.221 -0.001,7.945 -4.131,14.972 -10.416,19.181 z"
             id="path9" />
        </g>
        <path
           d="m 368.32,46.487 -356.63,0 C 5.24,46.487 0,51.73 0,58.173 l 0,263.66 c 0,6.442 5.24,11.684 11.684,11.684 l 356.63,0 c 6.442,0 11.683,-5.242 11.683,-11.684 l 0,-263.66 c 0.01,-6.44 -5.23,-11.683 -11.67,-11.683 z m -47.449,33.284 c 6.844,0 12.387,5.547 12.387,12.387 0,6.842 -5.543,12.387 -12.387,12.387 -6.839,0 -12.385,-5.545 -12.385,-12.387 0,-6.84 5.546,-12.387 12.385,-12.387 z m -37.153,0 c 6.839,0 12.386,5.547 12.386,12.387 0,6.842 -5.547,12.387 -12.386,12.387 -6.839,0 -12.387,-5.545 -12.387,-12.387 0,-6.84 5.548,-12.387 12.387,-12.387 z m -37.154,0 c 6.839,0 12.381,5.547 12.381,12.387 0,6.842 -5.542,12.387 -12.381,12.387 -6.844,0 -12.387,-5.545 -12.387,-12.387 0.001,-6.84 5.544,-12.387 12.387,-12.387 z m -225.3,234.24 0,-172.59 337.46,0 0,66.774 c -1.537,-2.202 -3.678,-4.02 -6.327,-5.143 l -20.614,-8.726 c -1.834,-0.778 -3.771,-1.172 -5.754,-1.172 -5.956,0 -11.304,3.54 -13.623,9.02 l -1.252,2.959 c -9.228,0.129 -18.383,2.255 -26.729,6.193 l -2.426,-2.107 c -1.175,-1.018 -2.498,-1.841 -3.932,-2.447 -1.841,-0.779 -3.783,-1.174 -5.772,-1.174 -4.276,0 -8.341,1.858 -11.154,5.099 l -14.671,16.915 c -2.584,2.986 -3.855,6.794 -3.581,10.735 0.285,3.941 2.085,7.535 5.065,10.115 l 2.417,2.098 c -2.755,8.849 -3.562,18.179 -2.365,27.344 l -2.748,1.654 c -6.982,4.2 -9.242,13.302 -5.039,20.293 l 9.13,15.17 -227.08,0 c -0.546,0 -0.99,-0.444 -0.99,-0.99 z m 259.68,-55.242 c 5.162,-12.192 17.054,-20.07 30.295,-20.07 4.411,0 8.722,0.878 12.813,2.61 16.697,7.072 24.529,26.408 17.461,43.105 -5.166,12.191 -17.058,20.068 -30.294,20.068 l -0.002,0 c -4.41,0 -8.721,-0.878 -12.811,-2.611 -8.089,-3.424 -14.36,-9.793 -17.658,-17.935 -3.298,-8.141 -3.229,-17.079 0.196,-25.167 z"
           id="path11"
           style="fill:#57889c" />
      </g>
    </g>
  </g>
</svg>
