<?xml version="1.0" encoding="UTF-8" standalone="no"?>
<svg
   xmlns:dc="http://purl.org/dc/elements/1.1/"
   xmlns:cc="http://creativecommons.org/ns#"
   xmlns:rdf="http://www.w3.org/1999/02/22-rdf-syntax-ns#"
   xmlns:svg="http://www.w3.org/2000/svg"
   xmlns="http://www.w3.org/2000/svg"
   style="fill:#2ea7e0"
   height="16"
   width="16"
   xml:space="preserve"
   enable-background="new 0 0 50 50"
   viewBox="0 0 16 16"
   y="0px"
   x="0px"
   id="storage"
   version="1.1"><defs
     id="defs8" /><rect
     y="-14"
     x="0"
     height="16"
     width="16"
     id="rect3378"
     style="fill:#0000ff;fill-opacity:0" /><g><path
       d="m 13.928026,5.1793403 c 0.282239,0 0.483839,-0.270957 0.483839,-0.650298 l 0,-3.088914 c 0,-0.37934 -0.2016,-0.65029798 -0.483839,-0.65029798 l -10.4831704,0 c -0.2822392,0 -0.4838386,0.27095798 -0.4838386,0.65029798 l 0,3.088914 c 0,0.379341 0.2015994,0.650298 0.4838386,0.650298 l 4.8787063,0 0,0.433532 -4.8787063,0 c -0.2822392,0 -0.4838386,0.270957 -0.4838386,0.650298 l 0,3.088914 c 0,0.379341 0.2015994,0.6502977 0.4838386,0.6502977 l 4.8787063,0 0,0.433532 -4.8787063,0 c -0.2822392,0 -0.4838386,0.270957 -0.4838386,0.650298 l 0,3.088914 c 0,0.37934 0.2015994,0.650298 0.4838386,0.650298 l 2.7820723,0 0,-0.108383 0.403199,-0.325149 c 0,-0.05419 0,-0.05419 0,-0.108383 0,-0.05419 0,-0.05419 0,-0.108383 l -0.403199,-0.325149 0.04032,-0.325149 c 0.08064,-0.37934 0.161279,-0.704489 0.322559,-0.975447 l 0.120959,-0.270957 0.443519,0.162575 c 0.04032,-0.05419 0.08064,-0.108383 0.12096,-0.162575 l -0.12096,-0.596106 0.2016,-0.162575 c 0.241919,-0.216766 0.483838,-0.325149 0.725758,-0.433531 l 0.241919,-0.05419 0.241919,0.541915 c 0.04032,0 0.04032,0 0.08064,0 0.04032,0 0.04032,0 0.08064,0 l 0.241919,-0.541915 0.241919,0.05419 c 0.28224,0.108382 0.524159,0.216765 0.725758,0.433531 l 0.2016001,0.162575 -0.12096,0.596106 c 0.04032,0.05419 0.08064,0.108383 0.12096,0.162575 l 0.443519,-0.162575 0.120959,0.270957 c 0.16128,0.325149 0.24192,0.650298 0.322559,0.975447 l 0.04032,0.325149 -0.403199,0.325149 c 0,0.05419 0,0.05419 0,0.108383 0,0.05419 0,0.05419 0,0.108383 l 0.403199,0.325149 0,0.108383 2.862712,0 c 0.282239,0 0.483839,-0.270958 0.483839,-0.650298 l 0,-3.034723 c 0,-0.37934 -0.2016,-0.650298 -0.483839,-0.650298 l -4.9190261,0 0,-0.433532 4.9190261,0 c 0.282239,0 0.483839,-0.2709567 0.483839,-0.6502967 l 0,-3.088915 c 0,-0.37934 -0.2016,-0.650297 -0.483839,-0.650297 l -4.9190261,0 0,-0.487724 4.9190261,0 z m -0.766078,-2.709574 c 0.24192,0 0.403199,0.270958 0.403199,0.541915 0,0.325149 -0.201599,0.541915 -0.403199,0.541915 -0.241919,0 -0.403199,-0.270958 -0.403199,-0.541915 0,-0.325149 0.2016,-0.541915 0.403199,-0.541915 z m -1.290236,0 c 0.241919,0 0.403199,0.270958 0.403199,0.541915 0,0.325149 -0.2016,0.541915 -0.403199,0.541915 -0.241919,0 -0.403199,-0.270958 -0.403199,-0.541915 0,-0.325149 0.16128,-0.541915 0.403199,-0.541915 z m -1.290236,0 c 0.241919,0 0.403198,0.270958 0.403198,0.541915 0,0.325149 -0.201599,0.541915 -0.403198,0.541915 -0.24192,0 -0.403199,-0.270958 -0.403199,-0.541915 -0.04032,-0.325149 0.161279,-0.541915 0.403199,-0.541915 z m -5.9673437,1.625745 c -0.4435188,0 -0.8063977,-0.487724 -0.8063977,-1.08383 0,-0.596106 0.3628789,-1.08383 0.8063977,-1.08383 0.4435187,0 0.8063977,0.487724 0.8063977,1.08383 0,0.596106 -0.362879,1.08383 -0.8063977,1.08383 z m 0,4.823041 c -0.4435188,0 -0.8063977,-0.487723 -0.8063977,-1.083829 0,-0.596107 0.3628789,-1.08383 0.8063977,-1.08383 0.4435187,0 0.8063977,0.487723 0.8063977,1.08383 0,0.596106 -0.362879,1.083829 -0.8063977,1.083829 z m 0,4.8230417 c -0.4435188,0 -0.8063977,-0.487723 -0.8063977,-1.08383 0,-0.596106 0.3628789,-1.083829 0.8063977,-1.083829 0.4435187,0 0.8063977,0.487723 0.8063977,1.083829 0,0.596107 -0.362879,1.08383 -0.8063977,1.08383 z M 13.161948,12.11585 c 0.24192,0 0.403199,0.270957 0.403199,0.541914 0,0.325149 -0.201599,0.541915 -0.403199,0.541915 -0.241919,0 -0.403199,-0.270957 -0.403199,-0.541915 0,-0.270957 0.2016,-0.541914 0.403199,-0.541914 z m -1.290236,0 c 0.241919,0 0.403199,0.270957 0.403199,0.541914 0,0.325149 -0.2016,0.541915 -0.403199,0.541915 -0.241919,0 -0.403199,-0.270957 -0.403199,-0.541915 0,-0.270957 0.16128,-0.541914 0.403199,-0.541914 z m 1.290236,-4.8230417 c 0.24192,0 0.403199,0.270957 0.403199,0.541915 0,0.325149 -0.201599,0.541915 -0.403199,0.541915 -0.241919,0 -0.403199,-0.270958 -0.403199,-0.541915 0,-0.325149 0.2016,-0.541915 0.403199,-0.541915 z m -1.290236,0 c 0.241919,0 0.403199,0.270957 0.403199,0.541915 0,0.325149 -0.2016,0.541915 -0.403199,0.541915 -0.241919,0 -0.403199,-0.270958 -0.403199,-0.541915 0,-0.325149 0.16128,-0.541915 0.403199,-0.541915 z m -1.290236,0 c 0.241919,0 0.403198,0.270957 0.403198,0.541915 0,0.325149 -0.201599,0.541915 -0.403198,0.541915 -0.24192,0 -0.403199,-0.270958 -0.403199,-0.541915 -0.04032,-0.325149 0.161279,-0.541915 0.403199,-0.541915 z" /><path
       d="m 9.85206,14.044068 c 0,-0.08592 0,-0.171839 -0.02736,-0.300717 l 0.273607,-0.214798 C 10.070949,13.270795 9.988865,13.055997 9.906783,12.8412 L 9.605814,12.970078 C 9.523734,12.79824 9.441649,12.669362 9.359567,12.583443 l 0.08208,-0.472556 C 9.304844,11.982008 9.16804,11.896089 9.003875,11.81017 L 8.83971,12.239765 c -0.05472,0 -0.109443,-0.04296 -0.191525,-0.04296 -0.08208,0 -0.109443,0 -0.191525,0.04296 L 8.319855,11.81017 c -0.164164,0.04296 -0.300969,0.171838 -0.437772,0.300717 l 0.08208,0.472556 C 7.854722,12.712321 7.77264,12.8412 7.717918,12.970078 L 7.416949,12.8412 c -0.08208,0.214797 -0.136804,0.429595 -0.191525,0.687353 l 0.273607,0.214798 c 0,0.08592 -0.02736,0.171839 -0.02736,0.300717 0,0.128878 0,0.171839 0.02736,0.300717 l -0.273607,0.214798 c 0.02736,0.257758 0.109443,0.472556 0.191525,0.687353 l 0.300969,-0.128878 c 0.08208,0.171838 0.164165,0.300716 0.246247,0.386635 l -0.08208,0.472556 c 0.136803,0.128879 0.273608,0.214798 0.437772,0.300717 l 0.136805,-0.429595 c 0.05472,0 0.109443,0.04296 0.191525,0.04296 0.08208,0 0.109443,0 0.191525,-0.04296 l 0.164165,0.429595 c 0.164165,-0.04296 0.300969,-0.171838 0.437772,-0.300717 l -0.08208,-0.472556 c 0.109443,-0.128878 0.191526,-0.257757 0.246247,-0.386635 l 0.300969,0.128878 c 0.08208,-0.214797 0.136804,-0.429595 0.191525,-0.687353 L 9.824703,14.344785 c 0.02736,-0.128878 0.02736,-0.214798 0.02736,-0.300717 z m -1.176514,1.07399 c -0.383051,0 -0.68402,-0.472556 -0.68402,-1.07399 0,-0.601434 0.300969,-1.07399 0.68402,-1.07399 0.383051,0 0.684019,0.472556 0.684019,1.07399 0,0.601434 -0.300968,1.07399 -0.684019,1.07399 z" /></g></svg>