<?xml version="1.0" encoding="UTF-8" standalone="no"?>
<!-- Created with Inkscape (http://www.inkscape.org/) -->

<svg
   xmlns:dc="http://purl.org/dc/elements/1.1/"
   xmlns:cc="http://creativecommons.org/ns#"
   xmlns:rdf="http://www.w3.org/1999/02/22-rdf-syntax-ns#"
   xmlns:svg="http://www.w3.org/2000/svg"
   xmlns="http://www.w3.org/2000/svg"
   version="1.1"
   width="16"
   height="16"
   viewBox="0 0 16 16"
   id="svg2"
   style="fill:#ffffff">
  <defs
     id="defs4" />
  <metadata
     id="metadata7">
    <rdf:RDF>
      <cc:Work
         rdf:about="">
        <dc:format>image/svg+xml</dc:format>
        <dc:type
           rdf:resource="http://purl.org/dc/dcmitype/StillImage" />
        <dc:title></dc:title>
      </cc:Work>
    </rdf:RDF>
  </metadata>
  <g
     id="layer1">
    <rect
       width="16"
       height="16"
       x="0"
       y="0"
       id="rect3026"
       style="fill-opacity:0" />
    <g
       transform="scale(0.6287084,0.6287084)"
       id="g3007"
       style="fill:#029fe4">
      <g
         transform="matrix(0.0625,0,0,0.09965868,0,-7.565161)"
         id="g3">
        <path
           d="m 407.184,189.266 0,-65.475 -407.184,0 0,65.481 19.954,0 0,28.638 -19.954,0 0,65.482 407.184,0 0,-65.482 -23.018,0 0,-28.638 23.018,0 0,-0.006 z m -334.555,67.297 -28.3,0 0,-27.688 28.3,0 0,27.688 z m 0,-39.507 -28.3,0 0,-27.683 28.3,0 0,27.683 z m 0,-38.761 -28.3,0 0,-27.685 28.3,0 0,27.685 z m 41.838,78.268 -28.305,0 0,-27.688 28.305,0 0,27.688 z m 0,-39.507 -28.305,0 0,-27.683 28.305,0 0,27.683 z m 0,-38.761 -28.305,0 0,-27.685 28.305,0 0,27.685 z m 41.228,78.268 -28.305,0 0,-27.688 28.305,0 0,27.688 z m 0,-39.507 -28.305,0 0,-27.683 28.305,0 0,27.683 z m 0,-38.761 -28.305,0 0,-27.685 28.305,0 0,27.685 z m 40.797,78.268 -28.302,0 0,-27.688 28.302,0 0,27.688 z m 0,-39.507 -28.302,0 0,-27.683 28.302,0 0,27.683 z m 0,-38.761 -28.302,0 0,-27.685 28.302,0 0,27.685 z m 41.842,78.268 -28.309,0 0,-27.688 28.309,0 0,27.688 z m 0,-39.507 -28.309,0 0,-27.683 28.309,0 0,27.683 z m 0,-38.761 -28.309,0 0,-27.685 28.309,0 0,27.685 z m 41.23,78.268 -28.301,0 0,-27.688 28.301,0 0,27.688 z m 0,-39.507 -28.301,0 0,-27.683 28.301,0 0,27.683 z m 0,-38.761 -28.301,0 0,-27.685 28.301,0 0,27.685 z m 63.312,77.47 -36.536,0 0,-16.881 36.536,0 0,16.881 z m -18.409,-47.388 c -16.109,0 -29.16,-13.058 -29.16,-29.157 0,-16.099 13.051,-29.152 29.16,-29.152 16.111,0 29.157,13.053 29.157,29.152 10e-4,16.099 -13.058,29.157 -29.157,29.157 z m 18.409,-29.341 c 0,10.09 -8.176,18.272 -18.267,18.272 -10.09,0 -18.274,-8.182 -18.274,-18.272 0,-10.093 8.181,-18.268 18.274,-18.268 10.092,0 18.267,8.175 18.267,18.268 z"
           id="path5" />
      </g>
      <g
         transform="translate(0,-381.73498)"
         id="g7" />
      <g
         transform="translate(0,-381.73498)"
         id="g9" />
      <g
         transform="translate(0,-381.73498)"
         id="g11" />
      <g
         transform="translate(0,-381.73498)"
         id="g13" />
      <g
         transform="translate(0,-381.73498)"
         id="g15" />
      <g
         transform="translate(0,-381.73498)"
         id="g17" />
      <g
         transform="translate(0,-381.73498)"
         id="g19" />
      <g
         transform="translate(0,-381.73498)"
         id="g21" />
      <g
         transform="translate(0,-381.73498)"
         id="g23" />
      <g
         transform="translate(0,-381.73498)"
         id="g25" />
      <g
         transform="translate(0,-381.73498)"
         id="g27" />
      <g
         transform="translate(0,-381.73498)"
         id="g29" />
      <g
         transform="translate(0,-381.73498)"
         id="g31" />
      <g
         transform="translate(0,-381.73498)"
         id="g33" />
      <g
         transform="translate(0,-381.73498)"
         id="g35" />
    </g>
  </g>
</svg>
