<?xml version="1.0" encoding="UTF-8" standalone="no"?>
<svg
   xmlns:dc="http://purl.org/dc/elements/1.1/"
   xmlns:cc="http://creativecommons.org/ns#"
   xmlns:rdf="http://www.w3.org/1999/02/22-rdf-syntax-ns#"
   xmlns:svg="http://www.w3.org/2000/svg"
   xmlns="http://www.w3.org/2000/svg"
   style="fill:#1ab394"
   id="svg2"
   preserveAspectRatio="xMidYMid meet"
   viewBox="0 0 16 16"
   height="16"
   width="16"
   version="1.0">
  <defs
     id="defs40" />
  <metadata
     id="metadata4">
Created by potrace 1.10, written by Peter Selinger 2001-2011
<rdf:RDF>
  <cc:Work
     rdf:about="">
    <dc:format>image/svg+xml</dc:format>
    <dc:type
       rdf:resource="http://purl.org/dc/dcmitype/StillImage" />
    <dc:title></dc:title>
  </cc:Work>
</rdf:RDF>
</metadata>
  <rect
     y="0"
     x="0"
     height="16"
     width="30"
     id="rect3368"
     style="fill:#ffffff;fill-opacity:0" />
  <g
     id="g6"
     transform="matrix(0.01,0,0,-0.0109814,-2.1,20.39256)">
    <path
       id="path8"
       d="m 1296,1820 c -54,-21 -112,-48 -127,-59 -16,-12 -34,-21 -42,-21 -17,0 -164,-88 -212,-127 -20,-15 -89,-77 -155,-136 C 580,1314 465,1168 405,1026 l -28,-66 24,-19 c 29,-24 33,-21 18,12 -10,22 -8,35 9,76 21,50 99,173 114,179 4,2 8,9 8,15 0,14 50,63 59,59 3,-2 8,7 11,19 9,37 28,34 32,-6 4,-45 19,-46 34,-2 10,29 51,92 95,145 7,8 7,12 0,12 -6,0 -23,-19 -37,-42 -15,-24 -30,-45 -34,-48 -9,-7 -31,-48 -41,-79 -8,-22 -8,-21 -4,8 3,19 0,40 -6,47 -8,10 -9,14 0,14 6,0 13,-1 15,-2 2,-2 25,25 50,60 26,35 50,60 55,58 5,-3 14,1 21,9 7,8 9,15 5,15 -3,0 8,12 27,27 18,16 42,36 53,46 11,10 32,26 48,35 15,9 27,19 27,23 0,4 11,10 25,13 14,4 25,11 25,16 0,6 4,10 10,10 5,0 26,11 46,25 20,14 41,22 47,18 7,-4 8,0 4,11 -6,14 -3,17 9,12 9,-3 29,4 47,18 33,25 147,69 156,61 2,-3 -9,-20 -26,-38 -16,-17 -36,-41 -44,-51 -32,-43 -142,-145 -150,-140 -5,3 -9,1 -9,-4 0,-5 -11,-15 -25,-22 -14,-7 -23,-15 -21,-17 8,-9 111,52 145,86 20,20 63,69 95,109 33,40 74,86 93,102 43,38 30,37 -91,-10 z" />
    <path
       id="path10"
       d="M 1153,1681 C 1018,1569 827,1375 727,1250 610,1105 461,870 410,751 400,728 399,728 377,746 l -22,19 22,-25 22,-25 -20,-70 c -20,-72 -24,-131 -12,-175 5,-19 10,-6 20,55 22,130 39,173 73,180 34,8 70,-1 70,-17 0,-6 -8,-20 -17,-31 -18,-19 -17,-19 5,-6 12,8 22,21 22,31 0,20 -39,50 -53,41 -6,-4 -7,-1 -3,6 5,7 14,10 22,7 8,-3 13,0 11,6 -1,6 4,13 12,16 9,3 11,0 6,-8 -12,-19 28,5 46,27 13,17 13,17 -7,0 -42,-35 -34,-15 15,39 43,47 61,74 48,74 -1,0 -45,-41 -97,-91 -52,-50 -96,-86 -98,-80 -5,16 86,202 146,299 146,235 367,479 667,736 17,14 27,26 23,26 -4,0 -61,-44 -125,-99 z" />
    <path
       id="path12"
       d="m 1115,1539 c -27,-17 -40,-29 -27,-26 21,5 21,3 -8,-31 -17,-21 -34,-41 -38,-47 -57,-76 -91,-113 -97,-107 -5,4 -5,2 -1,-5 4,-7 -2,-18 -14,-25 -11,-7 -20,-17 -20,-23 0,-5 -12,-19 -26,-30 -15,-11 -38,-31 -53,-45 -14,-14 -45,-40 -69,-59 -23,-18 -40,-36 -38,-39 2,-4 -11,-18 -28,-31 l -31,-25 24,27 c 14,15 20,27 14,27 -15,0 -34,-26 -38,-52 -2,-13 -10,-42 -17,-65 -16,-56 0,-136 40,-201 l 29,-47 -66,-81 C 583,570 510,455 510,433 c 0,-9 20,-13 73,-13 l 72,0 0,48 c 0,63 36,119 97,152 l 45,23 66,-56 c 36,-31 77,-63 92,-73 28,-18 127,-23 133,-6 6,19 -30,44 -59,40 -21,-3 -30,2 -42,21 -18,31 -25,64 -14,70 14,7 112,-10 207,-35 109,-29 267,-92 399,-158 82,-42 97,-46 161,-46 61,0 70,2 70,18 0,29 -44,63 -88,69 -36,5 -52,17 -136,109 l -96,103 34,26 c 20,15 52,49 73,76 33,43 41,49 75,49 21,0 38,5 38,10 0,6 -13,10 -30,10 -16,0 -30,5 -30,10 0,6 14,10 30,10 17,0 30,5 30,10 0,6 -11,10 -25,10 -25,0 -25,1 -11,28 27,53 39,138 34,251 -2,61 -9,116 -14,121 -13,13 -96,-41 -114,-75 -13,-24 -16,-25 -121,-25 -59,0 -113,-2 -121,-5 -7,-2 -22,10 -33,27 -11,18 -39,46 -63,62 -36,26 -45,28 -52,16 -20,-33 -25,-184 -8,-283 2,-13 -12,-23 -62,-41 C 997,943 854,860 770,784 l -37,-34 -31,58 c -17,32 -34,77 -38,100 -7,47 2,96 17,87 7,-5 6,-11 -1,-20 -7,-8 -10,-21 -8,-29 2,-8 27,22 58,69 52,79 57,84 91,84 27,1 44,-7 67,-29 27,-26 39,-30 84,-29 29,0 61,4 72,8 16,6 14,10 -18,38 -49,44 -136,65 -136,34 0,-4 -25,-4 -55,-1 -30,3 -56,3 -57,-1 -2,-3 -14,-9 -28,-13 l -25,-7 24,20 c 14,13 31,19 45,15 25,-6 73,37 61,56 -3,6 -2,9 3,8 14,-4 55,41 184,203 108,136 133,170 126,168 -2,0 -25,-14 -53,-30 z m 132,-345 c 18,-19 30,-24 51,-20 15,3 48,8 73,11 l 47,6 18,-47 18,-47 10,44 c 10,41 13,44 46,45 19,0 51,-3 70,-8 30,-7 38,-4 58,18 13,15 26,39 29,55 10,52 21,21 22,-67 2,-120 -5,-151 -38,-163 l -26,-9 27,-1 c 21,-1 25,-5 21,-20 -3,-11 -17,-23 -31,-27 -21,-6 -23,-8 -9,-11 33,-8 15,-38 -26,-41 -44,-4 -50,-22 -6,-22 17,0 28,-4 24,-10 -3,-5 -17,-10 -31,-10 -30,0 -32,-20 -1,-20 18,-1 9,-13 -51,-70 -41,-39 -82,-70 -91,-70 -37,0 -180,128 -153,137 19,7 14,23 -7,23 -11,0 -23,5 -26,10 -4,6 5,10 19,10 14,0 26,5 26,10 0,6 -13,10 -30,10 -19,0 -33,7 -40,19 -15,28 -12,41 8,41 12,0 10,4 -8,13 -35,17 -33,43 3,39 37,-5 34,5 -7,22 -39,16 -45,37 -42,135 4,101 6,111 19,73 5,-18 21,-44 34,-58 z m 33,27 c 0,-11 -3,-11 -16,-1 -8,8 -20,22 -26,33 -10,19 -10,19 16,1 14,-11 26,-25 26,-33 z m 355,15 c -15,-22 -45,-43 -45,-30 0,6 51,54 57,54 2,0 -4,-11 -12,-24 z m -815,-81 c -7,-8 -18,-15 -24,-15 -6,0 -2,7 8,15 25,19 32,19 16,0 z m 164,-75 c 7,-7 1,-10 -16,-10 -34,0 -58,9 -58,22 0,12 60,2 74,-12 z m -241,-10 c -19,-11 -30,-25 -27,-33 6,-18 -21,-42 -31,-27 -8,12 57,80 77,80 7,0 -2,-9 -19,-20 z m 462,-116 c 20,-48 19,-52 -10,-46 -15,2 -25,0 -25,-7 0,-6 16,-11 35,-11 19,0 35,-4 35,-10 0,-5 -16,-10 -35,-10 -19,0 -35,-4 -35,-10 0,-5 18,-10 41,-10 36,0 45,-6 96,-61 65,-69 139,-124 148,-109 9,14 22,12 28,-4 3,-8 -3,-26 -14,-40 -21,-27 -11,-37 11,-11 17,20 33,19 53,-3 15,-17 15,-19 -14,-36 -39,-23 -32,-30 12,-12 l 34,14 53,-59 c 44,-49 59,-59 86,-59 32,0 76,-23 76,-41 0,-5 -23,-9 -50,-9 -40,0 -70,10 -148,49 -198,99 -469,191 -567,191 -49,0 -54,9 -44,64 5,27 7,51 5,54 -12,11 -24,-12 -30,-57 l -6,-49 -66,-4 c -62,-3 -66,-2 -96,29 -18,18 -30,34 -27,37 2,2 26,22 52,45 l 49,41 31,-22 c 29,-20 30,-21 23,-2 -18,43 -17,51 8,67 24,16 27,16 58,-3 45,-27 53,-25 29,6 -25,32 -26,40 -5,48 9,3 37,-10 69,-34 55,-40 76,-50 58,-27 -10,12 -37,88 -35,96 0,2 23,12 49,21 26,10 49,18 50,19 2,0 10,-15 18,-35 z M 780,659 c 0,-4 -11,-10 -24,-13 -59,-15 -125,-104 -126,-167 0,-25 -4,-27 -45,-31 -25,-2 -45,0 -45,4 0,13 100,154 146,206 l 47,53 23,-22 c 13,-12 24,-26 24,-30 z m 162,-41 c 3,-18 9,-41 13,-52 7,-16 5,-17 -11,-8 -10,6 -39,28 -63,50 l -44,38 50,3 c 50,2 51,2 55,-31 z" />
    <path
       id="path14"
       d="m 1322,1114 c -12,-8 -22,-22 -22,-31 0,-14 4,-13 23,5 42,39 67,25 67,-39 0,-27 -2,-29 -40,-29 -22,0 -40,-4 -40,-10 0,-5 16,-10 34,-10 l 35,0 -15,-35 -14,-35 41,-27 41,-27 -27,-13 c -14,-8 -23,-18 -20,-24 4,-5 18,-1 35,11 28,20 28,20 53,0 28,-22 37,-25 37,-10 0,5 -12,15 -26,23 l -26,13 41,27 c 37,24 40,29 31,53 -16,40 -13,44 30,44 22,0 40,5 40,10 0,6 -17,10 -37,10 l -38,1 28,24 c 15,14 37,25 48,25 10,0 19,5 19,10 0,6 -11,8 -27,4 -43,-10 -61,-22 -68,-44 -5,-17 -15,-20 -64,-20 l -58,0 1,39 c 1,64 -35,88 -82,55 z m 190,-144 5,-30 -73,0 -72,0 11,30 c 11,28 14,30 68,30 55,0 57,-1 61,-30 z m -12,-47 c 0,-1 -12,-9 -28,-17 -24,-12 -31,-12 -55,0 -15,8 -27,16 -27,17 0,1 25,2 55,3 30,0 55,-1 55,-3 z" />
    <path
       id="path16"
       d="m 621,934 c 0,-11 3,-14 6,-6 3,7 2,16 -1,19 -3,4 -6,-2 -5,-13 z" />
    <path
       id="path18"
       d="m 355,899 c -6,-34 -3,-44 15,-64 13,-13 17,-25 11,-29 -5,-4 -12,-2 -16,4 -3,5 -3,10 1,10 4,0 -5,9 -19,20 -39,31 -42,24 -6,-12 18,-18 37,-33 42,-33 6,0 12,-7 14,-15 3,-9 1,-11 -4,-5 -4,6 -33,11 -63,10 -41,0 -63,-6 -87,-23 -18,-13 -33,-28 -33,-35 0,-6 12,1 28,14 22,21 36,25 79,24 28,-1 58,-7 66,-13 12,-10 16,-8 21,10 11,42 6,70 -15,89 -17,15 -19,21 -9,39 7,14 17,20 28,16 11,-4 8,1 -7,14 -33,28 -38,26 -46,-21 z M 338,773 c -10,-2 -26,-2 -35,0 -10,3 -2,5 17,5 19,0 27,-2 18,-5 z" />
    <path
       id="path20"
       d="m 526,627 c 3,-10 9,-15 12,-12 3,3 0,11 -7,18 -10,9 -11,8 -5,-6 z" />
    <path
       id="path22"
       d="m 560,630 c -24,-15 -7,-19 20,-5 15,8 19,14 10,14 -8,1 -22,-3 -30,-9 z" />
    <path
       id="path24"
       d="m 481,606 c 13,-13 28,-21 32,-19 12,7 -10,30 -35,36 -21,6 -21,5 3,-17 z" />
    <path
       id="path26"
       d="m 510,551 c 0,-6 -18,-16 -40,-22 -22,-7 -47,-20 -56,-31 -22,-23 -11,-23 53,4 51,21 71,42 53,53 -6,4 -10,2 -10,-4 z" />
  </g>
</svg>
