<?xml version="1.0" encoding="UTF-8" standalone="no"?>
<svg
   xmlns:dc="http://purl.org/dc/elements/1.1/"
   xmlns:cc="http://creativecommons.org/ns#"
   xmlns:rdf="http://www.w3.org/1999/02/22-rdf-syntax-ns#"
   xmlns:svg="http://www.w3.org/2000/svg"
   xmlns="http://www.w3.org/2000/svg"
   id="svg2"
   version="1.1"
   xml:space="preserve"
   width="30"
   height="30"
   viewBox="0 0 30 30"
   style="fill:#1ab394"><metadata
     id="metadata8"><rdf:RDF><cc:Work
         rdf:about=""><dc:format>image/svg+xml</dc:format><dc:type
           rdf:resource="http://purl.org/dc/dcmitype/StillImage" /><dc:title></dc:title></cc:Work></rdf:RDF></metadata><defs
     id="defs6"><clipPath
       clipPathUnits="userSpaceOnUse"
       id="clipPath16"><path
         d="M 0,800 800,800 800,0 0,0 0,800 Z"
         id="path18" /></clipPath><clipPath
       clipPathUnits="userSpaceOnUse"
       id="clipPath152"><path
         d="m 125.229,615.5 c 0,-16.87 123.134,-30.557 274.98,-30.557 l 0,0 c 151.895,0 275.02,13.687 275.02,30.557 l 0,0 c 0,16.869 -123.125,30.558 -275.02,30.558 l 0,0 c -151.846,0 -274.98,-13.689 -274.98,-30.558"
         id="path154" /></clipPath><radialGradient
       fx="0"
       fy="0"
       cx="0"
       cy="0"
       r="1"
       gradientUnits="userSpaceOnUse"
       gradientTransform="matrix(275.02145,0,0,-30.554882,400.22949,615.50049)"
       spreadMethod="pad"
       id="radialGradient160"><stop
         style="stop-opacity:1;stop-color:#7c7c7d"
         offset="0"
         id="stop162" /><stop
         style="stop-opacity:1;stop-color:#7c7c7d"
         offset="0.0558376"
         id="stop164" /><stop
         style="stop-opacity:1;stop-color:#9a9a9a"
         offset="0.15736"
         id="stop166" /><stop
         style="stop-opacity:1;stop-color:#ffffff"
         offset="0.41504571"
         id="stop168" /><stop
         style="stop-opacity:1;stop-color:#ffffff"
         offset="1"
         id="stop170" /></radialGradient><clipPath
       clipPathUnits="userSpaceOnUse"
       id="clipPath178"><path
         d="m 191.5,744.5 c -17.12,0 -31,-13.879 -31,-31 l 0,0 0,-66 c 0,-17.12 13.88,-31 31,-31 l 0,0 418,0 c 17.121,0 31,13.88 31,31 l 0,0 0,66 c 0,17.121 -13.879,31 -31,31 l 0,0 -418,0 z"
         id="path180" /></clipPath><linearGradient
       x1="0"
       y1="0"
       x2="1"
       y2="0"
       gradientUnits="userSpaceOnUse"
       gradientTransform="matrix(-5.6e-6,-128,-128,5.6e-6,400.49951,744.5)"
       spreadMethod="pad"
       id="linearGradient186"><stop
         style="stop-opacity:1;stop-color:#f37e5f"
         offset="0"
         id="stop188" /><stop
         style="stop-opacity:1;stop-color:#ec1c24"
         offset="0.5"
         id="stop190" /><stop
         style="stop-opacity:1;stop-color:#cf232a"
         offset="1"
         id="stop192" /></linearGradient><clipPath
       clipPathUnits="userSpaceOnUse"
       id="clipPath200"><path
         d="M 0,800 800,800 800,0 0,0 0,800 Z"
         id="path202" /></clipPath><linearGradient
       x1="0"
       y1="0"
       x2="1"
       y2="0"
       gradientUnits="userSpaceOnUse"
       gradientTransform="matrix(-5.90104e-6,135,-135,-5.90104e-6,-240,699.5)"
       spreadMethod="pad"
       id="linearGradient206"><stop
         style="stop-opacity:1;stop-color:#ded9d6"
         offset="0"
         id="stop208" /><stop
         style="stop-opacity:1;stop-color:#ded9d6"
         offset="0"
         id="stop210" /><stop
         style="stop-opacity:1;stop-color:#ded9d6"
         offset="0"
         id="stop212" /><stop
         style="stop-opacity:1;stop-color:#ded9d6"
         offset="0.04439189"
         id="stop214" /><stop
         style="stop-opacity:1;stop-color:#8b878d"
         offset="0.264045"
         id="stop216" /><stop
         style="stop-opacity:1;stop-color:#f3f4f4"
         offset="0.522472"
         id="stop218" /><stop
         style="stop-opacity:1;stop-color:#f3f4f4"
         offset="0.58197592"
         id="stop220" /><stop
         style="stop-opacity:1;stop-color:#807b80"
         offset="0.876404"
         id="stop222" /><stop
         style="stop-opacity:1;stop-color:#d1d3d4"
         offset="1"
         id="stop224" /><stop
         style="stop-opacity:1;stop-color:#d1d3d4"
         offset="1"
         id="stop226" /></linearGradient><clipPath
       clipPathUnits="userSpaceOnUse"
       id="clipPath370"><path
         d="m 125.229,448.722 c 0,-16.87 123.134,-30.557 274.98,-30.557 l 0,0 c 151.895,0 275.02,13.687 275.02,30.557 l 0,0 c 0,16.869 -123.125,30.559 -275.02,30.559 l 0,0 c -151.846,0 -274.98,-13.69 -274.98,-30.559"
         id="path372" /></clipPath><radialGradient
       fx="0"
       fy="0"
       cx="0"
       cy="0"
       r="1"
       gradientUnits="userSpaceOnUse"
       gradientTransform="matrix(275.02344,0,0,-30.555103,400.22949,448.72217)"
       spreadMethod="pad"
       id="radialGradient378"><stop
         style="stop-opacity:1;stop-color:#7c7c7d"
         offset="0"
         id="stop380" /><stop
         style="stop-opacity:1;stop-color:#7c7c7d"
         offset="0.0558376"
         id="stop382" /><stop
         style="stop-opacity:1;stop-color:#9a9a9a"
         offset="0.15736"
         id="stop384" /><stop
         style="stop-opacity:1;stop-color:#ffffff"
         offset="0.41504571"
         id="stop386" /><stop
         style="stop-opacity:1;stop-color:#ffffff"
         offset="1"
         id="stop388" /></radialGradient><clipPath
       clipPathUnits="userSpaceOnUse"
       id="clipPath396"><path
         d="m 191.5,578.5 c -17.12,0 -31,-13.88 -31,-31 l 0,0 0,-66 c 0,-17.121 13.88,-31 31,-31 l 0,0 418,0 c 17.121,0 31,13.879 31,31 l 0,0 0,66 c 0,17.12 -13.879,31 -31,31 l 0,0 -418,0 z"
         id="path398" /></clipPath><linearGradient
       x1="0"
       y1="0"
       x2="1"
       y2="0"
       gradientUnits="userSpaceOnUse"
       gradientTransform="matrix(-5.6e-6,128,128,5.6e-6,400.50049,450.5)"
       spreadMethod="pad"
       id="linearGradient404"><stop
         style="stop-opacity:1;stop-color:#00a99d"
         offset="0"
         id="stop406" /><stop
         style="stop-opacity:1;stop-color:#00cccc"
         offset="0.671652"
         id="stop408" /><stop
         style="stop-opacity:1;stop-color:#00cccc"
         offset="1"
         id="stop410" /></linearGradient><clipPath
       clipPathUnits="userSpaceOnUse"
       id="clipPath418"><path
         d="M 0,800 800,800 800,0 0,0 0,800 Z"
         id="path420" /></clipPath><linearGradient
       x1="0"
       y1="0"
       x2="1"
       y2="0"
       gradientUnits="userSpaceOnUse"
       gradientTransform="matrix(-5.90104e-6,135,-135,-5.90104e-6,-240,699.5)"
       spreadMethod="pad"
       id="linearGradient424"><stop
         style="stop-opacity:1;stop-color:#ded9d6"
         offset="0"
         id="stop426" /><stop
         style="stop-opacity:1;stop-color:#ded9d6"
         offset="0"
         id="stop428" /><stop
         style="stop-opacity:1;stop-color:#ded9d6"
         offset="0"
         id="stop430" /><stop
         style="stop-opacity:1;stop-color:#ded9d6"
         offset="0.04439189"
         id="stop432" /><stop
         style="stop-opacity:1;stop-color:#8b878d"
         offset="0.264045"
         id="stop434" /><stop
         style="stop-opacity:1;stop-color:#f3f4f4"
         offset="0.522472"
         id="stop436" /><stop
         style="stop-opacity:1;stop-color:#f3f4f4"
         offset="0.58197592"
         id="stop438" /><stop
         style="stop-opacity:1;stop-color:#807b80"
         offset="0.876404"
         id="stop440" /><stop
         style="stop-opacity:1;stop-color:#d1d3d4"
         offset="1"
         id="stop442" /><stop
         style="stop-opacity:1;stop-color:#d1d3d4"
         offset="1"
         id="stop444" /></linearGradient><clipPath
       clipPathUnits="userSpaceOnUse"
       id="clipPath508"><path
         d="m 125.229,282.277 c 0,-16.869 123.134,-30.556 274.98,-30.556 l 0,0 c 151.895,0 275.02,13.687 275.02,30.556 l 0,0 c 0,16.869 -123.125,30.558 -275.02,30.558 l 0,0 c -151.846,0 -274.98,-13.689 -274.98,-30.558"
         id="path510" /></clipPath><radialGradient
       fx="0"
       fy="0"
       cx="0"
       cy="0"
       r="1"
       gradientUnits="userSpaceOnUse"
       gradientTransform="matrix(275.02344,0,0,-30.555103,400.22949,282.27832)"
       spreadMethod="pad"
       id="radialGradient516"><stop
         style="stop-opacity:1;stop-color:#7c7c7d"
         offset="0"
         id="stop518" /><stop
         style="stop-opacity:1;stop-color:#7c7c7d"
         offset="0.0558376"
         id="stop520" /><stop
         style="stop-opacity:1;stop-color:#9a9a9a"
         offset="0.15736"
         id="stop522" /><stop
         style="stop-opacity:1;stop-color:#ffffff"
         offset="0.41504571"
         id="stop524" /><stop
         style="stop-opacity:1;stop-color:#ffffff"
         offset="1"
         id="stop526" /></radialGradient><clipPath
       clipPathUnits="userSpaceOnUse"
       id="clipPath534"><path
         d="m 191.5,411.5 c -17.12,0 -31,-13.879 -31,-31 l 0,0 0,-66 c 0,-17.121 13.88,-31 31,-31 l 0,0 418,0 c 17.121,0 31,13.879 31,31 l 0,0 0,66 c 0,17.121 -13.879,31 -31,31 l 0,0 -418,0 z"
         id="path536" /></clipPath><linearGradient
       x1="0"
       y1="0"
       x2="1"
       y2="0"
       gradientUnits="userSpaceOnUse"
       gradientTransform="matrix(-5.6e-6,-128.00049,-128.00049,5.6e-6,400.49951,411.5)"
       spreadMethod="pad"
       id="linearGradient542"><stop
         style="stop-opacity:1;stop-color:#ffe7a3"
         offset="0"
         id="stop544" /><stop
         style="stop-opacity:1;stop-color:#ffca05"
         offset="0.5"
         id="stop546" /><stop
         style="stop-opacity:1;stop-color:#faac18"
         offset="1"
         id="stop548" /></linearGradient><clipPath
       clipPathUnits="userSpaceOnUse"
       id="clipPath556"><path
         d="M 0,800 800,800 800,0 0,0 0,800 Z"
         id="path558" /></clipPath><linearGradient
       x1="0"
       y1="0"
       x2="1"
       y2="0"
       gradientUnits="userSpaceOnUse"
       gradientTransform="matrix(-5.90106e-6,135,-135,-5.90106e-6,-240,699.5)"
       spreadMethod="pad"
       id="linearGradient562"><stop
         style="stop-opacity:1;stop-color:#ded9d6"
         offset="0"
         id="stop564" /><stop
         style="stop-opacity:1;stop-color:#ded9d6"
         offset="0"
         id="stop566" /><stop
         style="stop-opacity:1;stop-color:#ded9d6"
         offset="0"
         id="stop568" /><stop
         style="stop-opacity:1;stop-color:#ded9d6"
         offset="0.04439189"
         id="stop570" /><stop
         style="stop-opacity:1;stop-color:#8b878d"
         offset="0.264045"
         id="stop572" /><stop
         style="stop-opacity:1;stop-color:#f3f4f4"
         offset="0.522472"
         id="stop574" /><stop
         style="stop-opacity:1;stop-color:#f3f4f4"
         offset="0.58197592"
         id="stop576" /><stop
         style="stop-opacity:1;stop-color:#807b80"
         offset="0.876404"
         id="stop578" /><stop
         style="stop-opacity:1;stop-color:#d1d3d4"
         offset="1"
         id="stop580" /><stop
         style="stop-opacity:1;stop-color:#d1d3d4"
         offset="1"
         id="stop582" /></linearGradient><clipPath
       clipPathUnits="userSpaceOnUse"
       id="clipPath678"><path
         d="m 125.229,115.833 c 0,-16.869 123.134,-30.556 274.98,-30.556 l 0,0 c 151.895,0 275.02,13.687 275.02,30.556 l 0,0 c 0,16.869 -123.125,30.558 -275.02,30.558 l 0,0 c -151.846,0 -274.98,-13.689 -274.98,-30.558"
         id="path680" /></clipPath><radialGradient
       fx="0"
       fy="0"
       cx="0"
       cy="0"
       r="1"
       gradientUnits="userSpaceOnUse"
       gradientTransform="matrix(275.02368,0,0,-30.55513,400.229,115.83398)"
       spreadMethod="pad"
       id="radialGradient686"><stop
         style="stop-opacity:1;stop-color:#7c7c7d"
         offset="0"
         id="stop688" /><stop
         style="stop-opacity:1;stop-color:#7c7c7d"
         offset="0.0558376"
         id="stop690" /><stop
         style="stop-opacity:1;stop-color:#9a9a9a"
         offset="0.15736"
         id="stop692" /><stop
         style="stop-opacity:1;stop-color:#ffffff"
         offset="0.41504571"
         id="stop694" /><stop
         style="stop-opacity:1;stop-color:#ffffff"
         offset="1"
         id="stop696" /></radialGradient><clipPath
       clipPathUnits="userSpaceOnUse"
       id="clipPath704"><path
         d="m 191.5,244.5 c -17.121,0 -31,-13.879 -31,-31 l 0,0 0,-66 c 0,-17.122 13.879,-31 31,-31 l 0,0 418,0 c 17.121,0 31,13.878 31,31 l 0,0 0,66 c 0,17.121 -13.879,31 -31,31 l 0,0 -418,0 z"
         id="path706" /></clipPath><linearGradient
       x1="0"
       y1="0"
       x2="1"
       y2="0"
       gradientUnits="userSpaceOnUse"
       gradientTransform="matrix(-5.6e-6,-128,-128,5.6e-6,400.49951,244.5)"
       spreadMethod="pad"
       id="linearGradient712"><stop
         style="stop-opacity:1;stop-color:#fbb03b"
         offset="0"
         id="stop714" /><stop
         style="stop-opacity:1;stop-color:#f37521"
         offset="0.5"
         id="stop716" /><stop
         style="stop-opacity:1;stop-color:#d4622a"
         offset="1"
         id="stop718" /></linearGradient><clipPath
       clipPathUnits="userSpaceOnUse"
       id="clipPath726"><path
         d="M 0,800 800,800 800,0 0,0 0,800 Z"
         id="path728" /></clipPath><linearGradient
       x1="0"
       y1="0"
       x2="1"
       y2="0"
       gradientUnits="userSpaceOnUse"
       gradientTransform="matrix(-5.90104e-6,135,-135,-5.90104e-6,-240,699.5)"
       spreadMethod="pad"
       id="linearGradient732"><stop
         style="stop-opacity:1;stop-color:#ded9d6"
         offset="0"
         id="stop734" /><stop
         style="stop-opacity:1;stop-color:#ded9d6"
         offset="0"
         id="stop736" /><stop
         style="stop-opacity:1;stop-color:#ded9d6"
         offset="0"
         id="stop738" /><stop
         style="stop-opacity:1;stop-color:#ded9d6"
         offset="0.04439189"
         id="stop740" /><stop
         style="stop-opacity:1;stop-color:#8b878d"
         offset="0.264045"
         id="stop742" /><stop
         style="stop-opacity:1;stop-color:#f3f4f4"
         offset="0.522472"
         id="stop744" /><stop
         style="stop-opacity:1;stop-color:#f3f4f4"
         offset="0.58197592"
         id="stop746" /><stop
         style="stop-opacity:1;stop-color:#807b80"
         offset="0.876404"
         id="stop748" /><stop
         style="stop-opacity:1;stop-color:#d1d3d4"
         offset="1"
         id="stop750" /><stop
         style="stop-opacity:1;stop-color:#d1d3d4"
         offset="1"
         id="stop752" /></linearGradient></defs><g
     transform="matrix(0.375,0,0,0.06,7.5,28.8)"
     id="g10"><path
       d="M 2.58333,20 C 1.15667,20 0,-34.218746 0,-101.09375 l 0,0 0,-257.8125 C 0,-425.78515 1.15667,-480 2.58333,-480 l 0,0 34.83334,0 C 38.84341,-480 40,-425.78515 40,-358.90625 l 0,0 0,257.8125 C 40,-34.218746 38.84341,20 37.41667,20 l 0,0 -34.83334,0 z"
       style="stroke:none"
       id="path412" /></g></svg>