<?xml version="1.0" encoding="UTF-8" standalone="no"?>
<!-- Created with Inkscape (http://www.inkscape.org/) -->

<svg
   xmlns:dc="http://purl.org/dc/elements/1.1/"
   xmlns:cc="http://creativecommons.org/ns#"
   xmlns:rdf="http://www.w3.org/1999/02/22-rdf-syntax-ns#"
   xmlns:svg="http://www.w3.org/2000/svg"
   xmlns="http://www.w3.org/2000/svg"
   version="1.1"
   width="16"
   height="16"
   viewBox="0 0 16 16"
   id="svg2"
   style="fill:#ffffff">
  <defs
     id="defs4" />
  <metadata
     id="metadata7">
    <rdf:RDF>
      <cc:Work
         rdf:about="">
        <dc:format>image/svg+xml</dc:format>
        <dc:type
           rdf:resource="http://purl.org/dc/dcmitype/StillImage" />
        <dc:title></dc:title>
      </cc:Work>
    </rdf:RDF>
  </metadata>
  <g
     id="layer1">
    <rect
       width="16"
       height="16"
       x="0"
       y="0"
       id="rect3010"
       style="fill-opacity:0" />
    <g
       transform="scale(0.32520325,0.32520325)"
       id="g3003">
      <path
         d="M 0,0 H 49.2 V 49.2 H 0 z"
         id="path2987"
         style="fill:#ffffff;fill-opacity:0" />
      <g
         id="g2989"
         style="fill:#2ea7e0">
        <path
    alert="false"         d="M 24.6,0 C 11,0 0,11 0,24.6 0,38.2 11,49.2 24.6,49.2 38.2,49.2 49.2,38.2 49.2,24.6 49.2,11 38.2,0 24.6,0 z m 22.6,26.3 v -0.1 c 0,-0.1 -0.1,-0.1 -0.1,-0.2 -0.1,-0.3 0.1,-0.4 0.2,-0.6 v -0.1 h 0.1 c 0,0.4 0,0.8 -0.1,1.1 L 47.2,26.3 z M 40.6,8.4 c -0.1,0 -0.1,0 -0.1,-0.1 0.1,0 0.1,0.1 0.1,0.1 z M 13.8,5.3 c 0,0.1 0.1,0.2 0.1,0.3 -0.1,0.1 -0.1,0.1 -0.1,0.3 0.2,0.2 0.6,0.1 0.6,0.3 0,0.2 -0.1,0.4 -0.2,0.6 0,0.1 0,0.6 -0.2,0.8 0.1,-0.1 0,-0.2 0,-0.3 h -0.2 c -0.1,0 0,-0.2 0,-0.3 V 6.7 c -0.1,0 -0.2,0 -0.3,0.1 C 13.3,7 13.6,7 13.5,7.2 13.1,7.5 13,7 12.6,7 c -0.1,0 -0.2,0.1 -0.4,0.1 -0.1,0.2 -0.4,0.3 -0.5,0.5 -0.1,0.2 0.1,0.2 0.3,0.3 0,0.1 0,0.2 0.1,0.3 0.2,0 0.3,0 0.4,0.1 0,0.1 0,0.2 -0.1,0.4 0,0.2 0.3,0.3 0.1,0.5 0,0.1 -0.4,0.4 -0.7,0.4 C 11.6,9.6 11.3,9.5 11,9.4 H 10.4 C 10.3,9.3 10.3,9.1 10.1,9.1 9.9,9.1 9.6,9.3 9.4,9.3 9.2,9.3 9.1,9.2 9,9.2 8.8,9.2 8.6,9.2 8.5,9.1 8.4,9 8.6,8.8 8.5,8.8 c 0,-0.1 -0.1,0 -0.2,0 L 8.6,8.5 c 0,0 0.1,0 0.1,0.1 V 8.7 C 8.8,8.8 9.2,9 9.5,9 9.6,9 9.8,8.9 9.9,8.9 c 0.2,0 0.3,-0.1 0.4,-0.1 0.1,0 0.2,0.2 0.4,0.3 0.2,0 0.4,0 0.5,-0.1 C 11.3,8.9 11.4,8.9 11.4,8.8 11.5,8.6 11.2,8.4 11.1,8.1 11,8 11,8 11,7.9 V 7.8 7.6 7.5 7.2 C 10.8,7.2 10.6,7.1 10.5,7.1 H 10.1 10 c 0.2,-0.2 0.4,-0.3 0.6,-0.5 h 0.1 c 0.3,0 0.7,0.1 1,-0.1 C 12,6.2 11.6,6.2 11.5,6.1 l 0.9,-0.6 c 0.2,0.1 0.3,0 0.4,0.1 0.1,0.1 0.1,0.3 0.2,0.3 0.1,0 0.3,0.1 0.4,-0.1 C 13.5,5.6 13.3,5.4 13.3,5.3 13.2,5.1 13.2,5 13,5 h -0.1 c 0.5,-0.3 1,-0.6 1.6,-0.9 0,0.2 0,0.3 -0.1,0.5 0,0.1 0,0.2 -0.1,0.3 -0.2,0.1 -0.4,-0.2 -0.6,0 0,0.2 0.1,0.3 0.1,0.4 z m -3,37.5 c 0.1,0 0.1,0 0.2,0.1 l 0.2,0.2 C 11,42.9 10.9,42.8 10.8,42.8 z m 0.9,0.6 c 0.1,0 0.1,0 0.2,0.1 0.1,0.1 0.2,0.1 0.2,0.2 -0.1,-0.1 -0.3,-0.2 -0.4,-0.3 z m 1.3,0.8 c 0.1,0 0.1,0 0.1,-0.1 0,-0.1 0,-0.2 -0.1,-0.2 -0.2,-0.3 -0.7,-0.5 -0.9,-0.7 -0.4,-0.2 -0.6,-0.5 -0.9,-0.7 -0.1,0 -0.2,0.1 -0.3,0 L 10.7,42.3 V 42.1 C 10.6,42 10.5,42 10.4,41.8 c -0.1,-0.1 0,-0.2 0,-0.2 -0.1,-0.2 -0.1,-0.3 -0.1,-0.5 0,0 0.1,-0.1 -0.1,-0.2 -0.1,-0.1 -0.1,0 -0.1,0 l -0.2,0.2 c 0,0 -0.1,0 -0.1,0.1 0,0.1 0.2,0.3 0.2,0.5 0,0.1 -0.2,0.1 -0.3,0.1 C 4.9,37.7 1.8,31.5 1.7,24.7 L 2.1,24.3 C 2.1,24.2 2.2,24.1 2.2,24 2.2,23.7 2,23.6 1.8,23.4 1.9,21.7 2.1,20.1 2.6,18.5 v 0.2 c 0,0.2 0.1,0.3 0,0.5 0.3,0.3 0.4,0.4 0.4,0.7 v 0.4 c 0,0.1 0.1,0.1 0,0.2 0.1,0.1 0.2,0.1 0.3,0.2 0,0.1 0.1,0.2 0.2,0.4 0.1,0.1 0.1,0.3 0.2,0.3 V 21.3 C 3.9,21.5 3.9,22 4,22.5 l 0.3,0.9 c 0,0.1 0.1,0.2 0.1,0.3 0,0.2 -0.1,0.3 -0.2,0.5 0,0.3 0.4,0.8 0.6,1 l 0.3,0.3 0.1,0.1 0.4,0.4 c 0.2,0 0.5,0 0.7,0.1 0.1,0.1 0.1,0.3 0.2,0.4 0.1,0.1 0.2,0.2 0.2,0.4 0.2,0 0.4,0.2 0.4,0.3 0.1,0.1 0.1,0.2 0.2,0.4 0,0.1 0.1,0.2 0.1,0.3 0,0.1 -0.1,0.2 0,0.3 0,0.2 0.2,0.3 0.2,0.4 v 0.1 c 0.1,0.1 0.2,0.2 0.2,0.3 0.2,0.1 0.2,0.2 0.3,0.3 0.1,0 0.2,-0.3 0.4,-0.2 0.1,0.2 0.3,0.4 0.5,0.6 0,0 0,0.1 0.1,0.1 -0.2,0.6 -0.4,1.3 0.1,2 0,0.2 -0.1,0.4 0,0.5 0.1,0.2 0.4,0.4 0.6,0.5 0.2,0.2 0.5,0.3 0.7,0.5 0.1,0.2 0.1,0.3 0.2,0.5 l 0.2,0.2 c 0.1,0.1 0.2,0.1 0.2,0.2 0.1,0.1 0.1,0.2 0.2,0.4 0.4,0.2 1,0.2 1.4,0.5 0.3,0.2 0.3,0.3 0.4,0.7 0.1,0.1 0.1,0.3 0.2,0.5 0.2,0.5 0.3,1.1 0.5,1.6 0.1,0.2 0.2,0.4 0.2,0.6 0,0.1 0,0.2 0.1,0.3 0.1,0.2 0.2,0.3 0.3,0.4 0.1,0.1 0,0.3 0,0.4 0,0.1 0,0.2 0.1,0.3 0,0.2 0,0.4 0.1,0.5 0,0.1 0.1,0.2 0.1,0.3 0,0.1 0.1,0.2 0.1,0.3 0.1,0.1 0.2,0.3 0.3,0.4 0,0.1 0,0.2 0.1,0.3 0,0.1 0.1,0.2 0.1,0.3 0,0.1 0,0.3 0.1,0.4 0,0.1 0.1,0.3 0.1,0.4 0.1,0.2 0.2,0.3 0.3,0.5 0,0.1 0,0.2 0.1,0.3 0.1,0.1 0.2,0.1 0.3,0.3 v 0.4 c 0.1,0.3 0.3,0.5 0.5,0.7 0.1,0.2 0.2,0.4 0.3,0.5 0,0 0.1,0 0.1,0.1 l 0.1,0.1 c 0.1,0.1 0.2,0.1 0.3,0.1 0.1,0 0.2,0.1 0.2,0.1 0,0 0.1,0 0.1,0.1 0.2,0.1 0.3,0.1 0.5,0.2 0.2,0.1 0.2,0.1 0.5,0.1 h 0.3 c 0,-0.1 0.2,-0.2 0,-0.4 -0.4,-0.2 -0.6,-0.2 -0.8,-0.5 -0.1,-0.2 -0.1,-0.3 -0.2,-0.6 0,-0.1 -0.1,-0.2 -0.1,-0.3 v -0.2 c 0,-0.1 -0.1,-0.2 -0.1,-0.2 0,-0.2 0.1,-0.3 0.1,-0.5 0,-0.1 -0.1,-0.1 -0.1,-0.1 l -0.1,-0.1 c -0.1,-0.1 -0.2,-0.1 -0.3,-0.2 0,-0.4 0.2,-0.7 0.1,-1.2 -0.1,-0.2 -0.3,-0.1 -0.4,-0.4 0.1,-0.1 0.3,-0.1 0.3,-0.2 0,-0.1 0,-0.3 -0.1,-0.5 0.1,-0.1 0.1,-0.2 0.2,-0.3 0.1,-0.1 0.3,-0.1 0.4,-0.2 0.1,-0.2 0.2,-0.5 0,-0.7 -0.1,-0.2 -0.2,-0.2 -0.4,-0.4 0.2,0 0.6,-0.1 0.7,-0.3 v -0.2 c 0.1,-0.2 0.1,-0.4 0.2,-0.5 0,-0.1 0.1,-0.2 0.1,-0.3 0,-0.2 -0.1,-0.6 0,-0.7 V 37.2 37 c 0,-0.1 -0.2,-0.3 -0.2,-0.5 V 36 c 0,-0.1 0.1,-0.1 0.2,-0.1 v -0.1 c 0,0 0.1,0 0.2,-0.1 0,0 0,-0.1 0.1,-0.1 0,0 0.1,0 0.2,-0.1 0,0 0,-0.1 0.1,-0.1 0.1,-0.1 0.2,-0.1 0.3,-0.2 0,-0.1 0.1,-0.2 0.1,-0.3 v -0.6 c 0,-0.3 0.1,-0.5 0,-0.7 0,-0.3 -0.1,-0.5 -0.1,-0.7 -0.1,-0.2 -0.2,-0.4 -0.2,-0.6 0,-0.1 0.1,-0.3 0.1,-0.4 0.1,-0.3 0.2,-0.5 0.2,-0.8 0,-0.2 0.1,-0.3 0.1,-0.5 0,-0.2 -0.2,-0.6 -0.3,-0.7 0,0 0,-0.1 -0.1,-0.1 -0.1,-0.1 -0.5,-0.3 -0.7,-0.3 h -0.1 c -0.1,0 -0.2,-0.1 -0.2,-0.1 H 18 l -0.1,-0.1 h -0.2 c -0.2,0 -0.3,0 -0.5,0.1 -0.1,0 -0.3,-0.1 -0.4,-0.1 h -0.1 c -0.1,0 -0.3,-0.1 -0.4,-0.2 h -0.1 c -0.1,0 -0.3,-0.1 -0.4,0 C 15.5,29 15.5,28.8 15.3,28.5 15.2,28.4 15.2,28.2 15.1,28.1 15,28 14.8,27.9 14.7,27.8 c -0.2,-0.1 -0.3,-0.2 -0.5,-0.2 -0.2,0 -0.4,0.1 -0.7,0.1 -0.2,0 -0.4,-0.1 -0.6,-0.2 -0.2,-0.1 -0.5,-0.2 -0.6,-0.3 -0.1,-0.2 -0.1,-0.5 -0.4,-0.5 -0.2,0 -0.5,0.4 -0.7,0.6 -0.1,0 -0.3,0 -0.5,0.1 h -0.1 c -0.1,0 -0.1,-0.1 -0.2,-0.1 H 10.3 C 10.2,27.2 10.1,27.2 10,27.2 9.6,27.2 9.6,27.4 9.4,27.6 9.3,27.7 9.2,27.7 9.2,27.8 L 9,28 c -0.1,0.2 0,0.4 -0.1,0.6 v 0.9 C 8.8,29.4 8.8,29.3 8.8,29.3 8.8,29.2 8.7,29.2 8.6,29.1 8.5,29 8.3,29.2 8.2,29.1 8,29 7.8,28.6 7.9,28.3 7.9,27.9 8.2,27.6 8.2,27.4 8.2,27.2 8.1,26.9 8,26.8 7.9,26.7 7.6,26.8 7.5,26.5 7.5,26.3 7.7,26.2 7.8,26.1 7.8,26 7.8,25.9 7.9,25.8 7.8,25.1 8,25 7.9,24.8 7.6,24.7 7.5,24.7 7.3,24.9 7.2,25 7.2,25.1 7.1,25.1 L 6.9,25.3 H 6.6 c -0.1,0 -0.2,0.1 -0.3,0 C 6.1,25.2 6,24.8 6,24.6 6,24.4 5.9,24.3 5.9,24.1 5.9,24 5.9,23.9 6,23.8 6.1,23.4 6.2,23.3 6.3,23 c 0,-0.1 0,-0.3 0.1,-0.5 0.1,-0.2 0.4,-0.3 0.5,-0.3 0.2,0 0.4,-0.2 0.6,-0.1 0.1,0 0.1,0.1 0.2,0.2 0.1,0.1 0.2,0.2 0.3,0.2 0.2,0 0.3,-0.3 0.5,-0.2 0.2,0 0.4,0.2 0.5,0.2 0.1,0.1 0.2,0.2 0.2,0.4 0,0.1 0,0.3 0.1,0.4 0,0.1 0,0.3 0.1,0.4 v 0.2 c 0,0.1 0,0.1 0.1,0.2 0.1,0 0.1,-0.1 0.2,-0.1 0.1,0 0.1,-0.5 0.1,-0.6 v -0.2 -0.4 c 0.1,-0.3 0.3,-0.6 0.4,-0.6 h 0.1 C 10.4,22.1 10.5,22 10.6,22 h 0.1 c 0.2,-0.1 0.5,-0.2 0.6,-0.5 0.1,-0.2 0,-0.4 0.1,-0.5 0,-0.2 0.2,0 0.3,-0.2 0,-0.1 0,-0.2 0.1,-0.3 0.5,-0.3 1.1,-0.9 1.7,-1 h 0.2 c 0.1,0 0.2,-0.1 0.2,-0.1 0.1,0 0.2,0.1 0.3,0.1 h 0.6 c 0,0 0,-0.1 0.1,-0.1 H 15 c 0.3,-0.1 0.7,-0.1 0.8,-0.5 0,0 -0.1,0 -0.1,-0.1 -0.2,-0.1 -0.5,0.1 -0.6,0 -0.3,-0.2 0.1,-0.7 -0.1,-1 -0.2,-0.1 -0.4,0 -0.6,0.1 -0.2,0.1 -0.4,0.2 -0.5,0 0.1,-0.2 0.3,-0.2 0.4,-0.3 0.1,-0.1 0.3,-0.2 0.4,-0.2 0.3,0 0.7,0.2 1,0.2 h 0.4 c 0.1,0 0.3,-0.2 0.5,-0.3 0.2,-0.1 0.4,-0.1 0.5,-0.3 0,-0.2 -0.1,-0.3 -0.2,-0.4 -0.2,-0.2 -0.3,-0.5 -0.5,-0.6 0,-0.2 -0.1,-0.3 -0.1,-0.4 0,-0.1 0.1,-0.3 0.1,-0.4 V 15 14.7 c 0,-0.2 0,-0.4 -0.1,-0.5 -0.3,0 -0.4,0.4 -0.7,0.3 -0.1,0 0,0 -0.1,-0.1 -0.1,-0.1 -0.2,-0.2 -0.2,-0.4 0.1,-0.1 0.2,-0.4 0.1,-0.5 0,-0.2 -0.1,-0.2 -0.2,-0.4 -0.1,-0.2 -0.1,-0.3 -0.2,-0.3 h -0.3 c -0.1,0 -0.3,-0.1 -0.4,0 -0.1,0.1 -0.2,0.2 -0.2,0.3 -0.1,0.1 -0.1,0.3 -0.1,0.4 -0.1,0.2 -0.3,0.2 -0.4,0.4 0.1,0.3 0.1,0.8 -0.2,1.1 -0.2,0 -0.4,0 -0.5,0.2 -0.3,0.4 -0.3,1.1 -0.7,1 -0.2,-0.3 -0.2,-0.7 0,-1.2 0,-0.2 -0.2,-0.2 -0.3,-0.3 v -0.1 c -0.1,0 -0.2,0 -0.2,-0.1 0,0 0,-0.1 -0.1,-0.2 C 11.5,14.2 11.5,14.1 11.5,14 L 11.3,13.8 V 13.7 L 11.2,13.6 C 11.1,13.5 11,13.5 10.9,13.4 V 13 c -0.2,-0.2 -0.4,-0.4 0,-0.8 0.1,-0.1 0.3,-0.2 0.6,-0.3 l 0.3,-0.3 c 0.1,-0.1 0.3,-0.2 0.4,-0.2 0.3,-0.1 0.5,0 0.7,-0.1 0.1,0.1 0,0.3 0.1,0.4 0.2,0.1 0.4,0 0.5,-0.2 0.1,-0.3 -0.1,-0.2 0,-0.5 0.2,-0.2 0.8,-0.2 0.9,-0.5 0.1,-0.1 0,-0.3 0,-0.4 0,-0.1 0,-0.4 0.1,-0.6 0.1,-0.2 0.4,-0.3 0.7,-0.3 0.3,0 0.4,0.2 0.5,0.4 0,0.1 0.1,0.1 0.1,0.2 0.1,0.2 0.3,0.4 0.2,0.8 -0.2,0.2 -0.3,0.4 -0.5,0.5 -0.1,0.2 -0.2,0.3 -0.3,0.4 -0.3,0 -0.8,0 -0.8,0.5 0.1,0.1 0.3,0.1 0.4,0.1 0.3,0.1 0.5,0.2 0.6,0.4 0.1,0.1 0.1,0.2 0.1,0.2 0.1,0.1 0.2,0.1 0.3,0.2 0.1,0 0.2,0.2 0.4,0.1 0.1,-0.3 -0.5,-0.3 -0.3,-0.7 0.3,-0.2 0.5,0.5 0.7,0.1 0.1,-0.3 -0.3,-0.4 -0.1,-0.8 0.1,0 0.1,-0.1 0.2,-0.1 0.1,0 0.1,0.1 0.2,0.2 0,0 0.1,0 0.1,0.1 0.1,0.1 0.1,0.2 0.2,0.3 0.1,0 0.2,-0.1 0.3,-0.2 0.1,-0.1 0.2,-0.2 0.3,-0.4 v -0.1 -0.2 c 0,-0.3 -0.3,-0.4 -0.4,-0.6 -0.1,-0.1 -0.3,-0.2 -0.2,-0.3 0,-0.2 0.1,-0.3 0.1,-0.5 0,-0.3 -0.5,-0.4 -0.5,-0.7 0,-0.2 0.1,-0.3 0.1,-0.5 C 16.8,8.5 16.5,8.5 16.4,8.4 16.3,8.3 16.4,8.1 16.3,7.9 16.2,7.9 16,7.8 15.9,7.8 H 15.6 C 15.5,7.8 15.4,7.7 15.4,7.7 15.1,7.7 14.8,7.6 14.6,7.6 14.5,7.6 14.4,7.7 14.3,7.7 14.2,8 14,8.2 13.9,8.4 V 8.7 C 14,8.9 14,9.1 14,9.3 14,9.4 14.2,9.5 14.2,9.7 14,9.8 14,10 13.8,10 c -0.1,0.2 -0.2,0.4 -0.4,0.4 -0.1,0 -0.1,-0.2 -0.1,-0.3 -0.1,0 -0.2,0 -0.2,-0.1 0,-0.1 0,-0.3 -0.1,-0.5 C 13.1,9.3 12.9,9.2 13,9 13.1,9 13.2,9 13.3,8.8 13.3,8.5 12.9,8.5 13.1,8.2 13.1,8.1 13.3,8 13.4,8 13.5,7.9 13.7,8 13.9,7.9 V 7.8 H 14 L 14.1,7.7 C 14.3,7.5 14.4,7 14.6,6.9 14.8,6.8 15,6.8 15.3,6.8 c 0.2,0 0.7,0 0.9,-0.1 L 16.6,6.3 16.9,6 c 0,0 0,-0.1 0.1,-0.1 l 0.5,-0.5 c 0.1,-0.1 0.2,-0.1 0.3,-0.2 0,-0.2 0.2,-0.4 0.3,-0.6 0,0 0.1,0 0.1,-0.1 0.3,-0.2 0.6,-0.3 0.8,-0.4 0.1,-0.1 0.2,-0.2 0.3,-0.2 0.1,-0.1 0.3,-0.1 0.4,-0.2 0.1,0 0.2,0 0.3,-0.1 l 0.1,-0.1 h 0.1 L 20.3,3.4 C 20.4,3.3 20.5,3.3 20.6,3.1 20.6,3 20.5,2.8 20.4,2.8 H 20 c -0.3,0 -0.6,-0.1 -0.9,0 -0.2,0 -0.4,0.1 -0.5,0.1 C 18.5,2.9 18.4,2.8 18.3,2.8 18.2,2.8 18.1,2.9 18,2.9 17.6,3 17.3,3 17,3.2 H 16.9 C 19.3,2.3 22,1.8 24.7,1.8 29.4,1.8 33.8,3.2 37.4,5.7 37.2,5.8 37.1,5.9 37,6 l -0.3,0.3 v 0.2 c -0.1,0.2 -0.2,0.4 -0.2,0.6 0,0 0.1,0.1 0,0.2 0.1,0.2 0.4,0.4 0.6,0.6 0.2,0.1 0.5,0.2 0.7,0 -0.1,-0.3 -0.3,-0.3 -0.4,-0.5 -0.1,-0.2 0,-0.5 0,-0.6 0,-0.1 0.1,-0.2 0.2,-0.3 0.1,-0.1 0.2,-0.3 0.3,-0.4 0.6,0.5 1.2,0.9 1.8,1.4 -0.1,0.1 -0.1,0.1 -0.2,0.3 0,0.2 0.1,0.4 0,0.6 0,0.1 0.1,0.2 0.1,0.3 -0.1,0 -0.1,-0.1 -0.2,-0.1 -0.1,0 -0.1,-0.1 -0.2,-0.2 H 39.1 C 38.9,8.3 38.8,8.3 38.5,8.3 38.3,8.2 38.1,8 38,8.2 c 0,0.3 0.3,0.2 0.3,0.5 -0.1,0.1 -0.3,0.1 -0.5,0.1 -0.2,0 -0.4,-0.1 -0.6,0 -0.1,0 -0.2,0.1 -0.3,0.2 -0.1,0 -0.2,0 -0.3,0.1 -0.1,0 -0.1,0.1 -0.2,0.1 H 36.3 V 9.3 H 36.2 C 36,9.3 36,9.5 35.8,9.5 35.6,9.4 35.6,9 35.3,9 c -0.2,0 0,0.5 -0.2,0.5 -0.1,0.1 -0.2,0 -0.4,0 l -0.3,0.3 c 0,0 0,0.1 -0.1,0.2 l -0.1,0.1 c -0.1,0.2 -0.2,0.3 -0.3,0.3 -0.1,0 -0.5,-0.4 -0.4,-0.7 L 33.3,9.5 C 33.2,9.4 33.1,9.4 33.1,9.2 c 0.3,0 0.5,0.2 0.7,0.2 0.4,0 0.7,-0.1 0.7,-0.4 0,-0.1 -0.1,-0.3 -0.3,-0.5 H 34.1 V 8.4 C 33.9,8.2 33.6,8.1 33.3,8 33.2,8 33.2,7.9 33.2,7.9 c -0.1,0 -0.2,0 -0.3,-0.1 0,0 0,-0.1 -0.1,-0.1 H 32.6 V 7.6 h -0.1 c 0,0 -0.1,-0.1 -0.1,-0.2 C 32.3,7.2 32.1,7.1 32,7 31.5,7 31,7 30.7,7.2 30.6,7.3 30.3,7.3 30.2,7.3 30.1,7.7 30,8 29.7,8.2 c -0.2,0.2 -0.6,0.2 -0.6,0.5 0.1,0.2 0.4,0 0.4,0.3 -0.3,0.4 -0.7,0.8 -1.1,1.2 -0.4,0.1 -0.6,0.4 -0.8,0.7 -0.1,0.1 -0.3,0.1 -0.4,0.3 -0.1,0.7 0,1.3 0.4,1.6 h 0.2 c 0.1,0 0.1,-0.1 0.2,-0.1 h 0.2 c 0,0 0,-0.1 0.1,-0.1 h 0.2 c 0.1,0 0.1,0.2 0.1,0.3 0,0.1 0.1,0.2 0.1,0.3 0.1,0.2 0.1,0.4 0.3,0.6 0.2,0 0.3,-0.2 0.4,-0.2 h 0.2 c 0.2,-0.2 0,-0.5 0.1,-0.7 0.1,-0.2 0.3,-0.2 0.4,-0.4 C 30,12 29.8,12 29.8,11.7 c 0,-0.1 0,-0.3 0.1,-0.5 0.1,-0.4 0.2,-0.6 0.5,-0.7 0.1,-0.1 0.2,-0.2 0.3,-0.2 0,-0.2 0,-0.4 0.1,-0.5 V 9.7 c 0.1,-0.2 0.6,-0.3 0.7,0 0,0.1 0,0.2 -0.1,0.3 -0.2,0.3 -0.4,0.5 -0.6,0.8 0.1,0.2 0.1,0.3 0.1,0.6 0.2,0.2 0.2,0.5 0.5,0.5 0.1,0 0.2,-0.1 0.4,-0.2 H 32 l 0.1,-0.1 h 0.1 c 0.1,-0.1 0.2,-0.2 0.3,-0.2 0.2,-0.1 0.2,0 0.3,0.1 0,0 0.1,0.1 0.1,0.2 -0.1,0.2 -0.2,0.2 -0.4,0.3 -0.1,0 -0.1,0.1 -0.1,0.1 h -0.2 c -0.1,0 -0.2,0 -0.3,0.1 -0.1,0 -0.2,0.1 -0.3,0.1 -0.1,0.1 -0.3,0 -0.3,0.1 -0.1,0.2 0.1,0.4 -0.1,0.5 -0.1,0.1 -0.2,-0.1 -0.4,0 -0.2,0.1 -0.1,0.4 -0.2,0.5 l -0.4,0.4 -0.6,0.3 c -0.1,0 -0.1,0.1 -0.2,0.1 H 29 c -0.1,0 -0.2,0.1 -0.3,0.1 h -0.5 c -0.1,0 -0.2,0.1 -0.4,0.1 -0.2,0 -0.4,0 -0.5,0.1 l -0.2,0.2 c -0.1,0.1 0,0.2 -0.1,0.3 -0.1,0.1 -0.2,0.2 -0.3,0.2 -0.3,0.2 -0.5,0.4 -0.7,0.6 -0.1,0 -0.4,0.1 -0.5,0.2 -0.1,-0.1 -0.4,0 -0.5,0.1 0,0.2 0.3,0.3 0.5,0.5 0.1,0.1 0.1,0.2 0.1,0.3 0.1,0.1 0.2,0.2 0.2,0.3 0,0.2 0,0.6 -0.2,0.7 -0.4,-0.1 -1.1,-0.2 -1.5,0 0,0.1 0,0.1 -0.1,0.1 0,0.3 0.1,0.5 0.1,0.8 0,0.1 -0.1,0.2 -0.1,0.4 0,0.3 0,0.5 0.2,0.7 0.1,0 0.2,0.1 0.3,0 0.1,0.1 0.2,0.3 0.4,0.3 0.1,-0.1 0.3,-0.2 0.6,-0.2 0,-0.1 0.1,-0.1 0.2,-0.2 0,0 0,-0.1 0.1,-0.1 0.1,-0.1 0.2,-0.1 0.3,-0.2 v -0.1 c 0.1,-0.1 0.1,-0.3 0.1,-0.6 l 0.3,-0.3 c 0.1,-0.1 0.1,-0.1 0.2,-0.1 0.1,-0.1 0.1,-0.1 0.1,-0.2 0,-0.3 0.1,-0.4 0.3,-0.5 0.2,0 0.2,0.1 0.4,0.1 0.2,-0.1 0.4,-0.3 0.7,-0.4 0.2,0.1 0.3,0.3 0.3,0.5 0.1,0.3 0.2,0.4 0.4,0.5 0.3,0.2 0.6,0.3 0.7,0.7 0,0.1 -0.1,0.2 -0.1,0.2 0,0.1 -0.2,0 -0.2,0.2 0.1,0.1 0.1,0.2 0.2,0.2 0.1,-0.1 0.1,-0.2 0.2,-0.2 0.1,-0.1 0.2,-0.1 0.2,-0.2 v -0.4 c 0.1,-0.1 0.3,0 0.3,-0.2 -0.1,-0.3 -0.4,-0.4 -0.6,-0.5 h -0.1 l -0.3,-0.3 c -0.1,-0.2 -0.5,-0.4 -0.3,-0.7 0.4,0 0.6,0.4 0.8,0.6 0.1,0.1 0.2,0.2 0.3,0.2 0.1,0.1 0.3,0.2 0.4,0.3 v 0.4 c 0.1,0.1 0.2,0.2 0.2,0.4 0.1,0.3 0.1,0.6 0.4,0.7 0.2,-0.1 0.5,-0.1 0.5,-0.3 0,-0.3 -0.3,-0.3 -0.3,-0.6 0,-0.2 0.3,-0.4 0.4,-0.3 0.1,0 0.2,0.2 0.3,0.3 0.1,0.2 0.1,0.6 0.2,0.7 0.1,0.1 0.1,0.1 0.1,0.2 l 0.1,0.1 0.1,0.1 c 0.2,0.1 0.3,0 0.5,0 0.1,0.1 0.3,0.2 0.4,0.2 0.2,0 0.3,-0.2 0.4,-0.1 0.1,0 0.1,0.2 0.1,0.2 0.1,0.4 -0.1,0.7 -0.1,1.1 -0.1,0.1 -0.2,0.2 -0.3,0.2 -0.2,0.1 -0.4,0 -0.6,0 -0.1,0 -0.2,0.1 -0.3,0.1 -0.2,0 -0.4,0 -0.6,-0.1 l -0.1,-0.1 h -0.2 c -0.1,0 -0.1,-0.1 -0.2,-0.1 -0.4,-0.1 -0.6,-0.3 -0.8,-0.3 -0.1,0 -0.2,0.2 -0.3,0.2 0.1,0.4 -0.2,0.5 -0.5,0.4 -0.3,-0.1 -0.3,-0.2 -0.5,-0.3 L 29.1,21.2 C 29,21.1 28.6,21.1 28.6,21 28.5,20.9 28.3,20.8 28.3,20.6 28.4,20.4 28.4,20 28.4,19.8 28.2,19.6 28,19.7 27.8,19.7 h -1.5 c -0.1,0 -0.1,0.1 -0.2,0.1 -0.2,0.1 -0.3,0.1 -0.4,0.2 -0.1,0 -0.1,0.1 -0.2,0.1 h -0.4 c -0.1,0 -0.2,-0.1 -0.3,-0.2 -0.2,0.2 -0.2,0.4 -0.3,0.6 -0.1,0.1 -0.2,0.1 -0.3,0.2 -0.2,0.1 -0.2,0.2 -0.3,0.4 0,0.1 -0.1,0.2 -0.1,0.2 0,0.1 0.1,0.2 0,0.4 0,0.2 -0.4,0.5 -0.5,0.7 0,0 -0.1,0 -0.1,0.1 -0.1,0.1 -0.2,0.2 -0.3,0.4 -0.1,0.1 -0.1,0.2 -0.2,0.3 -0.1,0.2 -0.2,0.3 -0.3,0.5 -0.1,0.2 -0.2,0.3 -0.2,0.5 -0.1,0.3 0,0.3 0.1,0.6 0.1,0.3 0.2,0.6 0.1,0.9 0,0.2 -0.2,0.4 -0.2,0.6 l 0.1,0.5 c 0,0.1 0.2,0.2 0.2,0.2 v 0.1 h 0.1 v 0.1 h 0.1 c 0.1,0.1 0.1,0.2 0.2,0.3 0.1,0.2 0.1,0.4 0.2,0.6 0.1,0.2 0.4,0.4 0.6,0.6 0.2,0.2 0.4,0.5 0.6,0.5 0.2,0 0.3,-0.2 0.5,-0.2 0.2,0 0.2,0.1 0.4,0.1 0.2,-0.1 0.6,-0.2 0.9,-0.3 0.2,-0.1 0.4,-0.2 0.6,-0.2 0.3,0 0.3,0.4 0.6,0.6 0.2,0 0.3,-0.1 0.4,-0.1 0.4,0.2 0.3,0.5 0.3,0.8 v 0.3 c 0,0.2 -0.1,0.4 -0.1,0.5 0,0.3 0.2,0.4 0.3,0.6 0.3,0.3 0.4,0.8 0.5,1.1 0.1,0.2 0,0.4 0.1,0.8 0,0.2 0.1,0.4 0.1,0.5 0,0.2 -0.2,0.4 -0.3,0.6 v 0.3 c 0,0.1 -0.1,0.2 -0.1,0.3 v 0.7 c 0.2,0.1 0.2,0.4 0.3,0.7 0.1,0.1 0.2,0.3 0.2,0.4 0.1,0.4 0.1,0.8 0.1,1.3 0,0.3 0.1,0.4 0.2,0.6 0.1,0.1 0.1,0.2 0.2,0.3 0,0.1 0.1,0.3 0.1,0.4 0.1,0.2 0.1,0.2 0.1,0.4 0,0.2 -0.1,0.3 -0.1,0.5 0,0.1 0.1,0.3 0.3,0.3 0.2,0.1 0.5,-0.1 0.8,-0.2 0.3,0 0.4,0 0.6,-0.1 0.2,-0.1 0.2,-0.1 0.3,-0.2 l 0.5,-0.5 c 0,-0.1 0.1,-0.1 0.1,-0.2 0,-0.1 0.1,-0.2 0.1,-0.2 0.2,-0.3 0.3,-0.3 0.3,-0.6 0,-0.2 0.1,-0.4 0.1,-0.6 0.1,-0.2 0.5,-0.2 0.6,-0.5 0,-0.5 -0.1,-0.8 -0.1,-1.2 0.1,-0.2 0.3,-0.4 0.5,-0.6 0.1,-0.1 0.3,-0.1 0.4,-0.2 v -0.1 h 0.1 c 0.1,-0.1 0.2,-0.2 0.2,-0.3 0.1,-0.2 0.1,-0.3 0.1,-0.5 v -1.1 c -0.1,-0.1 -0.1,-0.3 -0.2,-0.4 0,-0.1 0.1,-0.3 0.1,-0.5 0,-0.2 -0.1,-0.4 -0.1,-0.5 0,-0.1 0.1,-0.3 0.1,-0.4 0.1,-0.2 0.2,-0.3 0.3,-0.4 0.1,-0.1 0.2,-0.2 0.2,-0.3 0,-0.1 0,-0.1 0.1,-0.2 0,-0.1 0.1,-0.1 0.1,-0.2 0.1,-0.1 0.1,-0.3 0.2,-0.3 0,0 0.1,0 0.1,-0.1 V 30 h 0.1 c 0.2,-0.2 0.5,-0.5 0.6,-0.7 0.1,-0.1 0.1,-0.2 0.2,-0.3 0,-0.1 0.1,-0.1 0.1,-0.2 0,-0.1 0.1,-0.3 0.1,-0.4 0.1,-0.2 0.2,-0.3 0.3,-0.5 0.1,-0.2 0.1,-0.4 0,-0.6 -0.1,-0.1 -0.2,0 -0.3,0 h -0.3 c -0.1,0 -0.2,0.1 -0.3,0.2 h -0.6 c -0.1,-0.1 -0.1,-0.2 -0.2,-0.4 0.1,-0.1 0.2,-0.2 0.4,-0.3 0.1,-0.1 0.2,-0.2 0.4,-0.3 0.1,0 0.2,0 0.3,-0.1 0.2,-0.1 0.3,-0.1 0.4,-0.2 0.3,-0.1 0.4,-0.2 0.6,-0.4 0.1,-0.2 0.2,-0.2 0.3,-0.3 l 0.1,-0.1 c 0.1,-0.1 0.2,-0.1 0.3,-0.2 C 38,25.1 38,25 38.1,24.9 l 0.3,-0.3 c 0.4,-0.4 0.6,-0.7 0.1,-1.1 -0.1,-0.1 -0.2,-0.1 -0.4,-0.2 -0.1,0 -0.3,-0.1 -0.4,-0.2 -0.1,0 -0.3,0.1 -0.4,0.2 -0.3,0 -0.5,-0.2 -0.6,-0.3 l -0.3,-0.6 c 0,-0.1 -0.1,-0.2 -0.1,-0.3 0,-0.1 -0.1,-0.2 -0.1,-0.4 0.1,-0.1 0.2,-0.1 0.3,-0.1 0.2,0 0.3,0.3 0.3,0.4 0.1,0.1 0.1,0.2 0.2,0.3 0,0.1 0.2,0.2 0.2,0.2 0.1,0.1 0.2,0.2 0.3,0.2 0.2,0 0.4,-0.1 0.6,-0.1 0.2,0 0.3,0.2 0.4,0.3 0.1,0.1 0.2,0.1 0.3,0.2 h 0.5 c 0,0.1 -0.1,0.1 -0.1,0.2 0.1,0.1 0.2,0.3 0.3,0.5 l 0.2,0.2 v 0.3 c 0.1,0 0.1,0.2 0.2,0.2 0.2,0.1 0.3,-0.1 0.4,0 0.1,0.1 0,0.3 0,0.4 0,0 0.1,0.1 0.1,0.2 v 0.6 c 0,0.3 0.1,0.5 0.1,0.7 0,0.3 0,0.6 0.1,0.7 0.1,0.2 0.1,0.4 0.2,0.6 0,0.2 0.1,0.3 0.2,0.4 0.1,0 0.2,-0.1 0.2,-0.1 0,-0.1 0.2,-0.1 0.2,-0.2 0,-0.1 0,-0.2 0.1,-0.3 0.1,-0.1 0.1,-0.4 0.1,-0.6 0,-0.2 -0.1,-0.5 0,-0.7 0.2,-0.2 0.3,-0.4 0.5,-0.5 0.1,-0.1 0.1,-0.1 0.2,-0.1 0.2,-0.2 0.4,-0.5 0.7,-0.6 0.1,-0.2 0.2,-0.3 0.3,-0.4 0.3,0.1 0.4,-0.2 0.7,-0.2 0.1,0.1 0.1,0.3 0.1,0.5 0.2,0.2 0.3,0.4 0.4,0.6 0.4,0.5 0.5,0.5 0.6,0.5 0,0 0.1,0.2 0.2,0.2 l 0.1,0.2 c 0,0.1 0.1,0.2 0.1,0.3 V 27 c 0,0.1 0.1,0.2 0.1,0.3 V 28 c 0,0.2 -0.1,0.4 -0.1,0.6 0,0.2 0.2,0.4 0.2,0.6 v 0.6 c 0,0.2 0,0.2 0.1,0.3 v 0.1 c 0.1,0.2 0.2,0.3 0.4,0.3 0.1,-0.2 0,-0.3 0,-0.5 v -0.3 c 0,-0.2 -0.1,-0.3 -0.2,-0.4 0,-0.2 0,-0.3 -0.1,-0.4 l -0.1,-0.1 c 0,-0.1 -0.1,-0.2 -0.1,-0.2 -0.1,-0.3 0,-0.4 0.1,-0.7 0,-0.1 0,-0.4 0.2,-0.4 0.2,0 0.2,0.2 0.3,0.3 0.1,0.2 0.2,0.4 0.3,0.4 v 0.1 c 0.1,0.1 0.3,0 0.5,-0.1 -0.2,1.5 -0.6,2.9 -1.1,4.3 -0.1,0 -0.2,-0.1 -0.3,-0.2 0,-0.1 0.1,-0.3 0.1,-0.4 0,-0.3 -0.1,-0.4 -0.2,-0.5 v -0.3 l -0.3,-0.3 c -0.1,-0.1 -0.1,-0.2 -0.2,-0.3 0,0 0,-0.1 -0.1,-0.1 V 30.3 C 44.9,30.1 44.9,30 44.8,29.9 44.7,29.8 44.7,29.8 44.5,29.8 h -0.1 v 0.1 c 0,0.2 0.2,0.5 0.2,0.7 v 0.3 c 0.1,0.2 0.2,0.3 0.3,0.4 0,0.1 0.1,0.2 0.1,0.4 0.1,0.1 0.1,0.3 0.2,0.4 0,0.1 0.1,0.1 0.1,0.2 v 0.2 c 0,0 0.1,0 0.1,0.1 0.1,0 0.1,0.1 0.2,0.1 -0.9,2.2 -2.1,4.3 -3.6,6.1 -0.1,-0.1 -0.2,-0.1 -0.2,-0.3 0,-0.2 0,-0.6 -0.3,-0.5 -0.1,0 -0.1,0.2 -0.1,0.3 0,0.1 -0.1,0.2 -0.1,0.4 V 39 c 0,0.1 -0.1,0.2 -0.2,0.3 -0.1,0.2 -0.1,0.3 -0.2,0.3 -0.2,0 -0.3,-0.2 -0.5,-0.3 -0.1,0 -0.2,0 -0.2,-0.1 -0.2,-0.2 -0.1,-0.4 0.1,-0.6 0.1,-0.1 0.2,-0.2 0.2,-0.3 -0.1,-0.1 -0.3,-0.1 -0.5,-0.1 -0.2,0 -0.5,-0.1 -0.6,0 -0.1,0.1 -0.2,0.2 -0.3,0.2 -0.1,0.2 -0.2,0.5 -0.4,0.6 -0.2,0 -0.3,-0.1 -0.4,-0.1 -0.2,0 -0.7,0.6 -0.9,0.7 -0.1,0 -0.1,0.1 -0.2,0.1 l -0.1,0.1 c 0,0.2 0,0.2 -0.1,0.4 l -0.3,0.3 c -0.2,0.1 -0.3,0 -0.5,0.1 -0.2,0.1 -0.4,0.2 -0.6,0.4 -0.2,0.2 -0.4,0.3 -0.5,0.5 -0.1,0.5 -0.2,0.9 -0.2,1.2 0,0.1 0.1,0.2 0.1,0.3 v 0.1 c 0,0.1 0.1,0.1 0.1,0.2 0,0.1 -0.1,0.2 -0.1,0.3 V 44 c 0,0.3 -0.2,0.5 -0.2,0.7 0.1,0.1 0.1,0.2 0.2,0.2 -3.1,1.6 -6.7,2.6 -10.5,2.6 C 20.4,47.4 16.4,46.2 13,44.2 z M 34.2,24.3 c 0,-0.1 -0.1,-0.2 -0.1,-0.2 -0.1,-0.1 0,-0.3 -0.1,-0.4 0,-0.1 -0.1,-0.3 -0.2,-0.3 -0.1,-0.1 -0.2,-0.5 -0.3,-0.7 v -0.2 h 0.1 c 0.2,0 0.2,0.1 0.3,0.2 H 34 c 0.1,0.1 0.1,0.3 0.2,0.4 0.1,0.1 0.1,0.3 0.2,0.4 0.1,0.2 0.3,0.4 0.3,0.5 v 0.4 c 0,0.1 0,0.2 0.1,0.3 0.1,0.2 0.3,0.3 0.4,0.5 0,0 0,0.2 0.1,0.2 0.1,0.1 0.1,0.2 0.2,0.3 0.1,0.1 0.1,0.2 0.2,0.4 0.1,0.2 0.2,0.5 0,0.6 -0.2,0 -0.3,-0.3 -0.4,-0.5 -0.2,-0.2 -0.4,-0.3 -0.4,-0.8 -0.1,-0.2 -0.3,-0.4 -0.4,-0.6 -0.1,0 -0.2,-0.3 -0.3,-0.5 z M 33.7,17 c 0.1,-0.1 0.2,-0.2 0.3,-0.2 0.1,-0.1 0.2,-0.1 0.4,-0.2 h 0.3 c 0,0.4 -0.4,0.4 -0.5,0.7 l 0.3,0.3 0.3,0.3 c 0.1,0.1 0.2,0.1 0.3,0.1 0.1,0.1 0.1,0.2 0.2,0.2 0,0.4 -0.6,0.5 -0.9,0.3 V 18.4 H 34.3 C 34.2,18.3 34,18.3 33.9,18.2 h -0.5 c -0.1,0 -0.2,0.1 -0.3,0.1 h -0.5 c -0.1,-0.1 -0.2,-0.1 -0.2,-0.2 0,-0.2 0.1,-0.5 0.2,-0.8 0.2,-0.4 0.3,-0.7 0.7,-0.5 0.1,0.2 0.1,0.3 0.1,0.4 0,0.1 0.1,0.1 0.1,0.2 0.2,0 0.3,-0.1 0.5,-0.2 0,0 -0.3,0.1 -0.3,-0.2 z"
           id="path2991" />
        <path
       alert="false"      d="m 35.3,37.8 c 0.1,0.1 0.2,0.2 0.3,0.2 0.2,0 0.3,-0.3 0.5,-0.6 0.1,-0.3 0.2,-0.6 0.3,-0.8 0,-0.1 0.1,-0.3 0.1,-0.4 0,-0.1 0.1,-0.1 0.1,-0.3 0,-0.1 0.1,-0.2 0.1,-0.3 0.1,-0.3 0.1,-0.4 0.2,-0.6 -0.1,-0.2 0,-0.6 -0.2,-0.7 h -0.1 c 0,0 -0.1,0 -0.1,0.1 0,0.2 -0.2,0.3 -0.3,0.4 v 0.1 c -0.1,0.2 -0.3,0.2 -0.4,0.3 -0.1,0.1 -0.2,0.1 -0.3,0.2 v 0.1 c -0.1,0.2 -0.1,0.4 0,0.8 -0.1,0.2 -0.3,0.4 -0.3,0.8 0,0.2 0.1,0.4 0.1,0.6 0,0 -0.1,0.1 0,0.1 z M 22.4,9.9 c 0.1,-0.1 0.1,-0.3 0.2,-0.5 0.1,0 0.1,-0.1 0.2,-0.1 0.2,-0.1 0.3,0 0.4,-0.1 0.1,0 0.2,-0.1 0.3,-0.2 0.1,-0.1 0.2,-0.1 0.3,-0.2 L 24,8.6 c 0.1,-0.1 0.2,-0.2 0.3,-0.2 h 0.2 c 0.1,0 0.1,-0.1 0.2,-0.1 h 0.4 L 25.2,8.2 C 25.4,8.1 25.4,8 25.6,7.9 25.7,7.8 25.8,7.7 25.8,7.6 V 7.4 C 25.8,7.3 26,7.2 26,7 26.1,6.8 26,6.6 26.1,6.4 26.1,6.2 26.2,6.1 26.2,5.9 26.2,5.8 26.1,5.7 26,5.5 26,5.2 26.1,5 26.2,4.8 26.3,4.7 26.4,4.6 26.4,4.5 h 0.1 V 4.4 C 26.6,4.3 26.8,4.2 26.8,4 V 3.5 c -0.1,0 -0.2,0 -0.4,0.1 -0.1,0 -0.1,0.1 -0.1,0.1 H 26.1 C 26,3.7 25.9,3.8 25.8,3.7 25.8,3.5 26,3.5 26,3.2 26,3.1 25.9,3 25.7,2.9 25.6,2.8 25.5,2.8 25.4,2.8 H 25.2 C 25.1,2.8 25,2.7 24.9,2.7 H 23.7 C 23.5,2.8 23.3,3 23.1,3.1 23,3.1 23,3.1 23,3 22.8,2.9 22.7,3 22.6,3.1 l -0.1,0.1 c -0.1,0.1 -0.2,0.1 -0.2,0.2 -0.1,0.1 0.1,0.1 0,0.2 0.1,0 0,0.1 -0.1,0.2 -0.1,0 -0.1,-0.3 -0.3,-0.4 h -0.8 c -0.1,0 -0.2,0.1 -0.3,0.1 h -0.2 c -0.1,0 -0.2,0.1 -0.3,0.1 -0.1,0 -0.2,0.1 -0.3,0.1 0,0.3 0,0.4 -0.1,0.4 0,0 -0.1,0 -0.1,0.1 h -0.1 c -0.1,0 -0.1,0.1 -0.1,0.1 -0.1,0.1 -0.3,0.1 -0.3,0.2 0,0.1 0.2,0.1 0.2,0.2 C 19.3,5 19.2,5 19,5 c -0.2,0 -0.4,0.2 -0.5,0.2 0,0.1 -0.1,0.1 -0.1,0.1 -0.1,0.2 0,0.2 0,0.4 0,0.1 -0.1,0.1 -0.1,0.3 0.1,0.1 0.1,0.2 0.2,0.2 0.1,0 0.2,-0.1 0.3,-0.1 h 0.5 c 0.2,0 0.4,-0.1 0.5,0 v 0.1 c 0.1,0 0.1,0 0.2,0.1 0.1,0.1 0.1,0.2 0.2,0.3 v 0.1 c 0,0 0.1,0 0.1,0.1 V 7 c 0,0.2 -0.1,0.4 -0.1,0.6 h 0.4 c 0.1,0 0.2,0.1 0.2,0.1 C 21,7.8 21,8 21,8.3 l -0.2,0.2 c -0.1,0.1 -0.2,0.1 -0.2,0.1 0,0 0,0.1 -0.1,0.1 -0.1,0.2 -0.1,0.3 -0.1,0.5 v 0.3 c 0,0.1 0.1,0.2 0.1,0.3 0,0.1 0.1,0.2 0.1,0.3 v 0.2 l 0.1,0.1 c 0.1,0.1 0.2,0.2 0.2,0.3 0,0.1 0.1,0.2 0.2,0.2 h 0.3 c 0.1,0.1 0.2,0.3 0.4,0.3 0.1,-0.1 0.1,-0.3 0.2,-0.4 0,-0.1 0.1,-0.2 0.1,-0.3 v -0.1 c 0,-0.1 0.1,-0.1 0.1,-0.2 0.1,-0.1 0.1,-0.2 0.2,-0.3 z M 13.2,6 H 12.9 C 12.8,6 12.7,5.9 12.7,5.9 12.5,5.9 12.4,6 12.2,6.1 v 0.5 c 0.3,-0.1 0.2,0.2 0.4,0.2 H 13 C 13.3,6.5 13.5,6.1 13.2,6 z m 11.6,8 c -0.1,-0.1 -0.1,-0.2 -0.2,-0.2 0,0 -0.2,0 -0.2,0.1 V 14 c 0,0 -0.1,0 -0.1,0.1 v 0.3 c 0,0.1 -0.1,0.2 -0.1,0.2 0,0.1 -0.1,0.2 -0.1,0.3 0.1,0.4 0.5,0.2 0.6,0.1 0.1,-0.1 0.1,-0.1 0.1,-0.2 0,-0.1 0.1,-0.1 0.1,-0.2 -0.1,-0.1 -0.1,-0.2 -0.1,-0.3 -0.1,-0.1 0,-0.1 0,-0.3 z M 17,18.4 c -0.1,-0.2 -0.1,-0.4 -0.2,-0.5 0,-0.1 0,-0.3 -0.1,-0.4 h -0.1 c -0.1,0.1 -0.2,0.2 -0.3,0.4 -0.2,0.2 -0.4,0.2 -0.5,0.5 0,0.3 0.4,0.2 0.6,0.3 0.3,0.1 0.5,0.5 0.8,0.3 0.1,-0.2 0,-0.4 -0.1,-0.5 0,-0.1 -0.1,-0.1 -0.1,-0.1 z"
           id="path2993" />
        <path
     alert="false"        d="m 24.8,10.6 c 0.1,0 0.3,-0.1 0.4,-0.2 0.2,-0.1 0.4,-0.2 0.5,-0.3 0.1,-0.1 0.2,-0.2 0.2,-0.3 0,-0.2 -0.2,-0.4 -0.4,-0.5 -0.2,-0.1 -0.6,0.1 -0.9,0.1 -0.2,0 -0.2,0.3 -0.4,0.2 -0.1,0 0,-0.1 -0.1,-0.1 0,-0.1 -0.1,-0.1 -0.2,-0.1 -0.2,0.1 -0.3,0.3 -0.3,0.5 0,0.3 0.3,0.4 0.4,0.6 0.3,0 0.5,0.2 0.8,0.1 z m 1.4,3.8 V 14.2 C 26.1,14.1 26,14 25.9,13.8 25.7,13.5 25.5,13.3 25.8,13 c 0,-0.2 -0.2,-0.2 -0.3,-0.3 0,-0.1 0,-0.1 -0.1,-0.2 -0.1,-0.1 -0.4,0 -0.6,0.1 -0.1,0.2 -0.3,0.4 -0.3,0.6 0,0.3 0.3,0.6 0.5,0.8 0.2,0.1 0.5,0.1 0.5,0.4 -0.1,0.1 -0.2,0.1 -0.4,0.2 0,0.1 -0.1,0.2 -0.2,0.3 v 0.2 c 0,0.1 -0.1,0.3 -0.1,0.5 l 0.2,0.2 c 0.2,0 0.4,-0.2 0.6,-0.2 h 0.3 c 0.1,0 0.1,-0.1 0.2,-0.1 0.1,0 0.2,0 0.2,-0.1 0.5,-0.5 0.3,-0.8 -0.1,-1 z M 9.7,25.2 C 9.7,25.1 9.6,25.1 9.6,25.1 L 9.5,25 c 0,0 -0.1,-0.1 -0.1,-0.2 -0.1,-0.1 -0.3,-0.2 -0.5,-0.2 -0.1,-0.1 -0.3,0 -0.4,0.2 0.1,0.3 0.6,0.4 0.8,0.6 0.1,0.1 0.2,0.2 0.2,0.4 0,0.1 0.1,0.2 0.2,0.2 0.1,0.1 0.3,0.2 0.4,0 0,-0.2 -0.2,-0.3 -0.4,-0.5 0.1,-0.2 0.1,-0.3 0,-0.3 z m 21.7,-19 c 0.1,0.1 0.2,0.1 0.3,0.2 0.3,0.1 0.4,0.1 0.5,0 0.1,-0.1 0.2,-0.2 0.3,-0.4 0,-0.1 0,-0.2 0.2,-0.2 0.2,0 0.1,0.3 0.3,0.4 0.3,0 0.6,0 0.6,-0.2 C 33.5,5.8 33.3,5.8 33.1,5.7 32.9,5.6 32.7,5.5 32.7,5.2 33.1,5.1 33.5,5.5 33.8,5.3 33.8,5.2 34,5.1 34,4.9 33.8,4.3 32.7,4.4 32.3,4.6 32.2,4.7 32.2,4.8 32,4.8 h -0.2 c -0.1,0 -0.2,0.1 -0.3,0.1 H 31.1 C 31.1,4.8 31,5 31,5.1 c 0,0.3 0.2,0.4 0.3,0.7 0,0.1 0.1,0.4 0.1,0.4 z M 10.2,26.5 c 0.2,0.1 0.5,0.2 0.7,0.3 0.1,0 0.3,0.1 0.3,-0.1 0,-0.4 -0.8,-0.8 -1,-0.2 z"
           id="path2995" />
      </g>
    </g>
  </g>
</svg>
