<?xml version="1.0" encoding="UTF-8" standalone="no"?>
<svg
   xmlns:dc="http://purl.org/dc/elements/1.1/"
   xmlns:cc="http://creativecommons.org/ns#"
   xmlns:rdf="http://www.w3.org/1999/02/22-rdf-syntax-ns#"
   xmlns:svg="http://www.w3.org/2000/svg"
   xmlns="http://www.w3.org/2000/svg"
   style="fill:#1ab394"
   id="svg2"
   preserveAspectRatio="xMidYMid meet"
   viewBox="0 0 16 16"
   height="16"
   width="16"
   version="1.0">
  <defs
     id="defs40" />
  <metadata
     id="metadata4">
Created by potrace 1.10, written by Peter Selinger 2001-2011
<rdf:RDF>
  <cc:Work
     rdf:about="">
    <dc:format>image/svg+xml</dc:format>
    <dc:type
       rdf:resource="http://purl.org/dc/dcmitype/StillImage" />
    <dc:title></dc:title>
  </cc:Work>
</rdf:RDF>
</metadata>
  <rect
     y="1"
     x="0"
     height="15"
     width="16"
     id="rect3387"
     style="fill:#ffffff;fill-opacity:0" />
  <g
     id="g6"
     transform="matrix(0.00297741,0,0,-0.00473704,-1.968057,12.947408)">
    <path
       id="path8"
       d="m 1889,1874 c -4,-6 -9,-152 -9,-325 l -1,-314 45,-3 46,-3 0,279 c 0,246 2,281 16,286 9,3 127,6 263,6 l 247,0 27,-28 c 38,-40 38,-104 0,-144 l -27,-28 -188,0 c -111,0 -188,-4 -188,-9 0,-6 9,-16 19,-23 22,-16 116,-102 258,-240 l 103,-98 60,0 c 33,0 60,2 60,4 0,3 -28,31 -62,63 -34,32 -80,75 -102,97 -23,21 -51,45 -63,53 -13,9 -23,25 -23,39 0,21 5,24 38,24 71,1 142,24 176,57 44,44 63,117 45,181 -13,49 -38,91 -53,92 -5,0 -18,8 -29,18 -17,15 -52,18 -334,22 -217,3 -317,2 -324,-6 z" />
    <path
       id="path10"
       d="m 4119,1881 c -273,-5 -309,-8 -326,-23 -11,-10 -24,-18 -31,-18 -15,0 -102,-102 -102,-120 0,-9 -7,-25 -15,-36 -10,-14 -14,-47 -14,-124 0,-77 4,-110 14,-124 8,-11 15,-27 15,-35 0,-24 73,-104 111,-122 90,-42 99,-44 361,-47 l 256,-3 26,34 c 14,19 26,38 26,43 0,5 -111,9 -257,9 -142,1 -278,5 -302,9 -55,11 -144,96 -156,147 -17,79 -2,218 24,227 6,2 11,9 11,16 0,12 14,25 68,64 31,22 37,22 307,22 l 275,0 10,25 c 5,14 14,25 20,25 5,0 10,9 10,20 0,11 -6,19 -12,18 -7,-1 -151,-4 -319,-7 z" />
    <path
       id="path12"
       d="m 4596,1883 c -3,-4 -6,-152 -6,-330 l 0,-323 258,0 c 240,0 259,1 274,19 9,10 19,28 23,40 6,21 6,21 -213,21 -199,0 -220,2 -235,18 -15,16 -17,51 -17,280 0,168 -4,263 -10,267 -15,9 -67,15 -74,8 z" />
    <path
       id="path14"
       d="m 5710,1881 c -278,-6 -308,-8 -335,-25 -49,-31 -125,-109 -125,-127 0,-9 -7,-22 -15,-29 -12,-10 -15,-37 -15,-128 0,-99 3,-122 22,-161 27,-57 121,-151 151,-151 12,-1 33,-7 47,-15 20,-11 78,-14 280,-15 239,0 257,1 272,19 9,10 19,28 23,39 6,21 3,21 -257,25 -145,3 -280,8 -301,12 -54,10 -132,89 -140,142 -11,63 -10,64 313,63 l 285,-1 30,33 29,33 -329,5 c -182,3 -331,7 -333,8 -11,8 16,83 40,114 61,78 62,78 365,78 l 271,0 26,35 c 24,31 28,59 8,53 -4,-1 -144,-4 -312,-7 z" />
    <path
       id="path16"
       d="m 878,1873 c -20,-2 -42,-11 -48,-19 -7,-8 -18,-14 -25,-14 -15,0 -85,-70 -85,-85 0,-7 -7,-18 -15,-25 -8,-7 -15,-24 -15,-39 -1,-14 -7,-37 -15,-51 -8,-14 -14,-50 -14,-80 0,-30 6,-66 14,-80 8,-14 14,-37 15,-52 0,-16 4,-28 9,-28 5,0 13,-10 17,-22 9,-29 60,-79 99,-100 80,-41 93,-43 394,-46 308,-3 327,-1 416,45 38,20 84,62 96,88 5,11 13,27 18,35 48,84 48,236 0,320 -5,8 -13,24 -18,35 -11,25 -71,85 -85,85 -5,0 -18,8 -29,18 -17,15 -50,17 -356,18 -185,1 -353,0 -373,-3 z m 690,-90 c 37,-23 82,-65 82,-77 0,-5 7,-18 17,-28 23,-26 23,-210 0,-236 -10,-10 -17,-23 -17,-29 0,-19 -82,-78 -123,-88 -50,-12 -555,-12 -613,-1 -47,9 -99,52 -133,108 -19,31 -22,51 -22,134 0,73 4,101 16,113 8,10 15,21 15,26 0,14 52,65 66,65 6,0 17,7 24,15 11,13 61,15 337,15 286,0 327,-2 351,-17 z" />
    <path
       id="path18"
       d="m 3143,1870 c -13,-5 -23,-13 -23,-19 0,-5 -34,-59 -75,-121 -41,-62 -75,-114 -75,-117 0,-4 -41,-64 -50,-73 -9,-9 -30,-44 -40,-67 -5,-13 -14,-23 -20,-23 -5,0 -10,-6 -10,-14 0,-8 -6,-21 -12,-28 -16,-17 -36,-48 -45,-68 -3,-8 -19,-31 -35,-51 -40,-53 -37,-61 23,-57 47,3 53,6 69,35 9,18 29,48 44,67 14,19 26,39 26,43 0,5 13,21 28,36 28,27 30,27 160,27 132,0 133,0 142,25 5,14 14,25 20,25 5,0 10,5 10,10 0,6 -44,10 -112,10 -62,0 -119,4 -127,9 -16,10 -11,25 29,86 11,17 25,40 31,53 7,12 16,22 21,22 4,0 8,6 8,13 0,7 13,26 28,41 l 29,27 41,-55 c 23,-30 42,-57 42,-60 0,-3 19,-33 43,-68 60,-91 66,-101 74,-118 4,-8 9,-17 12,-20 11,-9 51,-69 51,-76 0,-3 14,-23 30,-44 17,-21 30,-42 30,-47 0,-23 38,-43 83,-43 49,0 58,9 32,30 -8,7 -15,18 -15,25 0,8 -3,15 -7,17 -8,3 -53,64 -53,71 0,3 -34,55 -75,117 -41,62 -75,114 -75,117 0,3 -12,22 -27,42 -37,48 -52,72 -59,94 -4,9 -10,17 -15,17 -5,0 -14,10 -19,23 -37,84 -78,111 -137,87 z" />
    <path
       id="path20"
       d="m 1706,881 c -3,-5 1,-25 9,-45 8,-19 15,-45 15,-57 0,-12 6,-45 14,-73 8,-28 22,-79 30,-113 9,-35 23,-91 32,-125 30,-122 24,-113 81,-116 59,-3 67,4 83,85 21,103 66,254 75,254 6,0 13,-15 16,-33 15,-76 72,-284 81,-295 13,-17 93,-17 106,0 8,10 59,193 82,297 16,73 33,136 46,174 7,21 11,43 8,47 -8,14 -80,10 -93,-5 -6,-7 -15,-33 -20,-57 -5,-24 -19,-87 -31,-139 -12,-52 -24,-108 -27,-125 -14,-91 -24,-72 -78,139 -25,99 -48,183 -51,187 -3,5 -22,9 -42,9 l -37,0 -19,-67 c -34,-126 -45,-168 -63,-240 -20,-80 -35,-94 -44,-43 -4,19 -17,78 -29,130 -12,52 -26,117 -31,143 -4,27 -13,55 -20,63 -13,15 -85,19 -93,5 z" />
    <path
       id="path22"
       d="m 2865,878 c -3,-7 -4,-128 -3,-268 l 3,-255 40,-3 c 29,-3 43,1 52,15 13,17 15,17 44,0 69,-39 165,-6 208,72 35,63 33,162 -3,219 -47,75 -137,102 -202,61 -41,-25 -43,-23 -46,86 l -3,80 -43,3 c -28,2 -44,-1 -47,-10 z m 220,-232 c 29,-8 55,-57 55,-101 0,-77 -60,-130 -122,-106 -39,15 -58,49 -58,106 0,55 18,91 54,105 20,8 29,8 71,-4 z" />
    <path
       id="path24"
       d="m 3325,878 c -3,-7 -4,-128 -3,-268 l 3,-255 160,0 160,0 3,38 c 2,20 0,37 -5,38 -4,0 -54,1 -110,2 -56,1 -104,5 -108,9 -4,3 -7,105 -8,225 l -2,218 -43,3 c -28,2 -44,-1 -47,-10 z" />
    <path
       id="path26"
       d="m 4647,884 c -9,-10 -9,-74 1,-75 70,-11 83,-4 85,42 2,33 1,34 -38,37 -23,2 -44,0 -48,-4 z" />
    <path
       id="path28"
       d="m 2520,717 c -27,-13 -56,-39 -73,-64 -24,-36 -28,-53 -28,-107 0,-91 32,-140 117,-176 56,-25 115,-25 174,-1 34,14 46,24 48,42 5,47 -10,54 -71,35 -45,-14 -63,-15 -96,-6 -39,10 -85,53 -78,74 2,6 54,10 133,10 l 129,1 3,40 c 8,129 -135,214 -258,152 z m 140,-75 c 36,-45 28,-52 -59,-52 -44,0 -82,4 -85,9 -8,12 23,48 57,65 35,17 62,11 87,-22 z" />
    <path
       id="path30"
       d="m 3813,722 c -110,-45 -161,-158 -114,-250 53,-103 179,-149 283,-102 97,43 122,89 119,211 -1,53 -63,120 -131,142 -65,21 -103,21 -157,-1 z m 119,-72 c 50,-14 78,-52 78,-105 0,-78 -70,-127 -151,-105 -48,13 -70,40 -76,92 -5,54 12,88 57,110 41,21 43,21 92,8 z" />
    <path
       id="path32"
       d="m 4277,719 c -20,-11 -49,-38 -64,-60 -23,-35 -27,-51 -26,-109 2,-106 54,-175 142,-187 27,-4 52,0 77,12 39,18 56,10 47,-24 -14,-51 -80,-79 -152,-62 -35,7 -42,6 -60,-13 -12,-12 -21,-26 -21,-30 0,-15 87,-46 133,-46 52,0 122,27 149,57 45,51 49,73 46,280 l -3,198 -33,3 c -21,2 -41,-3 -52,-13 -17,-15 -21,-15 -49,-1 -40,21 -88,19 -134,-5 z m 124,-69 c 14,0 26,-13 38,-42 50,-117 -48,-221 -130,-139 -24,25 -29,38 -29,78 0,28 7,58 16,71 18,26 52,43 72,36 8,-2 23,-4 33,-4 z" />
    <path
       id="path34"
       d="m 4645,728 c -3,-8 -4,-95 -3,-193 l 3,-180 45,0 45,0 0,190 0,190 -43,3 c -28,2 -44,-1 -47,-10 z" />
    <path
       id="path36"
       d="m 4941,723 c -87,-37 -122,-89 -122,-179 0,-89 32,-138 117,-174 56,-24 110,-25 166,-3 65,25 80,51 53,88 -14,18 -17,18 -43,3 -42,-24 -79,-30 -122,-18 -52,14 -80,51 -80,105 0,85 78,131 169,101 52,-17 71,-9 71,31 0,51 -132,80 -209,46 z" />
  </g>
</svg>
