<?xml version="1.0" encoding="UTF-8" standalone="no"?>
<svg
   xmlns:dc="http://purl.org/dc/elements/1.1/"
   xmlns:cc="http://creativecommons.org/ns#"
   xmlns:rdf="http://www.w3.org/1999/02/22-rdf-syntax-ns#"
   xmlns:svg="http://www.w3.org/2000/svg"
   xmlns="http://www.w3.org/2000/svg"
   style="fill:#1ab394"
   id="svg2"
   preserveAspectRatio="xMidYMid meet"
   viewBox="0 0 16 16"
   height="16"
   width="16"
   version="1.0">
  <defs
     id="defs100" />
  <metadata
     id="metadata4">
Created by potrace 1.10, written by Peter Selinger 2001-2011
<rdf:RDF>
  <cc:Work
     rdf:about="">
    <dc:format>image/svg+xml</dc:format>
    <dc:type
       rdf:resource="http://purl.org/dc/dcmitype/StillImage" />
    <dc:title></dc:title>
  </cc:Work>
</rdf:RDF>
</metadata>
  <rect
     y="4.7683716e-07"
     x="0"
     height="16"
     width="16"
     id="rect3428"
     style="fill:#ffffff;fill-opacity:0" />
  <g
     style="stroke:none"
     id="g6"
     transform="matrix(0.00801202,0,0,-0.02934855,-7.7155715,27.206848)">
    <path
       id="path8"
       d="m 1794,850 c -47,-19 -68,-85 -43,-132 6,-11 35,-30 64,-43 61,-27 69,-37 61,-71 -5,-19 -13,-24 -37,-24 -18,0 -32,6 -34,15 -3,8 -7,21 -9,28 -3,9 -15,12 -35,9 -28,-4 -30,-7 -25,-31 13,-54 61,-79 128,-67 51,10 76,39 76,90 0,50 -12,63 -85,98 -44,20 -50,27 -50,53 0,25 4,30 28,33 21,3 29,-2 35,-19 11,-29 62,-34 62,-6 0,31 -18,54 -51,66 -37,13 -56,13 -85,1 z" />
    <path
       id="path18"
       d="m 986,733 c 12,-65 25,-135 28,-155 6,-35 10,-38 40,-38 39,0 37,-3 57,133 12,86 29,118 29,55 0,-18 5,-68 12,-110 l 12,-78 36,0 35,0 22,128 c 13,70 26,139 29,155 6,25 4,27 -25,27 -17,0 -31,-3 -31,-7 0,-5 -5,-39 -11,-78 -5,-38 -10,-85 -11,-102 -1,-18 -5,-33 -9,-33 -10,0 -14,18 -30,133 l -12,88 -31,-3 -31,-3 -14,-107 c -8,-60 -18,-108 -22,-108 -7,0 -14,41 -25,153 l -6,67 -33,0 -32,0 23,-117 z" />
    <path
       id="path20"
       d="m 1520,695 0,-155 24,0 c 13,0 26,6 28,12 3,9 10,8 23,-5 24,-25 64,-18 88,15 29,39 30,146 1,185 -23,30 -60,41 -77,24 -20,-20 -27,-11 -27,34 0,43 -1,45 -30,45 l -30,0 0,-155 z m 127,-21 c 6,-50 -10,-94 -36,-94 -24,0 -31,19 -31,80 0,58 23,91 47,67 8,-8 17,-32 20,-53 z" />
    <path
       id="path22"
       d="m 2200,695 0,-155 30,0 29,0 3,93 3,92 28,3 27,3 0,-95 0,-96 30,0 30,0 0,104 c 0,82 -3,108 -16,120 -20,21 -63,20 -86,-1 -17,-15 -18,-14 -18,35 0,51 -1,52 -30,52 l -30,0 0,-155 z" />
    <path
       id="path32"
       d="m 1335,756 c -46,-46 -41,-176 8,-211 50,-35 137,0 137,55 0,31 -48,28 -60,-5 -17,-44 -60,-24 -60,28 l 0,28 63,-2 c 34,-2 61,0 60,4 -2,4 -3,23 -3,42 0,76 -92,114 -145,61 z m 85,-35 c 17,-32 12,-41 -25,-41 -27,0 -35,4 -35,18 0,39 42,55 60,23 z" />
    <path
       id="path34"
       d="m 2055,771 c -3,-5 -21,-7 -40,-4 l -35,6 0,-162 0,-161 31,0 31,0 -4,54 c -4,53 -4,54 16,40 29,-20 60,-17 82,7 15,17 19,37 19,104 0,67 -4,87 -19,104 -19,21 -70,29 -81,12 z m 40,-116 c 0,-68 -1,-70 -25,-70 -23,0 -25,4 -28,59 -4,73 2,88 30,84 21,-3 23,-8 23,-73 z" />
    <path
       id="path36"
       d="m 2457,768 c -37,-29 -49,-130 -23,-193 11,-27 22,-35 49,-40 60,-12 107,15 107,61 0,19 -5,24 -25,24 -15,0 -25,-6 -25,-14 0,-7 -7,-19 -16,-26 -19,-17 -41,2 -46,40 -3,24 -1,25 60,28 69,3 71,6 52,74 -6,21 -19,42 -30,48 -26,14 -83,13 -103,-2 z m 81,-52 c 13,-29 7,-36 -30,-36 -23,0 -28,4 -28,23 0,13 3,27 7,30 14,15 40,6 51,-17 z" />
    <path
       id="path38"
       d="m 2715,763 c -13,-12 -19,-13 -25,-4 -4,7 -17,11 -29,9 -21,-3 -22,-8 -24,-116 l -2,-112 34,0 33,0 -5,43 c -3,23 -3,62 1,87 6,40 10,45 35,48 23,3 27,8 27,33 0,33 -19,38 -45,12 z" />
    <path
       id="path40"
       d="m 2819,767 c -28,-21 -39,-54 -39,-114 0,-70 16,-103 53,-116 47,-15 93,-1 110,35 9,18 13,36 11,40 -10,16 -42,7 -58,-17 -28,-43 -56,-27 -56,32 0,24 2,25 60,21 59,-3 60,-2 60,23 0,39 -20,88 -40,99 -26,14 -82,12 -101,-3 z m 79,-59 c 3,-25 0,-28 -27,-28 -26,0 -31,4 -31,23 0,30 9,39 35,35 13,-2 21,-12 23,-30 z" />
  </g>
</svg>
