<?xml version="1.0" encoding="UTF-8" standalone="no"?>
<svg
   xmlns:dc="http://purl.org/dc/elements/1.1/"
   xmlns:cc="http://creativecommons.org/ns#"
   xmlns:rdf="http://www.w3.org/1999/02/22-rdf-syntax-ns#"
   xmlns:svg="http://www.w3.org/2000/svg"
   xmlns="http://www.w3.org/2000/svg"
   style="fill:#1ab394"
   id="svg2"
   preserveAspectRatio="xMidYMid meet"
   viewBox="0 0 16 16"
   height="16"
   width="16"
   version="1.0">
  <defs
     id="defs26" />
  <metadata
     id="metadata4">
Created by potrace 1.10, written by Peter Selinger 2001-2011
<rdf:RDF>
  <cc:Work
     rdf:about="">
    <dc:format>image/svg+xml</dc:format>
    <dc:type
       rdf:resource="http://purl.org/dc/dcmitype/StillImage" />
    <dc:title></dc:title>
  </cc:Work>
</rdf:RDF>
</metadata>
  <rect
     y="-8.8817842e-16"
     x="0"
     height="16"
     width="16"
     id="rect3354"
     style="fill-opacity:0" />
  <g
     id="g6"
     transform="matrix(0.00245234,0,0,-0.00450911,-1.1722181,14)">
    <path
       id="path8"
       d="m 3080,2650 c -8,-5 -31,-10 -50,-10 -50,0 -155,-57 -204,-111 -46,-51 -86,-68 -106,-44 -7,8 -20,15 -29,15 -9,0 -22,5 -28,11 -6,6 -48,14 -94,18 -102,9 -398,2 -421,-10 -24,-13 -55,-11 -87,5 -21,12 -80,15 -262,16 -218,2 -236,4 -269,23 -19,12 -39,27 -43,34 -4,7 -16,13 -26,13 -10,0 -24,7 -31,15 -28,33 -104,5 -165,-60 -50,-54 -74,-57 -108,-11 -15,18 -51,48 -82,65 l -56,32 -62,-30 c -36,-18 -76,-48 -96,-71 -19,-22 -38,-40 -44,-40 -5,0 -29,20 -53,45 -23,25 -45,45 -48,45 -4,0 -20,9 -35,21 -44,32 -100,19 -158,-36 l -45,-43 7,-97 c 6,-73 13,-108 31,-141 13,-25 24,-54 24,-64 0,-10 5,-22 10,-25 6,-3 10,-20 10,-36 0,-16 6,-44 13,-62 8,-18 17,-50 21,-72 4,-22 13,-56 20,-75 8,-19 20,-50 27,-68 6,-19 34,-56 61,-83 55,-55 89,-62 156,-32 20,9 48,19 61,22 15,4 32,21 43,43 31,59 54,59 107,1 68,-74 138,-97 191,-63 14,9 37,21 53,28 15,6 27,16 27,21 0,16 58,71 74,71 7,0 17,7 20,17 5,12 13,3 33,-35 14,-28 41,-65 59,-83 41,-40 60,-42 458,-39 54,0 106,5 115,10 11,5 35,5 62,-1 24,-6 132,-10 239,-10 229,1 245,2 262,19 6,6 20,12 29,12 9,0 23,7 30,17 8,9 28,22 44,30 17,7 38,19 47,25 15,11 23,8 50,-18 34,-32 113,-74 139,-74 8,0 19,-4 25,-10 5,-5 32,-13 59,-16 28,-4 58,-14 68,-22 16,-14 19,-13 42,8 21,20 34,23 89,21 35,-1 67,3 71,9 3,5 15,10 26,10 12,0 50,14 86,30 78,36 93,37 130,7 62,-51 139,-58 192,-17 34,27 81,97 81,122 0,8 12,28 26,43 24,26 29,27 86,21 38,-4 74,-2 94,6 26,9 42,8 81,-4 45,-14 48,-18 49,-50 2,-67 59,-144 113,-153 86,-14 168,40 192,130 14,52 55,95 89,95 16,0 32,-5 35,-11 4,-5 18,-14 31,-19 14,-6 26,-21 30,-37 16,-74 40,-115 84,-144 50,-34 91,-35 151,-5 45,22 87,19 134,-9 31,-19 54,-25 102,-25 60,0 85,-12 66,-31 -5,-5 -41,-11 -80,-14 -66,-4 -97,-12 -133,-34 -8,-5 -40,-19 -70,-31 -30,-13 -66,-31 -79,-41 -13,-11 -29,-19 -36,-19 -6,0 -22,-11 -35,-25 -13,-14 -31,-25 -39,-25 -20,-1 -54,-29 -70,-57 -6,-12 -30,-43 -52,-69 -52,-61 -87,-116 -105,-167 -13,-37 -28,-56 -44,-57 -18,0 -30,81 -30,204 0,151 -10,185 -67,237 -56,51 -71,55 -203,57 -179,2 -228,-19 -280,-123 -11,-22 -24,-47 -29,-55 -5,-8 -19,-37 -31,-65 -13,-27 -31,-68 -41,-90 -10,-22 -29,-71 -42,-110 -14,-38 -43,-104 -65,-146 -21,-42 -42,-88 -45,-102 -12,-47 -97,-57 -97,-10 0,8 -18,49 -39,91 -49,96 -77,166 -91,217 -5,22 -18,54 -29,71 -10,17 -22,45 -26,62 -3,18 -11,34 -16,37 -5,4 -9,15 -9,27 0,11 -12,35 -27,53 -16,18 -39,49 -53,69 -14,20 -37,38 -53,41 -15,4 -40,13 -55,20 -25,13 -58,15 -220,15 -83,1 -149,-50 -172,-131 -5,-18 -10,-298 -10,-623 -2,-659 -3,-645 66,-706 44,-38 65,-43 163,-39 95,5 121,20 162,97 27,50 28,61 31,198 2,119 6,148 19,160 14,13 18,12 33,-10 9,-14 16,-28 16,-32 0,-4 6,-15 14,-23 13,-16 35,-76 56,-158 6,-25 17,-43 25,-43 7,0 21,-21 31,-47 34,-93 116,-143 236,-145 66,0 78,3 120,31 49,33 88,75 88,95 0,6 11,28 24,47 14,20 28,49 32,65 4,16 15,37 25,47 11,10 19,27 19,39 0,23 55,128 74,140 6,5 18,-1 27,-12 14,-16 17,-47 18,-167 1,-143 2,-150 29,-193 15,-24 43,-55 62,-68 31,-21 44,-23 122,-20 98,3 122,16 173,87 30,42 30,44 34,199 1,87 8,163 13,169 22,27 48,14 69,-34 32,-70 51,-106 66,-121 7,-7 13,-22 13,-32 0,-11 10,-20 25,-24 15,-4 30,-17 35,-32 6,-14 23,-33 40,-42 16,-9 30,-20 30,-24 0,-4 17,-16 38,-27 21,-11 50,-31 63,-45 13,-14 29,-26 36,-26 6,0 24,-6 40,-14 32,-16 142,-44 223,-58 115,-19 241,-20 375,-3 130,17 133,17 161,-2 16,-11 63,-42 104,-69 41,-27 77,-52 80,-55 3,-3 20,-13 39,-22 25,-13 61,-17 136,-17 95,0 103,2 125,25 13,14 29,25 37,25 7,0 13,9 13,20 0,12 9,38 20,60 25,49 28,155 5,187 -9,13 -42,43 -74,67 -40,31 -60,54 -64,73 -3,15 -2,30 2,33 11,8 46,80 60,123 7,20 21,42 31,47 14,7 20,27 25,77 7,72 36,165 53,171 5,1 16,-3 23,-11 78,-77 298,-119 386,-74 18,10 38,17 46,17 8,0 33,13 55,30 23,16 51,30 62,30 13,0 24,10 30,26 6,15 21,35 35,46 16,12 26,33 31,64 4,32 13,50 30,60 20,13 23,24 23,67 0,29 1,68 3,87 2,20 -4,51 -14,72 -10,21 -18,44 -18,52 0,9 -14,38 -30,64 -17,27 -30,54 -30,60 0,6 -10,17 -22,23 -13,7 -34,23 -48,36 -14,14 -42,34 -62,44 -21,11 -38,24 -38,29 0,6 -13,10 -29,10 -17,0 -33,5 -36,10 -8,13 -208,4 -235,-10 -10,-6 -32,-10 -48,-10 -23,0 -40,-11 -75,-50 -25,-27 -51,-50 -59,-50 -21,0 -38,-21 -38,-46 0,-22 -65,-104 -82,-104 -4,0 -36,28 -71,62 -108,107 -232,193 -292,204 -22,3 -47,12 -55,19 -24,20 -121,47 -175,50 -27,1 -52,3 -55,4 -3,0 14,13 38,27 23,14 42,31 42,39 0,24 16,25 60,4 38,-18 47,-19 93,-8 59,14 100,47 128,102 30,58 60,52 146,-32 61,-58 78,-69 115,-74 63,-8 110,-3 148,16 31,16 35,16 58,1 26,-17 69,-20 372,-25 132,-2 186,14 233,71 49,58 43,94 -30,183 -24,30 -32,91 -12,102 7,5 8,32 4,80 -7,68 -5,76 19,111 19,28 26,52 26,84 0,39 -5,51 -35,80 -56,54 -86,60 -319,60 l -209,0 -38,-35 c -22,-19 -45,-36 -52,-36 -29,-3 -55,5 -94,28 -54,31 -112,37 -343,34 -171,-3 -187,-4 -207,-23 l -22,-21 -41,27 -41,27 -222,0 -222,-1 -55,-29 -55,-28 -45,18 c -46,18 -98,23 -137,13 -34,-9 -103,-105 -103,-142 0,-33 -20,-53 -68,-67 -34,-10 -90,20 -99,53 -8,34 -50,102 -62,102 -6,0 -12,9 -16,20 -4,12 -19,22 -41,26 -19,3 -37,10 -39,15 -9,13 -68,-2 -93,-24 l -22,-21 -86,29 c -85,28 -91,29 -286,27 -124,-1 -206,-6 -219,-13 -44,-23 -85,-14 -126,29 -21,22 -52,43 -68,47 -17,3 -43,12 -60,20 -89,39 -285,61 -325,35 z M 682,2549 c 9,-5 20,-26 23,-47 3,-20 12,-61 20,-89 32,-112 44,-161 62,-236 26,-112 36,-108 63,28 6,33 18,78 26,100 8,23 14,50 14,62 0,11 7,34 15,49 8,16 15,45 15,64 0,20 7,45 15,57 13,19 25,22 73,21 70,-1 92,-17 92,-67 0,-20 7,-49 15,-65 8,-15 15,-39 15,-52 0,-13 6,-41 14,-61 14,-38 30,-106 41,-175 3,-23 12,-38 20,-38 15,0 17,6 35,90 6,30 18,75 26,100 8,25 14,55 14,68 0,13 5,32 10,42 6,11 15,43 20,72 13,69 31,84 108,92 56,5 62,4 62,-13 0,-21 -16,-71 -36,-118 -8,-17 -14,-39 -14,-50 -1,-10 -7,-29 -15,-43 -8,-14 -14,-39 -15,-56 0,-16 -4,-34 -10,-40 -5,-5 -14,-30 -19,-54 -5,-25 -14,-60 -20,-77 -6,-18 -16,-48 -22,-65 -6,-18 -15,-51 -19,-73 -5,-22 -14,-59 -21,-83 l -12,-43 -71,3 -71,3 -13,55 c -7,30 -17,77 -22,104 -5,27 -14,54 -20,60 -5,5 -10,24 -10,42 0,17 -7,48 -15,67 -8,20 -15,52 -15,71 0,44 -9,66 -26,66 -18,0 -34,-40 -34,-82 0,-29 -14,-87 -43,-178 -6,-19 -14,-53 -18,-75 -4,-22 -13,-61 -20,-87 l -12,-48 -73,0 -72,0 -7,40 c -4,22 -11,42 -16,46 -5,3 -9,19 -9,35 0,17 -5,40 -12,52 -6,12 -15,38 -19,57 -7,33 -11,48 -39,130 -7,19 -16,55 -21,79 -5,24 -13,49 -18,55 -5,6 -11,25 -14,41 -3,17 -17,62 -31,100 -14,39 -26,73 -26,76 0,9 131,-2 152,-12 z m 2658,3 c 75,-23 142,-64 174,-107 38,-49 32,-77 -19,-87 -22,-5 -44,-13 -49,-18 -18,-18 -32,-11 -62,33 -41,57 -115,81 -230,75 -104,-5 -158,-30 -162,-75 -3,-27 2,-34 30,-50 18,-9 62,-20 98,-24 289,-31 386,-72 424,-179 16,-44 17,-58 6,-93 -20,-72 -56,-114 -126,-147 -63,-29 -68,-30 -218,-30 -117,0 -161,4 -182,15 -16,8 -36,15 -45,15 -9,0 -22,7 -29,15 -7,8 -17,15 -23,15 -21,0 -97,94 -97,121 0,22 7,27 62,44 l 61,18 36,-42 c 53,-62 104,-81 217,-81 96,0 149,13 186,47 25,22 22,65 -5,84 -28,20 -120,40 -222,50 -168,15 -268,64 -305,146 -21,48 -26,98 -11,107 5,3 12,18 16,33 11,46 56,81 145,114 65,24 257,25 330,1 z m 1084,-196 c -4,-50 -8,-102 -8,-116 l -1,-25 188,-3 188,-2 -3,122 -3,123 60,-1 60,0 3,-301 2,-301 -56,-4 c -31,-1 -60,0 -66,3 -5,3 -8,58 -6,129 l 3,123 -178,0 c -98,-1 -183,-5 -187,-9 -6,-6 -5,-48 0,-99 17,-157 22,-145 -62,-145 l -73,0 0,300 0,299 50,3 c 100,6 98,8 89,-96 z m 897,94 249,0 0,-61 0,-61 -207,3 -208,3 -3,-64 -3,-63 180,6 c 131,4 181,2 183,-6 3,-7 2,-36 0,-65 l -4,-54 -47,6 c -25,3 -104,7 -176,8 l -130,3 -3,-67 -3,-68 211,0 210,0 0,-60 0,-60 -270,0 -270,0 0,298 c 0,164 3,302 7,306 4,3 13,4 21,1 7,-3 126,-5 263,-5 z m 1547,-58 c 2,-42 -1,-61 -10,-63 -7,-2 -94,-2 -193,1 -99,3 -185,2 -191,-3 -7,-4 -10,-27 -8,-55 2,-26 3,-51 4,-56 0,-5 75,-7 168,-5 l 167,4 0,-60 0,-60 -110,3 c -60,1 -135,5 -167,8 l -56,6 -4,-64 c -2,-34 -2,-67 0,-71 2,-5 90,-8 196,-7 105,1 199,1 209,1 14,-1 17,-11 17,-61 l 0,-60 -275,0 -275,0 0,299 c 0,192 4,301 10,303 6,2 124,2 263,2 l 252,-2 3,-60 z m -4780,1 -3,-58 -205,-1 -205,-1 -3,-63 -3,-63 180,5 c 103,3 182,1 183,-4 2,-5 1,-33 -2,-61 l -5,-52 -130,4 c -71,3 -150,5 -175,5 l -45,1 -3,-67 -3,-68 211,0 210,0 0,-60 0,-60 -272,2 -271,3 1,295 c 1,162 2,296 2,298 0,1 122,2 270,2 l 271,0 -3,-57 z m 542,38 c 41,-14 63,-30 88,-61 44,-57 44,-107 0,-162 l -31,-40 31,-26 c 40,-36 57,-97 42,-154 -14,-51 -62,-105 -101,-113 -16,-4 -31,-11 -34,-16 -4,-5 -108,-9 -241,-9 l -234,0 0,300 0,300 213,0 c 183,0 220,-3 267,-19 z m 1474,2 c 72,-25 112,-69 118,-132 3,-28 2,-71 -2,-98 -16,-101 -120,-142 -323,-126 -59,5 -113,6 -119,2 -7,-5 -9,-41 -6,-113 7,-121 4,-125 -62,-124 -82,1 -75,-26 -73,305 1,164 2,299 3,301 0,1 93,2 206,2 170,0 215,-3 258,-17 z m 2009,1 c 34,-10 63,-29 85,-52 30,-34 32,-39 32,-114 0,-97 -19,-128 -100,-165 l -55,-25 30,-27 c 17,-15 48,-49 70,-76 22,-28 52,-63 66,-79 44,-47 30,-58 -65,-51 -56,5 -84,12 -91,22 -5,9 -36,51 -67,94 -32,44 -58,83 -58,89 0,17 -35,28 -100,30 -36,1 -71,2 -78,1 -10,-1 -12,-27 -10,-118 l 3,-118 -65,3 c -36,2 -67,7 -70,10 -3,4 -4,139 -2,300 l 3,292 210,0 c 165,0 221,-3 262,-16 z m -558,-824 c 68,-8 130,-24 188,-48 16,-7 30,-12 32,-12 18,0 139,-85 181,-127 56,-56 124,-153 124,-175 0,-8 7,-23 15,-34 8,-10 15,-29 15,-40 0,-12 7,-39 16,-60 24,-57 24,-294 -1,-371 -18,-58 -41,-115 -56,-143 -5,-8 -14,-25 -19,-38 -5,-13 -39,-53 -75,-89 -36,-36 -65,-71 -65,-77 1,-22 122,-69 195,-75 39,-3 69,-9 68,-13 -2,-5 -3,-57 -3,-118 l 0,-110 -42,0 c -53,1 -200,32 -219,46 -8,5 -31,19 -52,29 -39,20 -137,110 -137,126 0,13 -64,11 -78,-3 -6,-6 -72,-19 -146,-29 -130,-17 -139,-17 -273,1 -135,18 -181,29 -235,56 -14,8 -31,14 -36,14 -24,0 -136,76 -186,127 -58,57 -126,152 -126,175 0,8 -7,23 -15,34 -8,10 -15,30 -15,44 0,14 -7,36 -15,50 -21,36 -21,317 0,367 8,19 15,45 15,57 0,11 7,30 15,40 8,11 15,26 15,34 0,7 15,37 34,65 61,92 160,184 236,218 127,57 195,79 251,80 24,0 64,4 89,9 47,9 187,5 305,-10 z m -2343,-42 c 10,-13 18,-29 18,-36 0,-8 7,-30 16,-50 8,-21 22,-52 29,-70 8,-18 22,-49 31,-70 9,-20 23,-53 31,-72 8,-19 22,-51 30,-70 8,-19 21,-48 28,-65 7,-16 27,-66 45,-110 17,-44 38,-96 47,-115 50,-116 69,-164 89,-227 18,-59 41,-69 51,-23 3,17 10,33 14,36 5,3 9,14 9,26 0,11 6,32 13,46 8,15 22,45 31,67 10,22 24,53 32,68 8,16 14,36 14,45 0,9 7,26 15,36 8,11 15,27 15,37 0,9 7,22 15,29 8,7 15,23 15,35 0,12 7,28 15,35 8,7 15,19 15,27 0,8 6,27 13,41 18,36 40,85 67,152 12,30 26,59 31,64 5,6 9,20 9,32 0,12 7,27 15,34 8,7 15,20 15,29 0,9 9,34 20,55 l 19,39 176,1 175,1 0,-662 c 0,-365 -3,-663 -7,-663 -5,-1 -58,-2 -120,-3 -105,-2 -112,-1 -115,18 -2,11 -1,227 2,480 3,253 2,468 -3,478 -11,24 -24,13 -32,-26 -3,-17 -10,-41 -15,-52 -4,-11 -15,-42 -25,-70 -9,-27 -24,-66 -33,-85 -15,-33 -27,-61 -59,-140 -8,-19 -21,-48 -29,-63 -8,-16 -14,-35 -14,-42 0,-7 -6,-26 -14,-42 -15,-30 -42,-90 -62,-138 -31,-77 -74,-173 -91,-207 -7,-14 -13,-34 -13,-45 0,-10 -8,-28 -18,-40 -15,-19 -28,-22 -115,-24 l -99,-3 -18,35 c -10,18 -32,70 -50,114 -18,44 -39,95 -46,112 -8,18 -21,48 -30,68 -8,19 -21,50 -30,70 -8,19 -21,50 -30,70 -8,19 -21,51 -29,70 -37,87 -48,112 -61,138 -8,16 -14,36 -14,46 0,9 -4,21 -9,27 -10,10 -30,62 -63,164 -49,155 -55,107 -48,-425 3,-259 4,-474 3,-480 -2,-6 -49,-9 -121,-8 l -117,1 -3,664 -2,663 177,-2 c 172,-2 178,-3 195,-25 z m 3454,-5 c 87,-29 170,-96 207,-168 21,-41 47,-128 47,-160 0,-57 -35,-151 -76,-206 -45,-58 -103,-109 -126,-109 -8,0 -23,-7 -34,-15 -13,-10 -46,-14 -115,-15 -88,0 -101,3 -152,30 -74,39 -117,82 -157,156 -30,54 -33,66 -33,154 -1,78 3,103 21,141 24,51 107,149 126,149 7,0 18,6 24,13 42,41 186,58 268,30 z" />
    <path
       id="path10"
       d="m 2284,2316 c -3,-7 -4,-33 -2,-57 l 3,-44 120,-3 c 137,-4 191,8 207,43 9,19 7,29 -6,50 -16,25 -17,25 -167,25 -118,0 -151,-3 -155,-14 z" />
    <path
       id="path12"
       d="m 2285,2102 c -3,-3 -5,-31 -5,-63 0,-40 4,-61 14,-66 8,-4 81,-6 162,-3 144,5 147,6 166,31 23,31 16,74 -16,91 -21,11 -310,20 -321,10 z" />
    <path
       id="path14"
       d="m 3770,2256 0,-75 134,4 c 166,4 196,16 196,74 0,63 -22,71 -190,71 l -140,0 0,-74 z" />
    <path
       id="path16"
       d="m 5772,2258 3,-73 115,-2 c 122,-2 203,14 214,43 12,31 6,61 -17,82 -22,21 -33,22 -171,22 l -147,0 3,-72 z" />
    <path
       id="path18"
       d="m 5220,1384 c -19,-7 -49,-13 -66,-13 -17,-1 -37,-8 -44,-16 -7,-8 -20,-15 -30,-15 -10,0 -23,-7 -30,-15 -7,-8 -18,-15 -25,-15 -19,0 -108,-94 -129,-137 -10,-21 -26,-51 -34,-68 -13,-23 -17,-60 -17,-165 0,-149 13,-197 78,-288 32,-44 126,-122 149,-122 7,0 22,-7 32,-15 11,-8 28,-15 39,-15 10,0 39,-7 65,-15 35,-12 82,-15 187,-13 l 140,3 3,26 c 2,21 -7,36 -50,73 -29,26 -63,46 -75,46 -22,0 -23,3 -25,105 -1,58 -2,113 -2,123 -2,33 58,20 173,-36 64,-31 144,-127 165,-194 8,-27 42,-22 64,9 10,16 34,60 52,98 33,69 33,72 34,210 0,109 -4,147 -16,170 -9,17 -24,47 -34,68 -21,43 -97,124 -128,138 -12,5 -28,13 -36,17 -49,28 -71,37 -140,53 -88,22 -247,24 -300,3 z m 285,-99 c 42,-11 139,-60 154,-79 8,-9 20,-16 27,-16 16,0 74,-110 74,-140 0,-12 5,-30 11,-41 7,-14 7,-29 -3,-55 -10,-27 -10,-39 0,-54 16,-26 15,-75 -2,-89 -17,-14 -43,-5 -81,29 -52,47 -227,107 -264,91 -49,-21 -91,-55 -101,-84 -19,-56 -22,-139 -6,-197 16,-60 11,-70 -34,-69 -51,0 -152,28 -173,47 -12,11 -38,29 -57,39 -24,13 -45,39 -69,83 -32,60 -34,69 -35,164 0,159 6,177 88,261 39,39 83,75 96,78 14,3 59,15 100,25 76,20 210,23 275,7 z" />
    <path
       id="path20"
       d="m 6473,1472 c -51,-21 -95,-62 -128,-118 -34,-57 -36,-174 -4,-235 51,-101 112,-139 224,-139 91,0 136,19 188,80 88,103 87,238 -1,340 -73,84 -180,112 -279,72 z m 209,-87 c 31,-23 43,-68 34,-121 -6,-27 -14,-38 -37,-46 -33,-11 -40,-46 -14,-68 8,-7 15,-18 15,-25 0,-7 7,-18 15,-25 8,-7 15,-23 15,-37 0,-22 -4,-24 -37,-21 -36,3 -40,7 -78,76 -35,62 -43,72 -65,70 -24,-3 -25,-6 -25,-73 l 0,-70 -32,-3 -33,-3 0,179 c 0,98 3,182 8,186 4,4 52,6 107,4 81,-2 105,-7 127,-23 z" />
    <path
       id="path22"
       d="m 6507,1343 c -12,-11 -8,-68 5,-81 7,-7 31,-12 53,-12 31,0 47,6 65,24 27,29 21,52 -15,66 -30,11 -98,13 -108,3 z" />
  </g>
</svg>
