<?xml version="1.0" encoding="UTF-8" standalone="no"?>
<!-- Created with Inkscape (http://www.inkscape.org/) -->

<svg
   xmlns:dc="http://purl.org/dc/elements/1.1/"
   xmlns:cc="http://creativecommons.org/ns#"
   xmlns:rdf="http://www.w3.org/1999/02/22-rdf-syntax-ns#"
   xmlns:svg="http://www.w3.org/2000/svg"
   xmlns="http://www.w3.org/2000/svg"
   version="1.1"
   width="16"
   height="16"
   viewBox="0 0 16 16"
   id="svg2"
   style="fill:#ffffff">
  <defs
     id="defs4" />
  <metadata
     id="metadata7">
    <rdf:RDF>
      <cc:Work
         rdf:about="">
        <dc:format>image/svg+xml</dc:format>
        <dc:type
           rdf:resource="http://purl.org/dc/dcmitype/StillImage" />
        <dc:title></dc:title>
      </cc:Work>
    </rdf:RDF>
  </metadata>
  <g
     id="layer1">
    <rect
  alert="false"       width="16"
       height="16"
       x="0"
       y="0"
       id="rect3058"
       style="fill-opacity:0" />
    <g
       transform="matrix(0.56513888,0,0,0.56513888,0,-3.3305534e-6)"
       id="g3023">
      <g
         transform="matrix(0.06911883,0,0,0.06250014,-1.4991183,4.8984993e-6)"
         id="g3">
        <g
           id="g5">
          <path
      alert="false"         d="m 165.265,53.107 -143.576,28.646 0,132.531 143.575,-2.416 0,-158.761 m 266.033,192.476 -233.18,-3.991 0,164.822 233.18,46.571 0,-207.402 m -266.032,-4.486 -143.575,-2.438 0,132.509 143.575,28.668 0,-158.739 M 431.297,0 l -233.18,46.528 0,164.822 233.18,-3.969 0,-207.381"
             id="path7"
             style="fill:#029fe4" />
        </g>
        <g
           id="g9" />
        <g
           id="g11" />
        <g
           id="g13" />
        <g
           id="g15" />
        <g
           id="g17" />
        <g
           id="g19" />
        <g
           id="g21" />
        <g
           id="g23" />
        <g
           id="g25" />
        <g
           id="g27" />
        <g
           id="g29" />
        <g
           id="g31" />
        <g
           id="g33" />
        <g
           id="g35" />
        <g
           id="g37" />
      </g>
      <g
         transform="translate(0,-424.67438)"
         id="g39" />
      <g
         transform="translate(0,-424.67438)"
         id="g41" />
      <g
         transform="translate(0,-424.67438)"
         id="g43" />
      <g
         transform="translate(0,-424.67438)"
         id="g45" />
      <g
         transform="translate(0,-424.67438)"
         id="g47" />
      <g
         transform="translate(0,-424.67438)"
         id="g49" />
      <g
         transform="translate(0,-424.67438)"
         id="g51" />
      <g
         transform="translate(0,-424.67438)"
         id="g53" />
      <g
         transform="translate(0,-424.67438)"
         id="g55" />
      <g
         transform="translate(0,-424.67438)"
         id="g57" />
      <g
         transform="translate(0,-424.67438)"
         id="g59" />
      <g
         transform="translate(0,-424.67438)"
         id="g61" />
      <g
         transform="translate(0,-424.67438)"
         id="g63" />
      <g
         transform="translate(0,-424.67438)"
         id="g65" />
      <g
         transform="translate(0,-424.67438)"
         id="g67" />
    </g>
  </g>
</svg>
