<?xml version="1.0" encoding="UTF-8"?>
<svg width="355px" height="176px" viewBox="0 0 355 176" version="1.1" xmlns="http://www.w3.org/2000/svg" xmlns:xlink="http://www.w3.org/1999/xlink">
    <!-- Generator: Sketch 52.1 (67048) - http://www.bohemiancoding.com/sketch -->
    <title>分组 6</title>
    <desc>Created with Sketch.</desc>
    <g id="Page-1" stroke="none" stroke-width="1" fill="none" fill-rule="evenodd">
        <g id="404" transform="translate(-224.000000, -212.000000)">
            <g id="分组-6" transform="translate(225.000000, 212.000000)">
                <path d="M229,43 L228,43 C231.313708,43 234,40.3137085 234,37 C234,33.6862915 231.313708,31 228,31 L218,31 C214.686292,31 212,28.3137085 212,25 C212,21.6862915 214.686292,19 218,19 L254,19 C257.313708,19 260,21.6862915 260,25 C260,28.3137085 257.313708,31 254,31 C250.686292,31 248,33.6862915 248,37 C248,40.3137085 250.686292,43 254,43 L277,43 C280.313708,43 283,45.6862915 283,49 C283,52.3137085 280.313708,55 277,55 L229,55 C225.686292,55 223,52.3137085 223,49 C223,45.6862915 225.686292,43 229,43 Z" id="合并形状" fill="#E7EAF6" fill-rule="nonzero"></path>
                <path d="M157,129 C153.686292,129 151,131.686292 151,135 C151,138.313708 153.686292,141 157,141 L156,141 C159.313708,141 162,143.686292 162,147 C162,150.313708 159.313708,153 156,153 L132,153 C128.686292,153 126,150.313708 126,147 C126,143.686292 128.686292,141 132,141 C135.313708,141 138,138.313708 138,135 C138,131.686292 135.313708,129 132,129 L93,129 C89.6862915,129 87,131.686292 87,135 C87,138.313708 89.6862915,141 93,141 L111,141 C114.313708,141 117,143.686292 117,147 C117,150.313708 114.313708,153 111,153 L66,153 C62.6862915,153 60,150.313708 60,147 C60,143.686292 62.6862915,141 66,141 L68,141 C71.3137085,141 74,138.313708 74,135 C74,131.686292 71.3137085,129 68,129 L45,129 C41.6862915,129 39,126.313708 39,123 C39,119.686292 41.6862915,117 45,117 L107,117 C110.313708,117 113,114.313708 113,111 C113,107.686292 110.313708,105 107,105 L97,105 C93.6862915,105 91,102.313708 91,99 C91,95.6862915 93.6862915,93 97,93 L142,93 C145.313708,93 148,95.6862915 148,99 C148,102.313708 145.313708,105 142,105 C138.686292,105 136,107.686292 136,111 C136,114.313708 138.686292,117 142,117 L170,117 C173.313708,117 176,119.686292 176,123 C176,126.313708 173.313708,129 170,129 L157,129 Z" id="合并形状" fill="#E7EAF6" fill-rule="nonzero"></path>
                <g id="分组-3" transform="translate(92.000000, 17.000000)" fill-rule="nonzero">
                    <circle id="椭圆形" stroke="#336EFF" stroke-width="2" fill="#FFFFFF" cx="79" cy="66" r="66"></circle>
                    <circle id="椭圆形-copy" fill="#EAF0FF" cx="76.5" cy="63.5" r="57.5"></circle>
                    <path d="M16.9466214,88.4156125 C4.9812422,97.9852596 -1.14532894,106.854542 1.29859658,112.90347 C6.36738954,125.449173 46.3838495,121.111947 90.6778615,103.216004 C134.971874,85.3200619 166.770196,60.6422325 161.701403,48.0965297 C159.630935,42.9719396 151.72942,40.6642796 140.087155,40.9469907 L141.470022,42.5866951 C151.417824,42.4620326 158.080521,44.4800422 159.84272,48.8416367 C164.497734,60.3632005 133.194205,83.8753671 89.9243324,101.357531 C46.6544594,118.839694 7.8036623,123.671715 3.14864835,112.150151 C0.945003962,106.69594 6.79965395,98.5546394 18.1673415,89.6379994 L16.9466214,88.4156125 Z" id="合并形状" fill="#336EFF"></path>
                </g>
                <g id="分组-2" transform="translate(0.000000, 35.000000)">
                    <path d="M20.8125592,35 L5.5,35 C2.46243388,35 3.71994563e-16,32.5375661 0,29.5 L0,28.5 C-3.71994563e-16,25.4624339 2.46243388,23 5.5,23 L28.6040284,23 L31.8504739,18 L22.5,18 C19.4624339,18 17,15.5375661 17,12.5 L17,11.5 C17,8.46243388 19.4624339,6 22.5,6 L39.6419431,6 L43.015,0.805 L67.81,0.805 L67.81,61.125 L81.15,61.125 L81.15,78.96 L67.81,78.96 L67.81,101 L46.785,101 L46.785,78.96 L7.78,78.96 L3.285,61.995 L20.8125592,35 Z M48.235,23.425 L47.655,23.425 C44.61,29.37 40.84,36.04 37.07,42.13 L25.325,61.125 L46.785,61.125 L46.785,53.15 C46.785,39.81 47.365,31.545 48.235,23.425 Z" id="合并形状" stroke="#336EFF" stroke-width="2" fill="#FFFFFF"></path>
                    <rect id="矩形" fill="#336EFF" fill-rule="nonzero" opacity="0.102539062" x="59" y="4" width="9" height="57" rx="4.5"></rect>
                </g>
                <g id="分组-2-copy" transform="translate(263.000000, 35.000000)">
                    <path d="M64.81,21 L72.5,21 C75.5375661,21 78,23.4624339 78,26.5 L78,27.5 C78,30.5375661 75.5375661,33 72.5,33 L64.81,33 L64.81,41 L84.5,41 C87.5375661,41 90,43.4624339 90,46.5 L90,47.5 C90,50.5375661 87.5375661,53 84.5,53 L64.81,53 L64.81,61.125 L78.15,61.125 L78.15,78.96 L64.81,78.96 L64.81,101 L43.785,101 L43.785,78.96 L4.78,78.96 L0.285,61.995 L40.015,0.805 L64.81,0.805 L64.81,21 Z M45.235,23.425 L44.655,23.425 C41.61,29.37 37.84,36.04 34.07,42.13 L22.325,61.125 L43.785,61.125 L43.785,53.15 C43.785,39.81 44.365,31.545 45.235,23.425 Z" id="合并形状" stroke="#336EFF" stroke-width="2" fill="#FFFFFF"></path>
                    <rect id="矩形" fill="#336EFF" fill-rule="nonzero" opacity="0.102539062" x="56" y="4" width="9" height="57" rx="4.5"></rect>
                </g>
                <g id="分组-4" transform="translate(90.000000, 3.000000)" fill-rule="nonzero">
                    <circle id="椭圆形-copy-4" fill="#EAF0FF" cx="192.5" cy="6.5" r="5.5"></circle>
                    <path d="M186.252035,10 C186.087506,9.36076016 186,8.69059914 186,8 C186,3.581722 189.581722,0 194,0 C198.418278,0 202,3.581722 202,8 C202,12.418278 198.418278,16 194,16 L194,14 C197.313708,14 200,11.3137085 200,8 C200,4.6862915 197.313708,2 194,2 C190.686292,2 188,4.6862915 188,8 C188,8.70127085 188.120308,9.37444215 188.341411,10 L186.252035,10 Z" id="合并形状" fill="#336EFF"></path>
                    <circle id="椭圆形-copy-7" fill="#EAF0FF" cx="9" cy="18" r="7"></circle>
                    <path d="M22,16 L20,16 C20,11.0294373 15.9705627,7 11,7 C6.02943725,7 2,11.0294373 2,16 C2,20.9705627 6.02943725,25 11,25 C12.9471244,25 14.74983,24.3816695 16.2224707,23.3306545 L17.5276872,24.8546614 C15.7017798,26.202971 13.4439679,27 11,27 C4.92486775,27 0,22.0751322 0,16 C0,9.92486775 4.92486775,5 11,5 C17.0751322,5 22,9.92486775 22,16 Z" id="合并形状" fill="#336EFF"></path>
                    <circle id="椭圆形-copy-9" fill="#EAF0FF" cx="152" cy="128" r="5"></circle>
                    <path d="M146.581517,132 C146.206507,131.073569 146,130.0609 146,129 C146,124.581722 149.581722,121 154,121 C158.418278,121 162,124.581722 162,129 C162,133.418278 158.418278,137 154,137 L154,135 C157.313708,135 160,132.313708 160,129 C160,125.686292 157.313708,123 154,123 C150.686292,123 148,125.686292 148,129 C148,130.092861 148.292183,131.11748 148.802693,132 L146.581517,132 Z" id="合并形状" fill="#336EFF"></path>
                </g>
                <g id="分组-5" transform="translate(118.000000, 0.000000)" fill-rule="nonzero">
                    <circle id="椭圆形" fill="#336EFF" cx="18.5" cy="2.5" r="2.5"></circle>
                    <circle id="椭圆形" fill="#336EFF" cx="100.5" cy="63.5" r="2.5"></circle>
                    <circle id="椭圆形" fill="#336EFF" cx="44.5" cy="137.5" r="3.5"></circle>
                    <circle id="椭圆形" stroke="#336EFF" stroke-width="2" cx="87.5" cy="50.5" r="5.5"></circle>
                    <circle id="椭圆形" fill="#336EFF" cx="166" cy="172" r="4"></circle>
                    <path d="M29,68 C21.8202983,68 16,62.1797017 16,55 C16,47.8202983 21.8202983,42 29,42 C36.1797017,42 42,47.8202983 42,55 C42,62.1797017 36.1797017,68 29,68 Z M29,66 C35.0751322,66 40,61.0751322 40,55 C40,48.9248678 35.0751322,44 29,44 C22.9248678,44 18,48.9248678 18,55 C18,61.0751322 22.9248678,66 29,66 Z" id="合并形状" fill="#336EFF"></path>
                    <path d="M33.9974242,75.4017375 C32.3957561,75.7927161 30.7220849,76 29,76 C22.3093548,76 16.3495048,72.8710942 12.5038724,67.9967053 L14.0016145,66.6653953 C17.478301,71.1290207 22.9038739,74 29,74 C30.5747698,74 32.104793,73.8084173 33.5680336,73.4472879 L33.9974242,75.4017375 Z M38.9659299,73.4892028 L38.1829628,71.6374953 C44.0364546,68.3997984 48,62.162767 48,55 C48,52.9170744 47.6648265,50.9124328 47.0454716,49.0370673 L48.9840448,48.5288392 C49.6436223,50.5672044 50,52.7419839 50,55 C50,62.9914293 45.5361929,69.9402806 38.9659299,73.4892028 Z" id="合并形状" fill="#336EFF"></path>
                    <path d="M58.5,96 C54.9101491,96 52,93.0898509 52,89.5 C52,85.9101491 54.9101491,83 58.5,83 C62.0898509,83 65,85.9101491 65,89.5 C65,93.0898509 62.0898509,96 58.5,96 Z M58.5,94 C60.9852814,94 63,91.9852814 63,89.5 C63,87.0147186 60.9852814,85 58.5,85 C56.0147186,85 54,87.0147186 54,89.5 C54,91.9852814 56.0147186,94 58.5,94 Z" id="合并形状" fill="#336EFF"></path>
                    <path d="M71.9909123,89 L69.9893258,89 C69.8633894,86.0561193 68.6307085,83.3989022 66.6967941,81.4338597 L68.2218649,80.1332644 C70.4536384,82.4491161 71.8656793,85.5603864 71.9909123,89 Z M71.7689717,92 C70.8328678,96.9994075 67.141099,101.027981 62.3305525,102.448832 L61.879895,100.495299 C65.8016827,99.2912043 68.8304672,96.0465203 69.7274953,92 L71.7689717,92 Z" id="合并形状" fill="#336EFF"></path>
                    <path d="M17,106 C12.0294373,106 8,101.970563 8,97 C8,92.0294373 12.0294373,88 17,88 C21.9705627,88 26,92.0294373 26,97 C26,101.970563 21.9705627,106 17,106 Z M17,104 C20.8659932,104 24,100.865993 24,97 C24,93.1340068 20.8659932,90 17,90 C13.1340068,90 10,93.1340068 10,97 C10,100.865993 13.1340068,104 17,104 Z" id="合并形状" fill="#336EFF"></path>
                    <path d="M2.43283715,105.768357 L4.06225675,104.595175 C6.66910134,109.026147 11.4872604,112 17,112 C20.7618583,112 24.2002774,110.615193 26.8332939,108.327541 L28.1535613,109.829915 C25.1682925,112.427337 21.2678039,114 17,114 C10.8190222,114 5.40849429,110.701312 2.43283715,105.768357 Z" id="合并形状" fill="#336EFF"></path>
                    <path d="M99.5,114 C96.4624339,114 94,111.537566 94,108.5 C94,105.462434 96.4624339,103 99.5,103 C102.537566,103 105,105.462434 105,108.5 C105,111.537566 102.537566,114 99.5,114 Z M99.5,112 C101.432997,112 103,110.432997 103,108.5 C103,106.567003 101.432997,105 99.5,105 C97.5670034,105 96,106.567003 96,108.5 C96,110.432997 97.5670034,112 99.5,112 Z" id="合并形状" fill="#336EFF"></path>
                    <path d="M88.2063177,113.864304 L90.0442316,113.070439 C91.74363,116.579846 95.3391864,119 99.5,119 C100.468262,119 101.405912,118.868939 102.29618,118.623591 L102.900244,120.53197 C101.81916,120.836875 100.67863,121 99.5,121 C94.5163978,121 90.2139658,118.083564 88.2063177,113.864304 Z" id="合并形状" fill="#336EFF"></path>
                </g>
            </g>
        </g>
    </g>
</svg>