<?xml version="1.0" encoding="UTF-8"?>
<svg width="370px" height="176px" viewBox="0 0 370 176" version="1.1" xmlns="http://www.w3.org/2000/svg" xmlns:xlink="http://www.w3.org/1999/xlink">
    <!-- Generator: Sketch 52.1 (67048) - http://www.bohemiancoding.com/sketch -->
    <title>分组 6</title>
    <desc>Created with Sketch.</desc>
    <g id="Page-1" stroke="none" stroke-width="1" fill="none" fill-rule="evenodd">
        <g id="500" transform="translate(-213.000000, -212.000000)">
            <g id="分组-6" transform="translate(213.000000, 212.000000)">
                <path d="M241,43 L240,43 C243.313708,43 246,40.3137085 246,37 C246,33.6862915 243.313708,31 240,31 L230,31 C226.686292,31 224,28.3137085 224,25 C224,21.6862915 226.686292,19 230,19 L266,19 C269.313708,19 272,21.6862915 272,25 C272,28.3137085 269.313708,31 266,31 C262.686292,31 260,33.6862915 260,37 C260,40.3137085 262.686292,43 266,43 L289,43 C292.313708,43 295,45.6862915 295,49 C295,52.3137085 292.313708,55 289,55 L241,55 C237.686292,55 235,52.3137085 235,49 C235,45.6862915 237.686292,43 241,43 Z" id="合并形状" fill="#E7EAF6" fill-rule="nonzero"></path>
                <path d="M169,129 C165.686292,129 163,131.686292 163,135 C163,138.313708 165.686292,141 169,141 L168,141 C171.313708,141 174,143.686292 174,147 C174,150.313708 171.313708,153 168,153 L144,153 C140.686292,153 138,150.313708 138,147 C138,143.686292 140.686292,141 144,141 C147.313708,141 150,138.313708 150,135 C150,131.686292 147.313708,129 144,129 L105,129 C101.686292,129 99,131.686292 99,135 C99,138.313708 101.686292,141 105,141 L123,141 C126.313708,141 129,143.686292 129,147 C129,150.313708 126.313708,153 123,153 L78,153 C74.6862915,153 72,150.313708 72,147 C72,143.686292 74.6862915,141 78,141 L80,141 C83.3137085,141 86,138.313708 86,135 C86,131.686292 83.3137085,129 80,129 L57,129 C53.6862915,129 51,126.313708 51,123 C51,119.686292 53.6862915,117 57,117 L119,117 C122.313708,117 125,114.313708 125,111 C125,107.686292 122.313708,105 119,105 L109,105 C105.686292,105 103,102.313708 103,99 C103,95.6862915 105.686292,93 109,93 L154,93 C157.313708,93 160,95.6862915 160,99 C160,102.313708 157.313708,105 154,105 C150.686292,105 148,107.686292 148,111 C148,114.313708 150.686292,117 154,117 L182,117 C185.313708,117 188,119.686292 188,123 C188,126.313708 185.313708,129 182,129 L169,129 Z" id="合并形状" fill="#E7EAF6" fill-rule="nonzero"></path>
                <g id="分组-3" transform="translate(104.000000, 17.000000)" fill-rule="nonzero">
                    <circle id="椭圆形" stroke="#336EFF" stroke-width="2" fill="#FFFFFF" cx="79" cy="66" r="66"></circle>
                    <circle id="椭圆形-copy" fill="#EAF0FF" cx="76.5" cy="63.5" r="57.5"></circle>
                    <path d="M16.9466214,88.4156125 C4.9812422,97.9852596 -1.14532894,106.854542 1.29859658,112.90347 C6.36738954,125.449173 46.3838495,121.111947 90.6778615,103.216004 C134.971874,85.3200619 166.770196,60.6422325 161.701403,48.0965297 C159.630935,42.9719396 151.72942,40.6642796 140.087155,40.9469907 L141.470022,42.5866951 C151.417824,42.4620326 158.080521,44.4800422 159.84272,48.8416367 C164.497734,60.3632005 133.194205,83.8753671 89.9243324,101.357531 C46.6544594,118.839694 7.8036623,123.671715 3.14864835,112.150151 C0.945003962,106.69594 6.79965395,98.5546394 18.1673415,89.6379994 L16.9466214,88.4156125 Z" id="合并形状" fill="#336EFF"></path>
                </g>
                <g id="分组" transform="translate(277.000000, 34.000000)">
                    <path d="M78.5,45 L72.6870012,45 L72.6377829,44.0518394 C71.1101711,14.6233261 60.4794947,1.355 38.015,1.355 C13.407743,1.355 1.17,17.7299346 1.17,52.555 C1.17,87.2237114 11.4624483,102.45 35.84,102.45 C53.6681383,102.45 65.1213971,93.6940892 70.059549,75.7348751 L70.2616137,75 L87.5,75 C89.9852814,75 92,72.9852814 92,70.5 L92,69.5 C92,67.0147186 89.9852814,65 87.5,65 L72.1110668,65 L72.2291787,63.8938281 C72.4979881,61.376306 72.6768639,58.7344624 72.7652702,55.9680592 L72.7962066,55 L78.5,55 C80.9852814,55 83,52.9852814 83,50.5 L83,49.5 C83,47.0147186 80.9852814,45 78.5,45 Z M21.065,51.83 C21.065,26.81516 24.6466405,17.77 36.42,17.77 C47.9069393,17.77 52.935,28.9474874 52.935,52.555 C52.935,77.1066807 49.2352512,86.035 37.29,86.035 C25.8534062,86.035 21.065,75.5075482 21.065,51.83 Z" id="合并形状" stroke="#336EFF" stroke-width="2" fill="#FFFFFF"></path>
                    <path d="M40.614235,6 C47.6821236,6.40651146 53.1479729,8.44310053 57.011783,12.1097672 C62.8074982,17.6097672 64.5718165,23.9238862 66.1424606,32" id="路径-2" stroke="#EAF0FF" stroke-width="8" stroke-linecap="round" fill-rule="nonzero"></path>
                    <path d="M78.5,45 L72.6870012,45 L72.6377829,44.0518394 C71.1101711,14.6233261 60.4794947,1.355 38.015,1.355 C13.407743,1.355 1.17,17.7299346 1.17,52.555 C1.17,87.2237114 11.4624483,102.45 35.84,102.45 C53.6681383,102.45 65.1213971,93.6940892 70.059549,75.7348751 L70.2616137,75 L87.5,75 C89.9852814,75 92,72.9852814 92,70.5 L92,69.5 C92,67.0147186 89.9852814,65 87.5,65 L72.1110668,65 L72.2291787,63.8938281 C72.4979881,61.376306 72.6768639,58.7344624 72.7652702,55.9680592 L72.7962066,55 L78.5,55 C80.9852814,55 83,52.9852814 83,50.5 L83,49.5 C83,47.0147186 80.9852814,45 78.5,45 Z M21.065,51.83 C21.065,26.81516 24.6466405,17.77 36.42,17.77 C47.9069393,17.77 52.935,28.9474874 52.935,52.555 C52.935,77.1066807 49.2352512,86.035 37.29,86.035 C25.8534062,86.035 21.065,75.5075482 21.065,51.83 Z" id="合并形状-copy" stroke="#336EFF" stroke-width="2"></path>
                </g>
                <g id="分组-2-copy-2" transform="translate(0.000000, 35.000000)">
                    <path d="M22.2480191,50.7231593 L39.0445406,56.6355349 C42.0454465,53.6841672 45.8317608,52.005 50.1875,52.005 C59.623651,52.005 64.8175,58.1394673 64.8175,69.1 C64.8175,79.4515485 60.1593834,85.47 51.4925,85.47 C44.441075,85.47 39.7202145,81.3215463 36.842348,73.6259151 L17.2540304,81.9641855 C22.2980466,94.3700473 32.2169494,101.45 50.0425,101.45 C71.4394366,101.45 84.4225,87.8041376 84.4225,66.345 C84.4225,47.0323531 75.1992749,37.185 55.8425,37.185 C51.7326993,37.185 46.1368256,38.846275 43.6964406,40.7443522 L43.4256078,40.955 L41.3944964,40.955 L43.7749759,17.785 L79.3475,17.785 L79.3475,1.805 L26.3128519,1.805 L26.0473648,5 L14.5,5 C12.0147186,5 10,7.01471863 10,9.5 L10,10.5 C10,12.9852814 12.0147186,15 14.5,15 L25.2164192,15 L24.6347573,22 L5.5,22 C3.01471863,22 1,24.0147186 1,26.5 L1,27.5 C1,29.9852814 3.01471863,32 5.5,32 L23.8038117,32 L22.2480191,50.7231593 Z" id="合并形状" stroke="#336EFF" stroke-width="2" fill="#FFFFFF"></path>
                    <rect id="矩形-copy" fill="#336EFF" fill-rule="nonzero" opacity="0.102539062" x="70" y="4" width="9" height="12" rx="4.5"></rect>
                    <path d="M22.2480191,50.7231593 L39.0445406,56.6355349 C42.0454465,53.6841672 45.8317608,52.005 50.1875,52.005 C59.623651,52.005 64.8175,58.1394673 64.8175,69.1 C64.8175,79.4515485 60.1593834,85.47 51.4925,85.47 C44.441075,85.47 39.7202145,81.3215463 36.842348,73.6259151 L17.2540304,81.9641855 C22.2980466,94.3700473 32.2169494,101.45 50.0425,101.45 C71.4394366,101.45 84.4225,87.8041376 84.4225,66.345 C84.4225,47.0323531 75.1992749,37.185 55.8425,37.185 C51.7326993,37.185 46.1368256,38.846275 43.6964406,40.7443522 L43.4256078,40.955 L41.3944964,40.955 L43.7749759,17.785 L79.3475,17.785 L79.3475,1.805 L26.3128519,1.805 L26.0473648,5 L14.5,5 C12.0147186,5 10,7.01471863 10,9.5 L10,10.5 C10,12.9852814 12.0147186,15 14.5,15 L25.2164192,15 L24.6347573,22 L5.5,22 C3.01471863,22 1,24.0147186 1,26.5 L1,27.5 C1,29.9852814 3.01471863,32 5.5,32 L23.8038117,32 L22.2480191,50.7231593 Z" id="合并形状-copy-6" stroke="#336EFF" stroke-width="2"></path>
                </g>
                <g id="分组-4" transform="translate(102.000000, 3.000000)" fill-rule="nonzero">
                    <circle id="椭圆形-copy-4" fill="#EAF0FF" cx="192.5" cy="6.5" r="5.5"></circle>
                    <path d="M186.252035,10 C186.087506,9.36076016 186,8.69059914 186,8 C186,3.581722 189.581722,0 194,0 C198.418278,0 202,3.581722 202,8 C202,12.418278 198.418278,16 194,16 L194,14 C197.313708,14 200,11.3137085 200,8 C200,4.6862915 197.313708,2 194,2 C190.686292,2 188,4.6862915 188,8 C188,8.70127085 188.120308,9.37444215 188.341411,10 L186.252035,10 Z" id="合并形状" fill="#336EFF"></path>
                    <circle id="椭圆形-copy-7" fill="#EAF0FF" cx="9" cy="18" r="7"></circle>
                    <path d="M22,16 L20,16 C20,11.0294373 15.9705627,7 11,7 C6.02943725,7 2,11.0294373 2,16 C2,20.9705627 6.02943725,25 11,25 C12.9471244,25 14.74983,24.3816695 16.2224707,23.3306545 L17.5276872,24.8546614 C15.7017798,26.202971 13.4439679,27 11,27 C4.92486775,27 0,22.0751322 0,16 C0,9.92486775 4.92486775,5 11,5 C17.0751322,5 22,9.92486775 22,16 Z" id="合并形状" fill="#336EFF"></path>
                    <circle id="椭圆形-copy-9" fill="#EAF0FF" cx="152" cy="128" r="5"></circle>
                    <path d="M146.581517,132 C146.206507,131.073569 146,130.0609 146,129 C146,124.581722 149.581722,121 154,121 C158.418278,121 162,124.581722 162,129 C162,133.418278 158.418278,137 154,137 L154,135 C157.313708,135 160,132.313708 160,129 C160,125.686292 157.313708,123 154,123 C150.686292,123 148,125.686292 148,129 C148,130.092861 148.292183,131.11748 148.802693,132 L146.581517,132 Z" id="合并形状" fill="#336EFF"></path>
                </g>
                <g id="分组-5" transform="translate(130.000000, 0.000000)" fill-rule="nonzero">
                    <circle id="椭圆形" fill="#336EFF" cx="18.5" cy="2.5" r="2.5"></circle>
                    <circle id="椭圆形" fill="#336EFF" cx="100.5" cy="63.5" r="2.5"></circle>
                    <circle id="椭圆形" fill="#336EFF" cx="44.5" cy="137.5" r="3.5"></circle>
                    <circle id="椭圆形" stroke="#336EFF" stroke-width="2" cx="87.5" cy="50.5" r="5.5"></circle>
                    <circle id="椭圆形" fill="#336EFF" cx="166" cy="172" r="4"></circle>
                    <path d="M29,68 C21.8202983,68 16,62.1797017 16,55 C16,47.8202983 21.8202983,42 29,42 C36.1797017,42 42,47.8202983 42,55 C42,62.1797017 36.1797017,68 29,68 Z M29,66 C35.0751322,66 40,61.0751322 40,55 C40,48.9248678 35.0751322,44 29,44 C22.9248678,44 18,48.9248678 18,55 C18,61.0751322 22.9248678,66 29,66 Z" id="合并形状" fill="#336EFF"></path>
                    <path d="M33.9974242,75.4017375 C32.3957561,75.7927161 30.7220849,76 29,76 C22.3093548,76 16.3495048,72.8710942 12.5038724,67.9967053 L14.0016145,66.6653953 C17.478301,71.1290207 22.9038739,74 29,74 C30.5747698,74 32.104793,73.8084173 33.5680336,73.4472879 L33.9974242,75.4017375 Z M38.9659299,73.4892028 L38.1829628,71.6374953 C44.0364546,68.3997984 48,62.162767 48,55 C48,52.9170744 47.6648265,50.9124328 47.0454716,49.0370673 L48.9840448,48.5288392 C49.6436223,50.5672044 50,52.7419839 50,55 C50,62.9914293 45.5361929,69.9402806 38.9659299,73.4892028 Z" id="合并形状" fill="#336EFF"></path>
                    <path d="M58.5,96 C54.9101491,96 52,93.0898509 52,89.5 C52,85.9101491 54.9101491,83 58.5,83 C62.0898509,83 65,85.9101491 65,89.5 C65,93.0898509 62.0898509,96 58.5,96 Z M58.5,94 C60.9852814,94 63,91.9852814 63,89.5 C63,87.0147186 60.9852814,85 58.5,85 C56.0147186,85 54,87.0147186 54,89.5 C54,91.9852814 56.0147186,94 58.5,94 Z" id="合并形状" fill="#336EFF"></path>
                    <path d="M71.9909123,89 L69.9893258,89 C69.8633894,86.0561193 68.6307085,83.3989022 66.6967941,81.4338597 L68.2218649,80.1332644 C70.4536384,82.4491161 71.8656793,85.5603864 71.9909123,89 Z M71.7689717,92 C70.8328678,96.9994075 67.141099,101.027981 62.3305525,102.448832 L61.879895,100.495299 C65.8016827,99.2912043 68.8304672,96.0465203 69.7274953,92 L71.7689717,92 Z" id="合并形状" fill="#336EFF"></path>
                    <path d="M17,106 C12.0294373,106 8,101.970563 8,97 C8,92.0294373 12.0294373,88 17,88 C21.9705627,88 26,92.0294373 26,97 C26,101.970563 21.9705627,106 17,106 Z M17,104 C20.8659932,104 24,100.865993 24,97 C24,93.1340068 20.8659932,90 17,90 C13.1340068,90 10,93.1340068 10,97 C10,100.865993 13.1340068,104 17,104 Z" id="合并形状" fill="#336EFF"></path>
                    <path d="M2.43283715,105.768357 L4.06225675,104.595175 C6.66910134,109.026147 11.4872604,112 17,112 C20.7618583,112 24.2002774,110.615193 26.8332939,108.327541 L28.1535613,109.829915 C25.1682925,112.427337 21.2678039,114 17,114 C10.8190222,114 5.40849429,110.701312 2.43283715,105.768357 Z" id="合并形状" fill="#336EFF"></path>
                    <path d="M99.5,114 C96.4624339,114 94,111.537566 94,108.5 C94,105.462434 96.4624339,103 99.5,103 C102.537566,103 105,105.462434 105,108.5 C105,111.537566 102.537566,114 99.5,114 Z M99.5,112 C101.432997,112 103,110.432997 103,108.5 C103,106.567003 101.432997,105 99.5,105 C97.5670034,105 96,106.567003 96,108.5 C96,110.432997 97.5670034,112 99.5,112 Z" id="合并形状" fill="#336EFF"></path>
                    <path d="M88.2063177,113.864304 L90.0442316,113.070439 C91.74363,116.579846 95.3391864,119 99.5,119 C100.468262,119 101.405912,118.868939 102.29618,118.623591 L102.900244,120.53197 C101.81916,120.836875 100.67863,121 99.5,121 C94.5163978,121 90.2139658,118.083564 88.2063177,113.864304 Z" id="合并形状" fill="#336EFF"></path>
                </g>
            </g>
        </g>
    </g>
</svg>