<?xml version="1.0" encoding="UTF-8"?>
<svg width="140px" height="96px" viewBox="0 0 140 96" version="1.1" xmlns="http://www.w3.org/2000/svg" xmlns:xlink="http://www.w3.org/1999/xlink">
    <!-- Generator: Sketch 53 (72520) - https://sketchapp.com -->
    <title>分组 6 copy</title>
    <desc>Created with Sketch.</desc>
    <defs>
        <linearGradient x1="50%" y1="0%" x2="50%" y2="100%" id="linearGradient-1">
            <stop stop-color="#B8BDC3" offset="0%"></stop>
            <stop stop-color="#9196A9" offset="100%"></stop>
        </linearGradient>
        <linearGradient x1="50%" y1="0%" x2="50%" y2="100%" id="linearGradient-2">
            <stop stop-color="#D7DCE2" offset="0%"></stop>
            <stop stop-color="#A8B2BC" offset="100%"></stop>
        </linearGradient>
        <linearGradient x1="50%" y1="0%" x2="50%" y2="100%" id="linearGradient-3">
            <stop stop-color="#D7DCE2" offset="0%"></stop>
            <stop stop-color="#A8B2BC" offset="100%"></stop>
        </linearGradient>
        <linearGradient x1="50%" y1="0%" x2="50%" y2="100%" id="linearGradient-4">
            <stop stop-color="#D7D9E3" offset="0%"></stop>
            <stop stop-color="#E8E7F2" offset="100%"></stop>
        </linearGradient>
        <linearGradient x1="50%" y1="0%" x2="50%" y2="100%" id="linearGradient-5">
            <stop stop-color="#F7F7FA" offset="0%"></stop>
            <stop stop-color="#ECECF0" offset="100%"></stop>
        </linearGradient>
        <polygon id="path-6" points="0.00153749101 0.00858630432 8.49632907 0.00858630432 8.49632907 6.74687914 0.00153749101 6.74687914"></polygon>
        <polygon id="path-8" points="0.00196457185 0.0112282441 10.8564205 0.0112282441 10.8564205 8.82284195 0.00196457185 8.82284195"></polygon>
    </defs>
    <g id="Page-1" stroke="none" stroke-width="1" fill="none" fill-rule="evenodd">
        <g id="dashboard-浅色-copy" transform="translate(-1486.000000, -446.000000)">
            <g id="列表-copy" transform="translate(1207.000000, 319.000000)">
                <g id="分组-2" transform="translate(279.000000, 127.000000)">
                    <g id="分组-6-copy">
                        <path d="M21.3020355,26.5954887 C12.8665902,37.1815629 6.96753848,41.3308271 11.7457042,62.8947368 C16.5238698,84.4586466 27.6163686,91.6466165 40.814079,88.0526316 C54.0117894,84.4586466 84.9178201,92.9045113 91.7672648,95.0609023 C98.6167094,97.2172932 129.355681,92.7648398 133.532171,67.2075188 C137.708662,41.6501978 120.167401,25.337594 111.981479,23.5406015 C103.795558,21.743609 75.0613022,13.4595588 62.3647707,13.6571429 C49.6682392,13.8547269 29.7374808,16.0094145 21.3020355,26.5954887 Z" id="路径-3" fill="#F6F7F9"></path>
                        <path d="M0.518678425,57.6115789 C-1.99482441,33.1191601 18.8891753,8.62556391 37.7185204,1.79699248 C56.5478656,-5.03157895 69.1691521,13.6571429 89.4531328,13.6571429 C109.737113,13.6571429 122.716241,8.45406184 132.896495,20.1038534 C143.076748,31.7536449 141.609971,72.7781955 128.707323,79.9661654 C125.178614,81.9319831 113.679978,86.6887744 99.9646021,84.8702159 C88.5309937,83.354203 75.9004835,75.5216149 61.8481477,74.0360902 C50.7722528,72.8652162 36.5080837,78.3178186 27.2606839,76.012782 C10.8536011,71.9230996 1.32005012,65.4204149 0.518678425,57.6115789 Z" id="路径-2" fill="#F6F7F9" opacity="0.653529576"></path>
                        <path d="M60.4453608,53.5503759 C58.0467354,52.5919799 55.64811,52.5919799 53.2494845,53.5503759 C49.6515464,54.9879699 47.8525773,55.8864662 49.1118557,60.7383459 C49.9513746,63.9729323 51.8103093,70.502005 54.6886598,80.3255639 C55.7680412,83.6799499 57.2072165,85.1774436 59.0061856,84.8180451 C60.8051546,84.4586466 70.9993127,82.6616541 89.5886598,79.4270677 C93.666323,78.1092732 96.0649485,74.9345865 96.7845361,69.9030075 C97.5041237,64.8714286 96.6646048,59.2408521 94.2659794,53.0112782 C93.7862543,52.0528822 92.2271478,51.393985 89.5886598,51.0345865 C85.6309278,50.4954887 71.9587629,53.0112782 68.3608247,54.0894737 C65.9621993,54.8082707 64.4630584,55.5270677 63.8634021,56.2458647 C62.7840206,56.1260652 62.064433,55.8864662 61.7046392,55.5270677 C61.3448454,55.1676692 60.9250859,54.5087719 60.4453608,53.5503759 Z" id="路径-4" fill="url(#linearGradient-1)"></path>
                        <path d="M49.9400765,20.3238113 L81.2341718,20.3374059 C82.4264626,20.3378609 83.3928918,21.3042898 83.3933472,22.4965806 L83.4099624,57.3570626 C83.4104181,58.5499975 82.4437226,59.5174318 81.2507876,59.5178875 C81.2502378,59.5178877 81.2496879,59.5178877 81.2491381,59.5178875 L49.9550434,59.5026441 C48.7627526,59.502189 47.7963235,58.5357601 47.795868,57.3434693 L47.7792529,22.4829874 C47.7787972,21.2900524 48.7454926,20.3226181 49.9384276,20.3221624 C49.9389775,20.3221622 49.9395273,20.3221622 49.9400771,20.3221624 Z" id="矩形" fill="#FFFFFF" opacity="0.851283482" transform="translate(65.594608, 39.920025) rotate(-22.000000) translate(-65.594608, -39.920025) "></path>
                        <path d="M59.0061856,84.8180451 C60.8051546,84.4586466 70.9993127,82.6616541 89.5886598,79.4270677 C93.666323,78.1092732 96.0649485,74.9345865 96.7845361,69.9030075 C97.5041237,64.8714286 96.7845361,58.2225564 94.2659794,53.0112782 C93.5463918,51.5736842 91.5675258,51.0345865 89.5886598,51.0345865 C85.5782866,51.0345865 71.9587629,53.0112782 68.3608247,54.0894737 C65.9621993,54.8082707 64.9427835,55.5270677 63.8634021,56.2458647 C62.7840206,56.9646617 61.3448454,58.5819549 61.3448454,60.5586466 C61.3448454,62.5353383 59.7257732,79.4270677 59.3659794,80.5052632 C59.0061856,81.5834586 58.6463918,83.0210526 57.7469072,83.3804511 C57.1472509,83.6200501 56.6075601,83.6200501 56.1278351,83.3804511 C56.8474227,84.5784461 57.8068729,85.0576441 59.0061856,84.8180451 Z" id="路径-4-copy" fill="url(#linearGradient-2)"></path>
                        <path d="M59.7257732,36.1195489 C61.7646048,34.5621554 63.1438144,33.6636591 63.8634021,33.4240602 C64.9427835,33.0646617 67.1015464,32.8550125 68.1809278,33.7834586 C69.2603093,34.7119048 70.1597938,36.6586466 69.8,37.9165414 C69.4402062,39.1744361 68.0010309,40.7917293 67.6412371,41.6902256 C67.4013746,42.2892231 67.4013746,42.9481203 67.6412371,43.6669173 L65.3025773,44.3857143 C65.1164321,43.5471178 65.0698958,42.7684211 65.1629684,42.0496241 C65.3025773,40.9714286 66.5618557,39.588333 66.9216495,38.7524372 C67.2814433,37.9165414 67.821134,35.7601504 65.842268,35.7601504 C64.5230241,35.7601504 63.0838488,36.4789474 61.5247423,37.9165414 L59.7257732,36.1195489 Z M67.6412371,49.237594 C66.6476939,49.237594 65.842268,48.433053 65.842268,47.4406015 C65.842268,46.44815 66.6476939,45.643609 67.6412371,45.643609 C68.6347803,45.643609 69.4402062,46.44815 69.4402062,47.4406015 C69.4402062,48.433053 68.6347803,49.237594 67.6412371,49.237594 Z" id="合并形状" fill="url(#linearGradient-3)"></path>
                        <path d="M65.9685877,18.6449611 L72.7595808,15.9046529 C73.8652241,15.4584348 75.1233122,15.9924613 75.5703745,17.0977635 L79.398236,26.5590677 C78.9334047,26.4316871 78.5616443,26.2360902 78.2551546,26.2360902 C77.535567,26.2360902 76.6360825,26.5954887 75.1969072,27.493985 C73.757732,28.3924812 71.5989691,28.3924812 70.5195876,27.493985 C69.4402062,26.5954887 67.6412371,20.306015 67.2814433,19.4075188 C67.1348795,19.0415118 66.6972609,18.7873259 65.9685877,18.6449611 Z" id="合并形状" fill="url(#linearGradient-4)"></path>
                        <path d="M77.8113874,59.4663635 L78.6149485,63.6135338 C78.854811,64.6917293 79.0946735,65.3506266 79.3345361,65.5902256 C79.6943299,65.9496241 80.0541237,66.4887218 82.5726804,65.9496241 C83.5329208,65.7440844 84.7677414,65.5247952 86.2771425,65.2917565 C86.325487,65.6238656 86.3505155,65.9635245 86.3505155,66.3090226 C86.3505155,70.1795836 83.2093545,73.3172932 79.3345361,73.3172932 C75.4597177,73.3172932 72.3185567,70.1795836 72.3185567,66.3090226 C72.3185567,62.9609458 74.6689101,60.1612204 77.8113874,59.4663635 Z M79.3990638,58.2233791 C79.4374547,58.2228313 79.4759117,58.2225564 79.514433,58.2225564 C83.0058781,58.2225564 85.9693486,60.4806004 87.0211114,63.6144756 C84.4842887,64.0930458 83.0014784,64.3323308 82.5726804,64.3323308 C81.8530928,64.3323308 81.1335052,64.1526316 80.5938144,63.6135338 C80.0541237,63.0744361 80.0353142,62.3954199 79.8742268,61.6368421 C79.7762226,61.17533 79.617835,60.037509 79.3990638,58.2233791 Z" id="合并形状" fill="url(#linearGradient-5)"></path>
                        <g id="ysyx" transform="translate(10.074227, 40.971429)">
                            <g id="分组" transform="translate(0.000000, 5.055250)">
                                <mask id="mask-7" fill="white">
                                    <use xlink:href="#path-6"></use>
                                </mask>
                                <g id="Clip-2"></g>
                                <path d="M8.49632907,3.37777083 L8.49632907,6.74687914 L3.39849575,6.74687914 C1.52147548,6.74687914 0,5.23856015 0,3.37777083 C0,1.51708312 1.52147548,0.00858630432 3.39849575,0.00858630432 C5.27541353,0.00858630432 6.7971965,1.51708312 6.7971965,3.37777083 L8.49632907,3.37777083 Z" id="Fill-1" fill="#FFFFFF" opacity="0.600000024" mask="url(#mask-7)"></path>
                            </g>
                            <path d="M14.8685118,5.90620882 C14.8685118,7.81630588 13.9524234,9.51405704 12.5319611,10.5915112 L12.5319611,11.8021293 L8.92116346,11.8021293 C5.63646767,11.8021293 2.97368699,9.16247582 2.97368699,5.90620882 C2.97368699,2.6498148 5.63646767,0.0101613069 8.92116346,0.0101613069 C12.2058336,0.0101613069 14.8685118,2.6498148 14.8685118,5.90620882 Z" id="Fill-3" fill="#FFFFFF" opacity="0.75"></path>
                            <path d="M8.28402718,7.16961491 C8.28402718,9.72810497 10.3761681,11.8021293 12.9569749,11.8021293 C15.537756,11.8021293 17.6298969,9.72810497 17.6298969,7.16961491 C17.6298969,4.61112485 15.537756,2.53710051 12.9569749,2.53710051 C10.3761681,2.53710051 8.28402718,4.61112485 8.28402718,7.16961491 Z" id="Fill-4" fill="#FFFFFF"></path>
                        </g>
                        <g id="ysyx-copy-2" transform="translate(102.000000, 39.000000)">
                            <g id="分组" transform="translate(0.000000, 6.610712)">
                                <mask id="mask-9" fill="white">
                                    <use xlink:href="#path-8"></use>
                                </mask>
                                <g id="Clip-2"></g>
                                <path d="M10.8564205,4.41708493 L10.8564205,8.82284195 L4.34252235,8.82284195 C1.94410756,8.82284195 0,6.85042481 0,4.41708493 C0,1.98387792 1.94410756,0.0112282441 4.34252235,0.0112282441 C6.74080617,0.0112282441 8.68530664,1.98387792 8.68530664,4.41708493 L10.8564205,4.41708493 Z" id="Fill-1" fill="#FFFFFF" opacity="0.600000024" mask="url(#mask-9)"></path>
                            </g>
                            <path d="M18.998654,7.72350384 C18.998654,10.2213231 17.8280966,12.4414592 16.0130614,13.8504377 L16.0130614,15.4335537 L11.3992644,15.4335537 C7.20215313,15.4335537 3.79971115,11.9816991 3.79971115,7.72350384 C3.79971115,3.46514243 7.20215313,0.0132878628 11.3992644,0.0132878628 C15.596343,0.0132878628 18.998654,3.46514243 18.998654,7.72350384 Z" id="Fill-3" fill="#FFFFFF" opacity="0.75"></path>
                            <path d="M10.5851458,9.37565027 C10.5851458,12.721368 13.258437,15.4335537 16.5561345,15.4335537 C19.8537994,15.4335537 22.5270905,12.721368 22.5270905,9.37565027 C22.5270905,6.0299325 19.8537994,3.31774681 16.5561345,3.31774681 C13.258437,3.31774681 10.5851458,6.0299325 10.5851458,9.37565027 Z" id="Fill-4" fill="#FFFFFF"></path>
                        </g>
                    </g>
                </g>
            </g>
        </g>
    </g>
</svg>