<?xml version="1.0" encoding="UTF-8"?>
<svg width="531px" height="230px" viewBox="0 0 531 230" version="1.1" xmlns="http://www.w3.org/2000/svg" xmlns:xlink="http://www.w3.org/1999/xlink">
    <!-- Generator: Sketch 52.1 (67048) - http://www.bohemiancoding.com/sketch -->
    <title>分组 11</title>
    <desc>Created with Sketch.</desc>
    <g id="Page-1" stroke="none" stroke-width="1" fill="none" fill-rule="evenodd">
        <g id="error" transform="translate(-134.000000, -180.000000)">
            <g id="分组-11" transform="translate(135.000000, 180.000000)">
                <g id="分组-6" transform="translate(76.000000, 30.000000)" fill-rule="nonzero">
                    <path d="M329,45 L328,45 C331.313708,45 334,42.3137085 334,39 C334,35.6862915 331.313708,33 328,33 L318,33 C314.686292,33 312,30.3137085 312,27 C312,23.6862915 314.686292,21 318,21 L354,21 C357.313708,21 360,23.6862915 360,27 C360,30.3137085 357.313708,33 354,33 C350.686292,33 348,35.6862915 348,39 C348,42.3137085 350.686292,45 354,45 L377,45 C380.313708,45 383,47.6862915 383,51 C383,54.3137085 380.313708,57 377,57 L329,57 C325.686292,57 323,54.3137085 323,51 C323,47.6862915 325.686292,45 329,45 Z" id="合并形状" fill="#E7EAF6"></path>
                    <path d="M29,144 L28,144 C31.3137085,144 34,141.313708 34,138 C34,134.686292 31.3137085,132 28,132 L18,132 C14.6862915,132 12,129.313708 12,126 C12,122.686292 14.6862915,120 18,120 L54,120 C57.3137085,120 60,122.686292 60,126 C60,129.313708 57.3137085,132 54,132 C50.6862915,132 48,134.686292 48,138 C48,141.313708 50.6862915,144 54,144 L77,144 C80.3137085,144 83,146.686292 83,150 C83,153.313708 80.3137085,156 77,156 L29,156 C25.6862915,156 23,153.313708 23,150 C23,146.686292 25.6862915,144 29,144 Z" id="合并形状-copy-6" fill="#E7EAF6"></path>
                    <path d="M257,131 C253.686292,131 251,133.686292 251,137 C251,140.313708 253.686292,143 257,143 L256,143 C259.313708,143 262,145.686292 262,149 C262,152.313708 259.313708,155 256,155 L232,155 C228.686292,155 226,152.313708 226,149 C226,145.686292 228.686292,143 232,143 C235.313708,143 238,140.313708 238,137 C238,133.686292 235.313708,131 232,131 L193,131 C189.686292,131 187,133.686292 187,137 C187,140.313708 189.686292,143 193,143 L211,143 C214.313708,143 217,145.686292 217,149 C217,152.313708 214.313708,155 211,155 L166,155 C162.686292,155 160,152.313708 160,149 C160,145.686292 162.686292,143 166,143 L168,143 C171.313708,143 174,140.313708 174,137 C174,133.686292 171.313708,131 168,131 L145,131 C141.686292,131 139,128.313708 139,125 C139,121.686292 141.686292,119 145,119 L207,119 C210.313708,119 213,116.313708 213,113 C213,109.686292 210.313708,107 207,107 L197,107 C193.686292,107 191,104.313708 191,101 C191,97.6862915 193.686292,95 197,95 L242,95 C245.313708,95 248,97.6862915 248,101 C248,104.313708 245.313708,107 242,107 C238.686292,107 236,109.686292 236,113 C236,116.313708 238.686292,119 242,119 L270,119 C273.313708,119 276,121.686292 276,125 C276,128.313708 273.313708,131 270,131 L257,131 Z" id="合并形状" fill="#E7EAF6"></path>
                    <g id="分组-3" transform="translate(192.000000, 19.000000)">
                        <circle id="椭圆形" stroke="#336EFF" stroke-width="2" fill="#FFFFFF" cx="79" cy="66" r="66"></circle>
                        <circle id="椭圆形-copy" fill="#EAF0FF" cx="76.5" cy="63.5" r="57.5"></circle>
                        <path d="M16.9466214,88.4156125 C4.9812422,97.9852596 -1.14532894,106.854542 1.29859658,112.90347 C6.36738954,125.449173 46.3838495,121.111947 90.6778615,103.216004 C134.971874,85.3200619 166.770196,60.6422325 161.701403,48.0965297 C159.630935,42.9719396 151.72942,40.6642796 140.087155,40.9469907 L141.470022,42.5866951 C151.417824,42.4620326 158.080521,44.4800422 159.84272,48.8416367 C164.497734,60.3632005 133.194205,83.8753671 89.9243324,101.357531 C46.6544594,118.839694 7.8036623,123.671715 3.14864835,112.150151 C0.945003962,106.69594 6.79965395,98.5546394 18.1673415,89.6379994 L16.9466214,88.4156125 Z" id="合并形状" fill="#336EFF"></path>
                    </g>
                    <g id="分组-4">
                        <circle id="椭圆形-copy-4" fill="#EAF0FF" cx="382.5" cy="11.5" r="5.5"></circle>
                        <path d="M376.252035,15 C376.087506,14.3607602 376,13.6905991 376,13 C376,8.581722 379.581722,5 384,5 C388.418278,5 392,8.581722 392,13 C392,17.418278 388.418278,21 384,21 L384,19 C387.313708,19 390,16.3137085 390,13 C390,9.6862915 387.313708,7 384,7 C380.686292,7 378,9.6862915 378,13 C378,13.7012708 378.120308,14.3744421 378.341411,15 L376.252035,15 Z" id="合并形状" fill="#336EFF"></path>
                        <circle id="椭圆形-copy-7" fill="#EAF0FF" cx="9" cy="13" r="7"></circle>
                        <path d="M22,11 L20,11 C20,6.02943725 15.9705627,2 11,2 C6.02943725,2 2,6.02943725 2,11 C2,15.9705627 6.02943725,20 11,20 C12.9471244,20 14.74983,19.3816695 16.2224707,18.3306545 L17.5276872,19.8546614 C15.7017798,21.202971 13.4439679,22 11,22 C4.92486775,22 0,17.0751322 0,11 C0,4.92486775 4.92486775,0 11,0 C17.0751322,0 22,4.92486775 22,11 Z" id="合并形状" fill="#336EFF"></path>
                        <circle id="椭圆形-copy-9" fill="#EAF0FF" cx="342" cy="133" r="5"></circle>
                        <path d="M336.581517,137 C336.206507,136.073569 336,135.0609 336,134 C336,129.581722 339.581722,126 344,126 C348.418278,126 352,129.581722 352,134 C352,138.418278 348.418278,142 344,142 L344,140 C347.313708,140 350,137.313708 350,134 C350,130.686292 347.313708,128 344,128 C340.686292,128 338,130.686292 338,134 C338,135.092861 338.292183,136.11748 338.802693,137 L336.581517,137 Z" id="合并形状" fill="#336EFF"></path>
                    </g>
                    <g id="分组-5" transform="translate(110.000000, 2.000000)">
                        <circle id="椭圆形" fill="#336EFF" cx="96.5" cy="22.5" r="2.5"></circle>
                        <circle id="椭圆形" fill="#336EFF" cx="208.5" cy="63.5" r="2.5"></circle>
                        <circle id="椭圆形" fill="#336EFF" cx="152.5" cy="137.5" r="3.5"></circle>
                        <circle id="椭圆形" stroke="#336EFF" stroke-width="2" cx="195.5" cy="50.5" r="5.5"></circle>
                        <circle id="椭圆形" fill="#336EFF" cx="274" cy="172" r="4"></circle>
                        <circle id="椭圆形-copy-20" stroke="#336EFF" stroke-width="2" cx="4" cy="4" r="4"></circle>
                        <path d="M137,68 C129.820298,68 124,62.1797017 124,55 C124,47.8202983 129.820298,42 137,42 C144.179702,42 150,47.8202983 150,55 C150,62.1797017 144.179702,68 137,68 Z M137,66 C143.075132,66 148,61.0751322 148,55 C148,48.9248678 143.075132,44 137,44 C130.924868,44 126,48.9248678 126,55 C126,61.0751322 130.924868,66 137,66 Z" id="合并形状" fill="#336EFF"></path>
                        <path d="M141.997424,75.4017375 C140.395756,75.7927161 138.722085,76 137,76 C130.309355,76 124.349505,72.8710942 120.503872,67.9967053 L122.001615,66.6653953 C125.478301,71.1290207 130.903874,74 137,74 C138.57477,74 140.104793,73.8084173 141.568034,73.4472879 L141.997424,75.4017375 Z M146.96593,73.4892028 L146.182963,71.6374953 C152.036455,68.3997984 156,62.162767 156,55 C156,52.9170744 155.664826,50.9124328 155.045472,49.0370673 L156.984045,48.5288392 C157.643622,50.5672044 158,52.7419839 158,55 C158,62.9914293 153.536193,69.9402806 146.96593,73.4892028 Z" id="合并形状" fill="#336EFF"></path>
                        <path d="M166.5,96 C162.910149,96 160,93.0898509 160,89.5 C160,85.9101491 162.910149,83 166.5,83 C170.089851,83 173,85.9101491 173,89.5 C173,93.0898509 170.089851,96 166.5,96 Z M166.5,94 C168.985281,94 171,91.9852814 171,89.5 C171,87.0147186 168.985281,85 166.5,85 C164.014719,85 162,87.0147186 162,89.5 C162,91.9852814 164.014719,94 166.5,94 Z" id="合并形状" fill="#336EFF"></path>
                        <path d="M179.990912,89 L177.989326,89 C177.863389,86.0561193 176.630708,83.3989022 174.696794,81.4338597 L176.221865,80.1332644 C178.453638,82.4491161 179.865679,85.5603864 179.990912,89 Z M179.768972,92 C178.832868,96.9994075 175.141099,101.027981 170.330553,102.448832 L169.879895,100.495299 C173.801683,99.2912043 176.830467,96.0465203 177.727495,92 L179.768972,92 Z" id="合并形状" fill="#336EFF"></path>
                        <path d="M125,106 C120.029437,106 116,101.970563 116,97 C116,92.0294373 120.029437,88 125,88 C129.970563,88 134,92.0294373 134,97 C134,101.970563 129.970563,106 125,106 Z M125,104 C128.865993,104 132,100.865993 132,97 C132,93.1340068 128.865993,90 125,90 C121.134007,90 118,93.1340068 118,97 C118,100.865993 121.134007,104 125,104 Z" id="合并形状" fill="#336EFF"></path>
                        <path d="M110.432837,105.768357 L112.062257,104.595175 C114.669101,109.026147 119.48726,112 125,112 C128.761858,112 132.200277,110.615193 134.833294,108.327541 L136.153561,109.829915 C133.168293,112.427337 129.267804,114 125,114 C118.819022,114 113.408494,110.701312 110.432837,105.768357 Z" id="合并形状" fill="#336EFF"></path>
                        <path d="M207.5,114 C204.462434,114 202,111.537566 202,108.5 C202,105.462434 204.462434,103 207.5,103 C210.537566,103 213,105.462434 213,108.5 C213,111.537566 210.537566,114 207.5,114 Z M207.5,112 C209.432997,112 211,110.432997 211,108.5 C211,106.567003 209.432997,105 207.5,105 C205.567003,105 204,106.567003 204,108.5 C204,110.432997 205.567003,112 207.5,112 Z" id="合并形状" fill="#336EFF"></path>
                        <path d="M196.206318,113.864304 L198.044232,113.070439 C199.74363,116.579846 203.339186,119 207.5,119 C208.468262,119 209.405912,118.868939 210.29618,118.623591 L210.900244,120.53197 C209.81916,120.836875 208.67863,121 207.5,121 C202.516398,121 198.213966,118.083564 196.206318,113.864304 Z" id="合并形状" fill="#336EFF"></path>
                    </g>
                </g>
                <path d="M28.9275,101 L5.5,101 C2.46243388,101 3.27221653e-13,98.5375661 3.26849658e-13,95.5 L3.26849658e-13,94.5 C3.26477664e-13,91.4624339 2.46243388,89 5.5,89 L28.9275,89 L28.9275,84 L22.5,84 C19.4624339,84 17,81.5375661 17,78.5 L17,77.5 C17,74.4624339 19.4624339,72 22.5,72 L28.9275,72 L28.9275,68.355 L89.1025,68.355 L89.1025,86.625 L50.9675,86.625 L50.9675,109.245 L83.7375,109.245 L83.7375,127.515 L50.9675,127.515 L50.9675,151.73 L90.8425,151.73 L90.8425,170 L28.9275,170 L28.9275,101 Z" id="合并形状" stroke="#336EFF" stroke-width="2" fill="#FFFFFF"></path>
                <rect id="矩形-copy" fill="#336EFF" fill-rule="nonzero" opacity="0.102539062" x="79" y="71" width="9" height="13" rx="4.5"></rect>
                <g id="分组" transform="translate(101.000000, 68.000000)">
                    <path d="M0.8025,0.355 L33.8625,0.355 C56.3375,0.355 69.0975,8.91 69.0975,30.225 C69.0975,47.915 59.5275,56.18 47.6375,58.5 L47.6375,59.08 C53.0025,61.69 56.3375,65.46 61.1225,74.015 L76.6375,102 L50.2475,102 L33.4275,68.94 C31.5425,65.315 28.7875,64.155 24.1475,64.155 L22.6975,64.155 L22.6975,102 L0.8025,102 L0.8025,0.355 Z M22.6975,18.625 L22.6975,46.61 L31.1075,46.61 C42.8525,46.61 46.6225,41.535 46.6225,32.11 C46.6225,22.83 41.1125,18.625 31.3975,18.625 L22.6975,18.625 Z" id="R" stroke="#336EFF" stroke-width="2" fill="#FFFFFF"></path>
                    <path d="M42.9901955,6 C49.0933521,6.07335267 54.3616301,8.24963242 58.7950294,12.5288392 C65.4451285,18.9476495 64.3957025,23.1154185 64.858464,30" id="路径-2" stroke="#EAF0FF" stroke-width="8" stroke-linecap="round" fill-rule="nonzero"></path>
                    <path d="M0.8025,0.355 L33.8625,0.355 C56.3375,0.355 69.0975,8.91 69.0975,30.225 C69.0975,47.915 59.5275,56.18 47.6375,58.5 L47.6375,59.08 C53.0025,61.69 56.3375,65.46 61.1225,74.015 L76.6375,102 L50.2475,102 L33.4275,68.94 C31.5425,65.315 28.7875,64.155 24.1475,64.155 L22.6975,64.155 L22.6975,102 L0.8025,102 L0.8025,0.355 Z M22.6975,18.625 L22.6975,46.61 L31.1075,46.61 C42.8525,46.61 46.6225,41.535 46.6225,32.11 C46.6225,22.83 41.1125,18.625 31.3975,18.625 L22.6975,18.625 Z" id="R-Copy-3" stroke="#336EFF" stroke-width="2"></path>
                </g>
                <g id="分组-2" transform="translate(185.000000, 68.000000)">
                    <path d="M0.8025,0.355 L33.8625,0.355 C56.3375,0.355 69.0975,8.91 69.0975,30.225 C69.0975,47.915 59.5275,56.18 47.6375,58.5 L47.6375,59.08 C53.0025,61.69 56.3375,65.46 61.1225,74.015 L76.6375,102 L50.2475,102 L33.4275,68.94 C31.5425,65.315 28.7875,64.155 24.1475,64.155 L22.6975,64.155 L22.6975,102 L0.8025,102 L0.8025,0.355 Z M22.6975,18.625 L22.6975,46.61 L31.1075,46.61 C42.8525,46.61 46.6225,41.535 46.6225,32.11 C46.6225,22.83 41.1125,18.625 31.3975,18.625 L22.6975,18.625 Z" id="R-Copy" stroke="#336EFF" stroke-width="2" fill="#FFFFFF"></path>
                    <path d="M42.9901955,6 C49.0933521,6.07335267 54.3616301,8.24963242 58.7950294,12.5288392 C65.4451285,18.9476495 64.3957025,23.1154185 64.858464,30" id="路径-2-copy" stroke="#EAF0FF" stroke-width="8" stroke-linecap="round" fill-rule="nonzero"></path>
                    <path d="M0.8025,0.355 L33.8625,0.355 C56.3375,0.355 69.0975,8.91 69.0975,30.225 C69.0975,47.915 59.5275,56.18 47.6375,58.5 L47.6375,59.08 C53.0025,61.69 56.3375,65.46 61.1225,74.015 L76.6375,102 L50.2475,102 L33.4275,68.94 C31.5425,65.315 28.7875,64.155 24.1475,64.155 L22.6975,64.155 L22.6975,102 L0.8025,102 L0.8025,0.355 Z M22.6975,18.625 L22.6975,46.61 L31.1075,46.61 C42.8525,46.61 46.6225,41.535 46.6225,32.11 C46.6225,22.83 41.1125,18.625 31.3975,18.625 L22.6975,18.625 Z" id="R-Copy-4" stroke="#336EFF" stroke-width="2"></path>
                </g>
                <g id="分组-7" transform="translate(442.000000, 68.000000)">
                    <path d="M53.325809,63.0027061 C53.3836521,63.0009065 53.4417202,63 53.5,63 L81.5,63 C84.5375661,63 87,65.4624339 87,68.5 L87,69.5 C87,72.5375661 84.5375661,75 81.5,75 L61.6685881,75 L66.1038212,83 L77.5,83 C80.5375661,83 83,85.4624339 83,88.5 L83,89.5 C83,92.5375661 80.5375661,95 77.5,95 L72.756671,95 L76.6375,102 L50.2475,102 L33.4275,68.94 C31.5425,65.315 28.7875,64.155 24.1475,64.155 L22.6975,64.155 L22.6975,102 L0.8025,102 L0.8025,0.355 L33.8625,0.355 C56.3375,0.355 69.0975,8.91 69.0975,30.225 C69.0975,47.915 59.5275,56.18 47.6375,58.5 L47.6375,59.08 C49.7843277,60.1244026 51.6061047,61.3545485 53.325809,63.0027061 Z M22.6975,18.625 L22.6975,46.61 L31.1075,46.61 C42.8525,46.61 46.6225,41.535 46.6225,32.11 C46.6225,22.83 41.1125,18.625 31.3975,18.625 L22.6975,18.625 Z" id="合并形状" stroke="#336EFF" stroke-width="2" fill="#FFFFFF"></path>
                    <path d="M42.9901955,6 C49.0933521,6.07335267 54.3616301,8.24963242 58.7950294,12.5288392 C65.4451285,18.9476495 64.3957025,23.1154185 64.858464,30" id="路径-2-copy-2" stroke="#EAF0FF" stroke-width="8" stroke-linecap="round" fill-rule="nonzero"></path>
                    <path d="M53.325809,63.0027061 C53.3836521,63.0009065 53.4417202,63 53.5,63 L81.5,63 C84.5375661,63 87,65.4624339 87,68.5 L87,69.5 C87,72.5375661 84.5375661,75 81.5,75 L61.6685881,75 L66.1038212,83 L77.5,83 C80.5375661,83 83,85.4624339 83,88.5 L83,89.5 C83,92.5375661 80.5375661,95 77.5,95 L72.756671,95 L76.6375,102 L50.2475,102 L33.4275,68.94 C31.5425,65.315 28.7875,64.155 24.1475,64.155 L22.6975,64.155 L22.6975,102 L0.8025,102 L0.8025,0.355 L33.8625,0.355 C56.3375,0.355 69.0975,8.91 69.0975,30.225 C69.0975,47.915 59.5275,56.18 47.6375,58.5 L47.6375,59.08 C49.7843277,60.1244026 51.6061047,61.3545485 53.325809,63.0027061 Z M22.6975,18.625 L22.6975,46.61 L31.1075,46.61 C42.8525,46.61 46.6225,41.535 46.6225,32.11 C46.6225,22.83 41.1125,18.625 31.3975,18.625 L22.6975,18.625 Z" id="合并形状-copy" stroke="#336EFF" stroke-width="2"></path>
                </g>
                <g id="分组-8" transform="translate(206.000000, 218.000000)" fill-rule="nonzero">
                    <circle id="椭圆形-copy-19" fill="#EAF0FF" opacity="0.592680432" cx="5" cy="5" r="4"></circle>
                    <path d="M5,11.9170416 L5,9.87398251 C5.31961992,9.956247 5.65470043,10 6,10 C8.209139,10 10,8.209139 10,6 C10,3.790861 8.209139,2 6,2 C3.790861,2 2,3.790861 2,6 C2,6.72857429 2.19478857,7.41165327 2.53512878,8 L0.341411415,8 C0.120308442,7.37444215 0,6.70127085 0,6 C0,2.6862915 2.6862915,0 6,0 C9.3137085,0 12,2.6862915 12,6 C12,9.3137085 9.3137085,12 6,12 C5.65928779,12 5.32520847,11.9716012 5,11.9170416 Z" id="合并形状" fill="#336EFF"></path>
                </g>
                <g id="分组-10" transform="translate(15.000000, 195.000000)" fill="#336EFF" fill-rule="nonzero">
                    <g id="分组-9" transform="translate(11.000000, 0.000000)">
                        <rect id="矩形" x="0" y="0" width="3" height="7" rx="1.5"></rect>
                        <rect id="矩形-copy-2" x="0" y="17" width="3" height="7" rx="1.5"></rect>
                    </g>
                    <g id="分组-9-copy" transform="translate(12.500000, 12.000000) rotate(-270.000000) translate(-12.500000, -12.000000) translate(11.000000, 0.000000)">
                        <rect id="矩形" x="0" y="0" width="3" height="7" rx="1.5"></rect>
                        <rect id="矩形-copy-2" x="0" y="17" width="3" height="7" rx="1.5"></rect>
                    </g>
                </g>
                <g id="分组-10-copy" transform="translate(276.000000, 0.000000)" fill="#336EFF" fill-rule="nonzero">
                    <g id="分组-9" transform="translate(11.000000, 0.000000)">
                        <rect id="矩形" x="0" y="0" width="3" height="7" rx="1.5"></rect>
                        <rect id="矩形-copy-2" x="0" y="17" width="3" height="7" rx="1.5"></rect>
                    </g>
                    <g id="分组-9-copy" transform="translate(12.500000, 12.000000) rotate(-270.000000) translate(-12.500000, -12.000000) translate(11.000000, 0.000000)">
                        <rect id="矩形" x="0" y="0" width="3" height="7" rx="1.5"></rect>
                        <rect id="矩形-copy-2" x="0" y="17" width="3" height="7" rx="1.5"></rect>
                    </g>
                </g>
            </g>
        </g>
    </g>
</svg>