<?xml version="1.0" encoding="UTF-8"?>
<svg width="80px" height="74px" viewBox="0 0 80 74" version="1.1" xmlns="http://www.w3.org/2000/svg" xmlns:xlink="http://www.w3.org/1999/xlink">
    <!-- Generator: Sketch 57.1 (83088) - https://sketch.com -->
    <title>Combined Shape@2x</title>
    <desc>Created with Sketch.</desc>
    <defs>
        <linearGradient x1="50%" y1="0%" x2="50%" y2="100%" id="linearGradient-1">
            <stop stop-color="#00D4FF" offset="0%"></stop>
            <stop stop-color="#00AAFF" offset="100%"></stop>
        </linearGradient>
    </defs>
    <g id="页面-1" stroke="none" stroke-width="1" fill="none" fill-rule="evenodd">
        <g id="第一屏-终极" transform="translate(-802.000000, -32.000000)" fill="url(#linearGradient-1)">
            <g id="logo" transform="translate(802.000000, 32.000000)">
                <path d="M40,0 C62.09139,0 80,16.993521 80,37.9560914 C80,46.1341473 77.2743319,53.7081189 72.6379914,59.904655 C72.2391054,60.3048631 71.8266211,60.725014 71.4005481,61.1642863 C62.1937969,70.930661 51.3104442,75.1237924 38.7504901,73.7436803 C19.9105588,71.6735123 10.8990401,62.3404675 9.97882163,44.8483282 C9.05860319,27.356189 28.6360476,17.7025206 38.7504901,22.0452487 C42.8427601,24.1403272 45.3050484,25.9106406 46.1373552,27.356189 C35.3649387,23.8155621 27.6277588,26.4497469 22.9258155,35.2587432 C20.1723544,40.4172975 22.5253797,47.7955701 28.1046131,52.1340705 C32.2336081,55.3448426 40.9088932,56.0797707 46.1373552,55.3448426 C59.712031,53.4367461 65.6628834,34.2916981 59.2596016,21.180262 C50.2924616,2.81903921 22.9777634,9.8584728 13.3908226,21.180262 C3.8038819,32.5020512 3.8038819,36.4577899 3.8038819,53.6688503 L3.81029894,54.144811 C1.36653982,49.2344592 0,43.7467071 0,37.9560914 C0,16.993521 17.90861,0 40,0 Z M46.1746526,30.8510102 C47.4153051,30.8510102 48.4210526,31.8567578 48.4210526,33.0974102 L48.4210526,44.1236033 C48.4210526,45.3642557 47.4153051,46.3700033 46.1746526,46.3700033 L34.7822852,46.3700033 C33.5416327,46.3700033 32.5358852,45.3642557 32.5358852,44.1236033 L32.5358852,33.0974102 C32.5358852,31.8567578 33.5416327,30.8510102 34.7822852,30.8510102 L46.1746526,30.8510102 Z M35.5389834,14.60791 C36.4178838,16.173556 39.4084589,18.2914285 42.4706787,19.1639264 C44.5017842,19.7426357 46.043168,22.0526489 47.0948302,26.0939658 C44.2354843,22.9679687 42.1233811,21.2447354 40.7585207,20.924266 C36.4421006,19.91077 35.5389834,15.2890773 35.5389834,14.60791 Z" id="Combined-Shape"></path>
            </g>
        </g>
    </g>
</svg>