<?xml version="1.0" encoding="utf-8"?>
<!-- Generator: Adobe Illustrator 22.1.0, SVG Export Plug-In . SVG Version: 6.00 Build 0)  -->
<svg version="1.1" id="图层_1" xmlns="http://www.w3.org/2000/svg" xmlns:xlink="http://www.w3.org/1999/xlink" x="0px" y="0px"
	 viewBox="0 0 144 162" style="enable-background:new 0 0 144 162;" xml:space="preserve">
<style type="text/css">
	.st0{fill:#DDDDDD;}
</style>
<g>
	<g>
		<path class="st0" d="M124.1,108h-102c-5,0-9-4-9-9V21c0-5,4-9,9-9h102c5,0,9,4,9,9v78C133.1,104,129.1,108,124.1,108z M22.1,18
			c-1.7,0-3,1.3-3,3v78c0,1.7,1.3,3,3,3h102c1.7,0,3-1.3,3-3V21c0-1.7-1.3-3-3-3C124.1,18,22.1,18,22.1,18z"/>
	</g>
	<g>
		<path class="st0" d="M13.1,33h120v6h-120V33z M31.1,57h12v6h-12V57z M31.1,69h12v6h-12V69z M31.1,81h12v6h-12V81z M55.1,57h60v6
			h-60V57z M55.1,69h60v6h-60V69z M55.1,81h60v6h-60V81z"/>
	</g>
	<g>
		<path class="st0" d="M31.1,25.5c0,1.7,1.3,3,3,3c1.7,0,3-1.3,3-3c0,0,0,0,0,0c0-1.7-1.3-3-3-3C32.5,22.5,31.1,23.8,31.1,25.5
			C31.1,25.5,31.1,25.5,31.1,25.5z"/>
	</g>
	<g>
		<path class="st0" d="M40.1,25.5c0,1.7,1.3,3,3,3s3-1.3,3-3c0-1.7-1.3-3-3-3C41.5,22.5,40.1,23.8,40.1,25.5
			C40.1,25.5,40.1,25.5,40.1,25.5z"/>
	</g>
	<g>
		<path class="st0" d="M49.1,25.5c0,1.7,1.3,3,3,3c1.7,0,3-1.3,3-3s-1.3-3-3-3C50.5,22.5,49.1,23.8,49.1,25.5L49.1,25.5z"/>
	</g>
</g>
<g>
	<path class="st0" d="M39.1,150.2l-0.4,2.5H28.1c-6.5,0-11.1-0.9-13.9-2.8c-0.5-0.4-0.9-0.7-1.2-1c-1.2,1.7-2.6,3.2-4.2,4.4L7,151.1
		c1.7-1.2,3.1-2.7,4.2-4.3c-1.4-2-2.6-4.6-3.4-7.7l2.2-0.8c0.7,2.6,1.6,4.6,2.5,6.2c1.2-2.6,1.9-5.5,2.2-9H8v-2
		c2.1-2.7,4-5.5,5.8-8.6H7.8v-2.4h8.8v2.1c-1.8,3.3-3.6,6.2-5.3,8.6H17v1.5c-0.1,4.8-1.1,8.8-2.8,12.1c0.6,0.6,1.2,1.1,1.8,1.4
		c2.4,1.4,6.2,2.1,11.1,2.1C30.9,150.4,35,150.3,39.1,150.2z M28.6,135.3v2.9h8.4v2.1h-8.4v3h9.5v2.2h-9.5v3.6h-2.5v-3.6h-8.2v-2.2
		h8.2v-3h-7.1v-2.1h7.1v-2.9h-6.3v-2.2h6.3v-2.9H18v-2.2h8.1v-2.8h-6.3v-2.2h6.3v-2.6h2.5v2.6h7.7v5h2.4v2.2h-2.4v5H28.6z
		 M28.6,128.2h5.2v-2.8h-5.2V128.2z M28.6,133.2h5.2v-2.9h-5.2V133.2z"/>
	<path class="st0" d="M50,131.7v16c1.3-1.1,2.7-2.3,4.2-3.7l0.7,2.7c-2.3,2.1-4.7,4-7.2,5.7l-1-2.3c0.5-0.5,0.8-1,0.8-1.6v-14.3h-5
		v-2.5H50z M52.4,126.6l-1.8,1.8c-1.4-1.7-3.3-3.5-5.8-5.4l1.8-1.7C48.9,123.1,50.8,124.8,52.4,126.6z M72.4,135.9v2.4
		c-1.2,3.4-3,6.3-5.7,8.7c2.4,1.7,5.4,3.2,9,4.5l-1.4,2.2c-3.7-1.5-6.9-3.2-9.4-5.1c-2.9,2.2-6.4,3.9-10.7,5.1l-1.4-2.2
		c4-1.2,7.3-2.7,10-4.6c-2.7-2.5-4.6-5.3-5.6-8.5h-2v-2.5H72.4z M70.1,122v7.8c0,0.9,0.5,1.4,1.4,1.4h3.3v2.4h-4
		c-2.2,0-3.3-1.1-3.3-3.2v-5.9h-7v1.3c0,3.8-1.9,6.8-5.5,8.9l-1.7-2c3.1-1.5,4.7-3.7,4.7-6.6v-4H70.1z M64.7,145.4
		c2.3-2,4-4.3,5.2-7H59.7C60.6,141,62.3,143.3,64.7,145.4z"/>
	<path class="st0" d="M96.2,120.4v6.5h12.9v16.9h-2.6v-2.3H96.2v12.3h-2.7v-12.3H83.2v2.3h-2.6v-16.9h12.9v-6.5H96.2z M93.5,139.1
		v-9.6H83.2v9.6H93.5z M106.5,139.1v-9.6H96.2v9.6H106.5z"/>
	<path class="st0" d="M119.2,146.4c0.4,0.4,0.6,0.9,0.6,1.6c0,0.6-0.2,1.1-0.6,1.5c-0.4,0.4-1,0.6-1.5,0.6c-0.6,0-1.2-0.2-1.5-0.6
		c-0.4-0.4-0.6-0.9-0.6-1.5c0-0.6,0.2-1.2,0.6-1.6c0.4-0.4,0.9-0.6,1.5-0.6C118.2,145.7,118.7,145.9,119.2,146.4z"/>
	<path class="st0" d="M128.7,146.4c0.4,0.4,0.6,0.9,0.6,1.6c0,0.6-0.2,1.1-0.6,1.5c-0.4,0.4-1,0.6-1.5,0.6c-0.6,0-1.2-0.2-1.5-0.6
		c-0.4-0.4-0.6-0.9-0.6-1.5c0-0.6,0.2-1.2,0.6-1.6c0.4-0.4,0.9-0.6,1.5-0.6C127.7,145.7,128.2,145.9,128.7,146.4z"/>
	<path class="st0" d="M138.2,146.4c0.4,0.4,0.6,0.9,0.6,1.6c0,0.6-0.2,1.1-0.6,1.5c-0.4,0.4-1,0.6-1.5,0.6c-0.6,0-1.2-0.2-1.5-0.6
		c-0.4-0.4-0.6-0.9-0.6-1.5c0-0.6,0.2-1.2,0.6-1.6c0.4-0.4,0.9-0.6,1.5-0.6C137.2,145.7,137.7,145.9,138.2,146.4z"/>
</g>
</svg>
