<?xml version="1.0" encoding="UTF-8"?>
<svg width="349px" height="239px" viewBox="0 0 349 239" version="1.1" xmlns="http://www.w3.org/2000/svg" xmlns:xlink="http://www.w3.org/1999/xlink">
    <!-- Generator: Sketch 53 (72520) - https://sketchapp.com -->
    <defs>
        <linearGradient x1="50%" y1="0%" x2="50%" y2="100%" id="linearGradient-1">
            <stop stop-color="#668CFB" offset="0%"></stop>
            <stop stop-color="#3A67FC" offset="100%"></stop>
        </linearGradient>
        <linearGradient x1="50%" y1="0%" x2="50%" y2="100%" id="linearGradient-2">
            <stop stop-color="#95BEFF" offset="0%"></stop>
            <stop stop-color="#6599FF" offset="100%"></stop>
        </linearGradient>
        <linearGradient x1="50%" y1="0%" x2="50%" y2="100%" id="linearGradient-3">
            <stop stop-color="#7EA9FE" offset="0%"></stop>
            <stop stop-color="#577FFC" offset="100%"></stop>
        </linearGradient>
        <linearGradient x1="50%" y1="0%" x2="50%" y2="100%" id="linearGradient-4">
            <stop stop-color="#7CA1FF" offset="0%"></stop>
            <stop stop-color="#B0C8FF" offset="100%"></stop>
        </linearGradient>
        <linearGradient x1="50%" y1="0%" x2="50%" y2="100%" id="linearGradient-5">
            <stop stop-color="#F7F7FA" offset="0%"></stop>
            <stop stop-color="#ECECF0" offset="100%"></stop>
        </linearGradient>
        <polygon id="path-6" points="0.00384372752 0.0214657608 21.2408227 0.0214657608 21.2408227 16.8671979 0.00384372752 16.8671979"></polygon>
        <polygon id="path-8" points="0.0045516085 0.0251173611 25.1526437 0.0251173611 25.1526437 19.7365238 0.0045516085 19.7365238"></polygon>
    </defs>
    <g id="Page-1" stroke="none" stroke-width="1" fill="none" fill-rule="evenodd" fill-opacity="0.9">
        <g id="头部框架-展开-浅色-copy-2" transform="translate(-830.000000, -392.000000)">
            <g id="分组-2" transform="translate(830.000000, 392.000000)">
                <g id="分组-6-copy">
                    <path d="M53.2550888,66.4887218 C32.1664756,92.9539073 17.4188462,103.327068 29.3642604,157.236842 C41.3096746,211.146617 69.0409215,229.116541 102.035197,220.131579 C135.029474,211.146617 212.29455,232.261278 229.418162,237.652256 C246.541774,243.043233 323.389201,231.9121 333.830428,168.018797 C344.271655,104.125494 300.418503,63.343985 279.953699,58.8515038 C259.488895,54.3590226 187.653256,33.6488971 155.911927,34.1428571 C124.170598,34.6368172 74.343702,40.0235363 53.2550888,66.4887218 Z" id="路径-3" fill="#F3F3FD"></path>
                    <path d="M1.29669606,144.028947 C-4.98706104,82.7979002 47.2229381,21.5639098 94.2963011,4.4924812 C141.369664,-12.5789474 172.92288,34.1428571 223.632832,34.1428571 C274.342784,34.1428571 306.790602,21.1351546 332.241236,50.2596335 C357.691871,79.3841123 354.024928,181.945489 321.768308,199.915414 C312.946536,204.829958 284.199945,216.721936 249.911505,212.17554 C221.327484,208.385507 189.751209,188.804037 154.620369,185.090226 C126.930632,182.163041 91.2702092,195.794547 68.1517098,190.031955 C27.1340028,179.807749 3.30012531,163.551037 1.29669606,144.028947 Z" id="路径-2" fill="#E9EBFE" opacity="0.501883371"></path>
                    <path d="M151.113402,133.87594 C145.116838,131.47995 139.120275,131.47995 133.123711,133.87594 C124.128866,137.469925 119.631443,139.716165 122.779639,151.845865 C124.878436,159.932331 129.525773,176.255013 136.721649,200.81391 C139.420103,209.199875 143.018041,212.943609 147.515464,212.045113 C152.012887,211.146617 177.498282,206.654135 223.971649,198.567669 C234.165808,195.273183 240.162371,187.336466 241.96134,174.757519 C243.760309,162.178571 241.661512,148.10213 235.664948,132.528195 C234.465636,130.132206 230.567869,128.484962 223.971649,127.586466 C214.07732,126.238722 179.896907,132.528195 170.902062,135.223684 C164.905498,137.020677 161.157646,138.817669 159.658505,140.614662 C156.960052,140.315163 155.161082,139.716165 154.261598,138.817669 C153.362113,137.919173 152.312715,136.27193 151.113402,133.87594 Z" id="路径-4" fill="url(#linearGradient-1)"></path>
                    <path d="M124.850191,50.8095283 L203.085429,50.8435147 C206.066157,50.8446524 208.482229,53.2607244 208.483368,56.2414516 L208.524906,143.392656 C208.526045,146.374994 206.109306,148.793579 203.126969,148.794719 C203.125594,148.794719 203.12422,148.794719 203.122845,148.794719 L124.887609,148.75661 C121.906881,148.755472 119.490809,146.3394 119.48967,143.358673 L119.448132,56.2074684 C119.446993,53.225131 121.863732,50.8065453 124.846069,50.8054061 C124.847444,50.8054056 124.848818,50.8054056 124.850193,50.8054061 Z" id="矩形" fill="#FFFFFF" opacity="0.851283482" transform="translate(163.986519, 99.800062) rotate(-22.000000) translate(-163.986519, -99.800062) "></path>
                    <path d="M147.515464,212.045113 C152.012887,211.146617 177.498282,206.654135 223.971649,198.567669 C234.165808,195.273183 240.162371,187.336466 241.96134,174.757519 C243.760309,162.178571 241.96134,145.556391 235.664948,132.528195 C233.865979,128.934211 228.918814,127.586466 223.971649,127.586466 C213.945717,127.586466 179.896907,132.528195 170.902062,135.223684 C164.905498,137.020677 162.356959,138.817669 159.658505,140.614662 C156.960052,142.411654 153.362113,146.454887 153.362113,151.396617 C153.362113,156.338346 149.314433,198.567669 148.414948,201.263158 C147.515464,203.958647 146.615979,207.552632 144.367268,208.451128 C142.868127,209.050125 141.5189,209.050125 140.319588,208.451128 C142.118557,211.446115 144.517182,212.64411 147.515464,212.045113 Z" id="路径-4-copy" fill="url(#linearGradient-2)"></path>
                    <path d="M149.314433,90.2988722 C154.411512,86.4053885 157.859536,84.1591479 159.658505,83.5601504 C162.356959,82.6616541 167.753866,82.1375313 170.45232,84.4586466 C173.150773,86.7797619 175.399485,91.6466165 174.5,94.7913534 C173.600515,97.9360902 170.002577,101.979323 169.103093,104.225564 C168.503436,105.723058 168.503436,107.370301 169.103093,109.167293 L163.256443,110.964286 C162.79108,108.867794 162.674739,106.921053 162.907421,105.12406 C163.256443,102.428571 166.404639,98.9708326 167.304124,96.881093 C168.203608,94.7913534 169.552835,89.4003759 164.60567,89.4003759 C161.30756,89.4003759 157.709622,91.1973684 153.811856,94.7913534 L149.314433,90.2988722 Z M169.103093,123.093985 C166.619235,123.093985 164.60567,121.082633 164.60567,118.601504 C164.60567,116.120375 166.619235,114.109023 169.103093,114.109023 C171.586951,114.109023 173.600515,116.120375 173.600515,118.601504 C173.600515,121.082633 171.586951,123.093985 169.103093,123.093985 Z" id="合并形状" fill="url(#linearGradient-3)" opacity="0.845447359"></path>
                    <path d="M164.921469,46.6124027 L181.898952,39.7616321 C184.66306,38.6460869 187.80828,39.9811532 188.925936,42.7444087 L198.49559,66.3976692 C197.333512,66.0792177 196.404111,65.5902256 195.637887,65.5902256 C193.838918,65.5902256 191.590206,66.4887218 187.992268,68.7349624 C184.39433,70.981203 178.997423,70.981203 176.298969,68.7349624 C173.600515,66.4887218 169.103093,50.7650376 168.203608,48.518797 C167.837199,47.6037795 166.743152,46.9683147 164.921469,46.6124027 Z" id="合并形状" fill="url(#linearGradient-4)"></path>
                    <path d="M194.528469,148.665909 L196.537371,159.033835 C197.137027,161.729323 197.736684,163.376566 198.33634,163.975564 C199.235825,164.87406 200.135309,166.221805 206.431701,164.87406 C208.832302,164.360211 211.919354,163.811988 215.692856,163.229391 C215.813718,164.059664 215.876289,164.908811 215.876289,165.772556 C215.876289,175.448959 208.023386,183.293233 198.33634,183.293233 C188.649294,183.293233 180.796392,175.448959 180.796392,165.772556 C180.796392,157.402365 186.672275,150.403051 194.528469,148.665909 Z M198.49766,145.558448 C198.593637,145.557078 198.689779,145.556391 198.786082,145.556391 C207.514695,145.556391 214.923372,151.201501 217.552778,159.036189 C211.210722,160.232614 207.503696,160.830827 206.431701,160.830827 C204.632732,160.830827 202.833763,160.381579 201.484536,159.033835 C200.135309,157.68609 200.088286,155.98855 199.685567,154.092105 C199.440557,152.938325 199.044587,150.093772 198.49766,145.558448 Z" id="合并形状" fill="url(#linearGradient-5)"></path>
                    <g id="ysyx" transform="translate(25.185567, 102.428571)">
                        <g id="分组" transform="translate(0.000000, 12.638125)">
                            <mask id="mask-7" fill="white">
                                <use xlink:href="#path-6"></use>
                            </mask>
                            <g id="Clip-2"></g>
                            <path d="M21.2408227,8.44442707 L21.2408227,16.8671979 L8.49623938,16.8671979 C3.8036887,16.8671979 0,13.0964004 0,8.44442707 C0,3.79270779 3.8036887,0.0214657608 8.49623938,0.0214657608 C13.1885338,0.0214657608 16.9929913,3.79270779 16.9929913,8.44442707 L21.2408227,8.44442707 Z" id="Fill-1" fill="#DDE5FF" mask="url(#mask-7)"></path>
                        </g>
                        <path d="M37.1712795,14.765522 C37.1712795,19.5407647 34.8810585,23.7851426 31.3299027,26.478778 L31.3299027,29.5053233 L22.3029086,29.5053233 C14.0911692,29.5053233 7.43421747,22.9061895 7.43421747,14.765522 C7.43421747,6.62453701 14.0911692,0.0254032672 22.3029086,0.0254032672 C30.5145841,0.0254032672 37.1712795,6.62453701 37.1712795,14.765522 Z" id="Fill-3" fill="#D2DEFF"></path>
                        <path d="M20.710068,17.9240373 C20.710068,24.3202624 25.9404202,29.5053233 32.3924371,29.5053233 C38.84439,29.5053233 44.0747423,24.3202624 44.0747423,17.9240373 C44.0747423,11.5278121 38.84439,6.34275126 32.3924371,6.34275126 C25.9404202,6.34275126 20.710068,11.5278121 20.710068,17.9240373 Z" id="Fill-4" fill="#A5C2FF"></path>
                    </g>
                    <g id="ysyx-copy" transform="translate(261.750000, 105.124060)">
                        <g id="分组" transform="translate(0.000000, 15.274436)">
                            <mask id="mask-9" fill="white">
                                <use xlink:href="#path-8"></use>
                            </mask>
                            <g id="Clip-2"></g>
                            <path d="M25.1526437,9.88093205 L25.1526437,19.7365238 L10.0609513,19.7365238 C4.50419591,19.7365238 0,15.3242655 0,9.88093205 C0,4.43789587 4.50419591,0.0251173611 10.0609513,0.0251173611 C15.6174032,0.0251173611 20.1225094,4.43789587 20.1225094,9.88093205 L25.1526437,9.88093205 Z" id="Fill-1" fill="#DDE5FF" mask="url(#mask-9)"></path>
                        </g>
                        <path d="M44.0747423,17.5208654 C44.0747423,23.1969651 41.3730391,28.2420516 37.1838499,31.4438456 L37.1838499,35.0413534 L26.5349827,35.0413534 C16.8478464,35.0413534 8.99484536,27.1972827 8.99484536,17.5208654 C8.99484536,7.84407072 16.8478464,0 26.5349827,0 C36.2220435,0 44.0747423,7.84407072 44.0747423,17.5208654 Z" id="Fill-3" fill="#D2DEFF"></path>
                        <path d="M24.2860825,21.5639098 C24.2860825,29.0073633 30.5281232,35.0413534 38.228131,35.0413534 C45.9280623,35.0413534 52.1701031,29.0073633 52.1701031,21.5639098 C52.1701031,14.1204563 45.9280623,8.08646617 38.228131,8.08646617 C30.5281232,8.08646617 24.2860825,14.1204563 24.2860825,21.5639098 Z" id="Fill-4" fill="#A5C2FF"></path>
                    </g>
                </g>
            </g>
        </g>
    </g>
</svg>