<?xml version="1.0" encoding="utf-8"?>
<!-- Generator: Adobe Illustrator 22.1.0, SVG Export Plug-In . SVG Version: 6.00 Build 0)  -->
<svg version="1.1" xmlns="http://www.w3.org/2000/svg" xmlns:xlink="http://www.w3.org/1999/xlink" x="0px" y="0px" viewBox="0 0 9 180" style="background:none;">
<path class="tssvgpath" d="M4.2,4.6H1.1L0.6,3.9l0.3-0.3c0.2-0.2,0.3-0.2,0.6-0.2h2.9c0.2,0,0.4,0.1,0.5,0.2l0.2,0.3L4.2,4.6z"/>
<g>
	<path class="tssvgpath" d="M1.5,14L1,16.3l-0.6,0.5l-0.2-0.2c-0.1-0.1-0.1-0.2-0.1-0.3c0-0.1,0-0.1,0-0.1L0.6,14l0.5-0.4L1.5,14z M1.2,16.4h2.2
		l0.4,0.5l-0.3,0.2c-0.1,0.1-0.3,0.2-0.4,0.2h-2c-0.2,0-0.3-0.1-0.4-0.2l-0.2-0.2L1.2,16.4z M2,10.8l-0.4,2.3l-0.5,0.5l-0.4-0.5
		l0.3-2c0.1-0.2,0.1-0.3,0.1-0.4c0-0.1,0.1-0.1,0.2-0.2l0.3-0.3L2,10.8z M4.5,10.6H2.2l-0.4-0.5L2,9.9c0.2-0.2,0.3-0.2,0.4-0.2h2.1
		c0.2,0,0.3,0.1,0.4,0.2l0.2,0.2L4.5,10.6z M3.7,16.3L4,14l0.5-0.4L5,14l-0.3,2c-0.1,0.2-0.1,0.3-0.1,0.4c0,0.1-0.1,0.1-0.2,0.2
		L4,16.7L3.7,16.3z M4.2,13.1l0.4-2.3l0.7-0.5l0.1,0.2c0.1,0.1,0.2,0.2,0.2,0.3c0,0.1,0,0.1,0,0.2l-0.4,2.2l-0.5,0.4L4.2,13.1z"/>
</g>
<g>
	<path class="tssvgpath" d="M2.8,19.6H2.1l-0.4-0.4l0.5-0.5h1.6L2.8,19.6z M1.9,25.9l0.5-2.9L3,22.5l0.4,0.4l-0.5,2.9l-0.5,0.4L1.9,25.9z M2.6,22
		l0.4-2.2L4,18.9L3.5,22l-0.5,0.5L2.6,22z"/>
</g>
<g>
	<path class="tssvgpath" d="M1.5,32.1l-0.4,2.3l-0.6,0.5l-0.2-0.3c-0.1-0.1-0.1-0.2-0.1-0.3c0-0.1,0-0.1,0-0.2l0.3-1.7c0.1-0.2,0.1-0.3,0.2-0.4
		l0.4-0.4L1.5,32.1z M1.2,34.5h2.3L3.9,35l-0.3,0.2c-0.1,0.1-0.2,0.1-0.2,0.2c-0.1,0-0.2,0-0.3,0H1.2c-0.2,0-0.4-0.1-0.5-0.2L0.6,35
		L1.2,34.5z M1.8,31.2h2.3l0.4,0.4L3.9,32H1.6l-0.4-0.4L1.8,31.2z M4.5,28.7H2.2l-0.4-0.5L2.1,28c0.2-0.1,0.3-0.2,0.4-0.2h2.1
		c0.2,0,0.3,0.1,0.4,0.2l0.2,0.2L4.5,28.7z M4.2,31l0.4-2.2l0.7-0.5l0.2,0.2c0.1,0.1,0.1,0.2,0.1,0.3c0,0.1,0,0.1,0,0.2l-0.3,1.7
		c-0.1,0.2-0.1,0.4-0.3,0.5l-0.3,0.3L4.2,31z"/>
</g>
<g>
	<path class="tssvgpath" d="M1,43.4h2.4L3.8,44l-0.3,0.2c-0.2,0.1-0.4,0.2-0.6,0.2H0.7l-0.4-0.4L1,43.4z M1.6,40.1H4l0.4,0.4L3.8,41H1.4L1,40.5
		L1.6,40.1z M4.4,37.7H2l-0.4-0.4l0.5-0.5h2.2c0.1,0,0.2,0,0.3,0.1c0.1,0,0.1,0.1,0.2,0.2L5,37.1L4.4,37.7z M3.5,43.3l0.4-2.2
		l0.5-0.5l0.2,0.2c0.1,0.1,0.2,0.2,0.2,0.3c0,0.1,0,0.1,0,0.2l-0.3,1.8c0,0.1-0.1,0.2-0.1,0.2c-0.1,0.1-0.1,0.1-0.2,0.2L4,43.7
		L3.5,43.3z M4.1,40l0.4-2.2l0.7-0.5l0.1,0.2c0.1,0.1,0.1,0.2,0.1,0.3c0,0.1,0,0.2-0.1,0.3L5,39.7C5,39.8,5,40,4.9,40.1l-0.4,0.3
		L4.1,40z"/>
</g>
<g>
	<path class="tssvgpath" d="M1.8,46.5l-0.5,2.8l-0.5,0.4l-0.2-0.2c-0.1-0.1-0.2-0.2-0.2-0.3c0-0.1,0-0.1,0.1-0.2L1,46.5L1.5,46L1.8,46.5z M1.5,49.3
		h2.2l0.4,0.4l-0.6,0.4H1.7c-0.2,0-0.4-0.1-0.5-0.1L1,49.8L1.5,49.3z M4.6,50.4l-0.5,2.8l-0.5,0.4l-0.4-0.4l0.5-2.8l0.5-0.4
		L4.6,50.4z M5.3,46.5l-0.5,2.8l-0.5,0.4l-0.3-0.4l0.5-2.8L4.9,46L5.3,46.5z"/>
</g>
<g>
	<path class="tssvgpath" d="M1,61.4h2.4l0.4,0.5l-0.3,0.2c-0.1,0.1-0.3,0.2-0.5,0.2H0.9l-0.4-0.4L1,61.4z M2,55.8L1.6,58l-0.5,0.4l-0.2-0.2
		c-0.1-0.1-0.2-0.2-0.2-0.3c0-0.1,0-0.1,0-0.2l0.5-2.8L2,55.8z M1.8,58.1h2c0.1,0,0.2,0,0.3,0.1c0.1,0,0.1,0.1,0.2,0.2l0.2,0.2
		L3.9,59H2c-0.2,0-0.3,0-0.4-0.1c-0.1,0-0.2-0.1-0.2-0.2l-0.2-0.2L1.8,58.1z M4.6,55.6H2.2l-0.8-0.9h3.4l0.4,0.5L4.6,55.6z
		 M3.7,61.3L4,59.1l0.5-0.4l0.2,0.2c0.1,0.1,0.1,0.2,0.1,0.3c0,0.1,0,0.1-0.1,0.3L4.6,61c-0.1,0.2-0.1,0.4-0.2,0.5L4,61.8L3.7,61.3z
		"/>
</g>
<g>
	<path class="tssvgpath" d="M1.7,68.2l-0.4,2.2l-0.6,0.5l-0.2-0.2c-0.1-0.1-0.1-0.2-0.1-0.3c0-0.1,0-0.1,0-0.2l0.3-1.9l0.5-0.5L1.7,68.2z M1.4,70.5
		h2.2L4,71l-0.2,0.2c-0.1,0.1-0.2,0.2-0.3,0.2c-0.1,0-0.2,0.1-0.4,0.1H1.5c-0.2,0-0.3,0-0.4-0.1S1,71.3,0.9,71.2L0.8,71L1.4,70.5z
		 M2.3,64.9l-0.4,2.2l-0.5,0.4L1,67.1l0.3-2c0-0.1,0.1-0.2,0.1-0.3c0.1-0.1,0.1-0.1,0.2-0.2l0.3-0.2L2.3,64.9z M2,67.2h2
		c0.1,0,0.2,0,0.3,0.1c0.1,0,0.1,0.1,0.2,0.2l0.2,0.3l-0.5,0.4H1.8l-0.4-0.4L2,67.2z M4.8,64.8H2.4L2,64.3L2.3,64
		c0.1-0.1,0.2-0.1,0.2-0.2c0.1,0,0.2-0.1,0.3-0.1H5l0.4,0.4L4.8,64.8z M3.8,70.4l0.4-2.2l0.5-0.4L5,68c0.1,0.1,0.1,0.2,0.1,0.3
		c0,0.1,0,0.2-0.1,0.3l-0.3,1.5c0,0.1-0.1,0.2-0.1,0.3c-0.1,0.1-0.1,0.2-0.2,0.2l-0.3,0.2L3.8,70.4z"/>
</g>
<g>
	<g>
		<path class="tssvgpath" d="M3,79.8l0.5-2.9l0.5-0.4l0.4,0.4L4,79.8l-0.5,0.4L3,79.8z"/>
	</g>
	<path class="tssvgpath" d="M5,73.7l-0.4,2.2l-0.5,0.4l-0.3-0.4l0.3-2c0-0.1,0.1-0.2,0.1-0.3c0.1-0.1,0.1-0.1,0.2-0.2l0.3-0.2L5,73.7z"/>
	<path class="tssvgpath" d="M4,73.6H1.2l-0.4-0.5L1,72.9c0.1-0.1,0.2-0.1,0.2-0.2c0.1,0,0.2-0.1,0.3-0.1h2.6l0.4,0.4L4,73.6z"/>
</g>
<g>
	<path class="tssvgpath" d="M1.5,86.1l-0.4,2.3l-0.6,0.5l-0.2-0.3c-0.1-0.1-0.1-0.2-0.1-0.3c0-0.1,0-0.1,0-0.2l0.3-1.7c0.1-0.2,0.1-0.3,0.2-0.4
		l0.4-0.4L1.5,86.1z M1.2,88.4h2.3L3.9,89l-0.3,0.2c-0.1,0.1-0.2,0.1-0.2,0.2c-0.1,0-0.2,0-0.3,0H1.2c-0.2,0-0.4-0.1-0.5-0.2L0.6,89
		L1.2,88.4z M2.1,82.8L1.7,85l-0.5,0.4l-0.2-0.2c-0.1-0.1-0.2-0.2-0.2-0.3c0-0.1,0-0.1,0-0.2L1,83.2c0.1-0.2,0.1-0.3,0.3-0.5
		l0.3-0.3L2.1,82.8z M1.8,85.1h2.3l0.4,0.4L3.9,86H1.6l-0.4-0.4L1.8,85.1z M4.5,82.7H2.2l-0.4-0.5l0.3-0.3c0.1-0.1,0.3-0.2,0.4-0.2
		h2.1c0.2,0,0.3,0.1,0.4,0.2l0.2,0.2L4.5,82.7z M3.7,88.4L4,86.1l0.5-0.4L4.8,86c0.1,0.1,0.1,0.2,0.1,0.3c0,0.1,0,0.1,0,0.2
		l-0.3,1.7c0,0.1-0.1,0.2-0.1,0.3s-0.1,0.1-0.2,0.2L4,88.9L3.7,88.4z M4.2,85l0.4-2.2l0.7-0.5l0.2,0.2c0.1,0.1,0.1,0.2,0.1,0.3
		c0,0.1,0,0.1,0,0.2l-0.3,1.7c-0.1,0.2-0.1,0.4-0.3,0.5l-0.3,0.3L4.2,85z"/>
</g>
<g>
	<path class="tssvgpath" d="M0.9,97.4h2.4l0.4,0.5l-0.3,0.3c-0.1,0.1-0.2,0.1-0.2,0.2c-0.1,0-0.2,0.1-0.3,0.1H0.8l-0.4-0.4L0.9,97.4z M1.9,91.7
		l-0.4,2.2L1,94.4l-0.2-0.3c-0.1-0.1-0.1-0.2-0.1-0.3s0-0.2,0.1-0.3L1,92c0-0.2,0.1-0.3,0.1-0.3c0.1-0.1,0.1-0.2,0.2-0.2l0.3-0.3
		L1.9,91.7z M3.7,95h-2c-0.1,0-0.2,0-0.3-0.1c-0.1,0-0.1-0.1-0.2-0.2l-0.2-0.3L1.7,94h2.2l0.4,0.4L3.7,95z M4.3,91.6H2.1l-0.4-0.5
		l0.2-0.2c0.1-0.1,0.2-0.2,0.3-0.2c0.1,0,0.2-0.1,0.4-0.1h1.7c0.2,0,0.3,0,0.4,0.1c0.1,0,0.1,0.1,0.2,0.2L5,91.1L4.3,91.6z
		 M3.5,97.3l0.4-2.2l0.5-0.4l0.4,0.4l-0.3,2c0,0.1-0.1,0.2-0.1,0.3c-0.1,0.1-0.1,0.1-0.2,0.2l-0.3,0.2L3.5,97.3z M4.1,93.9l0.4-2.2
		L5,91.3l0.2,0.2c0.1,0.1,0.1,0.2,0.1,0.3c0,0.1,0,0.1,0,0.2L5,93.9l-0.6,0.5L4.1,93.9z"/>
</g>
</svg>
